<svg width="112" height="114" viewBox="0 0 112 114" fill="none" xmlns="http://www.w3.org/2000/svg">
<path d="M102.001 64.0008L102.4 64.3023L102.001 64.0008ZM0.622233 109.673C0.441381 109.881 0.46394 110.197 0.672619 110.378L4.07325 113.325C4.28193 113.506 4.5977 113.483 4.77856 113.275C4.95941 113.066 4.93685 112.75 4.72817 112.569L1.70539 109.95L4.32508 106.927C4.50594 106.718 4.48338 106.402 4.2747 106.222C4.06602 106.041 3.75024 106.063 3.56939 106.272L0.622233 109.673ZM71.0001 0.999986C70.8329 1.4712 70.8329 1.47122 70.8332 1.47133C70.8337 1.47147 70.8342 1.47166 70.835 1.47196C70.8367 1.47255 70.8393 1.47347 70.8428 1.47473C70.8498 1.47725 70.8605 1.48111 70.8749 1.4863C70.9036 1.49669 70.9469 1.51243 71.0041 1.53351C71.1185 1.57568 71.2887 1.63919 71.5099 1.72397C71.9523 1.89353 72.5986 2.14811 73.4112 2.48695C75.0366 3.16472 77.326 4.1792 79.9773 5.52433C85.2837 8.21658 92.0217 12.2242 97.7885 17.495C103.558 22.7682 108.318 29.2713 109.744 36.9519C111.166 44.6132 109.287 53.5361 101.602 63.6992L102.4 64.3023C110.215 53.9662 112.211 44.7643 110.727 36.7694C109.247 28.7937 104.319 22.109 98.4632 16.7568C92.6047 11.4022 85.7798 7.34691 80.4297 4.63254C77.7527 3.27436 75.4403 2.24961 73.7961 1.56398C72.9739 1.22113 72.3185 0.962967 71.8678 0.790212C71.6424 0.703831 71.4682 0.638796 71.3499 0.595195C71.2907 0.573394 71.2455 0.556952 71.2149 0.545878C71.1996 0.540342 71.1879 0.536147 71.18 0.533296C71.176 0.531871 71.1729 0.530782 71.1708 0.530028C71.1698 0.529651 71.1689 0.529338 71.1684 0.52915C71.1677 0.528921 71.1673 0.528776 71.0001 0.999986ZM101.602 63.6992C86.1981 84.071 61.0723 95.5312 39.7323 101.896C29.071 105.075 19.3748 106.977 12.3442 108.084C8.82928 108.637 5.98159 108.992 4.01387 109.208C3.03004 109.316 2.26626 109.389 1.74914 109.436C1.49059 109.459 1.2937 109.475 1.16181 109.486C1.09586 109.491 1.04616 109.495 1.01313 109.498C0.996618 109.499 0.984269 109.5 0.976138 109.5C0.972073 109.501 0.969062 109.501 0.967112 109.501C0.966137 109.501 0.965473 109.501 0.964984 109.501C0.964586 109.501 0.964453 109.501 1.00008 110C1.03571 110.499 1.03611 110.499 1.03678 110.499C1.03736 110.499 1.03829 110.499 1.03945 110.498C1.04176 110.498 1.04513 110.498 1.04955 110.498C1.05841 110.497 1.07149 110.496 1.08874 110.495C1.12323 110.492 1.17441 110.488 1.24186 110.483C1.37675 110.472 1.57672 110.455 1.83842 110.432C2.36183 110.385 3.13224 110.311 4.12301 110.202C6.10452 109.984 8.96777 109.628 12.4997 109.072C19.5629 107.96 29.3043 106.049 40.0181 102.854C61.4283 96.4686 86.803 84.9291 102.4 64.3023L101.602 63.6992Z" fill="#07812A"/>
</svg>
