<svg width="84" height="83" viewBox="0 0 84 83" fill="none" xmlns="http://www.w3.org/2000/svg">
<path d="M71.5006 51.4414L80.9585 61.288L39.3696 82.1472C39.3696 82.1472 33.9281 84.868 31.3369 80.5925C20.972 63.7496 71.5006 51.4414 71.5006 51.4414Z" fill="#256382"/>
<path d="M38.2065 69.8299C38.2065 69.8299 30.3033 72.8098 31.7285 78.3809C33.2832 84.2111 39.6316 80.7129 39.6316 80.7129L79.1475 61.2789C79.1475 61.2789 76.945 55.06 80.9614 50.9141L38.2065 69.8299Z" fill="#D9E3E8"/>
<path d="M44.9435 11.5332L82.7752 50.5309L38.0768 69.058L9.444 21.6389L44.9435 11.5332Z" fill="#42ADE2"/>
<path d="M79.0148 55.2012L52.5845 66.6025L78.4966 54.0352L79.0148 55.2012ZM78.6261 58.5698L50.5115 70.878L78.1079 57.4037L78.6261 58.5698ZM78.8853 60.5132L42.997 76.9673L78.367 59.3471L78.8853 60.5132Z" fill="#94989B"/>
<path d="M31.2099 80.4651C26.8048 70.7481 38.0766 69.0638 38.0766 69.0638L9.44375 21.6447C9.44375 21.6447 2.96573 21.5151 2.96573 28.6409C2.96573 31.6208 4.26133 33.8234 4.26133 33.8234L31.2099 80.4651Z" fill="#428BC1"/>
<path d="M11.6461 41.7207L2.18823 51.5673L43.7771 72.4265C43.7771 72.4265 49.2186 75.1473 51.8098 70.8718C62.1747 54.0289 11.6461 41.7207 11.6461 41.7207Z" fill="#547725"/>
<path d="M44.8136 60.1092C44.8136 60.1092 52.7168 63.0891 51.2916 68.6602C49.7369 74.4904 43.518 70.9922 43.518 70.9922L4.00208 51.5582C4.00208 51.5582 6.2046 45.3393 2.18823 41.1934L44.8136 60.1092Z" fill="#D9E3E8"/>
<path d="M38.2067 1.8125L0.375031 40.8102L45.0734 59.3373L73.7062 11.9182L38.2067 1.8125Z" fill="#83BF4F"/>
<path d="M4.52267 44.3145L30.4347 56.8818L4.00443 45.4805L4.52267 44.3145ZM5.04091 47.683L32.5077 61.1573L4.39311 48.8491L5.04091 47.683ZM4.78179 49.6264L40.0222 67.2466L4.13399 50.7925L4.78179 49.6264Z" fill="#94989B"/>
<path d="M51.9381 70.7444C56.3432 61.0274 45.0714 59.3431 45.0714 59.3431L73.7042 11.924C73.7042 11.924 80.1823 11.7944 80.1823 18.9202C80.1823 21.9001 78.8867 24.1027 78.8867 24.1027L51.9381 70.7444Z" fill="#699635"/>
<path d="M73.8343 33.6816L81.7374 41.9735L46.6266 59.4642C46.6266 59.4642 41.9624 61.6667 39.7599 58.1685C31.2089 44.0465 73.8343 33.6816 73.8343 33.6816Z" fill="#962C2C"/>
<path d="M45.7192 49.2406C45.7192 49.2406 38.982 51.7023 40.2776 56.496C41.5732 61.4193 46.8852 58.4394 46.8852 58.4394L80.1822 41.9852C80.1822 41.9852 78.3684 36.8028 81.7369 33.3047L45.7192 49.2406Z" fill="#D9E3E8"/>
<path d="M51.4198 0L83.2917 32.9083L45.5896 48.5851L21.3618 8.55098L51.4198 0Z" fill="#ED4C5C"/>
<path d="M52.3274 7.51172L58.5463 14.3784L35.6141 23.059L30.1726 14.2489L52.3274 7.51172Z" fill="white"/>
<path d="M80.1827 36.9258L57.8983 46.3837L79.6644 35.7598L80.1827 36.9258ZM79.9236 39.7761L56.0845 50.0114L79.4053 38.6101L79.9236 39.7761ZM80.1827 41.3309L49.8656 55.1938L79.5349 40.1648L80.1827 41.3309Z" fill="#94989B"/>
<path d="M39.8884 58.1765C36.2607 50.0142 45.7186 48.5891 45.7186 48.5891L21.3613 8.55491C21.3613 8.55491 15.7902 8.42535 15.7902 14.3851C15.7902 16.8468 16.8266 18.7902 16.8266 18.7902L39.8884 58.1765Z" fill="#C94747"/>
</svg>
