<svg width="206" height="186" viewBox="0 0 206 186" fill="none" xmlns="http://www.w3.org/2000/svg">
<path d="M134.475 21.2695L113.291 21.8296L112.857 29.2585L133.203 32.7624C133.203 32.7624 133.255 25.8154 135.126 21.4345" fill="white"/>
<path d="M134.475 21.2695L113.291 21.8296L112.857 29.2585L133.203 32.7624C133.203 32.7624 133.255 25.8154 135.126 21.4345" stroke="#263238" stroke-miterlimit="10"/>
<path d="M142.259 20.9474C142.349 20.788 142.397 20.6084 142.399 20.4255C142.401 20.2425 142.356 20.0621 142.27 19.9009C142.183 19.7398 142.057 19.6031 141.903 19.5037C141.75 19.4043 141.574 19.3453 141.391 19.3322C139.928 19.0066 134.596 19.3322 133.784 19.3322C132.972 19.3322 130.428 21.9373 130.02 26.7741C129.612 31.611 129.976 34.2161 130.953 34.7024C131.93 35.1886 138.556 34.5417 138.556 34.5417C138.556 34.5417 139.919 28.5543 141.161 25.8016C141.911 24.2948 142.287 22.6301 142.259 20.9474V20.9474Z" fill="white" stroke="#263238" stroke-miterlimit="10"/>
<path d="M123.35 174.456C124.713 164.778 126.285 152.582 126.215 148.248C126.094 140.663 125.877 139.465 125.877 139.465H68.178L67.6006 140.876C66.7562 148.572 66.746 156.337 67.5702 164.035C68.2996 170.427 68.9075 176.653 69.3069 181.129C76.6663 178.854 84.6684 176.31 94.0337 175.012L94.3376 153.654L96.7083 151.856L97.8111 174.564C100.546 174.299 103.395 174.13 106.378 174.13C112.79 174.117 118.378 174.308 123.35 174.456Z" fill="#263238" stroke="#263238" stroke-miterlimit="10"/>
<path d="M82.1682 64.4023H113.911L117.541 142.664C117.541 142.664 112.974 144.262 106.183 144.062C99.3923 143.862 98.1592 141.665 91.8028 143.463C85.4463 145.26 85.0642 146.659 80.4575 145.66L75.8291 144.661L82.1682 64.4023Z" fill="white" stroke="#263238" stroke-miterlimit="10"/>
<path d="M98.303 121.945C97.9947 122.87 97.7472 123.634 97.5996 124.177" stroke="#263238" stroke-miterlimit="10" stroke-linecap="round"/>
<path d="M105.172 103.348C105.172 103.348 101.477 112.952 99.193 119.386" stroke="#263238" stroke-miterlimit="10" stroke-linecap="round"/>
<path d="M96.5912 112.746L95.7706 114.6" stroke="#263238" stroke-miterlimit="10" stroke-linecap="round"/>
<path d="M102.246 100L98.0948 109.361" stroke="#263238" stroke-miterlimit="10" stroke-linecap="round"/>
<path d="M105.162 70.9465L105.557 106.22L105.535 155.895C105.535 155.895 113.785 155.895 118.782 154.592C123.779 153.29 129.98 146.521 129.98 146.521C129.98 146.521 123.219 107.848 122.976 102.507C122.733 97.1669 124.713 68.8494 124.713 68.8494C124.713 68.8494 153.078 35.4432 154.889 32.7687C157.733 28.5614 158.488 25.1617 157.815 23.3816C157.142 21.6014 142.232 20.3076 140.621 20.7765C139.011 21.2454 136.614 32.5993 136.614 32.5993C136.614 32.5993 126.385 40.5275 122.694 42.629C119.003 44.7304 116.754 45.703 112.096 47.6438C109.059 48.9824 106.248 50.784 103.764 52.9843L105.162 70.9465Z" fill="#009CE0" stroke="#263238" stroke-miterlimit="10"/>
<path d="M119.057 62.9883C119.057 64.0043 119.104 64.9464 119.161 65.7671" stroke="#263238" stroke-miterlimit="10"/>
<path d="M119.65 45.543C119.65 45.543 119.077 54.1051 119.047 60.9001" stroke="#263238" stroke-miterlimit="10"/>
<path d="M121.574 44.4102C121.574 44.4102 120.397 52.0171 120.137 55.8987" stroke="#263238" stroke-miterlimit="10"/>
<path d="M136.616 32.6041C136.616 32.6041 142.078 28.323 143.394 28.1016" stroke="#263238" stroke-miterlimit="10"/>
<path d="M90.1014 69.9734L88.5296 113.826L86.1416 157.375C81.7665 156.34 77.4726 154.987 73.2941 153.328C66.942 150.723 63.5032 147.988 63.5032 147.988C63.5032 147.988 66.0302 133.911 67.6888 126.144C69.3474 118.376 71.5183 102.359 71.4792 99.7715C71.4401 97.1837 71.0971 86.0165 70.0334 80.0291C68.9696 74.0417 64.1545 66.4348 64.1415 65.6272C64.1285 64.8196 80.8532 58.1853 83.9012 56.5658C85.6076 55.6268 87.4553 54.9713 89.3719 54.625L90.1882 54.9463L90.1014 69.9734Z" fill="#009CE0" stroke="#263238" stroke-miterlimit="10"/>
<path d="M89.8267 52.6646C89.8267 52.6646 86.7874 54.1191 86.1752 57.0325C85.563 59.9459 83.4832 71.1088 83.3486 72.7283C83.214 74.3478 83.8479 73.7009 85.1201 72.242C86.3923 70.7831 87.8077 68.3604 88.4677 69.0073L91.5895 72.0813H103.564C104.186 71.8485 104.737 71.458 105.162 70.9481C105.796 70.1405 106.899 68.1954 107.559 68.8423C108.219 69.4893 109.899 73.7009 110.368 72.7283C110.837 71.7557 108.549 59.7852 107.841 56.0599C107.133 52.3346 100.79 50.0725 89.8267 52.6646Z" fill="white" stroke="#263238" stroke-miterlimit="10"/>
<path d="M90.2095 56.3846C90.2095 56.3846 89.632 71.1078 90.9736 74.0212C92.3153 76.9346 95.919 79.6656 99.2969 78.5541C102.675 77.4425 105.076 75.4757 105.18 71.9197C105.284 68.3638 104.286 56.2109 104.286 56.2109L90.2095 56.3846Z" fill="white" stroke="#263238" stroke-miterlimit="10"/>
<path d="M105.179 71.9184C105.284 68.3581 104.285 56.2227 104.285 56.2227L90.2088 56.3833C90.2088 56.3833 90.0004 61.6934 90.1263 66.5649C92.4446 66.3412 94.6767 65.5704 96.6391 64.3158C98.6345 62.9998 100.374 61.3314 101.771 59.3922L104.967 73.4554C105.094 72.9524 105.165 72.437 105.179 71.9184Z" fill="#263238" stroke="#263238" stroke-miterlimit="10"/>
<path d="M80.6752 32.6897C80.6752 32.6897 79.4508 30.8965 78.2959 33.5885C77.1409 36.2804 79.4421 40.0231 80.5059 40.9218C81.5696 41.8206 84.4135 43.0146 84.4135 41.6686C84.4135 40.3227 83.2499 34.4872 82.3207 32.3945C81.3916 30.3017 80.6752 32.6897 80.6752 32.6897Z" fill="white" stroke="#263238" stroke-miterlimit="10"/>
<path d="M114.645 33.1384C114.645 33.1384 115.813 31.3409 117.055 34.0372C118.297 36.7334 116.108 40.4674 115.075 41.3662C114.042 42.2649 111.22 43.4633 111.198 42.113C111.176 40.7627 112.131 34.9316 112.995 32.8388C113.859 30.746 114.645 33.1384 114.645 33.1384Z" fill="white" stroke="#263238" stroke-miterlimit="10"/>
<path d="M82.72 38.9751C82.72 38.9751 84.0226 46.9033 84.9952 50.494C85.9677 54.0847 94.1608 62.3168 97.1523 62.4644C100.144 62.612 108.007 57.8273 109.87 52.8907C111.732 47.954 112.21 40.0214 112.205 39.5742C112.201 39.127 113.221 28.3506 110.321 24.4603C107.421 20.57 95.307 21.1692 89.3717 24.3127C83.4364 27.4562 80.2191 32.2409 82.72 38.9751Z" fill="white" stroke="#263238" stroke-miterlimit="10"/>
<path d="M93.0017 45.7914C93.0017 46.7423 92.5936 47.5282 92.0552 47.5282C91.5168 47.5282 91.0696 46.7597 91.0566 45.7914C91.0435 44.8232 91.4647 44.0547 92.0031 44.0547C92.5415 44.0547 92.9843 44.8319 93.0017 45.7914Z" fill="#263238"/>
<path d="M104.519 45.7914C104.519 46.7423 104.111 47.5282 103.577 47.5282C103.043 47.5282 102.591 46.7597 102.574 45.7914C102.557 44.8232 102.982 44.0547 103.521 44.0547C104.059 44.0547 104.506 44.8319 104.519 45.7914Z" fill="#263238"/>
<path d="M93.8091 40.168L88.169 43.0119" stroke="#263238" stroke-width="3" stroke-miterlimit="10" stroke-linecap="round"/>
<path d="M102.488 40.3203L108.076 43.6114" stroke="#263238" stroke-width="3" stroke-miterlimit="10" stroke-linecap="round"/>
<path d="M100.105 51.6172C100.095 51.8716 100.035 52.1215 99.9282 52.3525C99.8212 52.5835 99.6694 52.7909 99.4815 52.9626C99.2936 53.1343 99.0734 53.267 98.8338 53.3528C98.5941 53.4386 98.3398 53.4759 98.0856 53.4625C97.5676 53.4853 97.0611 53.3054 96.6736 52.9608C96.2861 52.6163 96.0481 52.1343 96.0102 51.6172" stroke="#263238" stroke-miterlimit="10" stroke-linecap="round"/>
<path d="M96.6272 57.0799C97.0545 56.8907 97.5167 56.793 97.984 56.793C98.4514 56.793 98.9135 56.8907 99.3408 57.0799" stroke="#263238" stroke-miterlimit="10" stroke-linecap="round"/>
<path d="M88.9857 47.418L91.2738 47.8522" stroke="#263238" stroke-miterlimit="10" stroke-linecap="round"/>
<path d="M107.112 47.418L104.628 48.1778" stroke="#263238" stroke-miterlimit="10" stroke-linecap="round"/>
<path d="M90.6395 9.9403C90.6395 9.9403 82.9154 13.5353 80.4839 20.7168C78.0525 27.8982 81.3176 35.3792 81.7865 37.3243C82.2554 39.2694 82.581 40.3158 82.581 40.3158C82.581 40.3158 84.7867 37.7715 86.4149 36.5732C88.0431 35.3748 91.3212 34.78 93.262 34.3284C95.2028 33.8769 101.907 32.2357 103.682 30.4208C105.458 28.6059 106.036 27.8765 106.036 27.8765C106.036 27.8765 107.503 35.5051 109.483 37.7498C110.663 39.0769 111.508 40.6667 111.949 42.3869C111.949 42.3869 113.252 39.3954 114.255 36.7034C115.258 34.0115 115.961 21.5895 113.182 16.3532C110.404 11.1169 98.6589 6.05435 90.6395 9.9403Z" fill="#263238" stroke="#263238" stroke-miterlimit="10"/>
<path d="M106.035 27.9023C106.035 27.9023 99.9999 34.3326 93.0095 37.3285C86.0192 40.3244 78.6814 48.2482 79.3284 52.2905C79.9753 56.3327 84.9511 57.8263 84.3519 57.8263C83.7527 57.8263 76.402 56.4803 76.4584 50.4929C76.5149 44.5055 82.7411 40.9192 86.0105 39.4213C89.2799 37.9233 103.074 29.8475 106.035 27.9023Z" fill="#263238" stroke="#263238" stroke-miterlimit="10"/>
<path d="M107.452 32.3906C107.452 32.3906 109.51 39.572 110.747 41.9427C111.984 44.3133 114.164 50.0228 112.584 54.0608C111.003 58.0987 109.814 58.6978 109.814 58.6978C109.814 58.6978 115.141 54.9595 115.045 48.8245C114.95 42.6895 108.415 36.5762 107.452 32.3906Z" fill="#263238" stroke="#263238" stroke-miterlimit="10"/>
<path d="M106.382 12.2366C106.527 8.15069 102.66 4.69717 97.7447 4.52295C92.8297 4.34874 88.7278 7.5198 88.583 11.6057C88.4381 15.6916 92.3052 19.1451 97.2203 19.3194C102.135 19.4936 106.237 16.3225 106.382 12.2366Z" fill="#263238" stroke="#263238" stroke-miterlimit="10"/>
<path d="M102.837 5.87538C102.913 3.48104 100.596 1.46489 97.6624 1.37219C94.7288 1.27948 92.2893 3.14533 92.2136 5.53967C92.138 7.93401 94.4548 9.95015 97.3884 10.0429C100.322 10.1356 102.761 8.26972 102.837 5.87538Z" fill="#263238" stroke="#263238" stroke-miterlimit="10"/>
<path d="M53.3695 121.27L53.7559 145.705C53.7559 145.705 51.8238 156.382 52.8051 157.194C53.7863 158.006 57.0731 160.915 57.7331 161.722C58.393 162.53 59.6912 162.856 60.6638 163.025C61.6364 163.194 64.3761 162.378 63.8681 160.924C63.3601 159.469 62.7392 161.245 62.2486 160.759C61.7618 160.202 61.3191 159.608 60.9243 158.983L61.8405 155.422C61.8405 155.422 62.0532 158.818 62.8651 158.983C63.6771 159.148 63.829 158.496 63.8073 157.203C63.7856 155.909 63.46 155.583 63.5815 153.156C63.7031 150.729 62.7132 148.949 62.2008 147.655C61.6885 146.361 60.6855 143.934 60.5119 143.122C60.3382 142.31 65.696 123.058 65.696 123.058C65.696 123.058 62.1748 125.316 53.3695 121.27Z" fill="white" stroke="#263238" stroke-miterlimit="10"/>
<path d="M64.1408 65.6055C64.1408 65.6055 59.508 69.3264 58.7873 74.9925C58.0666 80.6586 57.8712 88.7431 57.2677 91.3352C56.6641 93.9273 54.2284 114.312 54.2284 114.312C54.2284 114.312 56.5295 116.574 58.4834 117.547C60.4372 118.52 64.7964 117.708 65.4303 117.547C66.0924 117.327 66.7369 117.057 67.3581 116.739C67.3581 116.739 70.0196 100.879 70.1412 98.1302C70.2628 95.3818 71.3048 89.8807 71.3048 89.8807C71.3048 89.8807 71.2006 72.0792 64.1408 65.6055Z" fill="#009CE0" stroke="#263238" stroke-miterlimit="10"/>
<path d="M67.181 96.6719C66.825 97.2971 66.5167 97.8485 66.3127 98.2697" stroke="#263238" stroke-miterlimit="10"/>
<path d="M71.3226 89.8789C71.3226 89.8789 69.6162 92.5752 68.1357 95.05" stroke="#263238" stroke-miterlimit="10"/>
<path d="M67.4366 93.4375L64.0543 99.0732" stroke="#263238" stroke-miterlimit="10"/>
<path d="M53.6857 111.074C53.6857 111.074 56.9681 113.988 60.0595 114.96C63.1509 115.933 65.7343 115.768 66.8632 115.446C67.9921 115.125 68.4653 114.635 68.6477 115.928C68.83 117.222 67.7793 121.755 67.7793 123.049C67.7793 124.343 67.3451 124.99 64.74 125.476C62.1349 125.962 56.6425 124.99 55.0056 123.857C53.3687 122.723 52.2138 121.108 52.3527 119.649C52.4917 118.19 53.0865 114.96 53.2211 113.827C53.3557 112.694 53.0518 111.4 53.6857 111.074Z" fill="white" stroke="#263238" stroke-miterlimit="10"/>
<path d="M88.1602 87.3539C88.1212 87.3183 88.0791 87.2863 88.0343 87.2584C86.8881 86.542 81.0135 88.0616 79.5243 88.0616C74.6918 88.0616 72.6946 86.759 72.5035 88.4958C72.3125 90.2325 71.9 92.0127 72.3559 92.8897C72.8118 93.7668 74.3315 92.8897 75.6514 93.1112C76.9713 93.3326 79.6328 94.8479 80.7313 94.8479C81.8298 94.8479 84.639 93.1112 85.3163 93.1112C85.9936 93.1112 87.522 93.7668 87.9562 93.1112C88.6378 92.0387 89.1154 88.27 88.1602 87.3539Z" fill="white" stroke="#263238" stroke-miterlimit="10"/>
<path d="M81.2942 92.5763C81.2972 92.7017 81.2749 92.8263 81.2288 92.9429C81.1827 93.0595 81.1137 93.1656 81.0258 93.2551C80.938 93.3446 80.8331 93.4155 80.7174 93.4637C80.6017 93.5119 80.4774 93.5365 80.3521 93.5359C80.0967 93.5348 79.8519 93.4337 79.6701 93.2544C79.4884 93.075 79.384 92.8316 79.3795 92.5763C79.3772 92.4513 79.3999 92.3272 79.4462 92.2111C79.4926 92.095 79.5617 91.9893 79.6495 91.9004C79.7373 91.8114 79.8419 91.7408 79.9574 91.6929C80.0728 91.6449 80.1967 91.6205 80.3217 91.6211C80.5763 91.6222 80.8204 91.7226 81.0021 91.901C81.1838 92.0795 81.2886 92.3218 81.2942 92.5763Z" stroke="#263238" stroke-miterlimit="10" stroke-linecap="round"/>
<path d="M121.986 87.3539C121.947 87.3183 121.905 87.2863 121.86 87.2584C120.71 86.542 114.84 88.0616 113.35 88.0616C108.518 88.0616 106.521 86.759 106.33 88.4958C106.139 90.2325 105.726 92.0127 106.178 92.8897C106.629 93.7668 108.158 92.8897 109.478 93.1112C110.797 93.3326 113.459 94.8479 114.557 94.8479C115.656 94.8479 118.465 93.1112 119.142 93.1112C119.82 93.1112 121.348 93.7668 121.782 93.1112C122.46 92.0387 122.942 88.27 121.986 87.3539Z" fill="white" stroke="#263238" stroke-miterlimit="10"/>
<path d="M115.297 92.815C115.299 92.94 115.276 93.0642 115.23 93.1803C115.184 93.2963 115.115 93.402 115.027 93.491C114.939 93.58 114.834 93.6505 114.719 93.6985C114.604 93.7464 114.48 93.7708 114.355 93.7702C114.1 93.7692 113.856 93.6687 113.674 93.4903C113.493 93.3119 113.388 93.0696 113.382 92.815C113.379 92.6897 113.401 92.565 113.448 92.4484C113.494 92.3319 113.563 92.2257 113.651 92.1362C113.738 92.0468 113.843 91.9758 113.959 91.9276C114.075 91.8794 114.199 91.8549 114.324 91.8555C114.58 91.8566 114.824 91.9576 115.006 92.137C115.188 92.3163 115.292 92.5597 115.297 92.815V92.815Z" stroke="#263238" stroke-miterlimit="10" stroke-linecap="round"/>
<path d="M65.5772 17.3867H31.8237C31.489 17.3867 31.1576 17.4526 30.8484 17.5807C30.5392 17.7088 30.2582 17.8965 30.0215 18.1332C29.7849 18.3699 29.5971 18.6508 29.4691 18.9601C29.341 19.2693 29.2751 19.6007 29.2751 19.9354V30.7639C29.2751 31.0984 29.341 31.4296 29.4691 31.7386C29.5973 32.0476 29.7851 32.3283 30.0218 32.5646C30.2585 32.8009 30.5395 32.9882 30.8487 33.1158C31.1579 33.2434 31.4892 33.3088 31.8237 33.3083H59.6897L66.8407 38.6053L64.3832 33.3083H65.5772C65.9117 33.3088 66.243 33.2434 66.5522 33.1158C66.8614 32.9882 67.1424 32.8009 67.3791 32.5646C67.6158 32.3283 67.8036 32.0476 67.9318 31.7386C68.0599 31.4296 68.1259 31.0984 68.1259 30.7639V19.9354C68.1259 19.6007 68.0599 19.2693 67.9319 18.9601C67.8038 18.6508 67.616 18.3699 67.3794 18.1332C67.1427 17.8965 66.8617 17.7088 66.5525 17.5807C66.2433 17.4526 65.9119 17.3867 65.5772 17.3867Z" fill="#263238" stroke="#263238" stroke-miterlimit="10"/>
<path d="M65.9925 16.7422H32.239C31.9045 16.7416 31.5732 16.807 31.264 16.9346C30.9548 17.0622 30.6738 17.2495 30.4371 17.4859C30.2004 17.7222 30.0126 18.0029 29.8845 18.3118C29.7563 18.6208 29.6904 18.952 29.6904 19.2865V30.1151C29.6904 30.4496 29.7563 30.7808 29.8845 31.0897C30.0126 31.3987 30.2004 31.6794 30.4371 31.9157C30.6738 32.152 30.9548 32.3393 31.264 32.467C31.5732 32.5946 31.9045 32.66 32.239 32.6594H60.105L66.8392 38.6034L64.7985 32.6594H65.9925C66.6673 32.6594 67.3145 32.3913 67.7916 31.9142C68.2688 31.437 68.5368 30.7899 68.5368 30.1151V19.2865C68.5368 18.9524 68.471 18.6215 68.3432 18.3128C68.2153 18.0041 68.0279 17.7237 67.7916 17.4874C67.5554 17.2511 67.2749 17.0637 66.9662 16.9359C66.6575 16.808 66.3266 16.7422 65.9925 16.7422Z" fill="white" stroke="#263238" stroke-miterlimit="10"/>
<path d="M35.3663 20.8828V28.112H34.5804V20.8828H35.3663Z" fill="#263238"/>
<path d="M36.6171 22.7845H36.2871L36.5433 21.8771H36.2437V20.8828H37.0209V21.8033L36.6171 22.7845Z" fill="#263238"/>
<path d="M40.5077 28.099H39.7348L38.5365 22.3504V28.112H37.8331V20.8828H38.962L40.1473 26.6531L41.2935 20.8828H42.4181V28.112H41.6539V22.2983L40.5077 28.099Z" fill="#263238"/>
<path d="M47.9712 22.6209V22.8163H47.207V22.5775C47.207 21.9262 46.9596 21.5484 46.3821 21.5484C45.8046 21.5484 45.5571 21.9262 45.5571 22.5688C45.5571 24.1883 47.9799 24.3446 47.9799 26.3766C47.9799 27.4707 47.4545 28.1828 46.3517 28.1828C45.2489 28.1828 44.7278 27.4707 44.7278 26.3766V25.9424H45.4833V26.3983C45.4833 27.0452 45.7525 27.4273 46.3517 27.4273C46.9509 27.4273 47.2201 27.0452 47.2201 26.3983C47.2201 24.7875 44.806 24.6312 44.806 22.5992C44.806 21.4833 45.3183 20.793 46.4038 20.793C47.4893 20.793 47.9712 21.5267 47.9712 22.6209Z" fill="#263238"/>
<path d="M48.6215 22.6313C48.6215 21.5285 49.1686 20.8164 50.2714 20.8164C51.3742 20.8164 51.9473 21.5285 51.9473 22.6313V26.3696C51.9473 27.4638 51.4003 28.1845 50.2844 28.1845C49.1686 28.1845 48.6345 27.4638 48.6345 26.3696L48.6215 22.6313ZM49.416 26.4087C49.416 27.0687 49.6939 27.4507 50.2844 27.4507C50.8749 27.4507 51.1528 27.0687 51.1528 26.4087V22.5922C51.1528 21.9409 50.8879 21.5502 50.2844 21.5502C49.6809 21.5502 49.416 21.9409 49.416 22.5922V26.4087Z" fill="#263238"/>
<path d="M54.3097 20.8828C55.4429 20.8828 55.9162 21.4603 55.9162 22.5371V23.1232C55.9162 23.9178 55.6383 24.4258 55.0217 24.6125C55.6817 24.8078 55.9292 25.3419 55.9292 26.1191V27.2436C55.905 27.5404 55.9542 27.8387 56.0725 28.112H55.2562C55.1454 27.8367 55.0993 27.5396 55.1216 27.2436V26.1104C55.1216 25.2941 54.7395 25.038 54.0709 25.038H53.5021V28.125H52.6989V20.8828H54.3097ZM54.1013 24.2912C54.7395 24.2912 55.1216 24.0828 55.1216 23.3012V22.6065C55.1216 21.9596 54.8871 21.6166 54.288 21.6166H53.5021V24.2912H54.1013Z" fill="#263238"/>
<path d="M58.3733 20.8828C59.5109 20.8828 59.9841 21.4603 59.9841 22.5371V23.1232C59.9841 23.9178 59.7062 24.4258 59.0854 24.6125C59.7453 24.8078 59.9928 25.3419 59.9928 26.1191V27.2436C59.97 27.5408 60.0207 27.839 60.1404 28.112H59.3285C59.2157 27.8372 59.1695 27.5396 59.1939 27.2436V26.1104C59.1939 25.2941 58.8118 25.038 58.1388 25.038H57.5918V28.125H56.7842V20.8828H58.3733ZM58.1692 24.2912C58.8075 24.2912 59.1896 24.0828 59.1896 23.3012V22.6065C59.1896 21.9596 58.9508 21.6166 58.3516 21.6166H57.5918V24.2912H58.1692Z" fill="#263238"/>
<path d="M62.0085 25.5199L60.4802 20.8828H61.3181L62.4427 24.4344L63.5759 20.8828H64.3401L62.8031 25.5199V28.125H62.0085V25.5199Z" fill="#263238"/>
</svg>
