<svg width="164" height="43" viewBox="0 0 164 43" fill="none" xmlns="http://www.w3.org/2000/svg">
<path d="M0 4C0 1.79086 1.79086 0 4 0H160C162.209 0 164 1.79086 164 4V39C164 41.2091 162.209 43 160 43H4C1.79086 43 0 41.2091 0 39V4Z" fill="white"/>
<path d="M29.2251 19.2898H27.1001C27.0395 18.9413 26.9278 18.6326 26.7649 18.3636C26.602 18.0909 26.3994 17.8598 26.157 17.6705C25.9145 17.4811 25.638 17.339 25.3274 17.2443C25.0206 17.1458 24.6892 17.0966 24.3331 17.0966C23.7005 17.0966 23.1399 17.2557 22.6513 17.5739C22.1626 17.8883 21.7801 18.3504 21.5036 18.9602C21.227 19.5663 21.0888 20.3068 21.0888 21.1818C21.0888 22.072 21.227 22.822 21.5036 23.4318C21.7839 24.0379 22.1664 24.4962 22.6513 24.8068C23.1399 25.1136 23.6986 25.267 24.3274 25.267C24.6759 25.267 25.0017 25.2216 25.3047 25.1307C25.6115 25.036 25.8861 24.8977 26.1286 24.7159C26.3748 24.5341 26.5812 24.3106 26.7479 24.0455C26.9183 23.7803 27.0357 23.4773 27.1001 23.1364L29.2251 23.1477C29.1456 23.7008 28.9732 24.2197 28.7081 24.7045C28.4467 25.1894 28.1039 25.6174 27.6797 25.9886C27.2554 26.3561 26.7592 26.6439 26.1911 26.8523C25.6229 27.0568 24.9922 27.1591 24.299 27.1591C23.2763 27.1591 22.3634 26.9223 21.5604 26.4489C20.7573 25.9754 20.1248 25.2917 19.6626 24.3977C19.2005 23.5038 18.9695 22.4318 18.9695 21.1818C18.9695 19.928 19.2024 18.8561 19.6683 17.9659C20.1342 17.072 20.7687 16.3883 21.5717 15.9148C22.3748 15.4413 23.2839 15.2045 24.299 15.2045C24.9467 15.2045 25.549 15.2955 26.1058 15.4773C26.6626 15.6591 27.1589 15.9261 27.5945 16.2784C28.0301 16.6269 28.388 17.0549 28.6683 17.5625C28.9524 18.0663 29.138 18.642 29.2251 19.2898ZM33.1214 21.8864V27H31.0646V15.3636H33.076V19.7557H33.1783C33.3828 19.2633 33.6991 18.875 34.1271 18.5909C34.5589 18.303 35.1082 18.1591 35.7749 18.1591C36.3809 18.1591 36.9093 18.286 37.3601 18.5398C37.8108 18.7936 38.1593 19.1648 38.4055 19.6534C38.6555 20.142 38.7805 20.7386 38.7805 21.4432V27H36.7237V21.7614C36.7237 21.1742 36.5722 20.7178 36.2692 20.392C35.9699 20.0625 35.5495 19.8977 35.0078 19.8977C34.6442 19.8977 34.3184 19.9773 34.0305 20.1364C33.7464 20.2917 33.523 20.517 33.3601 20.8125C33.201 21.108 33.1214 21.4659 33.1214 21.8864ZM44.6839 27.1705C43.8317 27.1705 43.093 26.983 42.468 26.608C41.843 26.233 41.3582 25.7083 41.0135 25.0341C40.6726 24.3598 40.5021 23.572 40.5021 22.6705C40.5021 21.7689 40.6726 20.9792 41.0135 20.3011C41.3582 19.6231 41.843 19.0966 42.468 18.7216C43.093 18.3466 43.8317 18.1591 44.6839 18.1591C45.5362 18.1591 46.2749 18.3466 46.8999 18.7216C47.5249 19.0966 48.0078 19.6231 48.3487 20.3011C48.6934 20.9792 48.8658 21.7689 48.8658 22.6705C48.8658 23.572 48.6934 24.3598 48.3487 25.0341C48.0078 25.7083 47.5249 26.233 46.8999 26.608C46.2749 26.983 45.5362 27.1705 44.6839 27.1705ZM44.6953 25.5227C45.1574 25.5227 45.5438 25.3958 45.8544 25.142C46.165 24.8845 46.3961 24.5398 46.5476 24.108C46.7029 23.6761 46.7805 23.1951 46.7805 22.6648C46.7805 22.1307 46.7029 21.6477 46.5476 21.2159C46.3961 20.7803 46.165 20.4337 45.8544 20.1761C45.5438 19.9186 45.1574 19.7898 44.6953 19.7898C44.2218 19.7898 43.8279 19.9186 43.5135 20.1761C43.2029 20.4337 42.9699 20.7803 42.8146 21.2159C42.6631 21.6477 42.5874 22.1307 42.5874 22.6648C42.5874 23.1951 42.6631 23.6761 42.8146 24.108C42.9699 24.5398 43.2029 24.8845 43.5135 25.142C43.8279 25.3958 44.2218 25.5227 44.6953 25.5227ZM54.4183 27.1705C53.5661 27.1705 52.8274 26.983 52.2024 26.608C51.5774 26.233 51.0926 25.7083 50.7479 25.0341C50.407 24.3598 50.2365 23.572 50.2365 22.6705C50.2365 21.7689 50.407 20.9792 50.7479 20.3011C51.0926 19.6231 51.5774 19.0966 52.2024 18.7216C52.8274 18.3466 53.5661 18.1591 54.4183 18.1591C55.2706 18.1591 56.0092 18.3466 56.6342 18.7216C57.2592 19.0966 57.7422 19.6231 58.0831 20.3011C58.4278 20.9792 58.6001 21.7689 58.6001 22.6705C58.6001 23.572 58.4278 24.3598 58.0831 25.0341C57.7422 25.7083 57.2592 26.233 56.6342 26.608C56.0092 26.983 55.2706 27.1705 54.4183 27.1705ZM54.4297 25.5227C54.8918 25.5227 55.2782 25.3958 55.5888 25.142C55.8994 24.8845 56.1304 24.5398 56.282 24.108C56.4373 23.6761 56.5149 23.1951 56.5149 22.6648C56.5149 22.1307 56.4373 21.6477 56.282 21.2159C56.1304 20.7803 55.8994 20.4337 55.5888 20.1761C55.2782 19.9186 54.8918 19.7898 54.4297 19.7898C53.9562 19.7898 53.5623 19.9186 53.2479 20.1761C52.9373 20.4337 52.7043 20.7803 52.549 21.2159C52.3975 21.6477 52.3217 22.1307 52.3217 22.6648C52.3217 23.1951 52.3975 23.6761 52.549 24.108C52.7043 24.5398 52.9373 24.8845 53.2479 25.142C53.5623 25.3958 53.9562 25.5227 54.4297 25.5227ZM67.2436 20.5795L65.3686 20.7841C65.3156 20.5947 65.2228 20.4167 65.0902 20.25C64.9614 20.0833 64.7872 19.9489 64.5675 19.8466C64.3478 19.7443 64.0788 19.6932 63.7607 19.6932C63.3326 19.6932 62.9728 19.786 62.6811 19.9716C62.3932 20.1572 62.2512 20.3977 62.255 20.6932C62.2512 20.947 62.344 21.1534 62.5334 21.3125C62.7266 21.4716 63.0447 21.6023 63.4879 21.7045L64.9766 22.0227C65.8023 22.2008 66.416 22.483 66.8175 22.8693C67.2228 23.2557 67.4273 23.7614 67.4311 24.3864C67.4273 24.9356 67.2663 25.4205 66.9482 25.8409C66.6338 26.2576 66.1963 26.5833 65.6357 26.8182C65.075 27.053 64.4311 27.1705 63.7038 27.1705C62.6357 27.1705 61.7758 26.947 61.1243 26.5C60.4728 26.0492 60.0845 25.4223 59.9595 24.6193L61.9652 24.4261C62.0561 24.8201 62.2493 25.1174 62.5447 25.3182C62.8402 25.5189 63.2247 25.6193 63.6982 25.6193C64.1868 25.6193 64.5788 25.5189 64.8743 25.3182C65.1735 25.1174 65.3232 24.8693 65.3232 24.5739C65.3232 24.3239 65.2266 24.1174 65.0334 23.9545C64.844 23.7917 64.5485 23.6667 64.147 23.5795L62.6584 23.267C61.8213 23.0928 61.2019 22.7992 60.8004 22.3864C60.3989 21.9697 60.2 21.4432 60.2038 20.8068C60.2 20.2689 60.3459 19.803 60.6413 19.4091C60.9406 19.0114 61.3554 18.7045 61.8857 18.4886C62.4197 18.2689 63.0353 18.1591 63.7322 18.1591C64.755 18.1591 65.5599 18.3769 66.147 18.8125C66.7379 19.2481 67.1035 19.8371 67.2436 20.5795ZM72.9908 27.1705C72.1158 27.1705 71.3601 26.9886 70.7237 26.625C70.0911 26.2576 69.6044 25.7386 69.2635 25.0682C68.9226 24.3939 68.7521 23.6004 68.7521 22.6875C68.7521 21.7898 68.9226 21.0019 69.2635 20.3239C69.6082 19.642 70.0893 19.1117 70.7067 18.733C71.3241 18.3504 72.0495 18.1591 72.8828 18.1591C73.4207 18.1591 73.9283 18.2462 74.4055 18.4205C74.8866 18.5909 75.3108 18.8561 75.6783 19.2159C76.0495 19.5758 76.3411 20.0341 76.5533 20.5909C76.7654 21.1439 76.8714 21.803 76.8714 22.5682V23.1989H69.718V21.8125H74.8999C74.8961 21.4186 74.8108 21.0682 74.6442 20.7614C74.4775 20.4508 74.2446 20.2064 73.9453 20.0284C73.6499 19.8504 73.3052 19.7614 72.9112 19.7614C72.4908 19.7614 72.1214 19.8636 71.8033 20.0682C71.4851 20.2689 71.237 20.5341 71.0589 20.8636C70.8847 21.1894 70.7957 21.5473 70.7919 21.9375V23.1477C70.7919 23.6553 70.8847 24.0909 71.0703 24.4545C71.2559 24.8144 71.5154 25.0909 71.8487 25.2841C72.1821 25.4735 72.5722 25.5682 73.0192 25.5682C73.3184 25.5682 73.5893 25.5265 73.8317 25.4432C74.0741 25.3561 74.2843 25.2292 74.4624 25.0625C74.6404 24.8958 74.7749 24.6894 74.8658 24.4432L76.7862 24.6591C76.665 25.1667 76.4339 25.6098 76.093 25.9886C75.7559 26.3636 75.3241 26.6553 74.7976 26.8636C74.2711 27.0682 73.6688 27.1705 72.9908 27.1705ZM85.0916 27.1761C84.5386 27.1761 84.0405 27.0777 83.5973 26.8807C83.1579 26.6799 82.8094 26.3845 82.5518 25.9943C82.2981 25.6042 82.1712 25.1231 82.1712 24.5511C82.1712 24.0587 82.2621 23.6515 82.4439 23.3295C82.6257 23.0076 82.8738 22.75 83.1882 22.5568C83.5026 22.3636 83.8568 22.2178 84.2507 22.1193C84.6484 22.017 85.0594 21.9432 85.4837 21.8977C85.995 21.8447 86.4098 21.7973 86.728 21.7557C87.0462 21.7102 87.2772 21.642 87.4212 21.5511C87.5689 21.4564 87.6428 21.3106 87.6428 21.1136V21.0795C87.6428 20.6515 87.5159 20.3201 87.2621 20.0852C87.0083 19.8504 86.6428 19.733 86.1655 19.733C85.6617 19.733 85.2621 19.8428 84.9666 20.0625C84.675 20.2822 84.478 20.5417 84.3757 20.8409L82.4553 20.5682C82.6068 20.0379 82.8568 19.5947 83.2053 19.2386C83.5537 18.8788 83.9799 18.6098 84.4837 18.4318C84.9875 18.25 85.5443 18.1591 86.1541 18.1591C86.5746 18.1591 86.9931 18.2083 87.4098 18.3068C87.8265 18.4053 88.2071 18.5682 88.5518 18.7955C88.8965 19.0189 89.1731 19.3239 89.3814 19.7102C89.5935 20.0966 89.6996 20.5795 89.6996 21.1591V27H87.7223V25.8011H87.6541C87.5291 26.0436 87.353 26.2708 87.1257 26.483C86.9022 26.6913 86.62 26.8598 86.2791 26.9886C85.942 27.1136 85.5462 27.1761 85.0916 27.1761ZM85.6257 25.6648C86.0386 25.6648 86.3965 25.5833 86.6996 25.4205C87.0026 25.2538 87.2356 25.0341 87.3984 24.7614C87.5651 24.4886 87.6484 24.1913 87.6484 23.8693V22.8409C87.584 22.8939 87.4742 22.9432 87.3189 22.9886C87.1674 23.0341 86.9969 23.0739 86.8075 23.108C86.6181 23.142 86.4306 23.1723 86.245 23.1989C86.0594 23.2254 85.8984 23.2481 85.7621 23.267C85.4553 23.3087 85.1806 23.3769 84.9382 23.4716C84.6958 23.5663 84.5045 23.6989 84.3643 23.8693C84.2242 24.036 84.1541 24.2519 84.1541 24.517C84.1541 24.8958 84.2924 25.1818 84.5689 25.375C84.8454 25.5682 85.1977 25.6648 85.6257 25.6648ZM95.8274 27V15.3636H103.282V17.1307H97.9354V20.2898H102.771V22.0568H97.9354V27H95.8274ZM105.112 27V18.2727H107.168V27H105.112ZM106.146 17.0341C105.82 17.0341 105.54 16.9261 105.305 16.7102C105.07 16.4905 104.952 16.2273 104.952 15.9205C104.952 15.6098 105.07 15.3466 105.305 15.1307C105.54 14.911 105.82 14.8011 106.146 14.8011C106.475 14.8011 106.755 14.911 106.987 15.1307C107.221 15.3466 107.339 15.6098 107.339 15.9205C107.339 16.2273 107.221 16.4905 106.987 16.7102C106.755 16.9261 106.475 17.0341 106.146 17.0341ZM111.34 15.3636V27H109.283V15.3636H111.34ZM117.319 27.1705C116.444 27.1705 115.688 26.9886 115.052 26.625C114.419 26.2576 113.933 25.7386 113.592 25.0682C113.251 24.3939 113.08 23.6004 113.08 22.6875C113.08 21.7898 113.251 21.0019 113.592 20.3239C113.936 19.642 114.417 19.1117 115.035 18.733C115.652 18.3504 116.378 18.1591 117.211 18.1591C117.749 18.1591 118.256 18.2462 118.734 18.4205C119.215 18.5909 119.639 18.8561 120.006 19.2159C120.378 19.5758 120.669 20.0341 120.881 20.5909C121.094 21.1439 121.2 21.803 121.2 22.5682V23.1989H114.046V21.8125H119.228C119.224 21.4186 119.139 21.0682 118.972 20.7614C118.806 20.4508 118.573 20.2064 118.273 20.0284C117.978 19.8504 117.633 19.7614 117.239 19.7614C116.819 19.7614 116.45 19.8636 116.131 20.0682C115.813 20.2689 115.565 20.5341 115.387 20.8636C115.213 21.1894 115.124 21.5473 115.12 21.9375V23.1477C115.12 23.6553 115.213 24.0909 115.398 24.4545C115.584 24.8144 115.844 25.0909 116.177 25.2841C116.51 25.4735 116.9 25.5682 117.347 25.5682C117.647 25.5682 117.917 25.5265 118.16 25.4432C118.402 25.3561 118.612 25.2292 118.79 25.0625C118.969 24.8958 119.103 24.6894 119.194 24.4432L121.114 24.6591C120.993 25.1667 120.762 25.6098 120.421 25.9886C120.084 26.3636 119.652 26.6553 119.126 26.8636C118.599 27.0682 117.997 27.1705 117.319 27.1705Z" fill="#A0ABBB"/>
<g clip-path="url(#clip0_573_1673)">
<path d="M144.293 20.8673L138.167 26.9939C137.416 27.7445 136.398 28.1662 135.337 28.1662C134.275 28.1662 133.257 27.7445 132.507 26.9939C131.756 26.2434 131.334 25.2254 131.334 24.1639C131.334 23.1025 131.756 22.0845 132.507 21.3339L138.633 15.2073C139.134 14.7069 139.812 14.4258 140.52 14.4258C141.228 14.4258 141.906 14.7069 142.407 15.2073C142.907 15.7076 143.188 16.3863 143.188 17.0939C143.188 17.8016 142.907 18.4802 142.407 18.9806L136.273 25.1073C136.023 25.3575 135.684 25.498 135.33 25.498C134.976 25.498 134.637 25.3575 134.387 25.1073C134.137 24.8571 133.996 24.5177 133.996 24.1639C133.996 23.8101 134.137 23.4708 134.387 23.2206L140.047 17.5673" stroke="#B8C0CC" stroke-width="2" stroke-linecap="round" stroke-linejoin="round"/>
</g>
<path d="M4 1H160V-1H4V1ZM163 4V39H165V4H163ZM160 42H4V44H160V42ZM1 39V4H-1V39H1ZM4 42C2.34314 42 1 40.6569 1 39H-1C-1 41.7614 1.23857 44 4 44V42ZM163 39C163 40.6569 161.657 42 160 42V44C162.761 44 165 41.7614 165 39H163ZM160 1C161.657 1 163 2.34314 163 4H165C165 1.23858 162.761 -1 160 -1V1ZM4 -1C1.23858 -1 -1 1.23858 -1 4H1C1 2.34315 2.34315 1 4 1V-1Z" fill="#B8C0CC"/>
<defs>
<clipPath id="clip0_573_1673">
<rect width="16" height="16" fill="white" transform="translate(130 13.5)"/>
</clipPath>
</defs>
</svg>
