<svg width="182" height="43" viewBox="0 0 182 43" fill="none" xmlns="http://www.w3.org/2000/svg">
<path d="M0 4C0 1.79086 1.79086 0 4 0H178C180.209 0 182 1.79086 182 4V39C182 41.2091 180.209 43 178 43H4C1.79086 43 0 41.2091 0 39V4Z" fill="white"/>
<path d="M20.7827 27H18.5327L22.6293 15.3636H25.2315L29.3338 27H27.0838L23.9759 17.75H23.8849L20.7827 27ZM20.8565 22.4375H26.9929V24.1307H20.8565V22.4375ZM34.5866 18.2727V19.8636H29.5696V18.2727H34.5866ZM30.8082 16.1818H32.8651V24.375C32.8651 24.6515 32.9067 24.8636 32.9901 25.0114C33.0772 25.1553 33.1908 25.2538 33.331 25.3068C33.4711 25.3598 33.6264 25.3864 33.7969 25.3864C33.9257 25.3864 34.0431 25.3769 34.1491 25.358C34.259 25.339 34.3423 25.322 34.3991 25.3068L34.7457 26.9148C34.6359 26.9527 34.4787 26.9943 34.2741 27.0398C34.0734 27.0852 33.8272 27.1117 33.5355 27.1193C33.0204 27.1345 32.5563 27.0568 32.1435 26.8864C31.7306 26.7121 31.4029 26.4432 31.1605 26.0795C30.9219 25.7159 30.8045 25.2614 30.8082 24.7159V16.1818ZM36.5852 27V15.3636H41.0398C41.8807 15.3636 42.5795 15.4962 43.1364 15.7614C43.697 16.0227 44.1155 16.3807 44.392 16.8352C44.6723 17.2898 44.8125 17.8049 44.8125 18.3807C44.8125 18.8542 44.7216 19.2595 44.5398 19.5966C44.358 19.9299 44.1136 20.2008 43.8068 20.4091C43.5 20.6174 43.1572 20.767 42.7784 20.858V20.9716C43.1913 20.9943 43.5871 21.1212 43.9659 21.3523C44.3485 21.5795 44.661 21.9015 44.9034 22.3182C45.1458 22.7348 45.267 23.2386 45.267 23.8295C45.267 24.4318 45.1212 24.9735 44.8295 25.4545C44.5379 25.9318 44.0985 26.3087 43.5114 26.5852C42.9242 26.8617 42.1856 27 41.2955 27H36.5852ZM38.6932 25.2386H40.9602C41.7254 25.2386 42.2765 25.0928 42.6136 24.8011C42.9545 24.5057 43.125 24.1269 43.125 23.6648C43.125 23.3201 43.0398 23.0095 42.8693 22.733C42.6989 22.4527 42.4564 22.233 42.142 22.0739C41.8277 21.911 41.4527 21.8295 41.017 21.8295H38.6932V25.2386ZM38.6932 20.3125H40.7784C41.142 20.3125 41.4697 20.2462 41.7614 20.1136C42.053 19.9773 42.2822 19.786 42.4489 19.5398C42.6193 19.2898 42.7045 18.9943 42.7045 18.6534C42.7045 18.2027 42.5455 17.8314 42.2273 17.5398C41.9129 17.2481 41.4451 17.1023 40.8239 17.1023H38.6932V20.3125ZM51.0696 27V15.3636H53.1776V25.233H58.3026V27H51.0696ZM60.1321 27V15.3636H62.2401V25.233H67.3651V27H60.1321ZM78.7017 19.2898H76.5767C76.5161 18.9413 76.4044 18.6326 76.2415 18.3636C76.0786 18.0909 75.8759 17.8598 75.6335 17.6705C75.3911 17.4811 75.1146 17.339 74.804 17.2443C74.4972 17.1458 74.1657 17.0966 73.8097 17.0966C73.1771 17.0966 72.6165 17.2557 72.1278 17.5739C71.6392 17.8883 71.2566 18.3504 70.9801 18.9602C70.7036 19.5663 70.5653 20.3068 70.5653 21.1818C70.5653 22.072 70.7036 22.822 70.9801 23.4318C71.2604 24.0379 71.643 24.4962 72.1278 24.8068C72.6165 25.1136 73.1752 25.267 73.804 25.267C74.1525 25.267 74.4782 25.2216 74.7812 25.1307C75.0881 25.036 75.3627 24.8977 75.6051 24.7159C75.8513 24.5341 76.0578 24.3106 76.2244 24.0455C76.3949 23.7803 76.5123 23.4773 76.5767 23.1364L78.7017 23.1477C78.6222 23.7008 78.4498 24.2197 78.1847 24.7045C77.9233 25.1894 77.5805 25.6174 77.1562 25.9886C76.732 26.3561 76.2358 26.6439 75.6676 26.8523C75.0994 27.0568 74.4688 27.1591 73.7756 27.1591C72.7528 27.1591 71.84 26.9223 71.0369 26.4489C70.2339 25.9754 69.6013 25.2917 69.1392 24.3977C68.6771 23.5038 68.446 22.4318 68.446 21.1818C68.446 19.928 68.679 18.8561 69.1449 17.9659C69.6108 17.072 70.2453 16.3883 71.0483 15.9148C71.8513 15.4413 72.7604 15.2045 73.7756 15.2045C74.4233 15.2045 75.0256 15.2955 75.5824 15.4773C76.1392 15.6591 76.6354 15.9261 77.071 16.2784C77.5066 16.6269 77.8646 17.0549 78.1449 17.5625C78.429 18.0663 78.6146 18.642 78.7017 19.2898ZM84.6009 27V15.3636H86.7088V20.2898H92.1009V15.3636H94.2145V27H92.1009V22.0568H86.7088V27H84.6009ZM96.4162 27V18.2727H98.473V27H96.4162ZM97.4503 17.0341C97.1245 17.0341 96.8442 16.9261 96.6094 16.7102C96.3745 16.4905 96.2571 16.2273 96.2571 15.9205C96.2571 15.6098 96.3745 15.3466 96.6094 15.1307C96.8442 14.911 97.1245 14.8011 97.4503 14.8011C97.7798 14.8011 98.0601 14.911 98.2912 15.1307C98.526 15.3466 98.6435 15.6098 98.6435 15.9205C98.6435 16.2273 98.526 16.4905 98.2912 16.7102C98.0601 16.9261 97.7798 17.0341 97.4503 17.0341ZM107.486 20.5795L105.611 20.7841C105.558 20.5947 105.465 20.4167 105.332 20.25C105.204 20.0833 105.029 19.9489 104.81 19.8466C104.59 19.7443 104.321 19.6932 104.003 19.6932C103.575 19.6932 103.215 19.786 102.923 19.9716C102.635 20.1572 102.493 20.3977 102.497 20.6932C102.493 20.947 102.586 21.1534 102.776 21.3125C102.969 21.4716 103.287 21.6023 103.73 21.7045L105.219 22.0227C106.045 22.2008 106.658 22.483 107.06 22.8693C107.465 23.2557 107.67 23.7614 107.673 24.3864C107.67 24.9356 107.509 25.4205 107.19 25.8409C106.876 26.2576 106.438 26.5833 105.878 26.8182C105.317 27.053 104.673 27.1705 103.946 27.1705C102.878 27.1705 102.018 26.947 101.366 26.5C100.715 26.0492 100.327 25.4223 100.202 24.6193L102.207 24.4261C102.298 24.8201 102.491 25.1174 102.787 25.3182C103.082 25.5189 103.467 25.6193 103.94 25.6193C104.429 25.6193 104.821 25.5189 105.116 25.3182C105.416 25.1174 105.565 24.8693 105.565 24.5739C105.565 24.3239 105.469 24.1174 105.276 23.9545C105.086 23.7917 104.791 23.6667 104.389 23.5795L102.901 23.267C102.063 23.0928 101.444 22.7992 101.043 22.3864C100.641 21.9697 100.442 21.4432 100.446 20.8068C100.442 20.2689 100.588 19.803 100.884 19.4091C101.183 19.0114 101.598 18.7045 102.128 18.4886C102.662 18.2689 103.277 18.1591 103.974 18.1591C104.997 18.1591 105.802 18.3769 106.389 18.8125C106.98 19.2481 107.346 19.8371 107.486 20.5795ZM113.727 18.2727V19.8636H108.71V18.2727H113.727ZM109.949 16.1818H112.006V24.375C112.006 24.6515 112.047 24.8636 112.131 25.0114C112.218 25.1553 112.331 25.2538 112.472 25.3068C112.612 25.3598 112.767 25.3864 112.938 25.3864C113.066 25.3864 113.184 25.3769 113.29 25.358C113.4 25.339 113.483 25.322 113.54 25.3068L113.886 26.9148C113.777 26.9527 113.619 26.9943 113.415 27.0398C113.214 27.0852 112.968 27.1117 112.676 27.1193C112.161 27.1345 111.697 27.0568 111.284 26.8864C110.871 26.7121 110.544 26.4432 110.301 26.0795C110.063 25.7159 109.945 25.2614 109.949 24.7159V16.1818ZM119.161 27.1705C118.308 27.1705 117.57 26.983 116.945 26.608C116.32 26.233 115.835 25.7083 115.49 25.0341C115.149 24.3598 114.979 23.572 114.979 22.6705C114.979 21.7689 115.149 20.9792 115.49 20.3011C115.835 19.6231 116.32 19.0966 116.945 18.7216C117.57 18.3466 118.308 18.1591 119.161 18.1591C120.013 18.1591 120.751 18.3466 121.376 18.7216C122.001 19.0966 122.484 19.6231 122.825 20.3011C123.17 20.9792 123.342 21.7689 123.342 22.6705C123.342 23.572 123.17 24.3598 122.825 25.0341C122.484 25.7083 122.001 26.233 121.376 26.608C120.751 26.983 120.013 27.1705 119.161 27.1705ZM119.172 25.5227C119.634 25.5227 120.02 25.3958 120.331 25.142C120.642 24.8845 120.873 24.5398 121.024 24.108C121.179 23.6761 121.257 23.1951 121.257 22.6648C121.257 22.1307 121.179 21.6477 121.024 21.2159C120.873 20.7803 120.642 20.4337 120.331 20.1761C120.02 19.9186 119.634 19.7898 119.172 19.7898C118.698 19.7898 118.304 19.9186 117.99 20.1761C117.679 20.4337 117.446 20.7803 117.291 21.2159C117.14 21.6477 117.064 22.1307 117.064 22.6648C117.064 23.1951 117.14 23.6761 117.291 24.108C117.446 24.5398 117.679 24.8845 117.99 25.142C118.304 25.3958 118.698 25.5227 119.172 25.5227ZM125.088 27V18.2727H127.082V19.7273H127.173C127.332 19.2235 127.605 18.8352 127.991 18.5625C128.382 18.286 128.827 18.1477 129.327 18.1477C129.44 18.1477 129.567 18.1534 129.707 18.1648C129.851 18.1723 129.971 18.1856 130.065 18.2045V20.0966C129.978 20.0663 129.84 20.0398 129.651 20.017C129.465 19.9905 129.285 19.9773 129.111 19.9773C128.736 19.9773 128.399 20.0587 128.099 20.2216C127.804 20.3807 127.571 20.6023 127.401 20.8864C127.23 21.1705 127.145 21.4981 127.145 21.8693V27H125.088ZM132.976 30.2727C132.696 30.2727 132.436 30.25 132.197 30.2045C131.963 30.1629 131.775 30.1136 131.635 30.0568L132.112 28.4545C132.411 28.5417 132.679 28.5833 132.913 28.5795C133.148 28.5758 133.355 28.5019 133.533 28.358C133.714 28.2178 133.868 27.983 133.993 27.6534L134.169 27.1818L131.004 18.2727H133.186L135.197 24.8636H135.288L137.305 18.2727H139.493L135.999 28.0568C135.836 28.5189 135.62 28.9148 135.351 29.2443C135.082 29.5777 134.752 29.8314 134.362 30.0057C133.976 30.1837 133.514 30.2727 132.976 30.2727Z" fill="#A0ABBB"/>
<g clip-path="url(#clip0_2_22299)">
<path d="M162.293 20.8667L156.167 26.9933C155.416 27.7439 154.398 28.1655 153.337 28.1655C152.275 28.1655 151.257 27.7439 150.507 26.9933C149.756 26.2428 149.334 25.2248 149.334 24.1633C149.334 23.1019 149.756 22.0839 150.507 21.3333L156.633 15.2067C157.134 14.7063 157.812 14.4252 158.52 14.4252C159.228 14.4252 159.906 14.7063 160.407 15.2067C160.907 15.707 161.188 16.3857 161.188 17.0933C161.188 17.801 160.907 18.4796 160.407 18.98L154.273 25.1067C154.023 25.3568 153.684 25.4974 153.33 25.4974C152.976 25.4974 152.637 25.3568 152.387 25.1067C152.136 24.8565 151.996 24.5171 151.996 24.1633C151.996 23.8095 152.136 23.4702 152.387 23.22L158.047 17.5667" stroke="#B8C0CC" stroke-width="2" stroke-linecap="round" stroke-linejoin="round"/>
</g>
<path d="M4 1H178V-1H4V1ZM181 4V39H183V4H181ZM178 42H4V44H178V42ZM1 39V4H-1V39H1ZM4 42C2.34315 42 1 40.6569 1 39H-1C-1 41.7614 1.23858 44 4 44V42ZM181 39C181 40.6569 179.657 42 178 42V44C180.761 44 183 41.7614 183 39H181ZM178 1C179.657 1 181 2.34315 181 4H183C183 1.23858 180.761 -1 178 -1V1ZM4 -1C1.23858 -1 -1 1.23858 -1 4H1C1 2.34315 2.34315 1 4 1V-1Z" fill="#B8C0CC"/>
<defs>
<clipPath id="clip0_2_22299">
<rect width="16" height="16" fill="white" transform="translate(148 13.5)"/>
</clipPath>
</defs>
</svg>
