<svg width="108" height="182" viewBox="0 0 108 182" fill="none" xmlns="http://www.w3.org/2000/svg">
<path d="M83.4748 21.2695L62.2909 21.8296L61.8567 29.2585L82.2026 32.7624C82.2026 32.7624 82.2547 25.8154 84.126 21.4345" fill="white"/>
<path d="M83.4748 21.2695L62.2909 21.8296L61.8567 29.2585L82.2026 32.7624C82.2026 32.7624 82.2547 25.8154 84.126 21.4345" stroke="#263238" stroke-miterlimit="10"/>
<path d="M91.2594 20.9474C91.3492 20.788 91.3971 20.6084 91.3989 20.4255C91.4007 20.2425 91.3562 20.0621 91.2696 19.9009C91.1829 19.7398 91.0569 19.6031 90.9034 19.5037C90.7498 19.4043 90.5735 19.3453 90.391 19.3322C88.9278 19.0066 83.5961 19.3322 82.7841 19.3322C81.9722 19.3322 79.4279 21.9373 79.0197 26.7741C78.6116 31.611 78.9763 34.2161 79.9532 34.7024C80.9302 35.1886 87.5558 34.5417 87.5558 34.5417C87.5558 34.5417 88.9191 28.5543 90.1609 25.8016C90.9105 24.2948 91.2873 22.6301 91.2594 20.9474Z" fill="white" stroke="#263238" stroke-miterlimit="10"/>
<path d="M72.3498 174.456C73.7132 164.778 75.2849 152.582 75.2155 148.248C75.0939 140.663 74.8768 139.465 74.8768 139.465H17.178L16.6006 140.876C15.7562 148.572 15.746 156.337 16.5702 164.035C17.2996 170.427 17.9075 176.653 18.3069 181.129C25.6663 178.854 33.6684 176.31 43.0337 175.012L43.3377 153.654L45.7083 151.856L46.8111 174.564C49.5465 174.299 52.3947 174.13 55.3776 174.13C61.7905 174.117 67.3784 174.308 72.3498 174.456Z" fill="#263238" stroke="#263238" stroke-miterlimit="10"/>
<path d="M31.1682 64.4023H62.9114L66.5412 142.664C66.5412 142.664 61.9736 144.262 55.183 144.062C48.3923 143.862 47.1592 141.665 40.8028 143.463C34.4463 145.26 34.0642 146.659 29.4575 145.66L24.8291 144.661L31.1682 64.4023Z" fill="white" stroke="#263238" stroke-miterlimit="10"/>
<path d="M47.303 121.945C46.9947 122.87 46.7472 123.634 46.5996 124.177" stroke="#263238" stroke-miterlimit="10" stroke-linecap="round"/>
<path d="M54.1717 103.348C54.1717 103.348 50.4768 112.952 48.193 119.386" stroke="#263238" stroke-miterlimit="10" stroke-linecap="round"/>
<path d="M45.5912 112.746L44.7706 114.6" stroke="#263238" stroke-miterlimit="10" stroke-linecap="round"/>
<path d="M51.2456 100L47.0948 109.361" stroke="#263238" stroke-miterlimit="10" stroke-linecap="round"/>
<path d="M54.1616 70.9465L54.5567 106.22L54.535 155.895C54.535 155.895 62.7845 155.895 67.782 154.592C72.7794 153.29 78.9796 146.521 78.9796 146.521C78.9796 146.521 72.2193 107.848 71.9762 102.507C71.7331 97.1669 73.7129 68.8494 73.7129 68.8494C73.7129 68.8494 102.078 35.4432 103.889 32.7687C106.733 28.5614 107.488 25.1617 106.815 23.3816C106.142 21.6014 91.2323 20.3076 89.6215 20.7765C88.0106 21.2454 85.6139 32.5993 85.6139 32.5993C85.6139 32.5993 75.3845 40.5275 71.694 42.629C68.0034 44.7304 65.7543 45.703 61.0955 47.6438C58.0588 48.9824 55.248 50.784 52.7635 52.9843L54.1616 70.9465Z" fill="#009CE0" stroke="#263238" stroke-miterlimit="10"/>
<path d="M68.0566 62.9883C68.0566 64.0043 68.1044 64.9464 68.1608 65.7671" stroke="#263238" stroke-miterlimit="10"/>
<path d="M68.6501 45.543C68.6501 45.543 68.077 54.1051 68.0466 60.9001" stroke="#263238" stroke-miterlimit="10"/>
<path d="M70.574 44.4102C70.574 44.4102 69.3974 52.0171 69.1368 55.8987" stroke="#263238" stroke-miterlimit="10"/>
<path d="M85.616 32.6041C85.616 32.6041 91.078 28.323 92.3936 28.1016" stroke="#263238" stroke-miterlimit="10"/>
<path d="M39.1014 69.9734L37.5296 113.826L35.1416 157.375C30.7665 156.34 26.4726 154.987 22.2941 153.328C15.942 150.723 12.5032 147.988 12.5032 147.988C12.5032 147.988 15.0302 133.911 16.6888 126.144C18.3474 118.376 20.5183 102.359 20.4792 99.7715C20.4401 97.1837 20.0971 86.0165 19.0334 80.0291C17.9696 74.0417 13.1545 66.4348 13.1415 65.6272C13.1285 64.8196 29.8532 58.1853 32.9012 56.5658C34.6076 55.6268 36.4553 54.9713 38.3719 54.625L39.1882 54.9463L39.1014 69.9734Z" fill="#009CE0" stroke="#263238" stroke-miterlimit="10"/>
<path d="M38.8267 52.6646C38.8267 52.6646 35.7874 54.1191 35.1752 57.0325C34.563 59.9459 32.4832 71.1088 32.3486 72.7283C32.214 74.3478 32.8479 73.7009 34.1201 72.242C35.3923 70.7831 36.8077 68.3604 37.4677 69.0073L40.5895 72.0813H52.5643C53.1861 71.8485 53.7367 71.458 54.1621 70.9481C54.796 70.1405 55.8988 68.1954 56.5587 68.8423C57.2187 69.4893 58.899 73.7009 59.3679 72.7283C59.8368 71.7557 57.5487 59.7852 56.841 56.0599C56.1333 52.3346 49.7898 50.0725 38.8267 52.6646Z" fill="white" stroke="#263238" stroke-miterlimit="10"/>
<path d="M39.2095 56.3846C39.2095 56.3846 38.632 71.1078 39.9736 74.0212C41.3153 76.9346 44.919 79.6656 48.2969 78.5541C51.6749 77.4425 54.0759 75.4757 54.1801 71.9197C54.2843 68.3638 53.2857 56.2109 53.2857 56.2109L39.2095 56.3846Z" fill="white" stroke="#263238" stroke-miterlimit="10"/>
<path d="M54.1795 71.9184C54.2837 68.3581 53.2851 56.2227 53.2851 56.2227L39.2088 56.3833C39.2088 56.3833 39.0004 61.6934 39.1263 66.5649C41.4446 66.3412 43.6767 65.5704 45.6391 64.3159C47.6345 62.9998 49.3736 61.3314 50.7711 59.3922L53.9667 73.4554C54.0937 72.9524 54.165 72.437 54.1795 71.9184Z" fill="#263238" stroke="#263238" stroke-miterlimit="10"/>
<path d="M29.6752 32.6897C29.6752 32.6897 28.4508 30.8965 27.2959 33.5885C26.1409 36.2804 28.4421 40.0231 29.5059 40.9218C30.5696 41.8206 33.4135 43.0146 33.4135 41.6686C33.4135 40.3227 32.2499 34.4872 31.3207 32.3945C30.3916 30.3017 29.6752 32.6897 29.6752 32.6897Z" fill="white" stroke="#263238" stroke-miterlimit="10"/>
<path d="M63.6452 33.1384C63.6452 33.1384 64.8132 31.3409 66.055 34.0372C67.2967 36.7334 65.1084 40.4674 64.0751 41.3662C63.0417 42.2649 60.2195 43.4633 60.1978 42.113C60.1761 40.7627 61.1313 34.9316 61.9953 32.8388C62.8594 30.746 63.6452 33.1384 63.6452 33.1384Z" fill="white" stroke="#263238" stroke-miterlimit="10"/>
<path d="M31.72 38.9751C31.72 38.9751 33.0226 46.9033 33.9952 50.494C34.9677 54.0847 43.1608 62.3168 46.1523 62.4644C49.1439 62.612 57.0069 57.8273 58.8696 52.8907C60.7322 47.954 61.2098 40.0214 61.2055 39.5742C61.2011 39.127 62.2215 28.3506 59.3211 24.4603C56.4208 20.57 44.307 21.1692 38.3717 24.3127C32.4364 27.4562 29.2191 32.2409 31.72 38.9751Z" fill="white" stroke="#263238" stroke-miterlimit="10"/>
<path d="M42.0017 45.7914C42.0017 46.7423 41.5936 47.5282 41.0552 47.5282C40.5168 47.5282 40.0696 46.7597 40.0566 45.7914C40.0435 44.8232 40.4647 44.0547 41.0031 44.0547C41.5415 44.0547 41.9843 44.8319 42.0017 45.7914Z" fill="#263238"/>
<path d="M53.5191 45.7914C53.5191 46.7423 53.111 47.5282 52.577 47.5282C52.0429 47.5282 51.5914 46.7597 51.574 45.7914C51.5566 44.8232 51.9821 44.0547 52.5205 44.0547C53.0589 44.0547 53.5061 44.8319 53.5191 45.7914Z" fill="#263238"/>
<path d="M42.8091 40.168L37.169 43.0119" stroke="#263238" stroke-width="3" stroke-miterlimit="10" stroke-linecap="round"/>
<path d="M51.4876 40.3203L57.0756 43.6114" stroke="#263238" stroke-width="3" stroke-miterlimit="10" stroke-linecap="round"/>
<path d="M49.1046 51.6172C49.0951 51.8716 49.0352 52.1215 48.9282 52.3525C48.8212 52.5835 48.6694 52.7909 48.4815 52.9626C48.2936 53.1343 48.0734 53.267 47.8338 53.3528C47.5941 53.4386 47.3398 53.4759 47.0856 53.4625C46.5676 53.4853 46.0611 53.3054 45.6736 52.9608C45.2861 52.6163 45.0481 52.1343 45.0102 51.6172" stroke="#263238" stroke-miterlimit="10" stroke-linecap="round"/>
<path d="M45.6272 57.0799C46.0545 56.8907 46.5167 56.793 46.984 56.793C47.4514 56.793 47.9135 56.8907 48.3408 57.0799" stroke="#263238" stroke-miterlimit="10" stroke-linecap="round"/>
<path d="M37.9857 47.418L40.2738 47.8522" stroke="#263238" stroke-miterlimit="10" stroke-linecap="round"/>
<path d="M56.1117 47.418L53.6281 48.1778" stroke="#263238" stroke-miterlimit="10" stroke-linecap="round"/>
<path d="M39.6395 9.9403C39.6395 9.9403 31.9154 13.5353 29.4839 20.7168C27.0525 27.8982 30.3176 35.3792 30.7865 37.3243C31.2554 39.2694 31.581 40.3158 31.581 40.3158C31.581 40.3158 33.7867 37.7715 35.4149 36.5732C37.0431 35.3748 40.3212 34.78 42.262 34.3284C44.2028 33.8769 50.9066 32.2357 52.6824 30.4208C54.4582 28.6059 55.0357 27.8765 55.0357 27.8765C55.0357 27.8765 56.5032 35.5051 58.4831 37.7498C59.6629 39.0769 60.5085 40.6667 60.9493 42.3869C60.9493 42.3869 62.2518 39.3954 63.2548 36.7034C64.2577 34.0115 64.9611 21.5895 62.1823 16.3532C59.4036 11.1169 47.6589 6.05435 39.6395 9.9403Z" fill="#263238" stroke="#263238" stroke-miterlimit="10"/>
<path d="M55.0351 27.9023C55.0351 27.9023 48.9999 34.3326 42.0095 37.3285C35.0192 40.3244 27.6814 48.2482 28.3284 52.2905C28.9753 56.3327 33.9511 57.8263 33.3519 57.8263C32.7527 57.8263 25.402 56.4803 25.4584 50.4929C25.5149 44.5055 31.7411 40.9192 35.0105 39.4213C38.2799 37.9233 52.0739 29.8475 55.0351 27.9023Z" fill="#263238" stroke="#263238" stroke-miterlimit="10"/>
<path d="M56.4515 32.3906C56.4515 32.3906 58.5096 39.572 59.747 41.9427C60.9844 44.3133 63.164 50.0228 61.5836 54.0608C60.0032 58.0987 58.8135 58.6978 58.8135 58.6978C58.8135 58.6978 64.1409 54.9595 64.0454 48.8245C63.9499 42.6895 57.4154 36.5762 56.4515 32.3906Z" fill="#263238" stroke="#263238" stroke-miterlimit="10"/>
<path d="M55.382 12.2366C55.5269 8.15069 51.6598 4.69717 46.7447 4.52295C41.8297 4.34874 37.7278 7.5198 37.583 11.6057C37.4381 15.6916 41.3052 19.1451 46.2203 19.3194C51.1353 19.4936 55.2372 16.3225 55.382 12.2366Z" fill="#263238" stroke="#263238" stroke-miterlimit="10"/>
<path d="M51.8372 5.87538C51.9128 3.48104 49.596 1.46489 46.6624 1.37219C43.7288 1.27948 41.2893 3.14533 41.2136 5.53967C41.138 7.93401 43.4548 9.95015 46.3884 10.0429C49.322 10.1356 51.7615 8.26972 51.8372 5.87538Z" fill="#263238" stroke="#263238" stroke-miterlimit="10"/>
<path d="M2.36952 121.27L2.75594 145.705C2.75594 145.705 0.823823 156.382 1.80508 157.194C2.78634 158.006 6.07311 160.915 6.73307 161.722C7.39303 162.53 8.69124 162.856 9.66382 163.025C10.6364 163.194 13.3761 162.378 12.8681 160.924C12.3601 159.469 11.7392 161.245 11.2486 160.759C10.7618 160.202 10.3191 159.608 9.92432 158.983L10.8405 155.422C10.8405 155.422 11.0532 158.818 11.8651 158.983C12.6771 159.148 12.829 158.496 12.8073 157.203C12.7856 155.909 12.46 155.583 12.5815 153.156C12.7031 150.729 11.7132 148.949 11.2008 147.655C10.6885 146.361 9.68552 143.934 9.51185 143.122C9.33818 142.31 14.696 123.058 14.696 123.058C14.696 123.058 11.1748 125.316 2.36952 121.27Z" fill="white" stroke="#263238" stroke-miterlimit="10"/>
<path d="M13.1408 65.6055C13.1408 65.6055 8.50804 69.3264 7.7873 74.9925C7.06655 80.6586 6.87117 88.7431 6.26765 91.3352C5.66414 93.9273 3.22836 114.312 3.22836 114.312C3.22836 114.312 5.52954 116.574 7.48337 117.547C9.4372 118.52 13.7964 117.708 14.4303 117.547C15.0924 117.327 15.7369 117.057 16.3581 116.739C16.3581 116.739 19.0196 100.879 19.1412 98.1302C19.2628 95.3818 20.3048 89.8807 20.3048 89.8807C20.3048 89.8807 20.2006 72.0792 13.1408 65.6055Z" fill="#009CE0" stroke="#263238" stroke-miterlimit="10"/>
<path d="M16.181 96.6719C15.825 97.2971 15.5167 97.8485 15.3127 98.2697" stroke="#263238" stroke-miterlimit="10"/>
<path d="M20.3226 89.8789C20.3226 89.8789 18.6162 92.5752 17.1357 95.05" stroke="#263238" stroke-miterlimit="10"/>
<path d="M16.4366 93.4375L13.0543 99.0732" stroke="#263238" stroke-miterlimit="10"/>
<path d="M2.6857 111.074C2.6857 111.074 5.96813 113.988 9.05952 114.96C12.1509 115.933 14.7343 115.768 15.8632 115.446C16.9921 115.125 17.4653 114.635 17.6477 115.928C17.83 117.222 16.7793 121.755 16.7793 123.049C16.7793 124.343 16.3451 124.99 13.74 125.476C11.1349 125.962 5.64249 124.99 4.00562 123.857C2.36874 122.723 1.21381 121.108 1.35275 119.649C1.49169 118.19 2.08652 114.96 2.22112 113.827C2.35572 112.694 2.05179 111.4 2.6857 111.074Z" fill="white" stroke="#263238" stroke-miterlimit="10"/>
<path d="M37.1602 87.3539C37.1212 87.3183 37.0791 87.2863 37.0343 87.2584C35.8881 86.542 30.0135 88.0616 28.5243 88.0616C23.6918 88.0616 21.6946 86.759 21.5035 88.4958C21.3125 90.2325 20.9 92.0127 21.3559 92.8897C21.8118 93.7668 23.3315 92.8897 24.6514 93.1112C25.9713 93.3326 28.6328 94.8479 29.7313 94.8479C30.8298 94.8479 33.639 93.1112 34.3163 93.1112C34.9936 93.1112 36.522 93.7668 36.9562 93.1112C37.6378 92.0387 38.1154 88.27 37.1602 87.3539Z" fill="white" stroke="#263238" stroke-miterlimit="10"/>
<path d="M30.2942 92.5763C30.2972 92.7017 30.2749 92.8263 30.2288 92.9429C30.1827 93.0595 30.1137 93.1656 30.0258 93.2551C29.938 93.3446 29.8331 93.4155 29.7174 93.4637C29.6017 93.5119 29.4774 93.5365 29.3521 93.5359C29.0967 93.5348 28.8519 93.4337 28.6701 93.2544C28.4884 93.075 28.384 92.8316 28.3795 92.5763C28.3772 92.4513 28.3999 92.3272 28.4462 92.2111C28.4926 92.095 28.5617 91.9893 28.6495 91.9004C28.7373 91.8114 28.8419 91.7408 28.9574 91.6929C29.0728 91.6449 29.1967 91.6205 29.3217 91.6211C29.5763 91.6222 29.8204 91.7226 30.0021 91.901C30.1838 92.0795 30.2886 92.3218 30.2942 92.5763Z" stroke="#263238" stroke-miterlimit="10" stroke-linecap="round"/>
<path d="M70.9864 87.3539C70.9474 87.3183 70.9052 87.2863 70.8604 87.2584C69.7098 86.542 63.8397 88.0616 62.3504 88.0616C57.518 88.0616 55.5207 86.759 55.3297 88.4958C55.1386 90.2325 54.7262 92.0127 55.1777 92.8897C55.6293 93.7668 57.1576 92.8897 58.4775 93.1112C59.7974 93.3326 62.459 94.8479 63.5575 94.8479C64.656 94.8479 67.4651 93.1112 68.1425 93.1112C68.8198 93.1112 70.3481 93.7668 70.7823 93.1112C71.4596 92.0387 71.9416 88.27 70.9864 87.3539Z" fill="white" stroke="#263238" stroke-miterlimit="10"/>
<path d="M64.2969 92.815C64.2992 92.94 64.2765 93.0642 64.2301 93.1803C64.1838 93.2963 64.1147 93.402 64.0269 93.491C63.9391 93.58 63.8344 93.6505 63.719 93.6985C63.6036 93.7464 63.4797 93.7708 63.3547 93.7702C63.1001 93.7692 62.8559 93.6687 62.6743 93.4903C62.4926 93.3119 62.3878 93.0696 62.3821 92.815C62.3792 92.6897 62.4015 92.565 62.4476 92.4484C62.4937 92.3319 62.5627 92.2257 62.6505 92.1362C62.7384 92.0468 62.8433 91.9758 62.959 91.9276C63.0747 91.8794 63.1989 91.8549 63.3243 91.8555C63.5797 91.8566 63.8244 91.9576 64.0062 92.137C64.188 92.3163 64.2923 92.5597 64.2969 92.815V92.815Z" stroke="#263238" stroke-miterlimit="10" stroke-linecap="round"/>
</svg>
