<svg xmlns="http://www.w3.org/2000/svg" width="94.51" height="74.019" viewBox="0 0 94.51 74.019">
  <path id="icon-upload" d="M74.707,20.181h.338a20.25,20.25,0,0,1,0,40.5H61.578v-6.75H75.045a13.513,13.513,0,0,0,0-27h-6.17l-.83-5.785a16.75,16.75,0,0,0-31.988-4.34L33.809,21.95l-5.461-1.276a16.388,16.388,0,0,0-15.721,4.448A16.9,16.9,0,0,0,24.534,53.931H41.369v6.75H24.534a23.621,23.621,0,1,1,5.386-46.568,23.484,23.484,0,0,1,44.786,6.068ZM63.482,46.189l-8.869-8.863V74.019H47.9V37.569L39.276,46.2,34.5,41.417,48.99,26.931h4.779L68.254,41.417l-4.772,4.772Z" transform="translate(-0.745)" fill="#126d4d" fill-rule="evenodd"/>
</svg>
