<svg width="536" height="647" viewBox="0 0 536 647" fill="none" xmlns="http://www.w3.org/2000/svg">
<path d="M270.194 269.963C270.194 269.963 329.012 279.675 280.889 198.738C246.133 140.463 250.143 72.4751 280.889 36.8625C331.686 -20.3334 429.27 -1.98756 418.576 31.4667C383.82 144.779 462.689 179.313 502.792 250.538C544.232 322.842 540.222 426.442 521.507 518.172C509.476 575.368 478.73 646.593 367.778 646.593H214.05L270.194 269.963Z" fill="#FED0AC"/>
<path d="M350.399 630.405C461.351 630.405 485.413 559.18 497.444 501.984C516.158 410.255 518.832 336.871 482.739 262.409C442.636 181.471 401.196 179.313 401.196 19.5958C401.196 12.0416 395.849 6.64578 390.502 2.3291C409.217 7.72495 419.911 16.3583 419.911 29.3083C419.911 149.096 461.351 178.234 501.454 250.538C544.231 322.842 540.22 426.442 521.505 518.172C509.475 575.368 478.729 646.593 367.777 646.593H214.049V630.405H350.399Z" fill="#E0A372"/>
<path d="M80.3704 363.849H270.191C337.03 363.849 337.03 269.961 270.191 269.961H80.3704C13.532 269.961 13.532 363.849 80.3704 363.849Z" fill="#FED0AC"/>
<path d="M65.6655 348.744H255.487C300.937 348.744 314.304 305.577 299.6 278.598C335.693 301.26 324.999 364.931 271.528 364.931H80.37C58.9817 364.931 44.2773 355.219 36.2566 341.189C44.2773 345.506 53.6346 348.744 65.6655 348.744Z" fill="#E0A372"/>
<path d="M60.3228 458.818H287.573C367.78 458.818 367.78 364.931 287.573 364.931H58.9861C-19.8833 364.931 -19.8833 458.818 60.3228 458.818Z" fill="#FED0AC"/>
<path d="M41.6059 442.628H270.193C323.664 442.628 341.042 399.462 322.327 372.482C365.104 395.145 353.073 458.816 287.571 458.816H58.9839C33.5853 458.816 16.2073 449.103 6.84995 435.074C16.2073 439.391 28.2382 442.628 41.6059 442.628Z" fill="#E0A372"/>
<path d="M81.711 552.703H274.206C341.044 552.703 341.044 458.815 274.206 458.815H81.711C13.5358 458.815 13.5358 552.703 81.711 552.703Z" fill="#FED0AC"/>
<path d="M65.6681 536.517H259.5C304.95 536.517 319.654 493.35 303.613 465.292C339.706 487.955 330.348 551.625 274.204 551.625H81.7093C60.321 551.625 45.6165 541.913 37.5959 527.884C44.2798 534.359 54.974 536.517 65.6681 536.517Z" fill="#E0A372"/>
<path d="M101.759 646.593H226.078C298.264 646.593 298.264 552.705 226.078 552.705H101.759C29.5732 552.705 29.5732 646.593 101.759 646.593Z" fill="#FED0AC"/>
<path d="M85.7193 631.486H210.039C258.162 631.486 274.204 588.319 256.826 560.261C295.592 582.923 284.898 646.594 226.08 646.594H101.76C77.6987 646.594 62.9942 636.882 54.9736 622.853C62.9942 628.248 73.6884 631.486 85.7193 631.486Z" fill="#E0A372"/>
</svg>
