<svg width="648" height="649" viewBox="0 0 648 649" fill="none" xmlns="http://www.w3.org/2000/svg">
<path d="M95.9811 503.622C139.118 460.485 143.432 449.701 170.392 476.662C197.353 503.622 186.569 506.857 143.432 551.073C111.079 583.425 70.099 576.955 70.099 576.955C70.099 576.955 63.6285 535.975 95.9811 503.622Z" fill="#FF9D27"/>
<path d="M177.941 547.838C195.196 502.545 200.588 497.153 175.785 483.133C150.981 469.114 150.981 478.819 134.805 524.113C121.864 557.544 136.961 587.74 136.961 587.74C136.961 587.74 166.079 582.348 177.941 547.838Z" fill="#FF9D27"/>
<path d="M153.136 505.781C162.842 480.977 162.842 475.585 175.783 483.134C189.802 490.683 186.567 493.918 176.861 518.722C170.391 537.055 154.215 541.369 154.215 541.369C154.215 541.369 146.666 525.192 153.136 505.781Z" fill="#FDF516"/>
<path d="M162.841 471.269C148.821 446.465 143.429 451.857 98.1355 469.112C64.7044 482.053 58.2339 510.092 58.2339 510.092C58.2339 510.092 88.4297 525.19 121.861 512.249C167.154 494.994 176.86 494.994 162.841 471.269Z" fill="#FF9D27"/>
<path d="M140.197 493.916C165 484.21 170.393 484.21 162.844 471.269C155.295 457.249 152.059 460.485 127.256 470.19C108.923 476.661 104.609 492.837 104.609 492.837C104.609 492.837 121.864 500.386 140.197 493.916Z" fill="#FDF516"/>
<path d="M128.334 491.759C152.059 468.033 154.216 461.563 169.314 476.661C184.412 491.759 177.941 493.916 154.216 517.641C135.883 535.974 113.236 531.66 113.236 531.66C113.236 531.66 111.079 510.092 128.334 491.759Z" fill="#FDF516"/>
<path d="M177.939 388.232C111.077 276.076 0 322.448 0 322.448C0 322.448 158.528 163.92 265.292 270.684L177.939 388.232Z" fill="#3BAACF"/>
<path d="M229.704 305.193L264.213 270.684C158.528 163.92 0 322.448 0 322.448C0 322.448 139.116 223.233 229.704 305.193Z" fill="#428BC1"/>
<path d="M258.821 469.112C370.977 535.974 324.605 647.051 324.605 647.051C324.605 647.051 483.133 488.523 376.369 381.76L258.821 469.112Z" fill="#3BAACF"/>
<path d="M341.861 417.349L376.37 382.84C483.134 489.604 324.606 648.131 324.606 648.131C324.606 648.131 423.821 507.937 341.861 417.349Z" fill="#428BC1"/>
<path d="M504.703 311.666C378.528 436.763 239.411 504.703 190.882 456.175C142.353 407.646 210.294 268.529 335.391 142.354C482.056 -4.3113 644.898 2.15924 644.898 2.15924C644.898 2.15924 650.29 165.001 504.703 311.666Z" fill="#C5D0D8"/>
<path d="M472.348 276.076C347.251 401.173 222.154 483.133 193.037 454.015C163.92 424.898 245.88 299.801 370.976 174.704C517.642 28.039 647.052 0 647.052 0C647.052 0 619.013 129.411 472.348 276.076Z" fill="#DAE3EA"/>
<path d="M240.488 490.679C235.096 496.071 226.469 496.071 221.077 490.679L156.371 425.974C150.979 420.582 150.979 410.876 156.371 405.484L175.783 386.072L259.9 470.189L240.488 490.679Z" fill="#C94747"/>
<path d="M222.156 471.27C216.764 476.662 210.294 478.819 207.058 475.584L170.392 438.918C167.157 435.682 169.314 429.212 174.706 423.82L194.117 404.408L241.568 451.859L222.156 471.27Z" fill="#F15744"/>
<path d="M203.823 498.23C200.588 501.465 193.039 501.465 189.804 498.23L147.745 456.171C144.51 452.936 145.589 446.465 148.824 443.23L161.765 430.289L216.764 485.289L203.823 498.23Z" fill="#3E4347"/>
<path d="M195.196 489.606C191.961 492.841 185.49 493.919 183.333 491.763L154.216 462.645C152.059 460.488 153.138 455.096 157.451 451.861L170.392 438.92L208.137 476.665L195.196 489.606Z" fill="#62727A"/>
<path d="M644.897 2.15577C644.897 2.15577 586.662 -0.00107002 507.938 30.1947L616.858 139.115C647.054 60.3905 644.897 2.15577 644.897 2.15577Z" fill="#C94747"/>
<path d="M644.896 2.15918C644.896 2.15918 598.524 11.865 528.426 51.7666L595.288 118.629C635.19 48.5313 644.896 2.15918 644.896 2.15918Z" fill="#F15744"/>
<path d="M447.545 253.429C477.325 253.429 501.466 229.288 501.466 199.508C501.466 169.728 477.325 145.587 447.545 145.587C417.765 145.587 393.624 169.728 393.624 199.508C393.624 229.288 417.765 253.429 447.545 253.429Z" fill="#EDF4F9"/>
<path d="M447.547 235.098C467.202 235.098 483.135 219.164 483.135 199.51C483.135 179.855 467.202 163.922 447.547 163.922C427.892 163.922 411.959 179.855 411.959 199.51C411.959 219.164 427.892 235.098 447.547 235.098Z" fill="#3BAACF"/>
<path d="M339.703 361.271C369.483 361.271 393.624 337.13 393.624 307.35C393.624 277.57 369.483 253.429 339.703 253.429C309.923 253.429 285.782 277.57 285.782 307.35C285.782 337.13 309.923 361.271 339.703 361.271Z" fill="#EDF4F9"/>
<path d="M339.705 342.94C359.359 342.94 375.292 327.007 375.292 307.353C375.292 287.698 359.359 271.765 339.705 271.765C320.05 271.765 304.117 287.698 304.117 307.353C304.117 327.007 320.05 342.94 339.705 342.94Z" fill="#3BAACF"/>
<path d="M505.781 52.8441C502.545 56.0793 496.075 56.0793 492.84 52.8441C489.604 49.6088 489.604 43.1383 492.84 39.903C496.075 36.6677 502.545 36.6677 505.781 39.903C509.016 43.1383 509.016 49.6088 505.781 52.8441Z" fill="white"/>
<path d="M524.116 79.8065C528.881 79.8065 532.744 75.9439 532.744 71.1791C532.744 66.4144 528.881 62.5518 524.116 62.5518C519.351 62.5518 515.489 66.4144 515.489 71.1791C515.489 75.9439 519.351 79.8065 524.116 79.8065Z" fill="white"/>
<path d="M549.997 105.688C554.762 105.688 558.624 101.826 558.624 97.061C558.624 92.2962 554.762 88.4336 549.997 88.4336C545.232 88.4336 541.37 92.2962 541.37 97.061C541.37 101.826 545.232 105.688 549.997 105.688Z" fill="white"/>
<path d="M574.799 131.569C579.564 131.569 583.426 127.707 583.426 122.942C583.426 118.177 579.564 114.314 574.799 114.314C570.034 114.314 566.171 118.177 566.171 122.942C566.171 127.707 570.034 131.569 574.799 131.569Z" fill="white"/>
<path d="M600.68 156.371C605.444 156.371 609.307 152.508 609.307 147.744C609.307 142.979 605.444 139.116 600.68 139.116C595.915 139.116 592.052 142.979 592.052 147.744C592.052 152.508 595.915 156.371 600.68 156.371Z" fill="white"/>
</svg>
