<svg width="648" height="695" viewBox="0 0 648 695" fill="none" xmlns="http://www.w3.org/2000/svg">
<path d="M502.261 293.193C502.261 293.193 450.112 250.315 422.3 208.596C411.87 193.531 378.263 195.849 366.674 224.82L185.891 294.352L66.5282 230.614C47.9864 219.026 23.6502 227.138 13.2204 249.156C2.79067 270.016 8.58499 296.67 28.2857 308.258L46.8275 318.688C30.6034 316.37 13.2204 324.482 5.10839 340.707C-5.32139 361.566 0.472935 388.22 20.1736 399.809L61.8928 424.145C43.3509 412.556 19.0148 420.668 8.58499 442.687C-1.84479 463.546 3.94953 490.2 23.6502 501.789C23.6502 501.789 233.405 631.582 305.254 669.824C362.039 701.113 474.449 716.179 545.139 630.423C568.317 600.292 502.261 293.193 502.261 293.193Z" fill="#D99B57"/>
<path d="M589.173 293.189C552.089 267.694 526.594 234.087 508.053 183.097C501.099 165.714 475.604 162.238 460.539 191.209C438.521 232.928 459.38 266.535 470.969 281.601L476.763 288.554C476.763 288.554 480.24 301.301 486.034 316.367C454.745 309.413 419.979 326.796 395.643 359.245C370.148 392.852 309.887 450.795 284.392 484.402C253.102 524.962 261.214 582.906 295.98 608.401C295.98 608.401 477.922 741.67 598.444 578.27C693.471 450.795 626.257 318.684 589.173 293.189Z" fill="#FFDD67"/>
<path d="M527.754 341.863C546.296 355.77 550.931 382.424 537.025 403.283C524.277 424.143 497.623 429.937 479.081 416.031L190.524 208.594C171.982 194.687 167.347 168.034 181.253 147.174C194.001 126.314 220.655 120.52 239.196 134.427L527.754 341.863Z" fill="#FFDD67"/>
<path d="M378.261 318.686L194.001 185.417C183.572 178.464 176.619 166.875 180.095 149.492C167.348 172.669 175.46 195.847 190.525 207.435L374.784 340.705C393.326 354.611 396.803 332.593 378.261 318.686Z" fill="#EBA352"/>
<path d="M433.89 382.423C452.432 396.329 457.068 422.983 443.161 443.842C430.414 464.702 403.76 470.496 385.218 456.59L96.6609 247.994C78.1191 234.088 73.4836 207.434 87.39 186.574C100.137 165.715 126.791 159.921 145.333 173.827L433.89 382.423Z" fill="#FFDD67"/>
<path d="M322.635 387.06L100.133 225.978C89.7035 219.024 82.7504 205.118 86.227 190.053C73.4794 213.23 80.4326 238.725 96.6567 250.314L320.318 409.078C337.701 422.984 341.177 399.807 322.635 387.06Z" fill="#EBA352"/>
<path d="M415.348 475.132C433.889 489.038 438.525 515.692 424.618 536.551C411.871 557.411 385.217 563.205 366.675 549.299L78.1179 340.703C59.5761 326.797 54.9406 300.143 68.847 279.283C81.5945 258.424 108.248 252.63 126.79 266.536L415.348 475.132Z" fill="#FFDD67"/>
<path d="M278.598 461.23L81.5912 319.849C71.1614 312.895 64.2082 296.671 68.8437 280.447C53.7784 302.466 59.5727 331.437 75.7968 343.026L275.122 483.249C293.663 497.155 297.14 475.136 278.598 461.23Z" fill="#EBA352"/>
<path d="M407.234 579.431C425.776 593.337 293.665 607.243 275.123 593.337L71.1633 446.161C52.6215 432.255 47.986 405.601 61.8924 384.741C74.6399 363.882 101.294 358.088 119.836 371.994L407.234 579.431Z" fill="#FFDD67"/>
<path d="M645.96 458.908C645.96 458.908 626.26 560.888 545.139 622.308C473.29 676.774 362.039 629.261 308.731 594.495C253.105 556.252 225.293 537.71 90.8643 435.73C65.3693 416.03 58.4161 403.282 61.8927 382.423C42.192 403.282 52.6218 435.73 68.8459 447.319L82.7523 456.59C82.7523 456.59 243.834 574.794 298.301 611.878C348.132 646.644 476.766 701.11 557.887 636.214C649.437 565.523 645.96 458.908 645.96 458.908ZM508.056 325.638C484.878 301.302 483.719 266.536 483.719 266.536L477.925 259.583C468.654 247.994 453.589 223.658 459.383 194.687C437.365 235.247 459.383 267.695 469.813 281.601L475.607 288.555C475.607 288.555 474.448 298.984 480.243 307.096L508.056 325.638Z" fill="#EBA352"/>
<path d="M389.849 0L424.615 141.381L492.988 10.4298L389.849 0ZM561.361 41.7191L509.212 158.764L630.893 127.475L561.361 41.7191ZM301.776 17.383L334.224 144.858L227.608 76.4851L301.776 17.383Z" fill="#42ADE2"/>
</svg>
