<svg width="648" height="749" viewBox="0 0 648 749" fill="none" xmlns="http://www.w3.org/2000/svg">
<path d="M635.487 302.042C635.487 302.042 598.043 336.989 534.39 378.177C516.916 277.08 468.24 152.269 373.384 0C373.384 0 342.181 163.502 238.588 317.02C193.656 247.125 173.687 192.209 173.687 192.209C-150.822 517.965 118.77 748.865 288.513 748.865C505.683 748.865 696.644 644.024 635.487 302.042Z" fill="#FF9D33"/>
<path d="M506.929 591.601C525.65 550.413 539.379 496.745 541.876 429.347C541.876 429.347 515.665 451.813 470.733 480.519C458.252 413.121 424.553 330.746 358.404 228.401C358.404 228.401 337.186 336.987 264.795 440.58C233.593 394.4 219.864 356.957 219.864 356.957C166.195 441.828 144.977 509.226 143.729 562.894C113.774 551.661 95.0527 542.925 95.0527 542.925C146.225 695.194 252.314 728.893 299.743 728.893C384.614 728.893 470.733 703.931 555.605 582.864C555.605 581.616 536.883 586.609 506.929 591.601Z" fill="#FFCE31"/>
<path d="M197.402 522.957C197.402 522.957 232.349 570.385 258.559 559.153C258.559 559.153 308.484 480.522 380.874 436.838C380.874 436.838 365.897 556.656 383.37 577.874C405.836 606.581 466.994 546.671 466.994 546.671C466.994 617.814 389.611 706.429 319.717 706.429C252.319 706.429 154.966 629.047 197.402 522.957Z" fill="#FFDF85"/>
<path d="M545.623 200.945C571.833 163.502 589.306 123.563 589.306 123.563C632.99 195.953 606.78 239.637 588.058 253.366C561.848 273.336 515.668 244.629 545.623 200.945ZM68.8451 188.464C42.6348 144.781 40.1386 89.8637 40.1386 89.8637C-22.2668 183.472 1.44722 235.892 22.6651 250.87C50.1235 272.088 97.5516 239.637 68.8451 188.464ZM213.626 91.1119C217.37 61.1572 204.889 31.2026 204.889 31.2026C263.55 69.894 263.55 102.345 256.061 116.074C244.828 132.299 209.881 124.811 213.626 91.1119Z" fill="#FF9D33"/>
</svg>
