<svg xmlns="http://www.w3.org/2000/svg" width="11" height="14" viewBox="0 0 11 14">
  <g id="Green-lightbulb" transform="translate(-3 -1.5)">
    <path id="Path_27056" data-name="Path 27056" d="M10.5,12.5h-4a.5.5,0,1,0,0,1h4a.5.5,0,0,0,0-1Z" fill="#126d4d"/>
    <path id="Path_27057" data-name="Path 27057" d="M10,14.5H7a.5.5,0,1,0,0,1h3a.5.5,0,0,0,0-1Z" fill="#126d4d"/>
    <path id="Path_27058" data-name="Path 27058" d="M8.5,1.5a5.5,5.5,0,0,0-3.3,9.9.5.5,0,0,0,.3.1h6a.5.5,0,0,0,.3-.1A5.5,5.5,0,0,0,8.5,1.5Z" fill="#126d4d"/>
  </g>
</svg>
