<svg width="88" height="85" viewBox="0 0 88 85" fill="none" xmlns="http://www.w3.org/2000/svg">
<path d="M21.0631 66.1451C20.3364 65.9998 19.755 65.8544 19.0283 65.5637C18.3016 65.273 17.7202 65.1277 17.1388 64.837C15.8308 64.2557 14.668 63.5289 13.5053 62.6569C11.1799 61.0581 9.29042 58.878 7.83701 56.2619C6.3836 53.7911 5.51155 50.8843 5.36621 48.1228C5.22087 46.6694 5.36621 45.3613 5.51155 43.9079C5.65689 43.1812 5.80223 42.5998 5.94757 41.8731C6.09291 41.1464 6.3836 40.565 6.52894 39.8383L6.67428 41.8731C6.67428 42.5998 6.81962 43.1812 6.96496 43.9079C7.1103 45.2159 7.40099 46.524 7.69167 47.6868C8.27303 50.1576 9.14508 52.483 10.4532 54.6631C11.7612 56.8432 13.2146 58.878 15.1041 60.7675C15.9761 61.6395 16.9935 62.5116 18.0109 63.3836C18.4469 63.8196 19.0283 64.2557 19.6097 64.6917L21.0631 66.1451ZM20.627 71.3774C20.191 71.6681 19.6097 71.8134 19.0283 71.9587C18.4469 72.1041 18.0109 72.2494 17.4295 72.2494C16.4121 72.3948 15.2494 72.5401 14.0867 72.3948C11.9066 72.2494 9.5811 71.6681 7.69167 70.6507C5.65689 69.6333 3.9128 68.0345 2.75007 66.1451C2.1687 65.273 1.58734 64.2557 1.15131 63.2383C1.00597 62.8022 0.860629 62.2209 0.715287 61.6395C0.715287 61.2035 0.569946 60.7675 0.569946 60.1861C1.00597 60.6221 1.29665 61.0581 1.58734 61.3488C2.02336 61.7849 2.31404 62.2209 2.60472 62.5116C3.33143 63.2383 3.9128 63.965 4.6395 64.5463C6.09291 65.8544 7.54633 67.0171 9.29042 67.8892C10.8892 68.7612 12.7786 69.4879 14.5227 70.0693C15.3948 70.36 16.4121 70.5053 17.4295 70.796C17.8656 70.9414 18.4469 70.9414 18.8829 71.0867C19.6097 71.232 20.0457 71.232 20.627 71.3774M53.4742 0.741521C54.2009 0.886863 54.7822 1.17755 55.5089 1.46823C56.2356 1.75891 56.817 2.04959 57.3984 2.34028C58.7065 3.06698 59.8692 3.79369 61.0319 4.66574C63.3574 6.40983 65.2468 8.73529 66.5549 11.3514C67.863 13.9676 68.5897 16.8744 68.5897 19.6359C68.5897 21.0893 68.4443 22.3974 68.1536 23.8508C68.0083 24.5775 67.8629 25.1589 67.5723 25.8856C67.2816 26.6123 67.1362 27.1936 66.8456 27.775L66.7002 25.7402C66.7002 25.0135 66.7002 24.4321 66.5549 23.7054L66.1189 19.7812C65.6828 17.3104 64.8108 14.8396 63.6481 12.5142C62.4853 10.1887 61.0319 8.15393 59.2878 6.26449C58.4158 5.2471 57.3984 4.37505 56.5263 3.35766C56.0903 2.92164 55.5089 2.48562 54.9276 2.04959L53.4742 0.741521ZM66.1189 0.160156C66.7002 0.305498 67.1362 0.450839 67.5723 0.741521C68.0083 0.886863 68.5897 1.17755 69.0257 1.46823C69.8977 2.04959 70.7698 2.63096 71.6418 3.35766C73.2406 4.81108 74.5487 6.55517 75.2754 8.58995C76.1474 10.6247 76.4381 12.8048 76.1474 14.985C76.0021 16.0024 75.7114 17.0197 75.4207 18.0371C75.2754 18.4732 74.9847 19.0545 74.8393 19.4905C74.5486 19.9266 74.4033 20.3626 73.9673 20.7986V19.3452V17.8918C73.9673 16.8744 73.8219 16.0024 73.8219 15.1303C73.5313 13.2409 73.2406 11.4968 72.5139 9.89802C71.7872 8.15393 70.9151 6.70051 69.8977 5.10176C69.3164 4.37505 68.735 3.50301 68.1536 2.7763C67.863 2.34028 67.5723 2.04959 67.1362 1.61357C66.8456 0.886863 66.4095 0.450839 66.1189 0.160156" fill="#42ADE2"/>
<path d="M12.1948 21.8179C9.28799 23.1259 8.2706 26.6141 9.57867 29.5209L27.8917 67.7457L38.0656 62.9494L19.7526 24.5793C18.4445 21.6725 15.1016 20.3644 12.1948 21.8179M60.3028 52.1942L71.058 47.1072L50.1289 3.50486C48.6755 0.598034 45.1873 -0.710037 42.1351 0.743375C39.2283 2.19679 37.9202 5.68498 39.3736 8.73714L60.3028 52.1942Z" fill="#FFDD67"/>
<path d="M42.285 0.593752C41.9943 0.739094 41.7036 0.884435 41.413 1.17512C44.1744 0.448411 47.0813 1.75648 48.3893 4.37263L69.3185 47.975L71.2079 47.103L50.2788 3.50058C48.8254 0.448411 45.3372 -0.85966 42.285 0.593752" fill="#EBA352"/>
<path d="M38.0668 62.8056L49.2581 57.428L27.8929 12.9536C26.4395 9.9014 22.6607 8.44799 19.6085 9.9014C16.5563 11.3548 15.2482 15.1337 16.7017 18.1859L38.0668 62.8056Z" fill="#FFDD67"/>
<path d="M19.6088 10.038C19.3181 10.1833 19.0274 10.3286 18.7368 10.6193C21.4982 9.89261 24.6957 11.2007 26.0038 13.9622L39.2299 41.7224L42.4274 43.6118L27.8933 13.0901C26.4398 9.89261 22.8063 8.58454 19.6088 10.038" fill="#EBA352"/>
<path d="M47.5162 53.9393L58.7075 48.5617L37.3423 4.08726C35.8889 1.03509 32.1101 -0.418324 29.0579 1.18043C26.0057 2.63384 24.6977 6.41272 26.1511 9.46488L47.5162 53.9393Z" fill="#FFDD67"/>
<path d="M29.0548 1.03405C28.7641 1.17939 28.4735 1.47007 28.1828 1.61541C30.9443 0.888708 34.1418 2.19678 35.4498 4.95826L50.42 36.352L53.6175 38.2414L37.3393 4.08622C35.8859 0.888708 32.107 -0.419364 29.0548 1.03405M12.1952 21.8178C11.9045 21.9632 11.6139 22.1085 11.3232 22.3992C13.9393 21.6725 16.7008 22.9806 17.8635 25.5967L28.7641 48.4153L31.9616 50.3047L19.753 24.7247C18.4449 21.6725 15.1021 20.3644 12.1952 21.8178" fill="#EBA352"/>
<path d="M86.0312 17.4579C82.107 14.4057 75.712 17.7485 72.5145 28.2131C70.3343 35.4802 70.0437 37.6603 65.3927 39.8404L62.7766 34.4628C62.7766 34.4628 21.4997 54.3745 23.0984 57.572C23.0984 57.572 28.04 72.9782 36.4698 80.0999C48.9692 90.8552 78.1828 79.3732 79.4908 51.6131C80.2175 35.4802 90.2461 20.8007 86.0312 17.4579" fill="#FFDD67"/>
<path d="M86.03 17.4432C85.3033 16.8618 84.4312 16.5711 83.5592 16.4258C83.7045 16.5711 83.9952 16.5711 84.1405 16.7165C88.5008 20.0593 83.9952 27.7624 81.5244 34.7388C79.4896 40.2617 77.7455 45.9301 78.0362 51.453C79.1989 75.5797 54.9269 87.0616 40.3928 82.7014C54.6363 88.6604 81.0884 77.3238 79.9256 52.1797C79.635 46.6568 81.2337 41.2791 83.4138 35.4655C85.7393 28.4891 90.2449 20.786 86.03 17.4432" fill="#EBA352"/>
<path d="M66.6979 39.25C57.6867 40.2674 44.4607 53.2028 53.7625 67.3009C46.9315 53.0574 58.1227 43.4649 65.2445 40.122C65.9712 39.5407 66.6979 39.25 66.6979 39.25" fill="#EBA352"/>
</svg>
