<svg width="14" height="14" viewBox="0 0 14 14" fill="none" xmlns="http://www.w3.org/2000/svg">
<path d="M0.83324 7.00254H0.833244V7.00065C0.833244 5.36515 1.48294 3.79663 2.63942 2.64016C3.21205 2.06753 3.89185 1.6133 4.64003 1.30339C5.3882 0.99349 6.19009 0.833984 6.99991 0.833984C8.63541 0.833984 10.2039 1.48368 11.3604 2.64016C12.5169 3.79663 13.1666 5.36515 13.1666 7.00065C13.1666 8.63615 12.5169 10.2047 11.3604 11.3611C10.2039 12.5176 8.63541 13.1673 6.99991 13.1673H0.999911H0.989389L0.978877 13.1678C0.945877 13.1692 0.913209 13.1607 0.885018 13.1435C0.859282 13.1278 0.838338 13.1054 0.824353 13.0788C0.814186 13.0506 0.811778 13.0202 0.817463 12.9907C0.82362 12.9587 0.838999 12.9293 0.861691 12.906C0.861954 12.9057 0.862219 12.9054 0.862484 12.9052L2.19346 11.5742L2.51468 11.253L2.22565 10.9025C1.32046 9.80495 0.827854 8.42523 0.83324 7.00254ZM2.25302 11.9804L1.39947 12.834H2.60658H6.99991V12.334L7.0003 12.834C8.34982 12.8329 9.65722 12.364 10.6998 11.5071C11.7423 10.6502 12.4555 9.45829 12.7178 8.13451C12.9801 6.81073 12.7753 5.43696 12.1383 4.24724C11.5013 3.05752 10.4716 2.12546 9.22442 1.60986C7.97728 1.09426 6.58996 1.02702 5.2988 1.41959C4.00765 1.81216 2.89255 2.64026 2.14349 3.7628C1.39443 4.88534 1.05775 6.23287 1.19081 7.57581C1.32384 8.91846 1.91818 10.1735 2.87259 11.1271C2.90325 11.1583 2.92044 11.2002 2.92044 11.244C2.92044 11.2878 2.90316 11.3299 2.87236 11.3611C2.87223 11.3612 2.8721 11.3614 2.87197 11.3615L2.25302 11.9804ZM7.16658 6.33398V6.83398H7.66658H8.99991C9.04411 6.83398 9.0865 6.85154 9.11776 6.8828C9.14902 6.91406 9.16658 6.95645 9.16658 7.00065C9.16658 7.04485 9.14902 7.08725 9.11776 7.1185C9.0865 7.14976 9.04411 7.16732 8.99991 7.16732H7.66658H7.16658V7.66732V9.00065C7.16658 9.04485 7.14902 9.08725 7.11776 9.1185C7.08651 9.14976 7.04411 9.16732 6.99991 9.16732C6.95571 9.16732 6.91332 9.14976 6.88206 9.1185C6.8508 9.08725 6.83324 9.04485 6.83324 9.00065V7.66732V7.16732H6.33324H4.99991C4.95571 7.16732 4.91332 7.14976 4.88206 7.1185C4.8508 7.08725 4.83324 7.04485 4.83324 7.00065C4.83324 6.95645 4.8508 6.91406 4.88206 6.8828C4.91332 6.85154 4.95571 6.83398 4.99991 6.83398H6.33324H6.83324V6.33398V5.00065C6.83324 4.95645 6.8508 4.91406 6.88206 4.8828C6.91332 4.85154 6.95571 4.83398 6.99991 4.83398C7.04411 4.83398 7.08651 4.85154 7.11776 4.8828C7.14902 4.91406 7.16658 4.95645 7.16658 5.00065V6.33398Z" fill="black" stroke="#A0ABBB"/>
</svg>
