<svg width="12" height="14" viewBox="0 0 12 14" fill="none" xmlns="http://www.w3.org/2000/svg">
<path d="M4 11.0625H8C8.11603 11.0625 8.22731 11.1086 8.30936 11.1906C8.39141 11.2727 8.4375 11.384 8.4375 11.5C8.4375 11.616 8.39141 11.7273 8.30936 11.8094C8.22731 11.8914 8.11603 11.9375 8 11.9375H4C3.88397 11.9375 3.77269 11.8914 3.69064 11.8094C3.60859 11.7273 3.5625 11.616 3.5625 11.5C3.5625 11.384 3.60859 11.2727 3.69064 11.1906C3.77269 11.1086 3.88397 11.0625 4 11.0625Z" fill="#A0ABBB" stroke="#A0ABBB" stroke-width="0.125"/>
<path d="M7.5 13H4.5C4.36739 13 4.24021 13.0527 4.14645 13.1464C4.05268 13.2402 4 13.3674 4 13.5C4 13.6326 4.05268 13.7598 4.14645 13.8536C4.24021 13.9473 4.36739 14 4.5 14H7.5C7.63261 14 7.75979 13.9473 7.85355 13.8536C7.94732 13.7598 8 13.6326 8 13.5C8 13.3674 7.94732 13.2402 7.85355 13.1464C7.75979 13.0527 7.63261 13 7.5 13Z" fill="#A0ABBB"/>
<path d="M6 0C4.84571 5.98558e-05 3.72069 0.363267 2.78427 1.03818C1.84785 1.7131 1.14749 2.66552 0.782388 3.76055C0.417286 4.85558 0.405941 6.03772 0.74996 7.13956C1.09398 8.24139 1.77592 9.20708 2.69922 9.89984C2.78584 9.9649 2.89124 10.0001 2.99957 10.0001H9.00043C9.10876 10.0001 9.21416 9.9649 9.30078 9.89984C10.2241 9.20708 10.906 8.24139 11.25 7.13956C11.5941 6.03772 11.5827 4.85558 11.2176 3.76055C10.8525 2.66552 10.1522 1.7131 9.21573 1.03818C8.27931 0.363267 7.15429 5.98558e-05 6 0V0Z" fill="#A0ABBB"/>
</svg>
