<svg width="28" height="28" viewBox="0 0 28 28" fill="none" xmlns="http://www.w3.org/2000/svg">
<path d="M22.809 10H15V5H25L22.809 10Z" fill="#006182"/>
<path d="M17.7575 16H15V11H20L17.7575 16Z" fill="#006182"/>
<path d="M10.706 5C9.74001 6.59466 8.17134 7.59852 6 8.01159V10.393C6.97054 10.1902 7.91117 9.87093 8.80011 9.44257V23H14V5H10.706Z" fill="#006182"/>
<path d="M25.5676 10.0362C26.4937 12.7353 26.4475 15.6731 25.4369 18.3416C24.4264 21.0102 22.5151 23.2417 20.0335 24.6503C17.5519 26.0589 14.656 26.556 11.8467 26.0556C9.03744 25.5553 6.49134 24.0889 4.64871 21.9101C2.80609 19.7313 1.78281 16.977 1.75582 14.1236C1.72884 11.2703 2.69985 8.49718 4.50093 6.28391C6.30202 4.07064 8.81993 2.55636 11.6193 2.00293C14.4186 1.44951 17.3233 1.89174 19.8311 3.25314C20.0712 2.77932 20.3723 2.18546 20.6419 1.67583C17.7567 0.120913 14.4174 -0.37245 11.2058 0.281702C7.99419 0.935855 5.11391 2.69605 3.06677 5.25562C1.01963 7.81518 -0.0646049 11.0119 0.00297894 14.2887C0.0705628 17.5655 1.28568 20.7148 3.43662 23.1877C5.58756 25.6607 8.53796 27.3007 11.7738 27.8218C15.0096 28.343 18.3257 27.7124 21.1444 26.0398C23.963 24.3673 26.1055 21.7588 27.1985 18.6689C28.2916 15.579 28.2659 12.2036 27.1259 9.13069L25.5676 10.0362Z" fill="#009CE0"/>
</svg>
