<svg width="66" height="15" viewBox="0 0 66 15" fill="none" xmlns="http://www.w3.org/2000/svg">
<path d="M0.954025 13.986C0.858309 13.9868 0.763396 13.9684 0.674822 13.9319C0.586247 13.8954 0.50578 13.8415 0.438097 13.7735C0.370414 13.7054 0.316868 13.6245 0.280583 13.5354C0.244299 13.4463 0.225999 13.3508 0.226745 13.2546V1.42962C0.222503 1.33243 0.238409 1.23542 0.273457 1.14475C0.308505 1.05408 0.361928 0.971732 0.430326 0.902943C0.498725 0.834155 0.580608 0.780429 0.670765 0.745182C0.760923 0.709934 0.857387 0.693934 0.954025 0.698201H8.7858C8.97877 0.688395 9.16773 0.756022 9.31116 0.886227C9.37908 0.953763 9.43228 1.03478 9.46737 1.12413C9.50246 1.21348 9.51865 1.30919 9.51494 1.40518C9.51671 1.49589 9.49947 1.58596 9.46436 1.66954C9.42925 1.75311 9.37706 1.82832 9.31116 1.89029C9.16773 2.02049 8.97877 2.08812 8.7858 2.07831H1.6813V6.59094H6.84141C6.9378 6.58727 7.03393 6.60339 7.12393 6.6383C7.21393 6.67321 7.29592 6.72619 7.3649 6.79401C7.43078 6.85797 7.48287 6.93488 7.51793 7.01995C7.55299 7.10502 7.57026 7.19644 7.56868 7.28852C7.57132 7.38297 7.55459 7.47696 7.51953 7.56463C7.48447 7.65229 7.43183 7.73176 7.3649 7.79807C7.29627 7.8665 7.21439 7.92 7.12433 7.95526C7.03428 7.99052 6.93798 8.00677 6.84141 8.00302H1.6813V13.2433C1.6832 13.3389 1.66634 13.4339 1.63169 13.523C1.59705 13.612 1.54529 13.6933 1.47938 13.7623C1.41237 13.8346 1.33095 13.8919 1.24043 13.9305C1.1499 13.969 1.05231 13.988 0.954025 13.986Z" fill="white"/>
<path d="M12.5753 13.9875C12.4796 13.9882 12.3847 13.9698 12.2961 13.9333C12.2076 13.8968 12.1271 13.843 12.0594 13.7749C11.9917 13.7068 11.9382 13.6259 11.9019 13.5368C11.8656 13.4478 11.8473 13.3523 11.8481 13.256V1.43108C11.8447 1.33335 11.8618 1.236 11.8982 1.14532C11.9346 1.05463 11.9895 0.972633 12.0593 0.904606C12.1275 0.837641 12.2082 0.785021 12.2968 0.749829C12.3854 0.714637 12.4801 0.69758 12.5753 0.699657C12.6733 0.69626 12.7709 0.712649 12.8624 0.747851C12.9539 0.783053 13.0375 0.836356 13.1082 0.904606C13.1783 0.972417 13.2334 1.05438 13.2698 1.14512C13.3062 1.23585 13.3231 1.3333 13.3194 1.43108V13.256C13.3214 13.3525 13.3037 13.4483 13.2673 13.5375C13.231 13.6268 13.1768 13.7076 13.1082 13.775C13.0384 13.845 12.9552 13.9 12.8636 13.9366C12.7719 13.9731 12.6739 13.9904 12.5753 13.9875Z" fill="white"/>
<path d="M17.4308 13.9879C17.3351 13.9886 17.2402 13.9702 17.1516 13.9337C17.063 13.8972 16.9826 13.8434 16.9149 13.7753C16.8472 13.7072 16.7937 13.6263 16.7574 13.5372C16.7211 13.4482 16.7028 13.3527 16.7035 13.2565V1.43149C16.7002 1.33375 16.7173 1.23641 16.7537 1.14572C16.7901 1.05504 16.8449 0.97304 16.9148 0.905013C16.9829 0.837962 17.0636 0.785287 17.1522 0.750089C17.2408 0.714891 17.3356 0.697882 17.4308 0.700064H20.5605C21.3315 0.685185 22.0937 0.866956 22.776 1.22842C23.4035 1.56443 23.9273 2.06716 24.2904 2.68186C24.6661 3.33536 24.8562 4.08005 24.8401 4.83476C24.8563 5.54922 24.6719 6.25382 24.3082 6.86774C23.9444 7.48166 23.416 7.98004 22.7835 8.30572C22.0977 8.65579 21.3369 8.83078 20.568 8.81527H18.1693V13.2565C18.1708 13.3515 18.1534 13.4458 18.118 13.534C18.0827 13.6222 18.0302 13.7023 17.9636 13.7698C17.8944 13.8408 17.8114 13.8968 17.7197 13.9344C17.6281 13.9719 17.5297 13.9901 17.4308 13.9879ZM18.1787 7.42012H20.5643C21.074 7.42951 21.5785 7.31604 22.0356 7.08919C22.4499 6.87986 22.8006 6.56228 23.0508 6.16975C23.302 5.77084 23.432 5.30687 23.4248 4.83476C23.4359 4.33258 23.3063 3.83739 23.0508 3.40576C22.8046 2.99944 22.4539 2.66749 22.0356 2.44495C21.5822 2.20577 21.0762 2.08548 20.5643 2.09522H18.1693L18.1787 7.42012ZM24.4886 13.9879C24.3577 13.9921 24.2282 13.9595 24.1146 13.8939C24.0075 13.8239 23.9199 13.7274 23.8604 13.6137L20.6821 8.50879L22.1198 8.1177L25.0644 12.8484C25.1493 12.9594 25.2028 13.0913 25.2193 13.2303C25.2358 13.3694 25.2145 13.5103 25.1579 13.6381C25.0926 13.7568 24.9938 13.8533 24.874 13.9156C24.7543 13.9778 24.6188 14.003 24.4848 13.9879H24.4886Z" fill="white"/>
<path d="M31.3538 14.1563C30.6639 14.1617 29.9778 14.0525 29.3234 13.8329C28.7243 13.6358 28.1674 13.3271 27.6819 12.9228C27.2367 12.5535 26.8833 12.0848 26.6498 11.554C26.6006 11.4683 26.5747 11.371 26.5747 11.272C26.5747 11.173 26.6006 11.0757 26.6498 10.9899C26.7023 10.9026 26.7723 10.8272 26.8553 10.7686C26.9384 10.71 27.0327 10.6695 27.1322 10.6496C27.3066 10.6035 27.4921 10.6285 27.6482 10.7192C27.8119 10.8129 27.9426 10.9555 28.0221 11.1272C28.1998 11.4563 28.4452 11.7434 28.7419 11.9695C29.0863 12.2359 29.4759 12.4372 29.8917 12.5637C30.3658 12.7103 30.8597 12.782 31.3556 12.7762C31.8873 12.7848 32.4155 12.6896 32.9112 12.496C33.3468 12.329 33.7275 12.0432 34.0105 11.6706C34.2883 11.2856 34.431 10.8186 34.4162 10.3431C34.4167 10.0191 34.3505 9.69847 34.2218 9.40141C34.0931 9.10435 33.9047 8.8373 33.6683 8.61704C33.1698 8.12441 32.3802 7.81542 31.2996 7.69007C29.9597 7.54341 28.9083 7.13226 28.1455 6.45662C27.7829 6.15247 27.4923 5.77089 27.2947 5.33962C27.0971 4.90835 26.9975 4.43822 27.0032 3.9634C26.9886 3.30687 27.1912 2.66405 27.579 2.13578C27.985 1.60138 28.5288 1.18909 29.1514 0.943696C29.8728 0.656438 30.6434 0.515226 31.4192 0.528158C32.0102 0.518405 32.5979 0.619141 33.1523 0.82524C33.6402 1.00905 34.0926 1.27692 34.4891 1.61683C34.856 1.93426 35.1713 2.30727 35.4239 2.72242C35.4869 2.80488 35.5323 2.89959 35.557 3.00056C35.5818 3.10154 35.5855 3.20659 35.5679 3.30906C35.5496 3.39965 35.5123 3.48527 35.4584 3.56018C35.4046 3.63509 35.3355 3.69756 35.2556 3.7434C35.1716 3.79252 35.0781 3.82312 34.9814 3.83317C34.8847 3.84322 34.787 3.83249 34.6948 3.80169C34.5997 3.7738 34.5111 3.7272 34.434 3.66458C34.357 3.60196 34.2931 3.52458 34.2461 3.43692C34.0632 3.15165 33.8445 2.89128 33.5954 2.66225C33.3288 2.42295 33.0182 2.23836 32.6812 2.11886C32.27 1.97825 31.8386 1.90647 31.4043 1.90639C30.5231 1.90639 29.8095 2.08501 29.2636 2.44226C28.9974 2.61306 28.7811 2.85192 28.6369 3.1344C28.4927 3.41687 28.4257 3.73282 28.4428 4.04989C28.4435 4.41274 28.5431 4.76845 28.7307 5.07839C28.9733 5.44465 29.3171 5.73157 29.7197 5.90382C30.3366 6.17143 30.9903 6.34325 31.6585 6.41338C33.0445 6.59639 34.0903 7.02195 34.7957 7.69007C35.5012 8.35819 35.8539 9.23565 35.8539 10.3224C35.8652 10.8931 35.7435 11.4584 35.4987 11.9733C35.2673 12.4414 34.9345 12.8514 34.5246 13.1729C34.0955 13.5056 33.6077 13.7538 33.0869 13.9043C32.5244 14.0723 31.9406 14.1572 31.3538 14.1563Z" fill="white"/>
<path d="M37.1554 2.0427C37.0653 2.04679 36.9753 2.03221 36.891 1.99987C36.8068 1.96752 36.73 1.9181 36.6655 1.85468C36.6034 1.79267 36.5547 1.71839 36.5225 1.63651C36.4904 1.55464 36.4754 1.46695 36.4786 1.37897C36.4734 1.28823 36.4874 1.19742 36.5196 1.11249C36.5518 1.02756 36.6015 0.95043 36.6654 0.886162C36.7293 0.821893 36.806 0.771935 36.8904 0.739562C36.9749 0.707189 37.0652 0.693132 37.1554 0.698315H46.4099C46.5002 0.693132 46.5905 0.707189 46.6749 0.739562C46.7594 0.771935 46.836 0.821893 46.8999 0.886162C46.9638 0.95043 47.0135 1.02756 47.0457 1.11249C47.0779 1.19742 47.0919 1.28823 47.0867 1.37897C47.0895 1.46689 47.0743 1.55445 47.0421 1.63626C47.01 1.71807 46.9615 1.7924 46.8998 1.85468C46.8353 1.9181 46.7585 1.96752 46.6743 1.99987C46.59 2.03221 46.5 2.04679 46.4099 2.0427H37.1554ZM41.7733 13.9861C41.6776 13.9869 41.5827 13.9685 41.4941 13.932C41.4055 13.8955 41.3251 13.8416 41.2574 13.7736C41.1897 13.7055 41.1362 13.6246 41.0999 13.5355C41.0636 13.4464 41.0453 13.351 41.046 13.2547V0.698315H42.5174V13.2547C42.5186 13.3502 42.5005 13.4449 42.4642 13.5332C42.4278 13.6214 42.3741 13.7013 42.3061 13.768C42.2369 13.8391 42.1539 13.8951 42.0622 13.9326C41.9706 13.9701 41.8722 13.9883 41.7733 13.9861Z" fill="white"/>
<path d="M52.0762 0.68232C52.7923 0.6694 53.499 0.848523 54.1234 1.20127C54.7122 1.53925 55.1997 2.03021 55.535 2.62275C55.8728 3.25922 56.0495 3.96957 56.0495 4.69104C56.0495 5.4125 55.8728 6.12286 55.535 6.75932C55.2016 7.35525 54.7138 7.84911 54.1234 8.18832C53.4942 8.52899 52.7908 8.70731 52.0762 8.70731C51.3616 8.70731 50.6582 8.52899 50.029 8.18832C49.4377 7.84976 48.9491 7.35578 48.6156 6.75932C48.2778 6.12286 48.1011 5.4125 48.1011 4.69104C48.1011 3.96957 48.2778 3.25922 48.6156 2.62275C48.951 2.02968 49.4393 1.53861 50.029 1.20127C50.6534 0.848268 51.3601 0.669127 52.0762 0.68232ZM52.0931 2.00978C51.6222 2.00007 51.1573 2.1176 50.7469 2.35011C50.3589 2.57645 50.0401 2.90554 49.8252 3.30152C49.5956 3.72982 49.4791 4.21018 49.4868 4.69668C49.478 5.18092 49.5946 5.65914 49.8252 6.08431C50.0432 6.47847 50.3613 6.80742 50.7469 7.0376C51.1559 7.27431 51.6213 7.39456 52.0931 7.38545C52.5494 7.39468 52.9996 7.27836 53.395 7.04905C53.7904 6.81974 54.116 6.48615 54.3366 6.08431C54.5681 5.65949 54.6848 5.18103 54.675 4.69668C54.6838 4.21005 54.5672 3.72942 54.3366 3.30152C54.1217 2.90554 53.8029 2.57645 53.4149 2.35011C53.0124 2.11995 52.556 2.00243 52.0931 2.00978ZM55.5443 6.77248L51.448 13.5621C51.3844 13.6833 51.2896 13.7851 51.1735 13.8569C51.0574 13.9287 50.9243 13.9678 50.7881 13.9701C50.6095 13.9752 50.4352 13.9143 50.2982 13.799C50.1613 13.6868 50.0701 13.5279 50.0419 13.3526C50.0136 13.1773 50.0503 12.9976 50.1449 12.8476L52.8185 8.4572L55.5443 6.77248Z" fill="#009CE0"/>
<path d="M61.9891 13.9867C61.1953 14.0022 60.425 13.7162 59.8316 13.1858C59.2271 12.653 58.7703 11.8903 58.4612 10.8975C58.1282 9.73697 57.9713 8.53258 57.9956 7.32498C57.9725 6.12301 58.1294 4.92438 58.4612 3.76941C58.7715 2.7666 59.2283 2.00071 59.8316 1.47173C60.4368 0.952926 61.206 0.667969 62.0012 0.667969C62.7965 0.667969 63.5657 0.952926 64.1709 1.47173C64.7692 2.00948 65.2229 2.77788 65.532 3.77693C65.8631 4.92626 66.02 6.1192 65.9975 7.31558C66.022 8.52009 65.865 9.72139 65.532 10.8787C65.2229 11.8715 64.7692 12.6373 64.1709 13.1764C63.5731 13.7165 62.7925 14.0064 61.9891 13.9867ZM61.9891 12.507C62.2641 12.5138 62.537 12.4565 62.7863 12.3398C63.0357 12.223 63.2549 12.0499 63.4268 11.8338C63.8431 11.2911 64.1297 10.6594 64.2644 9.98743C64.46 9.11132 64.5534 8.21531 64.543 7.31746C64.5532 6.4277 64.4597 5.5398 64.2644 4.67193C64.1253 3.99901 63.8343 3.36726 63.4137 2.82552C63.2435 2.60952 63.0261 2.43579 62.7784 2.31776C62.5308 2.19974 62.2594 2.14058 61.9854 2.14486C61.7156 2.1406 61.4484 2.19914 61.2049 2.31591C60.9613 2.43269 60.7479 2.60452 60.5813 2.81799C60.1643 3.36075 59.8748 3.99133 59.7344 4.66253C59.534 5.53286 59.438 6.42418 59.4483 7.31746C59.4376 8.22277 59.5349 9.1261 59.7381 10.0081C59.8772 10.678 60.1669 11.307 60.585 11.847C60.7536 12.0573 60.9677 12.2261 61.2111 12.3405C61.4544 12.4549 61.7205 12.5118 61.9891 12.507Z" fill="#009CE0"/>
</svg>
