<svg width="25" height="26" viewBox="0 0 25 26" fill="none" xmlns="http://www.w3.org/2000/svg">
<path d="M19.8961 9.83154H13.3394V4.98047H21.7358L19.8961 9.83154Z" fill="#006182"/>
<path d="M15.6016 15.0073H13.3394V11.0117H17.4413L15.6016 15.0073Z" fill="#006182"/>
<path d="M9.22608 4.97461C8.39598 6.39734 7.04799 7.29297 5.18213 7.6615V9.7862C6.01613 9.60524 6.82443 9.32038 7.58831 8.9382V21.0339H12.0567V4.97461H9.22608Z" fill="#006182"/>
<path d="M22.6988 9.46092C23.521 11.8708 23.4799 14.4938 22.5828 16.8765C21.6856 19.2591 19.9888 21.2516 17.7856 22.5092C15.5825 23.7669 13.0115 24.2107 10.5175 23.764C8.0234 23.3172 5.76298 22.0079 4.12711 20.0626C2.49124 18.1172 1.58277 15.6581 1.55881 13.1104C1.53485 10.5627 2.39691 8.08676 3.99591 6.11063C5.5949 4.1345 7.8303 2.78246 10.3155 2.28833C12.8007 1.7942 15.3795 2.18905 17.606 3.40459C17.8191 2.98153 18.0864 2.4513 18.3258 1.99628C15.7643 0.607958 12.7997 0.167456 9.94844 0.75152C7.09721 1.33558 4.54011 2.90719 2.72266 5.19252C0.90522 7.47784 -0.0573559 10.332 0.00264469 13.2578C0.0626453 16.1835 1.14142 18.9953 3.05101 21.2033C4.96061 23.4114 7.57996 24.8756 10.4527 25.3409C13.3255 25.8063 16.2695 25.2432 18.7719 23.7498C21.2742 22.2565 23.1763 19.9275 24.1467 17.1687C25.1171 14.4098 25.0943 11.3961 24.0823 8.6524L22.6988 9.46092Z" fill="#009CE0"/>
</svg>
