<svg width="85" height="85" viewBox="0 0 85 85" fill="none" xmlns="http://www.w3.org/2000/svg">
<path d="M34.4595 75.6055C35.1159 76.2619 35.9036 76.9183 36.8225 77.3122L47.1936 82.1695C49.294 83.0884 51.5258 83.2197 53.6262 82.432C55.7267 81.6444 57.4333 80.069 58.3523 78.0998L63.2096 67.7288C64.6536 64.5781 63.9972 60.771 61.503 58.2767C60.8466 57.6203 60.0589 56.9639 59.1399 56.5701L48.7689 51.7128C44.568 49.7436 39.5794 51.5815 37.6102 55.7824L32.7529 66.1535C31.3088 69.1729 31.9652 73.1112 34.4595 75.6055ZM57.6959 61.9525C58.6148 62.8715 58.8774 64.1843 58.3523 65.3658L53.4949 75.7368C53.1011 76.5245 52.576 77.0496 51.7883 77.3122C51.0006 77.5747 50.213 77.5747 49.4253 77.1809L39.0543 72.3236C37.6102 71.6672 36.9538 69.8293 37.6102 68.3852L42.4675 58.0142C43.1239 56.5701 44.9618 55.9137 46.4059 56.5701L56.9082 61.2962C57.1708 61.4274 57.5646 61.69 57.6959 61.9525Z" fill="#B0BDC6"/>
<path d="M36.9536 73.9056C37.4787 74.4307 38.1351 74.9558 38.9228 75.2184L47.3246 79.1567C49.0313 79.9444 50.8692 80.0757 52.5758 79.4193C54.2824 78.7629 55.7265 77.5814 56.3829 75.8748L60.3212 67.4729C61.5027 64.8474 60.9776 61.6967 59.0084 59.7275C58.4833 59.2024 57.8269 58.6772 57.0393 58.4147L48.6374 54.4763C45.2242 52.901 41.1545 54.345 39.5792 57.7583L35.6408 66.1601C34.4593 68.7857 34.9844 71.9364 36.9536 73.9056ZM55.989 62.8782C56.7767 63.6658 56.908 64.7161 56.5141 65.635L52.5758 74.0369C52.3132 74.6933 51.7881 75.0871 51.1317 75.3497C50.4753 75.6122 49.8189 75.4809 49.2938 75.2184L40.892 71.28C39.7105 70.7549 39.1853 69.1795 39.7105 67.998L43.6488 59.5962C44.1739 58.4147 45.618 57.8896 46.9308 58.4147L55.3326 62.3531C55.4639 62.4843 55.7265 62.6156 55.989 62.8782ZM82.5073 70.6236C82.5073 70.6236 87.7585 73.9056 81.0633 80.6008C74.3681 87.296 71.0861 82.0449 71.0861 82.0449L82.5073 70.6236Z" fill="#898A90"/>
<path d="M80.6689 72.459C80.6689 72.459 86.1827 75.4784 81.0628 80.5983C75.9429 85.7181 72.9235 80.2044 72.9235 80.2044L80.6689 72.459Z" fill="#B0BDC6"/>
<path d="M49.2932 4.32227L82.5067 70.3555C84.8697 74.0313 74.4987 84.4023 70.8229 82.0393L4.92094 48.8258L49.2932 4.32227Z" fill="#009CE0"/>
<path d="M1.90232 46.1977L3.74023 48.0356C8.33498 52.6304 21.988 46.329 34.3282 33.9888C46.6684 21.5173 53.101 7.8643 48.5063 3.26954L46.6684 1.43164L1.90232 46.1977Z" fill="#898A90"/>
<path d="M3.60884 44.6247L8.46615 49.482C8.46615 49.482 18.7059 49.6133 34.3281 33.8599C50.0815 18.2377 49.9503 7.99794 49.9503 7.99794L45.0929 3.14062L3.60884 44.6247Z" fill="#DFE9EF"/>
<path d="M16.0834 15.6114C3.74316 27.9516 -2.55822 41.7359 2.03654 46.1994C6.63129 50.7941 20.2843 44.4928 32.6245 32.1525C44.9647 19.8123 51.2661 6.02807 46.6713 1.43331C42.0766 -3.03017 28.4236 3.27121 16.0834 15.6114Z" fill="#B0BDC6"/>
<path d="M32.6233 32.1526C23.8276 40.9483 14.3756 46.5933 8.07419 47.6435C9.12442 41.2109 14.7694 31.8901 23.5651 23.0944C32.3608 14.2987 41.8128 8.65375 48.1142 7.60352C47.064 13.9049 41.2877 23.357 32.6233 32.1526Z" fill="#898A90"/>
</svg>
