<svg width="139" height="261" viewBox="0 0 139 261" fill="none" xmlns="http://www.w3.org/2000/svg">
<path d="M52.9363 48.6705L47.511 39.1065C50.8715 33.6567 52.072 27.147 50.8765 20.8569C49.6809 14.5669 46.1758 8.95162 41.0501 5.11484C35.9244 1.27805 29.5489 -0.502685 23.1769 0.122684C16.8049 0.748053 10.8973 3.73429 6.61532 8.49438C2.33336 13.2545 -0.0131964 19.4441 0.0369193 25.8465C0.087035 32.2489 2.5302 38.4011 6.88615 43.0935C11.2421 47.786 17.1958 50.6794 23.5768 51.2049C29.9578 51.7305 36.3046 49.8502 41.3696 45.9336L52.9363 48.6705Z" fill="#FAFAFA"/>
<path d="M52.9357 48.6704L41.3448 46.0246H41.2295L41.3023 45.9275L41.4116 46.0428C39.7883 47.3018 38.0223 48.3651 36.1501 49.2106C33.9191 50.2103 31.5569 50.8867 29.1349 51.2192C27.7943 51.4062 26.4397 51.4732 25.0871 51.4195C24.3893 51.3831 23.6792 51.3649 22.9632 51.3042L20.8027 50.9765C15.8062 49.9974 11.2109 47.562 7.59555 43.9768C3.98016 40.3917 1.50624 35.8171 0.485227 30.8289C-0.253069 27.058 -0.149459 23.1705 0.788655 19.4443C1.74765 15.5527 3.61989 11.9455 6.25035 8.92142L7.29415 7.77446C7.63398 7.38608 8.04665 7.06444 8.41683 6.71247C8.78701 6.36049 9.15719 5.99638 9.58199 5.69902L10.7957 4.78267C11.1983 4.47232 11.6221 4.19046 12.064 3.93914L13.3627 3.15023L14.7221 2.49482C15.1661 2.2641 15.6242 2.06142 16.0935 1.88797C19.7362 0.447955 23.6563 -0.15354 27.5631 0.128087C31.258 0.379713 34.8525 1.44044 38.0921 3.23519C43.9024 6.47954 48.2466 11.8294 50.2292 18.182C51.0172 20.8855 51.3916 23.6926 51.3397 26.5081C51.2065 31.001 49.8875 35.3788 47.5165 39.1974V39.1185L52.875 48.719L47.4437 39.1489V39.1064V39.07C48.4913 37.3528 49.3364 35.52 49.9621 33.6083C50.7036 31.3012 51.1123 28.9002 51.1759 26.4777C51.2185 23.6874 50.8379 20.9068 50.0471 18.2306C48.0689 11.9471 43.755 6.66225 37.995 3.46579C34.7891 1.70611 31.2366 0.67039 27.5874 0.431515C23.7312 0.143619 19.8595 0.724267 16.2574 2.13071C15.7904 2.30521 15.3344 2.50786 14.892 2.73756L13.5508 3.39297L12.2704 4.16974C11.834 4.4192 11.4143 4.69692 11.0142 5.00113L9.80046 5.91142C9.38779 6.20271 9.04189 6.57896 8.6535 6.90666C8.26511 7.23436 7.88886 7.59241 7.54902 7.95045L6.51737 9.08527C3.9109 12.0708 2.0532 15.6343 1.09815 19.4807C0.170223 23.1608 0.0645558 27.0002 0.788655 30.7257C1.49285 34.2497 2.94111 37.5828 5.03664 40.5022C8.81668 45.7733 14.4553 49.4146 20.8149 50.6913L22.9571 51.019C23.6671 51.0797 24.3711 51.1039 25.0629 51.1403C26.4029 51.198 27.7454 51.135 29.0742 50.9522C31.4771 50.6336 33.8228 49.9757 36.0409 48.9982C37.9053 48.1623 39.6668 47.1136 41.2902 45.8728L41.7635 45.5087L41.3994 45.9821L41.3569 45.8607L52.9357 48.6704Z" fill="#263238"/>
<path d="M8.78027 28.3535L9.42961 26.9092C10.2336 27.4678 11.1876 27.7703 12.1665 27.777C13.3013 27.777 13.7686 27.3947 13.7686 26.885C13.7686 25.3314 8.91378 26.3995 8.91378 23.3167C8.91378 21.9087 10.0486 20.7375 12.4093 20.7375C13.417 20.7167 14.4113 20.9705 15.2858 21.4718L14.6789 22.9283C14.0063 22.5295 13.2451 22.3043 12.4639 22.2729C11.323 22.2729 10.8861 22.7037 10.8861 23.2256C10.8861 24.7549 15.7409 23.699 15.7409 26.7454C15.7409 28.129 14.5939 29.3184 12.2211 29.3184C11.0021 29.3599 9.80003 29.0229 8.78027 28.3535Z" fill="#263238"/>
<path d="M16.3896 25.9862C16.3896 24.0625 17.8704 22.7031 19.8973 22.7031C21.9242 22.7031 23.3867 24.0625 23.3867 25.9862C23.3867 27.9099 21.9181 29.2693 19.8912 29.2693C17.8643 29.2693 16.3896 27.9039 16.3896 25.9862ZM21.5176 25.9862C21.4916 25.6698 21.374 25.3679 21.179 25.1173C20.9841 24.8667 20.7203 24.6785 20.42 24.5755C20.1197 24.4726 19.7959 24.4594 19.4882 24.5377C19.1806 24.6159 18.9024 24.7822 18.6878 25.0161C18.4731 25.25 18.3314 25.5414 18.2798 25.8547C18.2283 26.1679 18.2692 26.4894 18.3975 26.7798C18.5259 27.0701 18.7361 27.3167 19.0025 27.4895C19.2689 27.6622 19.5798 27.7535 19.8973 27.7522C20.1234 27.755 20.3476 27.71 20.5553 27.6203C20.7629 27.5305 20.9492 27.398 21.1021 27.2313C21.2551 27.0647 21.3711 26.8676 21.4427 26.6531C21.5143 26.4385 21.5398 26.2113 21.5176 25.9862Z" fill="#263238"/>
<path d="M28.5838 22.7014V24.4067C28.4321 24.4067 28.3107 24.4067 28.1711 24.4067C27.9357 24.3854 27.6986 24.4174 27.4772 24.5004C27.2559 24.5834 27.0562 24.7153 26.8929 24.8861C26.7296 25.057 26.6069 25.2625 26.5341 25.4874C26.4612 25.7122 26.4399 25.9506 26.4719 26.1848V29.2191H24.6514V22.7925H26.4234V23.636C26.6825 23.3188 27.0139 23.0684 27.3899 22.9058C27.7658 22.7432 28.1752 22.6731 28.5838 22.7014Z" fill="#263238"/>
<path d="M33.6443 22.7032V24.4085C33.4866 24.4085 33.3713 24.4085 33.2256 24.4085C32.2061 24.4085 31.5325 24.9668 31.5325 26.1865V29.2208H29.7119V22.7942H31.4779V23.6378C31.7386 23.3209 32.0712 23.0708 32.448 22.9082C32.8248 22.7457 33.2349 22.6754 33.6443 22.7032Z" fill="#263238"/>
<path d="M41.2956 22.7938L38.4191 29.5663C37.8122 31.1017 36.9202 31.5689 35.7732 31.5689C35.1285 31.5762 34.5009 31.362 33.9951 30.9621L34.6687 29.6452C34.9589 29.8978 35.3279 30.0416 35.7125 30.0518C36.2223 30.0518 36.5075 29.8212 36.7563 29.2568V29.1961L33.9951 22.7695H35.9006L37.7212 27.0964L39.5418 22.7695L41.2956 22.7938Z" fill="#263238"/>
<path d="M41.7822 28.1885C41.8032 27.9011 41.9322 27.6323 42.1433 27.4361C42.3544 27.2398 42.6319 27.1308 42.9201 27.1308C43.2083 27.1308 43.4858 27.2398 43.6969 27.4361C43.9079 27.6323 44.0369 27.9011 44.0579 28.1885C44.0369 28.4759 43.9079 28.7448 43.6969 28.941C43.4858 29.1372 43.2083 29.2462 42.9201 29.2462C42.6319 29.2462 42.3544 29.1372 42.1433 28.941C41.9322 28.7448 41.8032 28.4759 41.7822 28.1885ZM41.8186 20.9062H44.0215L43.6513 26.3255H42.201L41.8186 20.9062Z" fill="#263238"/>
<path d="M78.3721 64.3336L87.7965 60.8441L111.136 59.1328L117.278 61.008L108.994 96.6911L88.634 101.091L79.1913 88.5592L78.3721 64.3336Z" fill="#FDDDCC"/>
<path d="M131.253 65.7897L116.039 60.3887C116.039 60.3887 101.772 80.7972 78.3716 64.3029C78.3716 64.3029 68.1097 67.9926 66.5804 68.8422C65.0511 69.6918 73.717 95.6227 73.717 95.6227L72.6975 127.865C86.0483 134.753 107.41 132.192 126.004 129.079L125.47 93.2742L131.253 65.7897Z" fill="#7C7EF3"/>
<path d="M125.342 36.5389C126.131 35.4051 126.477 34.0216 126.315 32.6499C126.153 31.2782 125.494 30.0133 124.463 29.0943C123.432 28.1752 122.1 27.6658 120.719 27.6621C119.338 27.6585 118.003 28.161 116.967 29.0746L113.933 34.4574C112.23 36.4937 111.112 38.9539 110.698 41.5758C110.306 44.2233 110.938 46.9207 112.464 49.119C113.23 50.182 114.216 51.0673 115.355 51.7143C116.494 52.3613 117.76 52.7548 119.065 52.8679C120.37 52.981 121.684 52.8111 122.918 52.3698C124.151 51.9284 125.275 51.226 126.212 50.3105C127.149 49.395 127.877 48.2881 128.347 47.0653C128.817 45.8425 129.018 44.5326 128.935 43.2251C128.853 41.9177 128.489 40.6435 127.869 39.4895C127.249 38.3356 126.387 37.3291 125.342 36.5389Z" fill="#263238"/>
<path d="M117.452 36.9573C117.361 35.1367 117.167 33.3161 117.683 31.5502C117.94 30.9148 118.107 30.247 118.181 29.5658C118.176 29.0698 118.02 28.5871 117.733 28.1827C117.446 27.7782 117.042 27.4714 116.575 27.3035C116.108 27.1356 115.601 27.1147 115.123 27.2435C114.644 27.3724 114.216 27.6449 113.896 28.0244L113.811 28.2246C112.761 29.0742 112.258 30.4154 111.845 31.7019C111.209 33.7071 110.691 35.7476 110.292 37.8129C110.011 38.9641 109.943 40.1571 110.091 41.3327C110.171 41.9186 110.387 42.4774 110.724 42.9636C111.06 43.4498 111.507 43.8496 112.027 44.1303C113.678 44.8949 115.717 43.839 116.621 42.2673C117.525 40.6955 117.562 38.7657 117.452 36.9573Z" fill="#7C7EF3"/>
<path d="M115.208 30.7191C114.862 28.6558 113.964 26.7139 113.648 24.6506C113.236 21.9379 113.849 19.1889 114 16.4459C114.152 13.7029 113.721 10.6868 111.713 8.81771C109.57 6.82115 106.348 6.73013 103.465 6.20823C100.188 5.60137 97.0813 4.32091 93.8589 3.46524C90.6365 2.60958 87.1471 2.20298 84.0279 3.37421C81.206 4.43014 78.997 6.64517 77.0005 8.8966C73.7599 12.5438 70.7256 16.8646 70.7256 21.7437C70.7256 24.2743 71.6177 26.726 71.9393 29.2384C72.2488 31.6658 72.0546 34.0932 72.619 36.5207C73.1833 38.9481 74.7855 41.2541 77.1765 41.6911L103.405 44.3127C105.126 44.3604 106.836 44.0258 108.412 43.3332C109.989 42.6405 111.392 41.6069 112.521 40.3068C113.65 39.0068 114.476 37.4726 114.941 35.8147C115.405 34.1568 115.497 32.4165 115.208 30.7191Z" fill="#263238"/>
<path d="M108.07 17.8543L108.003 14.644L88.5841 11.7615C82.6248 11.3731 76.447 17.5873 76.3135 23.5587C76.1679 30.1917 76.2468 38.2992 77.2299 43.2087C79.2082 53.0762 86.8728 54.0289 86.8728 54.0289V59.6363C86.876 62.6235 88.0645 65.4874 90.1774 67.5992C92.2903 69.7109 95.1548 70.8979 98.1421 70.8995C99.6526 70.8995 101.148 70.5958 102.539 70.0065C103.929 69.4171 105.188 68.5542 106.238 67.469C107.289 66.3837 108.111 65.0983 108.655 63.6892C109.199 62.28 109.454 60.7758 109.405 59.2661L108.07 17.8543Z" fill="#FDDDCC"/>
<path d="M80.4326 30.172C80.4497 30.4999 80.5922 30.8087 80.8305 31.0345C81.0688 31.2604 81.3847 31.3861 81.7131 31.3857C81.877 31.3931 82.0407 31.3671 82.1943 31.3095C82.348 31.2518 82.4883 31.1635 82.6068 31.0501C82.7254 30.9367 82.8197 30.8003 82.8841 30.6494C82.9485 30.4985 82.9816 30.3361 82.9814 30.172C82.9643 29.8441 82.8219 29.5353 82.5836 29.3094C82.3453 29.0835 82.0293 28.9578 81.7009 28.9583C81.537 28.9509 81.3733 28.9768 81.2197 29.0345C81.0661 29.0922 80.9257 29.1804 80.8072 29.2938C80.6886 29.4073 80.5943 29.5436 80.5299 29.6945C80.4656 29.8455 80.4325 30.0079 80.4326 30.172Z" fill="#263238"/>
<path d="M78.6127 27.6901C78.7766 27.8479 79.7172 27.0832 81.0826 27.0468C82.4481 27.0104 83.5101 27.6537 83.6314 27.4656C83.6982 27.3867 83.5283 27.0954 83.0731 26.792C82.4628 26.4069 81.7489 26.2183 81.028 26.2519C80.3161 26.2771 79.6311 26.5302 79.0739 26.974C78.6491 27.3138 78.5217 27.6173 78.6127 27.6901Z" fill="#263238"/>
<path d="M93.4014 29.7364C93.4185 30.0643 93.5609 30.3731 93.7992 30.599C94.0375 30.8249 94.3535 30.9506 94.6818 30.9501C94.8458 30.9575 95.0095 30.9316 95.1631 30.8739C95.3167 30.8162 95.457 30.728 95.5756 30.6146C95.6941 30.5011 95.7885 30.3648 95.8528 30.2139C95.9172 30.0629 95.9503 29.9005 95.9502 29.7364C95.9331 29.4085 95.7906 29.0997 95.5523 28.8739C95.314 28.648 94.998 28.5223 94.6697 28.5227C94.5058 28.5153 94.3421 28.5413 94.1884 28.5989C94.0348 28.6566 93.8945 28.7449 93.7759 28.8583C93.6574 28.9717 93.5631 29.1081 93.4987 29.259C93.4343 29.4099 93.4012 29.5723 93.4014 29.7364Z" fill="#263238"/>
<path d="M92.0854 27.3991C92.2493 27.5569 93.1838 26.7922 94.5553 26.7558C95.9268 26.7194 96.9828 27.3627 97.0981 27.1745C97.1709 27.0957 97.001 26.8044 96.5458 26.5009C95.9355 26.1158 95.2216 25.9273 94.5007 25.9608C93.7973 25.9916 93.1217 26.2444 92.5709 26.683C92.134 27.0107 92.0065 27.3263 92.0854 27.3991Z" fill="#263238"/>
<path d="M87.5226 37.7634C86.7919 37.5676 86.0397 37.4636 85.2833 37.4539C84.9313 37.4539 84.5976 37.375 84.5247 37.1383C84.4843 36.7788 84.5519 36.4155 84.7189 36.0945C85.0163 35.2328 85.3258 34.3286 85.6474 33.388C86.9279 29.5344 87.8442 26.4031 87.7168 26.3181C87.5894 26.2331 86.3939 29.3524 85.1134 33.2059C84.8039 34.1526 84.5065 35.0568 84.2274 35.9246C84.0117 36.359 83.9579 36.856 84.0757 37.3265C84.1325 37.4487 84.2169 37.5562 84.3221 37.6404C84.4274 37.7246 84.5508 37.7833 84.6825 37.8119C84.8814 37.8576 85.0853 37.878 85.2894 37.8726C86.0354 37.9315 86.7859 37.8948 87.5226 37.7634Z" fill="#263238"/>
<path d="M86.8955 54.0522C91.6837 53.9333 96.3484 52.5084 100.386 49.9316C100.386 49.9316 97.212 57.0501 86.8955 56.5524V54.0522Z" fill="#EB996E"/>
<path d="M88.2371 41.0467C88.4812 40.7053 88.8097 40.433 89.1905 40.2565C89.5713 40.0799 89.9913 40.0051 90.4096 40.0393C90.7142 40.0521 91.0129 40.127 91.2874 40.2596C91.5619 40.3921 91.8063 40.5795 92.0057 40.81C92.1966 41.0314 92.3152 41.3059 92.3455 41.5966C92.3759 41.8873 92.3166 42.1804 92.1756 42.4364C91.9652 42.6911 91.6837 42.8773 91.367 42.9714C91.0503 43.0654 90.7128 43.063 90.3975 42.9644C89.7421 42.7629 89.1335 42.4328 88.6073 41.9934C88.4471 41.8878 88.3073 41.7542 88.1946 41.599C88.146 41.5228 88.1201 41.4344 88.1201 41.3441C88.1201 41.2538 88.146 41.1653 88.1946 41.0892" fill="#EB996E"/>
<path d="M98.4091 23.3282C98.3302 22.9398 96.9466 22.9155 95.3748 22.4907C93.803 22.0659 92.5833 21.4409 92.3405 21.7443C92.2252 21.8839 92.3951 22.2662 92.8624 22.697C93.4914 23.2376 94.2353 23.6279 95.0375 23.8382C95.8398 24.0485 96.6794 24.0733 97.4927 23.9108C98.1057 23.759 98.4394 23.5102 98.4091 23.3282Z" fill="#263238"/>
<path d="M82.5512 22.3368C82.1204 22.2093 81.1373 23.0771 79.79 23.7932C78.4428 24.5093 77.1806 24.8977 77.0653 25.3225C77.0228 25.5228 77.3444 25.7048 77.9816 25.7109C78.8579 25.6779 79.7135 25.4344 80.4758 25.0009C81.2483 24.6035 81.911 24.022 82.4056 23.3077C82.7393 22.7616 82.7515 22.4096 82.5512 22.3368Z" fill="#263238"/>
<path d="M104.447 8.38086L89.4698 9.55816L77.0596 13.8365C78.6556 17.3138 78.959 20.1721 82.7701 20.5119C84.6806 20.6784 86.6018 20.3525 88.3505 19.5653C90.0992 18.778 91.617 17.5558 92.7589 16.0151C93.4022 18.8309 96.576 20.2631 99.4343 20.6636C101.457 21.0302 103.542 20.8414 105.466 20.1174C107.342 19.3164 108.932 17.6293 109.187 15.6024C109.441 13.5755 106.462 8.71463 104.447 8.38086Z" fill="#263238"/>
<path d="M116.311 18.3333C115.476 16.7847 114.11 15.5905 112.463 14.9713L112.081 12.0645L100.982 15.566C98.3539 19.729 99.5555 25.7976 103.609 28.7166L103.658 30.8224C103.706 33.0305 104.316 35.1899 105.43 37.0972L108.95 44.7618C111.535 44.8225 112.123 42.0249 113.149 39.7371C114.175 37.4492 114.187 34.8822 114.096 32.3698C114.051 31.1561 113.989 29.9424 113.908 28.7287C114.697 27.3936 115.819 26.1496 116.481 24.7295C116.941 23.7208 117.165 22.6202 117.136 21.5117C117.106 20.4032 116.824 19.3161 116.311 18.3333Z" fill="#263238"/>
<path d="M105.14 31.4675C105.291 31.3886 111.208 29.0401 111.566 35.2664C111.924 41.4927 105.625 40.5703 105.607 40.3943C105.589 40.2183 105.14 31.4675 105.14 31.4675Z" fill="#FDDDCC"/>
<path d="M107.36 37.9352C107.36 37.9352 107.476 38.008 107.664 38.0809C107.927 38.1742 108.217 38.1612 108.471 38.0445C109.114 37.7653 109.606 36.6912 109.563 35.5685C109.549 35.0355 109.414 34.5128 109.169 34.0392C109.099 33.8486 108.985 33.6777 108.835 33.5413C108.685 33.405 108.503 33.3072 108.307 33.2564C108.183 33.2344 108.055 33.2556 107.945 33.3163C107.834 33.377 107.748 33.4736 107.7 33.5901C107.627 33.7722 107.67 33.8936 107.64 33.9057C107.609 33.9178 107.5 33.8086 107.536 33.5477C107.561 33.393 107.638 33.2515 107.755 33.1471C107.838 33.0753 107.934 33.021 108.038 32.9876C108.143 32.9542 108.253 32.9424 108.362 32.9529C108.624 32.9837 108.874 33.0821 109.087 33.2384C109.299 33.3948 109.468 33.6039 109.575 33.845C109.872 34.3682 110.036 34.9555 110.055 35.5563C110.091 36.8125 109.521 38.0202 108.635 38.3297C108.472 38.3897 108.298 38.4116 108.125 38.3937C107.953 38.3758 107.787 38.3186 107.64 38.2265C107.379 38.0748 107.342 37.9352 107.36 37.9352Z" fill="#EB996E"/>
<path d="M115.661 17.5924C115.758 17.5924 115.819 17.9019 115.722 18.4056C115.555 19.1227 115.211 19.7863 114.721 20.3354C113.981 21.1849 112.983 21.7689 111.88 21.9982C110.594 22.2713 109.307 21.9982 108.239 22.1135C107.673 22.1955 107.117 22.3317 106.577 22.5201C106.285 22.605 105.97 22.69 105.666 22.7567C105.363 22.8235 105.059 22.8721 104.768 22.9085C103.7 23.0739 102.609 22.9845 101.582 22.6475C100.878 22.4117 100.25 21.9928 99.7616 21.4338C99.4339 21.0393 99.3489 20.7602 99.4217 20.6934C99.6038 20.5114 100.368 21.3003 101.849 21.5612C102.736 21.6926 103.639 21.6577 104.513 21.4581C104.768 21.4095 105.029 21.3488 105.29 21.2821C105.551 21.2153 105.806 21.1243 106.085 21.0272C106.718 20.79 107.375 20.6231 108.045 20.5296C109.526 20.4022 110.691 20.7056 111.613 20.5296C112.462 20.4028 113.259 20.046 113.919 19.4979C115.115 18.5573 115.424 17.5317 115.661 17.5924Z" fill="white"/>
<path d="M92.9533 40.2952C92.9897 40.4712 91.776 40.8414 90.4288 41.5575C89.0815 42.2736 88.0863 43.0625 87.9589 42.929C87.8314 42.7955 88.681 41.7638 90.1314 40.9992C91.5818 40.2346 92.929 40.1314 92.9533 40.2952Z" fill="#263238"/>
<path d="M94.04 41.2415C93.9551 41.199 94.1068 40.7682 93.9793 40.2523C93.8519 39.7365 93.5545 39.4027 93.6092 39.336C93.6638 39.2692 94.1493 39.5423 94.2888 40.1795C94.4284 40.8167 94.1068 41.2961 94.04 41.2415Z" fill="#EB996E"/>
<path d="M96.9228 31.2119C96.9956 31.2483 96.6983 31.8187 95.9943 32.1586C95.2904 32.4984 94.6532 32.3528 94.6774 32.2678C94.7017 32.1829 95.2539 32.1707 95.8608 31.8734C96.4677 31.576 96.85 31.1573 96.9228 31.2119Z" fill="#EB996E"/>
<path d="M97.4979 31.6909C97.5707 31.7395 97.3401 32.1461 96.8486 32.4131C96.357 32.6801 95.8958 32.6558 95.8897 32.5709C95.8837 32.4859 96.272 32.3706 96.6968 32.1339C97.1216 31.8973 97.4251 31.6363 97.4979 31.6909Z" fill="#EB996E"/>
<path d="M80.5025 33.0074C80.5025 33.0924 80.1627 33.147 79.8107 32.9649C79.4587 32.7829 79.307 32.4794 79.3738 32.4248C79.4405 32.3702 79.6651 32.5341 79.9806 32.6797C80.2962 32.8253 80.5086 32.9164 80.5025 33.0074Z" fill="#EB996E"/>
<path d="M80.4359 33.7411C80.4359 33.826 80.0475 33.8321 79.6348 33.644C79.2222 33.4559 78.9734 33.1646 79.028 33.1039C79.0826 33.0432 79.3921 33.1888 79.7623 33.3588C80.1325 33.5287 80.4662 33.6865 80.4359 33.7411Z" fill="#EB996E"/>
<path d="M89.2638 21.6055C88.5659 22.1667 87.7197 22.5127 86.8285 22.601C85.9373 22.6894 85.0396 22.5164 84.2451 22.1031C85.0874 22.2581 85.9442 22.3192 86.8 22.2851C87.6439 22.1506 88.4703 21.9226 89.2638 21.6055Z" fill="#EB996E"/>
<path d="M89.8518 22.2418C89.7188 22.4894 89.5339 22.7054 89.3098 22.8751C89.0857 23.0447 88.8276 23.1641 88.5531 23.2249C88.2946 23.3356 88.0149 23.3881 87.7339 23.3786C87.4528 23.3692 87.1773 23.2981 86.9268 23.1703C87.4407 23.1152 87.9512 23.0322 88.456 22.9214C89.2692 22.6726 89.7851 22.1568 89.8518 22.2418Z" fill="#EB996E"/>
<path d="M78.9829 18.4107C78.9829 18.4107 78.9222 18.356 78.8312 18.2347C78.6967 18.0568 78.5808 17.8657 78.4853 17.6642C78.1367 16.9188 77.9684 16.1018 77.9937 15.2793C77.9937 13.1978 79.2074 10.3577 81.6348 8.28831C82.7605 7.31104 84.0739 6.57383 85.4944 6.12183C86.65 5.75754 87.8575 5.58533 89.0688 5.61207C89.8879 5.62254 90.7027 5.73051 91.4962 5.93371C91.7693 6.00653 91.9817 6.07328 92.1031 6.1279C92.2245 6.18252 92.3155 6.21286 92.3094 6.225C91.2416 5.98235 90.1516 5.85017 89.0567 5.83054C87.871 5.8385 86.6938 6.03095 85.5673 6.40098C84.1936 6.85611 82.9232 7.5779 81.829 8.52498C79.4866 10.5397 78.2729 13.2767 78.2304 15.2853C78.1864 16.0807 78.3168 16.8761 78.6127 17.6157C78.819 18.1376 79.0072 18.3924 78.9829 18.4107Z" fill="#455A64"/>
<path d="M101.372 20.6443C101.19 20.6325 101.012 20.5915 100.844 20.5229C100.376 20.3637 99.9254 20.1605 99.4965 19.9161C98.0649 19.1135 96.8408 17.9871 95.9221 16.6269C95.4591 15.8419 95.1617 14.9703 95.0483 14.066C94.9417 13.3409 94.899 12.6078 94.9208 11.8753C94.9339 11.3828 94.9826 10.892 95.0665 10.4067C95.0826 10.2267 95.1277 10.0504 95.2 9.88477C95.2546 9.88477 95.1272 10.6494 95.1454 11.8813C95.1525 12.5972 95.2153 13.3114 95.3335 14.0174C95.4612 14.8738 95.7517 15.6977 96.1892 16.4449C97.0871 17.7673 98.2532 18.8859 99.6118 19.728C100.656 20.3712 101.39 20.5958 101.372 20.6443Z" fill="#455A64"/>
<path d="M83.7237 18.3266C83.629 18.1352 83.5635 17.9306 83.5295 17.7198C83.4097 17.1616 83.3547 16.5914 83.3656 16.0206C83.3739 14.1014 84.0627 12.2474 85.3094 10.7884C86.5562 9.32939 88.2801 8.35995 90.1745 8.05256C90.737 7.95228 91.3095 7.91968 91.8798 7.95546C92.0854 7.95718 92.2896 7.98783 92.4867 8.04649C91.7199 8.06981 90.9555 8.14482 90.1988 8.27103C88.3824 8.62903 86.74 9.5895 85.5373 10.997C84.3347 12.4045 83.6422 14.1766 83.5719 16.0266C83.5646 16.796 83.6153 17.5649 83.7237 18.3266Z" fill="#455A64"/>
<path d="M103.829 6.6031C102.53 6.41925 101.21 6.45 99.9206 6.69413C98.6517 7.03321 97.4479 7.58077 96.3584 8.31443C96.593 7.99473 96.8903 7.72627 97.2323 7.52552C98.8308 6.43671 100.781 5.99034 102.694 6.2754C103.09 6.31047 103.475 6.42174 103.829 6.6031Z" fill="#455A64"/>
<path d="M125.735 36.667C125.42 36.9948 123.83 35.9267 121.657 35.2956C119.485 34.6644 117.579 34.6219 117.5 34.1729C117.47 33.9665 117.943 33.6813 118.793 33.5296C119.906 33.367 121.041 33.4518 122.117 33.778C123.193 34.1042 124.184 34.6638 125.019 35.4169C125.638 36.0116 125.875 36.5153 125.735 36.667Z" fill="white"/>
<path d="M124.782 38.2876C124.782 38.2876 125.055 38.148 125.529 37.8749C126.188 37.4878 126.774 36.9864 127.258 36.3942C127.978 35.5302 128.434 34.4765 128.569 33.3599C128.708 31.983 128.341 30.6027 127.537 29.4761C126.712 28.3502 125.495 27.5732 124.127 27.2974C123.017 27.0599 121.869 27.0599 120.759 27.2974C119.736 27.5447 118.732 27.8651 117.755 28.2563C117.988 28.0886 118.241 27.9501 118.507 27.8436C119.214 27.5093 119.954 27.2529 120.716 27.079C121.855 26.8031 123.04 26.7823 124.188 27.0183C125.624 27.2906 126.905 28.0946 127.774 29.2697C128.554 30.3429 128.943 31.6511 128.876 32.9763C128.809 34.3015 128.289 35.5635 127.404 36.552C126.895 37.1453 126.277 37.6356 125.583 37.9963C125.387 38.0942 125.185 38.1773 124.976 38.2451C124.913 38.2664 124.848 38.2807 124.782 38.2876Z" fill="#263238"/>
<path d="M74.609 129.326C74.609 129.326 61.689 156.55 61.8165 169.081C61.9014 176.97 72.9462 260.935 72.9462 260.935H96.4801L98.3917 182.711L100.006 180.551L101.013 183.015C101.013 183.015 97.4632 258.999 98.2946 260.935H124.602C124.602 260.935 132.964 200.686 134.075 191.559C135.185 182.432 136.502 178.063 135.932 164.785C135.361 151.507 126.052 129.326 126.052 129.326C126.052 129.326 90.3751 135.134 74.609 129.326Z" fill="#263238"/>
<path d="M75.797 129.508L73.6123 137.021L79.9115 138.374L81.6835 130.813L75.797 129.508Z" fill="#455A64"/>
<path d="M84.076 131.129L82.8016 138.374C87.7325 138.879 92.6897 139.082 97.6453 138.981C105.031 138.781 112.246 138.162 115.481 137.033L114.54 130.57C114.54 130.57 90.1446 132.81 84.076 131.129Z" fill="#455A64"/>
<path d="M117.688 130.206L119.248 136.578C119.248 136.578 124.285 136.026 126.36 134.813L124.625 129.09L117.688 130.206Z" fill="#455A64"/>
<path d="M84.0758 259.887C84.0151 258.151 83.1534 233.148 82.0307 200.5C81.5088 184.115 81.1386 169.234 81.0294 158.481C81.0294 155.793 81.0294 153.359 80.999 151.199C80.9687 149.038 81.0355 147.23 81.0476 145.737C81.0597 144.244 81.1265 143.079 81.1508 142.278C81.1508 141.89 81.1508 141.592 81.1811 141.374C81.2114 141.155 81.1811 141.07 81.1811 141.07C81.1811 141.07 81.1811 141.173 81.1811 141.38C81.1811 141.586 81.1811 141.89 81.1811 142.278C81.1811 143.085 81.1811 144.244 81.1386 145.737C81.0961 147.23 81.1386 149.087 81.1386 151.199C81.1386 153.311 81.1811 155.768 81.2114 158.481C81.3753 169.228 81.7819 184.084 82.3038 200.488C82.8257 216.891 83.3051 231.722 83.651 242.482C83.8149 247.859 83.9241 252.192 83.9848 255.226C83.9848 256.719 84.0212 257.878 84.0333 258.685C84.0333 259.073 84.0333 259.371 84.0333 259.589C84.0333 259.808 84.0758 259.887 84.0758 259.887Z" fill="#455A64"/>
<path d="M99.3788 139.467C99.402 139.585 99.4122 139.705 99.4091 139.825C99.4091 140.092 99.4091 140.432 99.4091 140.844C99.4091 141.767 99.4091 143.035 99.4516 144.583C99.4819 147.744 99.5487 152.108 99.6822 156.926C99.8157 161.744 100.01 166.108 100.156 169.263C100.228 170.811 100.283 172.079 100.325 173.002C100.325 173.406 100.338 173.746 100.362 174.021C100.378 174.14 100.378 174.26 100.362 174.379C100.336 174.263 100.318 174.146 100.307 174.027L100.216 173.008C100.137 172.128 100.046 170.853 99.9432 169.276C99.7429 166.12 99.5184 161.757 99.3788 156.938C99.2392 152.12 99.2453 147.775 99.2453 144.583C99.2453 143.005 99.2756 141.724 99.2999 140.838L99.3363 139.825C99.3347 139.704 99.349 139.584 99.3788 139.467Z" fill="#455A64"/>
<path d="M100.375 174.38C100.243 174.365 100.111 174.343 99.9807 174.314L98.858 174.095C97.4721 173.827 96.1024 173.481 94.7557 173.058C94.2986 172.912 93.8621 172.708 93.457 172.451C93.3356 172.369 93.239 172.256 93.1779 172.123C93.1354 171.996 93.099 171.874 93.0625 171.753C93.0003 171.497 92.9537 171.238 92.923 170.976C92.8016 169.914 92.8684 168.797 92.8562 167.62C92.8562 165.259 92.8866 162.674 92.9048 159.962C92.9594 154.542 93.014 149.645 93.0504 146.046C93.0868 144.293 93.1172 142.86 93.1354 141.829C93.1354 141.355 93.1475 140.973 93.1718 140.682C93.1685 140.547 93.1807 140.413 93.2082 140.281C93.221 140.414 93.221 140.549 93.2082 140.682C93.2082 140.973 93.2082 141.355 93.2082 141.829C93.2082 142.86 93.2082 144.293 93.2082 146.046C93.2082 149.639 93.1718 154.542 93.1536 159.962C93.1536 162.68 93.105 165.265 93.0808 167.62C93.0808 168.797 93.014 169.92 93.1172 170.946C93.1439 171.197 93.1864 171.446 93.2446 171.692C93.2749 171.807 93.3053 171.929 93.3417 172.038C93.3886 172.125 93.4551 172.2 93.5359 172.256C93.9144 172.499 94.3222 172.693 94.7496 172.833C96.4185 173.409 97.8324 173.713 98.7973 173.962L99.9079 174.241C100.071 174.259 100.229 174.306 100.375 174.38Z" fill="#455A64"/>
<path d="M113.501 259.886C113.501 259.886 113.501 259.783 113.501 259.576C113.501 259.37 113.531 259.048 113.556 258.654C113.604 257.835 113.683 256.645 113.774 255.122C113.999 252.045 114.314 247.615 114.709 242.141C115.51 231.188 116.626 216.047 117.518 199.31C118.41 182.573 118.732 167.383 118.374 156.405C118.319 155.033 118.259 153.729 118.204 152.497C118.149 151.265 118.113 150.069 118.004 149.007C117.81 146.835 117.706 144.96 117.512 143.436C117.318 141.913 117.142 140.748 117.027 139.935C116.978 139.54 116.936 139.237 116.912 139.018C116.887 138.8 116.881 138.709 116.881 138.709C116.881 138.709 116.881 138.812 116.942 139.018C117.003 139.225 117.027 139.534 117.094 139.923C117.215 140.736 117.403 141.913 117.634 143.418C117.864 144.923 117.967 146.823 118.18 148.995C118.301 150.081 118.35 151.247 118.41 152.485C118.471 153.723 118.532 155.027 118.599 156.399C119.036 167.389 118.677 182.579 117.834 199.328C116.99 216.077 115.789 231.206 114.927 242.16C114.496 247.621 114.144 252.057 113.902 255.134C113.78 256.651 113.683 257.841 113.616 258.66C113.58 259.054 113.556 259.358 113.537 259.576C113.519 259.795 113.501 259.886 113.501 259.886Z" fill="#455A64"/>
<path d="M98.0999 139.236V140.644L106.256 140.329C106.515 140.319 106.759 140.209 106.938 140.022C107.117 139.835 107.217 139.586 107.215 139.327V131.796C107.215 131.531 107.109 131.276 106.922 131.088C106.734 130.9 106.479 130.795 106.214 130.795H97.5537V131.924L105.764 132.348V135.085H105.212C105.155 135.084 105.097 135.094 105.044 135.115C104.99 135.136 104.941 135.167 104.9 135.207C104.858 135.247 104.826 135.295 104.803 135.349C104.781 135.402 104.769 135.459 104.769 135.516C104.771 135.627 104.815 135.734 104.893 135.813C104.971 135.892 105.077 135.938 105.188 135.941H105.795V138.672L98.0999 139.236Z" fill="#E0E0E0"/>
<path d="M93.3773 131.305H91.0713V139.194H93.3773V131.305Z" fill="#263238"/>
<path d="M105.041 136.416C105.01 136.446 104.883 136.416 104.749 136.203C104.583 135.961 104.502 135.671 104.519 135.378C104.534 135.085 104.654 134.806 104.859 134.595C105.01 134.431 105.144 134.389 105.168 134.419C105.192 134.45 104.871 134.844 104.834 135.402C104.798 135.961 105.107 136.361 105.041 136.416Z" fill="#263238"/>
<path d="M98.4888 134.814C98.4888 134.814 98.5312 134.765 98.6223 134.771C98.6847 134.782 98.7438 134.807 98.7953 134.844C98.8468 134.88 98.8894 134.928 98.9196 134.984C98.9701 135.067 98.9997 135.161 99.006 135.259C99.0124 135.356 98.9952 135.453 98.956 135.542C98.899 135.652 98.8113 135.743 98.7037 135.805C98.596 135.866 98.4729 135.895 98.3492 135.888C98.224 135.872 98.1071 135.817 98.0146 135.731C97.9222 135.645 97.8588 135.532 97.8334 135.409C97.8166 135.312 97.8257 135.213 97.8599 135.121C97.894 135.03 97.9519 134.949 98.0276 134.887C98.2885 134.687 98.5009 134.784 98.4827 134.814C98.4645 134.844 98.3128 134.875 98.1853 135.045C98.149 135.085 98.1237 135.134 98.112 135.187C98.1003 135.241 98.1026 135.296 98.1186 135.348C98.1334 135.406 98.1649 135.458 98.2092 135.498C98.2534 135.538 98.3085 135.564 98.3674 135.573C98.4317 135.573 98.4952 135.558 98.5523 135.528C98.6095 135.499 98.6585 135.456 98.6951 135.403C98.7161 135.353 98.727 135.299 98.727 135.245C98.727 135.191 98.7161 135.137 98.6951 135.087C98.6405 134.881 98.4948 134.856 98.4888 134.814Z" fill="#263238"/>
<path d="M121.238 136.415C121.394 136.006 121.598 135.617 121.845 135.256C122.07 134.874 122.306 134.467 122.561 134.042L122.992 133.326C123.152 133.093 123.294 132.847 123.417 132.592C123.453 132.472 123.46 132.346 123.439 132.223C123.418 132.1 123.369 131.983 123.296 131.882C123.116 131.694 122.912 131.531 122.689 131.397L121.542 130.577C121.175 130.342 120.837 130.065 120.534 129.752C120.938 129.916 121.319 130.13 121.669 130.389L122.852 131.16L123.192 131.384C123.328 131.467 123.447 131.574 123.544 131.7C123.647 131.841 123.715 132.003 123.745 132.175C123.774 132.346 123.764 132.522 123.714 132.689C123.658 132.845 123.58 132.992 123.484 133.126L123.247 133.496L122.798 134.2L122.027 135.371C121.808 135.751 121.543 136.101 121.238 136.415Z" fill="#263238"/>
<path d="M135.052 154.785C134.988 154.835 134.916 154.874 134.84 154.901C134.623 154.991 134.397 155.059 134.166 155.101C133.306 155.215 132.43 155.106 131.623 154.785C130.442 154.315 129.321 153.704 128.286 152.965C123.906 150.042 120.584 145.786 118.813 140.828C118.7 140.536 118.613 140.236 118.552 139.93C118.706 140.201 118.832 140.488 118.928 140.785C119.159 141.344 119.535 142.133 119.996 143.091C121.283 145.569 122.945 147.834 124.924 149.803C126.012 150.882 127.192 151.865 128.45 152.74C129.462 153.468 130.553 154.078 131.702 154.561C132.468 154.888 133.3 155.027 134.13 154.968C134.743 154.901 135.052 154.755 135.052 154.785Z" fill="#455A64"/>
<path d="M75.8319 142.49C75.5591 143.052 75.2232 143.582 74.8306 144.068C73.0571 146.499 70.9155 148.639 68.4829 150.41C67.997 150.8 67.4699 151.135 66.9111 151.411C67.3647 150.988 67.8451 150.595 68.3494 150.234C70.683 148.377 72.7983 146.262 74.6546 143.928C75.0177 143.426 75.4109 142.945 75.8319 142.49Z" fill="#455A64"/>
<path d="M97.0055 81.5495L96.5807 61.2866C96.3743 58.6831 94.1229 59.1686 94.1229 59.1686C94.1229 59.1686 93.9773 66.3538 93.3765 70.3894C92.7757 74.425 90.6031 78.8854 90.5303 79.7896C90.4575 80.6938 90.1783 88.3766 89.9235 90.8404C89.5845 92.9202 89.0668 94.9668 88.376 96.9575L94.1472 101.394L95.901 98.9298C95.901 98.9298 97.8733 97.5219 98.3284 95.762C98.7836 94.0021 97.0055 81.5495 97.0055 81.5495Z" fill="#FDDDCC"/>
<path d="M97.0078 81.5502C97.0078 81.5502 97.0381 81.6594 97.0745 81.8779L97.2202 82.8307C97.3476 83.6681 97.5236 84.9 97.7299 86.4718C97.9362 88.0435 98.179 89.9855 98.3671 92.2248C98.4217 92.7892 98.4581 93.3657 98.4885 93.9665C98.4885 94.2699 98.5188 94.5733 98.4885 94.8828C98.4947 95.2052 98.4621 95.5271 98.3914 95.8416C98.1899 96.4798 97.864 97.0718 97.4326 97.5833C96.993 98.1196 96.492 98.6023 95.9397 99.0216V98.9912L94.192 101.461L94.107 101.57L93.9978 101.485L88.2205 97.0614L88.1416 97.0007V96.8976C89.0757 94.3613 89.6437 91.7049 89.8287 89.0084C90.0168 86.1866 90.1321 83.2676 90.2777 80.2758C90.2779 80.0209 90.3043 79.7667 90.3566 79.5172C90.4234 79.2684 90.5023 79.0378 90.5812 78.8011L91.0849 77.4357C91.4247 76.5315 91.7524 75.6151 92.0498 74.7352C92.646 72.9917 93.053 71.1891 93.2635 69.3585C93.664 65.772 93.7914 62.3372 93.8703 59.1815V59.0662H93.9796C94.4482 58.9813 94.9315 59.0362 95.3693 59.224C95.7971 59.4191 96.1383 59.7647 96.3281 60.1949C96.5071 60.6003 96.6001 61.0384 96.6012 61.4815C96.6012 61.9002 96.6012 62.3129 96.6012 62.7255C96.6012 64.358 96.6619 65.9115 96.6861 67.3741C96.7347 70.293 96.7772 72.8358 96.8136 74.9537C96.85 77.0716 96.8621 78.698 96.8743 79.8449C96.8743 80.3972 96.8743 80.828 96.8743 81.1375C96.8743 81.271 96.8743 81.3803 96.8743 81.4713C96.8743 81.5623 96.8743 81.5805 96.8743 81.5805C96.8743 81.5805 96.8743 81.5441 96.8743 81.4713C96.8743 81.3985 96.8743 81.2771 96.8743 81.1436C96.8743 80.8341 96.8742 80.4032 96.8257 79.851C96.7893 78.704 96.7468 77.0534 96.6861 74.9658C96.6254 72.8782 96.5648 70.3052 96.4919 67.3862C96.4919 65.9237 96.4252 64.3519 96.3827 62.7377C96.3342 61.9245 96.4555 61.0445 96.0975 60.3103C95.937 59.9355 95.6397 59.636 95.2661 59.4728C94.8831 59.3112 94.4613 59.2648 94.0524 59.3393L94.1616 59.2058C94.0827 62.3736 93.9674 65.8023 93.5548 69.4131C93.3364 71.2729 92.9193 73.1039 92.3107 74.8748C92.0133 75.779 91.7038 76.6954 91.3458 77.5814L90.8421 78.9468C90.7632 79.1713 90.6843 79.4019 90.6297 79.6265C90.5796 79.8557 90.5551 80.0897 90.5569 80.3244C90.4112 83.3161 90.2959 86.2412 90.1017 89.0631C89.9152 91.7957 89.3368 94.4873 88.3843 97.0554L88.3358 96.8915L94.0949 101.334L93.9067 101.364L95.6666 98.9063C96.7492 98.1582 97.5805 97.1006 98.0516 95.872C98.1157 95.575 98.1463 95.2716 98.1426 94.9678C98.1426 94.6643 98.1426 94.3609 98.1426 94.0636C98.1426 93.4567 98.0819 92.8923 98.0394 92.334C97.8634 90.1008 97.6389 88.1649 97.4629 86.581C97.2869 84.9971 97.1231 83.7774 97.0199 82.9399C96.9714 82.5272 96.9349 82.2117 96.9046 81.9811C96.8743 81.7505 97.0078 81.5502 97.0078 81.5502Z" fill="#EB996E"/>
<path d="M96.6053 63.0884C96.4475 62.8569 96.2773 62.6341 96.0956 62.4208C95.8689 62.1968 95.6063 62.0122 95.3188 61.8747C95.1515 61.7803 94.958 61.7429 94.7675 61.7681C94.5771 61.7932 94.4 61.8796 94.2629 62.0142L94.2932 61.9171C94.3721 62.524 94.4935 63.2522 94.5542 64.029C94.6149 64.8058 94.6331 65.6372 94.6088 66.505C94.5335 68.3408 94.3082 70.1675 93.9352 71.9667C93.7956 72.6524 93.6742 73.1804 93.5832 73.587C93.5561 73.7971 93.4967 74.0018 93.4072 74.1938C93.4653 73.4402 93.5666 72.6905 93.7107 71.9485C94.0257 70.1605 94.2284 68.3546 94.3175 66.5414C94.3175 65.6857 94.3175 64.8665 94.275 64.114C94.2325 63.3615 94.1233 62.6454 94.0626 62.0142V61.9596L94.093 61.9171C94.1797 61.819 94.2861 61.7402 94.4053 61.6858C94.5245 61.6314 94.6538 61.6028 94.7848 61.6016C95.0089 61.6006 95.2298 61.6548 95.4281 61.7594C95.73 61.908 96.0001 62.1141 96.223 62.3662C96.3625 62.5318 96.4789 62.7155 96.5689 62.9124C96.5993 63.0095 96.6175 63.0884 96.6053 63.0884Z" fill="#EB996E"/>
<path d="M96.7698 70.9534C96.7014 70.6412 96.6527 70.325 96.6242 70.0067C96.5794 69.6526 96.4572 69.3128 96.2661 69.0114C95.9676 68.667 95.5485 68.4498 95.0949 68.4046L95.2588 68.2832C95.2223 69.4362 95.1495 70.8199 95.0039 72.2945C94.8036 74.3639 94.5063 76.233 94.2514 77.5742C94.1179 78.2417 93.9965 78.7879 93.9055 79.152C93.8749 79.3497 93.8156 79.5418 93.7295 79.7224C93.7902 78.9875 93.8895 78.2562 94.0268 77.5317C94.2332 76.1905 94.4941 74.3275 94.6883 72.2642C94.834 70.7956 94.925 69.418 94.9918 68.2711V68.1133L95.1495 68.1436C95.6618 68.2169 96.1255 68.4868 96.4421 68.8961C96.6344 69.2304 96.7485 69.6038 96.7759 69.9885C96.8254 70.3084 96.8233 70.6341 96.7698 70.9534Z" fill="#EB996E"/>
<path d="M93.7841 81.9074C93.7295 81.9742 93.3896 81.7193 93.3471 81.2399C93.3047 80.7605 93.5838 80.4388 93.6506 80.4995C93.7173 80.5602 93.6202 80.8454 93.6506 81.2095C93.6809 81.5737 93.8326 81.8468 93.7841 81.9074Z" fill="#EB996E"/>
<path d="M92.8572 76.9072C92.7783 76.9376 92.5477 76.4824 92.5901 75.8634C92.6326 75.2444 92.9239 74.8257 92.9967 74.8682C93.0696 74.9107 92.936 75.3415 92.9057 75.8877C92.8754 76.4339 92.9421 76.8769 92.8572 76.9072Z" fill="#EB996E"/>
<path d="M105.213 93.0509C104.757 90.6235 103.938 82.9831 103.805 82.0729C103.671 81.1626 101.195 76.8782 100.309 72.8972C99.4232 68.9162 98.7738 61.7553 98.7738 61.7553C98.7738 61.7553 96.4981 61.4276 96.4678 64.0432L97.4691 84.2818C97.4691 84.2818 96.5709 96.8316 97.1596 98.5551C97.7482 100.279 99.8176 101.541 99.8176 101.541L101.741 103.871L107.203 99.0163C106.372 97.0877 105.706 95.0921 105.213 93.0509Z" fill="#FDDDCC"/>
<path d="M105.21 93.0488C105.21 93.0488 105.21 93.0791 105.21 93.1459C105.21 93.2126 105.253 93.3279 105.283 93.4493C105.356 93.7224 105.453 94.1169 105.611 94.663C106.074 96.1499 106.613 97.6123 107.225 99.0445V99.0931L107.182 99.1356L101.763 103.99L101.672 104.069L101.599 103.978L99.6634 101.654H99.6937C99.1246 101.286 98.5993 100.854 98.128 100.367C97.6127 99.8531 97.2169 99.2315 96.9689 98.5469C96.8258 97.8196 96.7607 97.0791 96.7747 96.338C96.7747 95.5915 96.7747 94.833 96.7747 94.0622C96.8415 90.9794 97.0235 87.6963 97.2542 84.2555C97.0842 80.8935 96.9082 77.3312 96.7262 73.678C96.6109 71.3234 96.4956 69.0173 96.3863 66.778C96.3863 66.2136 96.3317 65.6614 96.3014 65.1092C96.2498 64.5541 96.2498 63.9954 96.3014 63.4403C96.3324 63.1522 96.4209 62.8733 96.5616 62.62C96.7023 62.3667 96.8924 62.1442 97.1206 61.9657C97.5921 61.6402 98.166 61.4978 98.7349 61.5651H98.8502V61.6926C99.0687 64.0108 99.3175 66.2501 99.6148 68.368C99.8497 70.4018 100.241 72.4145 100.786 74.388C101.347 76.1193 102.016 77.8137 102.789 79.4613C103.135 80.2441 103.493 80.9724 103.76 81.7249C103.851 82.1055 103.91 82.4933 103.936 82.884C103.978 83.2542 104.021 83.6183 104.063 83.9702C104.379 86.8103 104.634 89.0618 104.828 90.6092C104.925 91.3617 105.004 91.9565 105.058 92.3752L105.125 92.8303C105.132 92.8827 105.132 92.9357 105.125 92.9881C105.106 92.9392 105.091 92.8883 105.083 92.8364C105.083 92.7211 105.034 92.5694 104.998 92.3813C104.925 91.9807 104.828 91.3921 104.712 90.6214C104.488 89.08 104.203 86.8285 103.863 83.9945C103.82 83.6425 103.772 83.2784 103.729 82.9082C103.696 82.5324 103.637 82.1594 103.553 81.7916C103.292 81.0695 102.916 80.3291 102.57 79.5584C101.781 77.9042 101.098 76.2016 100.525 74.4608C99.9666 72.4718 99.5609 70.4431 99.3114 68.3923C99.0161 66.248 98.7571 64.0229 98.5346 61.7169L98.6621 61.8504C98.1724 61.7971 97.6799 61.9197 97.2724 62.1963C97.0767 62.3525 96.9141 62.5462 96.7943 62.7661C96.6745 62.986 96.5997 63.2276 96.5745 63.4767C96.5232 64.0136 96.5232 64.5541 96.5745 65.091C96.5745 65.6371 96.6291 66.1954 96.6534 66.7538C96.7687 68.9991 96.884 71.3052 96.9993 73.6537C97.1813 77.2948 97.3512 80.8631 97.5212 84.2251C97.2845 87.6538 97.0964 90.943 97.0175 94.0137C97.0175 94.7844 96.9871 95.5369 97.0175 96.2773C97.0032 96.9934 97.0621 97.7092 97.1935 98.4134C97.4279 99.0519 97.7986 99.6318 98.2797 100.113C98.7352 100.586 99.242 101.008 99.7908 101.369L101.715 103.705H101.551L107.012 98.9049V98.996C106.412 97.5543 105.895 96.0792 105.465 94.5781C105.319 94.0562 105.228 93.6556 105.18 93.3644L105.125 93.0549C105.21 93.0852 105.204 93.0488 105.21 93.0488Z" fill="#EB996E"/>
<path d="M96.5576 65.8857C96.6111 65.6897 96.695 65.5033 96.8064 65.3335C96.9161 65.1192 97.0462 64.916 97.1948 64.7266C97.3905 64.4508 97.6757 64.2514 98.0019 64.1622C98.218 64.1311 98.4383 64.1741 98.6268 64.2843C98.8153 64.3945 98.9609 64.5654 99.0397 64.7691C99.1492 65.2051 99.1841 65.6565 99.1428 66.1042C99.1428 67.0145 99.1914 68.0158 99.2885 69.0596C99.471 70.8434 99.7505 72.6161 100.126 74.3695C100.313 75.0927 100.457 75.8262 100.557 76.5664C100.464 76.3871 100.393 76.1977 100.344 76.002C100.235 75.6318 100.077 75.0917 99.9075 74.4242C99.4647 72.6716 99.1523 70.8886 98.9729 69.0899C98.8807 68.0974 98.8402 67.1008 98.8515 66.1042C98.8976 65.6993 98.8792 65.2896 98.7969 64.8905C98.7426 64.7379 98.6393 64.6075 98.5032 64.5197C98.3671 64.4319 98.2058 64.3916 98.0444 64.405C97.7634 64.4764 97.5138 64.6385 97.3344 64.8662C97.179 65.0371 97.037 65.2197 96.9096 65.4124C96.8102 65.5827 96.6922 65.7415 96.5576 65.8857Z" fill="#EB996E"/>
<path d="M96.9566 73.9937C96.9249 73.9062 96.9085 73.8138 96.908 73.7207C96.8887 73.4621 96.8887 73.2025 96.908 72.9439C96.9281 72.535 97.0248 72.1336 97.1933 71.7605C97.3087 71.5089 97.4768 71.285 97.6862 71.1039C97.8956 70.9228 98.1414 70.7887 98.407 70.7107L98.5587 70.6621V70.826C98.6983 71.9365 98.8743 73.2534 99.1109 74.6552C99.4568 76.7367 99.8513 78.6119 100.155 79.9591C100.348 80.6827 100.501 81.416 100.616 82.156C100.516 81.9794 100.443 81.7893 100.397 81.5916C100.276 81.2214 100.118 80.6874 99.9363 80.0138C99.5782 78.6726 99.1473 76.8035 98.8014 74.7098C98.5648 73.3019 98.4009 71.979 98.2856 70.8563L98.4616 70.9716C98.2283 71.0342 98.0108 71.1456 97.8236 71.2983C97.6364 71.451 97.4836 71.6416 97.3753 71.8576C97.2039 72.2044 97.0931 72.5779 97.0476 72.9621C96.9748 73.6114 96.9991 73.9937 96.9566 73.9937Z" fill="#EB996E"/>
<path d="M100.751 84.3464C100.678 84.2918 100.817 84.0066 100.817 83.6425C100.817 83.2784 100.708 82.9871 100.781 82.9324C100.854 82.8778 101.145 83.163 101.133 83.6485C101.121 84.134 100.805 84.4132 100.751 84.3464Z" fill="#EB996E"/>
<path d="M101.304 79.2995C101.213 79.2995 101.261 78.8201 101.182 78.28C101.103 77.7399 100.946 77.3151 101.024 77.2727C101.103 77.2302 101.413 77.6246 101.498 78.2376C101.583 78.8505 101.382 79.3238 101.304 79.2995Z" fill="#EB996E"/>
<g opacity="0.3">
<path opacity="0.3" d="M103.793 103.681C102.671 102.383 101.251 101.078 99.5453 101.09C98.0221 101.09 96.7234 102.152 95.6432 103.22C92.1667 106.784 89.3205 110.913 87.2261 115.43C85.0475 119.89 82.4077 125.255 80.751 129.934C84.3921 129.169 87.6206 126.899 90.0783 124.09C92.5361 121.28 94.3263 117.936 95.886 114.556C96.4321 113.391 97.215 112.038 98.5015 112.007C99.4482 112.007 100.225 112.742 100.82 113.482C102.525 115.636 103.672 118.173 104.873 120.643C106.075 123.113 107.386 125.589 109.34 127.525C111.294 129.46 114.007 130.802 116.738 130.498C113.618 121.001 110.347 111.23 103.793 103.681Z" fill="black"/>
</g>
<path d="M66.5794 68.8848C66.5794 68.8848 58.6235 73.8974 58.3868 83.7709C58.1501 93.6445 58.7388 119.964 60.5048 123.49C62.2707 127.015 63.539 139.705 74.96 134.413C81.3624 131.445 88.3109 121.815 92.8623 113.731C94.996 109.958 96.8459 106.031 98.3968 101.983L87.6494 95.0524L74.1347 111.031L73.716 95.6653L66.5794 68.8848Z" fill="#7C7EF3"/>
<path d="M74.1334 111.012C74.1334 111.067 73.6479 111.097 72.9197 111.303C71.9548 111.585 71.0526 112.049 70.2617 112.669C69.472 113.301 68.7518 114.015 68.1134 114.799C67.8656 115.143 67.5895 115.466 67.2881 115.764C67.4442 115.365 67.6634 114.994 67.9374 114.665C68.5359 113.819 69.2533 113.062 70.0675 112.42C70.8858 111.768 71.843 111.314 72.8651 111.091C73.278 110.978 73.7097 110.951 74.1334 111.012Z" fill="#263238"/>
<path d="M74.0683 110.89C73.0107 110.861 71.9523 110.903 70.9005 111.017C69.8721 111.238 68.8586 111.524 67.8662 111.873C68.7465 111.229 69.7801 110.827 70.8641 110.708C71.9294 110.484 73.0351 110.547 74.0683 110.89Z" fill="#263238"/>
<path d="M98.3967 101.965C98.3796 102.077 98.349 102.187 98.3057 102.293L97.978 103.209C97.6928 104.004 97.2376 105.133 96.6429 106.522C95.0636 110.124 93.2135 113.602 91.1084 116.924C88.9951 120.24 86.6616 123.411 84.1235 126.415C83.1525 127.568 82.3454 128.484 81.7689 129.097L81.1014 129.807C81.0263 129.892 80.9429 129.97 80.8525 130.038C80.9083 129.939 80.9755 129.848 81.0528 129.765L81.6597 129.018C82.2058 128.375 82.9826 127.441 83.9354 126.275C86.414 123.238 88.7138 120.059 90.8232 116.754C92.9183 113.445 94.7876 109.998 96.4184 106.437C97.0252 105.066 97.5289 103.949 97.8445 103.166C98.0023 102.808 98.1236 102.511 98.2268 102.274C98.2697 102.164 98.3268 102.06 98.3967 101.965Z" fill="#263238"/>
<path d="M73.7157 95.6448C73.7244 95.7417 73.7244 95.8392 73.7157 95.9361C73.7157 96.1546 73.7461 96.4337 73.7643 96.7796C73.7946 97.5443 73.8371 98.6002 73.8917 99.9474C73.9828 102.69 74.1041 106.52 74.2498 111.004L73.9949 110.913L79.9057 103.904L87.5096 94.9408L87.5885 94.8438L87.6916 94.9105L95.4472 99.9838L97.6137 101.428L98.1781 101.817C98.2465 101.857 98.3096 101.906 98.3662 101.962C98.293 101.935 98.2236 101.898 98.1599 101.853L97.553 101.501L95.3441 100.117L87.5338 95.1472L87.7098 95.1168L80.1363 104.11L74.2073 111.107L73.9524 111.399V111.016C73.8553 106.526 73.7704 102.696 73.7097 99.9535C73.7097 98.6184 73.6733 97.5261 73.6611 96.7796V95.9361C73.6715 95.8377 73.6898 95.7403 73.7157 95.6448Z" fill="#263238"/>
<path d="M131.252 65.7891C131.252 65.7891 137.976 69.1935 138.273 85.0021C138.571 100.811 139.748 119.563 138.273 122.815C137.157 125.243 134.535 132.677 129.777 135.213C128.345 135.972 127.259 136.008 125.305 135.723C118.812 134.776 110.291 127.185 103.816 114.72C98.8885 105.235 98.5851 100.841 98.5851 100.841L107.627 91.7382L125.281 113.627L125.608 92.6424L131.252 65.7891Z" fill="#7C7EF3"/>
<path d="M125.469 93.2726C125.469 93.2726 125.469 93.394 125.469 93.6368C125.469 93.8795 125.469 94.2436 125.469 94.6987C125.469 95.6454 125.469 97.0109 125.469 98.7647C125.469 102.309 125.421 107.394 125.384 113.627V113.96L125.178 113.699L107.494 91.8526H107.725L100.734 98.8982L98.6825 100.962L98.725 100.816C100.392 107.857 103.366 114.523 107.494 120.466C110.771 125.346 114.864 129.624 119.595 133.113C120.54 133.823 121.557 134.433 122.629 134.933C123.122 135.155 123.634 135.332 124.158 135.461C124.657 135.566 125.162 135.643 125.669 135.692C127.348 135.896 129.047 135.562 130.524 134.739C131.43 134.178 132.213 133.439 132.824 132.567C133.037 132.275 133.194 132.039 133.291 131.881C133.389 131.723 133.455 131.65 133.455 131.65C133.273 131.98 133.071 132.299 132.848 132.603C132.254 133.502 131.477 134.265 130.567 134.842C129.071 135.699 127.34 136.056 125.627 135.862C125.135 135.801 124.62 135.759 124.092 135.643C123.554 135.515 123.03 135.336 122.526 135.109C121.44 134.613 120.411 134.003 119.455 133.289C114.682 129.809 110.55 125.526 107.245 120.63C103.081 114.657 100.083 107.951 98.4094 100.864V100.779L98.4701 100.719L100.521 98.6494L107.518 91.6099L107.64 91.4824L107.749 91.622C114.424 99.9238 120.493 107.455 125.348 113.536L125.135 113.608C125.22 107.376 125.281 102.297 125.33 98.7525C125.36 96.9987 125.384 95.6333 125.402 94.6866C125.402 94.2254 125.402 93.8734 125.402 93.6246C125.418 93.5062 125.441 93.3887 125.469 93.2726Z" fill="#263238"/>
<path d="M132.49 121.778C132.157 121.364 131.853 120.929 131.58 120.473C130.859 119.422 130.068 118.421 129.213 117.475C128.353 116.536 127.443 115.643 126.489 114.799C126.069 114.47 125.677 114.107 125.317 113.713C125.789 113.966 126.229 114.273 126.628 114.629C127.64 115.428 128.584 116.309 129.45 117.263C130.318 118.218 131.094 119.252 131.768 120.352C132.073 120.792 132.316 121.272 132.49 121.778Z" fill="#263238"/>
<path d="M130.529 68.957C130.572 68.9934 130.044 69.6428 129.316 70.7776C127.393 73.7261 126.136 77.0582 125.632 80.5419C125.438 81.877 125.401 82.7144 125.347 82.7144C125.311 82.5142 125.301 82.3103 125.316 82.1076C125.318 81.5701 125.35 81.0332 125.414 80.4994C125.798 76.9501 127.078 73.5567 129.134 70.638C129.44 70.1974 129.77 69.774 130.123 69.3697C130.239 69.2147 130.376 69.0759 130.529 68.957Z" fill="#263238"/>
<path d="M72.235 85.1478C72.1864 85.1478 72.0772 84.3406 71.8344 83.0359C71.5255 81.3373 71.1203 79.6577 70.6207 78.0051C70.1135 76.356 69.5179 74.7353 68.8366 73.1502C68.5216 72.5057 68.2401 71.8454 67.993 71.1719C68.1193 71.319 68.2254 71.4822 68.3086 71.6574C68.4967 71.979 68.7455 72.4584 69.0368 73.0592C69.7877 74.6275 70.4186 76.2504 70.9242 77.914C71.4276 79.5788 71.8069 81.2786 72.059 82.9995C72.15 83.661 72.2046 84.2132 72.2289 84.5652C72.26 84.758 72.2621 84.9543 72.235 85.1478Z" fill="#263238"/>
<g opacity="0.3">
<path opacity="0.3" d="M133.372 121.736C133.084 120.457 132.418 119.294 131.46 118.398C129.682 116.492 127.591 114.906 125.276 113.707C128.146 116.004 130.617 118.76 132.589 121.863C132.741 122.106 133.038 122.379 133.263 122.203C133.32 122.141 133.36 122.066 133.379 121.984C133.398 121.902 133.396 121.816 133.372 121.736Z" fill="black"/>
</g>
<g opacity="0.3">
<path opacity="0.3" d="M74.0184 110.993C72.161 110.712 70.2627 111.062 68.6285 111.989C66.9942 112.915 65.7187 114.364 65.0066 116.103C64.8597 116.418 64.7851 116.762 64.7882 117.11C64.7941 117.283 64.8476 117.451 64.9429 117.596C65.0382 117.74 65.1716 117.856 65.3283 117.93C65.5192 117.985 65.7226 117.981 65.9113 117.919C66.0999 117.856 66.265 117.737 66.3842 117.578C66.6217 117.259 66.8062 116.905 66.9304 116.528C67.5736 115.026 68.6053 113.723 69.9193 112.752C71.2334 111.781 72.7824 111.179 74.4068 111.005L74.0184 110.993Z" fill="black"/>
</g>
</svg>
