<svg width="152" height="152" viewBox="0 0 152 152" fill="none" xmlns="http://www.w3.org/2000/svg">
<circle cx="76" cy="76" r="76" fill="#B22D5B"/>
<path d="M71.3125 63.392C71.0398 60.9716 69.9148 59.0966 67.9375 57.767C65.9602 56.4205 63.4716 55.7472 60.4716 55.7472C58.3239 55.7472 56.4659 56.0881 54.8977 56.7699C53.3295 57.4347 52.1108 58.3551 51.2415 59.5312C50.3892 60.6903 49.9631 62.0114 49.9631 63.4943C49.9631 64.7386 50.2528 65.8125 50.8324 66.7159C51.429 67.6193 52.2045 68.3778 53.1591 68.9915C54.1307 69.5881 55.1705 70.0909 56.2784 70.5C57.3864 70.892 58.4517 71.2159 59.4744 71.4716L64.5881 72.8011C66.2585 73.2102 67.9716 73.7642 69.7273 74.4631C71.483 75.1619 73.1108 76.0824 74.6108 77.2244C76.1108 78.3665 77.321 79.7812 78.2415 81.4688C79.179 83.1562 79.6477 85.1761 79.6477 87.5284C79.6477 90.4943 78.8807 93.1278 77.3466 95.429C75.8295 97.7301 73.6222 99.5455 70.7244 100.875C67.8438 102.205 64.358 102.869 60.267 102.869C56.3466 102.869 52.9545 102.247 50.0909 101.003C47.2273 99.7585 44.9858 97.9943 43.3665 95.7102C41.7472 93.4091 40.8523 90.6818 40.6818 87.5284H48.608C48.7614 89.4205 49.375 90.9972 50.4489 92.2585C51.5398 93.5028 52.929 94.4318 54.6165 95.0455C56.321 95.642 58.1875 95.9403 60.2159 95.9403C62.4489 95.9403 64.4347 95.5909 66.1733 94.892C67.929 94.1761 69.3097 93.1875 70.3153 91.9261C71.321 90.6477 71.8239 89.1562 71.8239 87.4517C71.8239 85.9006 71.3807 84.6307 70.4943 83.642C69.625 82.6534 68.4403 81.8352 66.9403 81.1875C65.4574 80.5398 63.7784 79.9688 61.9034 79.4744L55.7159 77.7869C51.5227 76.6449 48.1989 74.9659 45.7443 72.75C43.3068 70.5341 42.0881 67.6023 42.0881 63.9545C42.0881 60.9375 42.9063 58.304 44.5426 56.054C46.179 53.804 48.3949 52.0568 51.1903 50.8125C53.9858 49.5511 57.1392 48.9205 60.6506 48.9205C64.196 48.9205 67.3239 49.5426 70.0341 50.7869C72.7614 52.0312 74.9091 53.7443 76.4773 55.9261C78.0455 58.0909 78.8636 60.5795 78.9318 63.392H71.3125ZM105.359 49.6364V102H97.4332V57.5625H97.1264L84.598 65.7443V58.1761L97.6633 49.6364H105.359Z" fill="white"/>
</svg>
