<svg width="152" height="152" viewBox="0 0 152 152" fill="none" xmlns="http://www.w3.org/2000/svg">
<path d="M152 76C152 117.974 117.974 152 76 152C34.0264 152 0 117.974 0 76C0 34.0264 34.0264 0 76 0C117.974 0 152 34.0264 152 76Z" fill="#7C7FF3"/>
<path d="M65.3125 63.392C65.0398 60.9716 63.9148 59.0966 61.9375 57.767C59.9602 56.4205 57.4716 55.7472 54.4716 55.7472C52.3239 55.7472 50.4659 56.0881 48.8977 56.7699C47.3295 57.4347 46.1108 58.3551 45.2415 59.5312C44.3892 60.6903 43.9631 62.0114 43.9631 63.4943C43.9631 64.7386 44.2528 65.8125 44.8324 66.7159C45.429 67.6193 46.2045 68.3778 47.1591 68.9915C48.1307 69.5881 49.1705 70.0909 50.2784 70.5C51.3864 70.892 52.4517 71.2159 53.4744 71.4716L58.5881 72.8011C60.2585 73.2102 61.9716 73.7642 63.7273 74.4631C65.483 75.1619 67.1108 76.0824 68.6108 77.2244C70.1108 78.3665 71.321 79.7812 72.2415 81.4688C73.179 83.1562 73.6477 85.1761 73.6477 87.5284C73.6477 90.4943 72.8807 93.1278 71.3466 95.429C69.8295 97.7301 67.6222 99.5455 64.7244 100.875C61.8438 102.205 58.358 102.869 54.267 102.869C50.3466 102.869 46.9545 102.247 44.0909 101.003C41.2273 99.7585 38.9858 97.9943 37.3665 95.7102C35.7472 93.4091 34.8523 90.6818 34.6818 87.5284H42.608C42.7614 89.4205 43.375 90.9972 44.4489 92.2585C45.5398 93.5028 46.929 94.4318 48.6165 95.0455C50.321 95.642 52.1875 95.9403 54.2159 95.9403C56.4489 95.9403 58.4347 95.5909 60.1733 94.892C61.929 94.1761 63.3097 93.1875 64.3153 91.9261C65.321 90.6477 65.8239 89.1562 65.8239 87.4517C65.8239 85.9006 65.3807 84.6307 64.4943 83.642C63.625 82.6534 62.4403 81.8352 60.9403 81.1875C59.4574 80.5398 57.7784 79.9688 55.9034 79.4744L49.7159 77.7869C45.5227 76.6449 42.1989 74.9659 39.7443 72.75C37.3068 70.5341 36.0881 67.6023 36.0881 63.9545C36.0881 60.9375 36.9063 58.304 38.5426 56.054C40.179 53.804 42.3949 52.0568 45.1903 50.8125C47.9858 49.5511 51.1392 48.9205 54.6506 48.9205C58.196 48.9205 61.3239 49.5426 64.0341 50.7869C66.7614 52.0312 68.9091 53.7443 70.4773 55.9261C72.0455 58.0909 72.8636 60.5795 72.9318 63.392H65.3125ZM97.723 102.716C94.2116 102.716 91.0753 102.111 88.3139 100.901C85.5696 99.6903 83.3963 98.0114 81.794 95.8636C80.2088 93.6989 79.3565 91.1932 79.2372 88.3466H87.2656C87.3679 89.8977 87.8878 91.2443 88.8253 92.3864C89.7798 93.5114 91.0241 94.3807 92.5582 94.9943C94.0923 95.608 95.7968 95.9148 97.6718 95.9148C99.7343 95.9148 101.558 95.5568 103.143 94.8409C104.746 94.125 105.999 93.1278 106.902 91.8494C107.805 90.554 108.257 89.0625 108.257 87.375C108.257 85.6193 107.805 84.0767 106.902 82.7472C106.016 81.4006 104.712 80.3437 102.99 79.5767C101.285 78.8097 99.223 78.4261 96.8025 78.4261H92.3792V71.983H96.8025C98.7457 71.983 100.45 71.6335 101.916 70.9347C103.399 70.2358 104.558 69.2642 105.393 68.0199C106.229 66.7585 106.646 65.2841 106.646 63.5966C106.646 61.9773 106.28 60.571 105.547 59.3778C104.831 58.1676 103.808 57.2216 102.479 56.5398C101.166 55.858 99.615 55.517 97.8253 55.517C96.1207 55.517 94.527 55.8324 93.044 56.4631C91.5781 57.0767 90.3849 57.9631 89.4645 59.1222C88.544 60.2642 88.0497 61.6364 87.9815 63.2386H80.3366C80.4218 60.4091 81.2571 57.9205 82.8423 55.7727C84.4446 53.625 86.5582 51.946 89.1832 50.7358C91.8082 49.5256 94.723 48.9205 97.9275 48.9205C101.285 48.9205 104.183 49.5767 106.621 50.8892C109.075 52.1847 110.967 53.9148 112.297 56.0795C113.643 58.2443 114.308 60.6136 114.291 63.1875C114.308 66.1193 113.49 68.608 111.837 70.6534C110.2 72.6989 108.018 74.071 105.291 74.7699V75.179C108.768 75.7074 111.462 77.0881 113.371 79.321C115.297 81.554 116.251 84.3239 116.234 87.6307C116.251 90.5114 115.45 93.0938 113.831 95.3778C112.229 97.6619 110.038 99.4602 107.26 100.773C104.482 102.068 101.303 102.716 97.723 102.716Z" fill="white"/>
</svg>
