<svg width="300" height="301" viewBox="0 0 300 301" fill="none" xmlns="http://www.w3.org/2000/svg">
<path d="M300 0.5H0V300.5H300V0.5Z" fill="white"/>
<path fill-rule="evenodd" clip-rule="evenodd" d="M132.12 54.3631C125.772 59.2031 120.456 65.2151 116.444 72.0591C109.87 70.7471 102.787 70.4679 95.6156 71.4951C97.4156 63.6751 101.104 56.3151 106.432 50.1671C107.672 48.7431 109.508 47.9791 111.392 48.1151C118.724 48.6351 125.804 50.8071 132.12 54.3631ZM150 91.2151C156.35 84.1975 163.781 79.0635 171.684 75.7111C166.98 68.6591 160.476 62.8631 152.684 58.9671C150.996 58.1231 149.004 58.1231 147.316 58.9671C139.524 62.8631 133.02 68.6591 128.316 75.7111C136.219 79.0635 143.649 84.1979 150 91.2151ZM188.26 150.499C193.74 147.767 198.768 144.159 203.152 139.775C216.38 126.543 221.012 106.971 215.088 89.2031C214.492 87.4151 213.084 86.0071 211.296 85.4111C193.544 79.4951 173.968 84.1071 160.724 97.3471C156.34 101.731 152.728 106.759 150 112.243C147.272 106.759 143.66 101.731 139.276 97.3471C126.044 84.1191 106.472 79.4871 88.7036 85.4111C86.9116 86.0071 85.5076 87.4151 84.9116 89.2031C78.9956 106.955 83.6076 126.531 96.8476 139.775C101.228 144.155 106.26 147.767 111.74 150.499C106.26 153.231 101.232 156.839 96.8476 161.223C83.6196 174.455 78.9876 194.027 84.9116 211.795C85.5076 213.583 86.9156 214.991 88.7036 215.587C106.456 221.503 126.032 216.891 139.276 203.651C143.66 199.267 147.272 194.239 150 188.755C152.728 194.239 156.34 199.267 160.724 203.651C174.028 216.955 193.624 221.479 211.296 215.587C213.088 214.991 214.492 213.583 215.088 211.795C221.004 194.043 216.392 174.467 203.152 161.223C198.772 156.843 193.74 153.231 188.26 150.499ZM239.368 153.183C235.776 160.367 230.572 166.451 224.256 171.047C220.862 163.478 215.895 156.483 209.284 150.499C215.626 144.759 220.715 137.848 224.252 129.947C230.568 134.543 235.776 140.631 239.368 147.815C240.212 149.503 240.212 151.495 239.368 153.183ZM75.7476 171.051C79.284 163.15 84.3728 156.239 90.7156 150.499C84.1044 144.516 79.1376 137.519 75.7436 129.951C69.4276 134.547 64.2236 140.631 60.6316 147.815C59.7876 149.503 59.7876 151.495 60.6316 153.183C64.2236 160.367 69.4316 166.455 75.7476 171.051ZM171.764 225.319C167.088 232.127 160.72 237.727 153.124 241.527C151.477 242.347 149.499 242.393 147.76 241.527C140.056 237.675 133.612 231.967 128.92 225.023C136.87 221.552 144.01 216.401 150 209.783C156.36 216.812 163.815 221.956 171.764 225.319ZM250.332 196.415C244.08 201.835 236.572 205.555 228.604 207.319C230.096 199.255 229.96 190.959 228.176 182.895C234.424 178.919 239.92 173.823 244.38 167.835C248.976 174.843 251.78 182.983 252.384 191.455C252.52 193.339 251.756 195.175 250.332 196.415ZM193.568 250.831C198.9 244.683 202.584 237.319 204.384 229.499C197.545 230.488 190.455 230.297 183.684 228.959C179.588 235.791 174.184 241.771 167.748 246.563C174.096 250.163 181.228 252.359 188.608 252.883C188.752 252.895 188.892 252.899 189.036 252.899C190.768 252.899 192.424 252.151 193.568 250.831ZM111.392 252.883C118.972 252.343 126.284 250.043 132.756 246.275C126.436 241.499 121.132 235.567 117.104 228.807C110.132 230.27 102.779 230.539 95.6156 229.503C97.4156 237.323 101.104 244.683 106.432 250.831C107.576 252.151 109.232 252.899 110.964 252.899C111.108 252.899 111.248 252.895 111.392 252.883ZM204.384 71.4951C197.212 70.4679 190.129 70.7471 183.556 72.0591C179.544 65.2151 174.228 59.2031 167.88 54.3631C174.196 50.8071 181.276 48.6351 188.608 48.1151C190.492 47.9791 192.328 48.7431 193.568 50.1671C198.896 56.3151 202.584 63.6751 204.384 71.4951ZM49.6676 197.163C55.9596 202.619 63.5196 206.351 71.5476 208.099C69.8956 199.791 69.9836 191.215 71.8276 182.895C65.6996 178.999 60.2956 174.027 55.8836 168.187C51.1316 175.283 48.2276 183.571 47.6156 192.203C47.4796 194.087 48.2436 195.923 49.6676 197.163ZM252.384 109.543C251.78 118.015 248.976 126.155 244.38 133.163C239.92 127.171 234.424 122.079 228.172 118.103C229.956 110.043 230.096 101.743 228.604 93.6791C236.572 95.4431 244.08 99.1631 250.332 104.583C251.756 105.823 252.52 107.659 252.384 109.543ZM55.6196 133.163C60.0796 127.175 65.5756 122.079 71.8236 118.103C70.0396 110.039 69.9076 101.739 71.3956 93.6791C63.4276 95.4431 55.9196 99.1631 49.6676 104.583C48.2436 105.823 47.4796 107.659 47.6156 109.543C48.2196 118.015 51.0236 126.155 55.6196 133.163ZM132 150.499C132 140.575 140.076 132.499 150 132.499C159.924 132.499 168 140.575 168 150.499C168 160.423 159.924 168.499 150 168.499C140.076 168.499 132 160.423 132 150.499ZM144 150.499C144 153.811 146.688 156.499 150 156.499C153.312 156.499 156 153.811 156 150.499C156 147.187 153.312 144.499 150 144.499C146.688 144.499 144 147.187 144 150.499Z" fill="#009CE0" fill-opacity="0.5"/>
<path d="M103.321 241.171C96.1976 241.228 90.598 241.545 85.8568 242.213C74.458 243.82 67.6808 247.594 64.6784 254.712C63.146 258.346 63.884 261.487 66.698 263.933C69.1144 266.033 73.0452 267.621 78.3956 268.783L78.694 268.847C87.8472 270.791 100.843 271.493 117.323 271.246L118.336 271.23C126.078 271.097 134.016 270.779 143.572 270.265L153.084 269.726C156.427 269.533 159.87 269.335 161.096 269.27L162.754 269.184C166.275 269.009 168.545 268.944 169.946 268.987L171.517 269.047C194.228 269.878 211.951 268.743 223.353 266.065C228.555 264.844 232.276 263.33 234.357 261.607C236.611 259.741 237 257.494 235.329 255.511C230.116 249.322 221.561 245.825 207.739 243.962L207.025 243.867C195.541 242.377 181.257 241.919 154.113 241.901L150.208 241.898C144.926 241.883 139.869 241.81 133.157 241.667L116.645 241.291C111.704 241.188 108.924 241.156 105.826 241.161L103.321 241.171Z" fill="white"/>
<path d="M150.126 270.293C197.197 270.293 235.356 266.31 235.356 261.396C235.356 256.483 197.197 252.5 150.126 252.5C103.054 252.5 64.8948 256.483 64.8948 261.396C64.8948 266.31 103.054 270.293 150.126 270.293Z" fill="#E7EAEE"/>
<path fill-rule="evenodd" clip-rule="evenodd" d="M167.608 198.23C169.155 198.503 170.214 196.992 172.61 191.952L172.787 191.586L172.961 191.237C175.816 185.622 179.119 183.832 182.868 185.868L184.372 181.428L183.867 181.195L183.381 180.976C175.598 177.499 171.394 177.287 170.77 180.342L170.709 180.676L170.657 180.945C170.2 183.274 169.083 187.759 168.275 191.577L168.139 192.228C167.464 195.501 167.07 198.136 167.608 198.23Z" fill="white"/>
<path fill-rule="evenodd" clip-rule="evenodd" d="M151.033 153.199C151.033 153.199 162.411 154.707 168.166 154.445C173.921 154.184 182.336 151.777 182.336 151.777L182.136 159.044C182.136 159.044 208.983 158.502 204.929 180.494C202.259 194.979 181.827 189.023 181.827 189.023L185.735 180.494C185.735 180.494 197.99 181.381 193.527 177.652C192.699 176.96 187.407 176.006 180.443 176.193C174.461 176.353 169.265 174.561 168.724 172.951C166.697 166.919 169.64 163.746 169.64 163.746C169.64 163.746 166.793 165.131 167.334 168.501C167.874 171.87 163.894 240.855 163.894 240.855C163.894 240.855 160.295 241.493 158.485 241.493C156.674 241.493 154.183 240.855 154.183 240.855L151.033 153.199Z" fill="white"/>
<path fill-rule="evenodd" clip-rule="evenodd" d="M151.033 153.197C151.033 153.197 157.035 241.422 156.199 241.284C155.569 241.18 154.183 240.854 154.183 240.854L151.033 153.197Z" fill="#E7EAEE"/>
<path fill-rule="evenodd" clip-rule="evenodd" d="M155.976 242.213C156.37 245.684 155.632 247.076 155.73 247.076C157.338 247.076 158.299 247.044 160.878 246.843C160.878 246.843 160.734 245.348 160.734 244.644C160.734 243.804 160.878 242.213 160.878 242.213H155.976Z" fill="white"/>
<path d="M152 72.9194C152 72.9194 146 75.1726 146 70.9314C146 66.6902 150.629 68.8042 150.629 68.8042" fill="white"/>
<path d="M178.4 73.3614C179.659 73.6418 183.6 76.099 183.6 70.1494C183.6 67.3098 179.1 69.3606 179.1 69.3606" fill="white"/>
<path d="M164.081 48.5464C159.124 49.0272 148.736 53.7408 150.627 67.208C152.094 77.6472 159.902 88.9 164.7 88.9C169.411 88.9 177.342 79.4272 178.494 70.1008C180.846 51.054 169.038 48.0656 164.081 48.5464Z" fill="white"/>
<path fill-rule="evenodd" clip-rule="evenodd" d="M164.265 58.1828C164.528 57.5712 165.38 57.5304 165.701 58.114C167.336 61.09 169.168 63.1636 171.185 64.3508C173.22 65.5496 175.622 65.668 178.073 64.5692C178.476 64.3884 178.949 64.5688 179.13 64.972C179.311 65.3752 179.13 65.8484 178.727 66.0292C175.807 67.3384 172.859 67.1932 170.373 65.7296C168.436 64.5888 166.691 62.776 165.131 60.3004L165.074 60.2084L165.022 60.3084C163.762 62.7 162.137 64.61 160.148 66.0292L159.947 66.1692C157.442 67.8936 154.502 68.66 151.155 68.4712C150.714 68.4464 150.376 68.0684 150.401 67.6276C150.426 67.1864 150.804 66.8488 151.245 66.8736C154.247 67.0432 156.836 66.3684 159.04 64.8512C161.266 63.3196 163.006 61.1028 164.265 58.1828Z" fill="#E7EAEE"/>
<path fill-rule="evenodd" clip-rule="evenodd" d="M189.851 134.811C189.369 143.89 185.976 147.742 181.738 148.295C181.174 148.369 181.963 151.604 181.472 152.028C178.678 154.445 173.753 154.549 166.03 154.62C159.039 154.683 154.53 154.119 151.397 152.834C151.157 152.736 151.373 148.664 151.125 148.642C147.2 148.295 142.678 144.811 141.579 135.337C137.859 103.261 149.048 97.061 159.697 91.9502C160.274 91.673 160.588 91.1902 161.162 90.9154C162.373 90.3362 162.058 91.6694 164.809 91.6694C167.561 91.6694 167.561 90.6246 168.8 91.2166C169.262 91.4374 169.339 92.8174 169.799 93.0602C180.696 98.8106 191.185 109.719 189.851 134.811Z" fill="white"/>
<path fill-rule="evenodd" clip-rule="evenodd" d="M169.799 93.0586C184.19 98.2666 190.874 112.183 189.851 134.809C188.625 161.937 157.815 137.652 168.086 114.282C170.534 108.714 173.749 132.288 173.784 132.388C174.603 134.706 177.106 136.504 179.636 137.465C179.636 137.465 180.769 121.125 178.8 113.421C176.948 106.175 169.799 93.0586 169.799 93.0586Z" fill="white"/>
<path fill-rule="evenodd" clip-rule="evenodd" d="M160.533 87.6992C160.533 87.6992 160.937 88.9116 160.796 89.6608C160.656 90.41 159.797 91.622 159.797 91.622C159.797 91.622 135.908 98.9092 141.44 135.276C147.594 161.65 169.169 144.499 165.426 123.469C165.27 107.853 161.735 113.14 159.079 130.348C158.43 134.557 150.446 135.753 150.446 135.753" fill="white"/>
<path d="M171.8 79.2992C173.015 79.2992 174 78.4933 174 77.4992C174 76.5051 173.015 75.6992 171.8 75.6992C170.585 75.6992 169.6 76.5051 169.6 77.4992C169.6 78.4933 170.585 79.2992 171.8 79.2992Z" fill="#FFB61D"/>
<path d="M158.6 79.2992C159.815 79.2992 160.8 78.4933 160.8 77.4992C160.8 76.5051 159.815 75.6992 158.6 75.6992C157.385 75.6992 156.4 76.5051 156.4 77.4992C156.4 78.4933 157.385 79.2992 158.6 79.2992Z" fill="#FFB61D"/>
<path d="M160.819 79.9286C160.914 79.497 162.884 79.8358 163.438 80.5726L163.608 80.801C164.125 81.485 164.439 81.701 165.105 81.701C165.956 81.701 166.246 81.5486 166.73 80.915L166.859 80.741C167.42 79.9718 169.402 79.4134 169.552 79.829C169.702 80.2442 169.488 80.703 169.072 80.8534C168.761 80.9658 168.584 81.1138 168.28 81.5118L168.137 81.7038C167.307 82.8406 166.616 83.301 165.105 83.301C163.879 83.301 163.168 82.8414 162.41 81.867L162.159 81.5342L162.045 81.3866C161.796 81.0702 161.643 80.9422 161.466 80.8918L161.428 80.8822C160.996 80.787 160.724 80.3602 160.819 79.9286Z" fill="#00160A"/>
<path d="M162.373 68.034C161.42 67.7424 160.551 67.6588 160.048 67.72C159.508 67.7856 158.824 68.0644 158.193 68.3216C157.688 68.5276 157.217 68.72 156.88 68.7776C156.546 68.8352 156.044 68.8164 155.555 68.7984C154.937 68.7752 154.34 68.7532 154.127 68.886C153.745 69.1244 154.315 69.5096 154.648 69.5536C155.801 69.706 156.64 69.7424 157.196 69.6536C157.69 69.5744 158.135 69.438 158.74 69.2056L159.372 68.9656C159.792 68.8092 159.9 68.784 160.048 68.7808L160.152 68.7812C160.575 68.7916 161.199 68.9184 162.008 69.1656C162.329 69.2636 162.671 69.09 162.772 68.7776C162.872 68.4652 162.694 68.1324 162.373 68.034Z" fill="#00160A"/>
<path d="M164.731 76.6184C165.182 75.3004 165.444 68.806 164.947 68.8008C164.45 68.7956 164.043 69.1944 164.038 69.6916C164.031 70.3904 164.035 71.0608 164.039 71.6892C164.052 73.5752 164.062 75.0844 163.746 75.856L163.679 76.0152C163.271 77.0264 163.157 77.8864 164.246 78.088C164.896 78.208 167.816 76.5524 167.647 76.0848C167.479 75.6168 166.964 75.374 166.496 75.542L166.373 75.5856C166.095 75.6832 165.732 75.9872 165.405 76.2608C165.115 76.5036 164.853 76.7228 164.705 76.7524L164.682 76.7564L164.731 76.6184Z" fill="#00160A"/>
<path d="M168.426 68.034C169.38 67.7424 170.249 67.6588 170.751 67.72C171.292 67.7856 171.976 68.0644 172.606 68.3216C173.112 68.5276 173.583 68.72 173.919 68.7776C174.254 68.8352 174.755 68.8164 175.244 68.7984C175.862 68.7752 176.46 68.7532 176.673 68.886C177.055 69.1244 176.485 69.5096 176.151 69.5536C174.999 69.706 174.159 69.7424 173.603 69.6536C173.11 69.5744 172.664 69.438 172.059 69.2056L171.428 68.9656C171.008 68.8092 170.9 68.784 170.751 68.7808L170.647 68.7812C170.224 68.7916 169.6 68.9184 168.792 69.1656C168.471 69.2636 168.129 69.09 168.028 68.7776C167.927 68.4652 168.106 68.1324 168.426 68.034Z" fill="#00160A"/>
<path d="M173.576 72.5563C173.828 72.1275 173.684 71.5759 173.255 71.3247C173.104 71.2359 172.984 71.4043 172.802 71.6595C172.468 72.1275 171.926 72.8879 170.6 72.8879C169.264 72.8879 168.716 72.1203 168.382 71.6535C168.204 71.4047 168.088 71.2411 167.945 71.3247C167.516 71.5759 167.372 72.1275 167.624 72.5563C168.258 73.6383 169.29 74.2011 170.6 74.2011C171.91 74.2011 172.942 73.6383 173.576 72.5563Z" fill="#00160A"/>
<path d="M162.087 71.3437C162.505 71.6125 162.626 72.1697 162.356 72.5873C161.667 73.6573 160.566 74.2001 159.166 74.2001C157.756 74.2001 156.666 73.6473 156.024 72.5565C155.772 72.1277 155.675 71.5497 156.344 71.3245C156.636 71.2257 156.932 71.5109 157.298 71.8633C157.769 72.3169 158.356 72.8825 159.2 72.8825C160.796 72.8825 161.362 72.0825 161.684 71.6261C161.846 71.3961 161.947 71.2533 162.087 71.3437Z" fill="#00160A"/>
<path fill-rule="evenodd" clip-rule="evenodd" d="M164.938 30.289C159.895 31.1885 156.032 35.0094 155.278 40.654C155.242 40.9224 155.218 41.184 155.207 41.4392C154.333 41.7132 151.744 42.5492 151.815 42.81C151.882 43.0528 154.178 42.5068 155.212 42.2476C155.362 44.7224 156.761 46.4968 159.116 47.5824C159.716 47.8584 160.361 48.0856 161.045 48.2684C158.611 49.0352 156.122 50.438 154.156 52.3656C150.523 55.9272 148.84 60.9504 149.736 67.334C149.744 67.3916 149.752 67.4492 149.761 67.5068C146.863 66.614 145.1 67.7988 145.1 70.9312C145.1 74.0736 149.695 75.8396 151.639 74.562C153.598 79.75 156.649 84.546 159.716 87.3224C159.623 87.5232 159.603 87.7588 159.679 87.9856C159.904 88.6612 159.972 89.1712 159.912 89.4964L159.899 89.556C159.83 89.842 159.63 90.2508 159.296 90.7612L159.232 90.8572L159.045 90.916C142.985 96.0736 136.84 111.02 140.55 135.413L140.564 135.482L140.632 135.77C142.422 143.188 145.812 147.516 150.034 148.637C150.033 148.657 150.033 148.678 150.034 148.698C150.771 173.683 151.416 193.59 151.968 208.421L152.169 213.687L152.369 218.679C152.651 225.54 152.905 230.815 153.13 234.506L153.274 236.771C153.52 240.477 153.664 241.292 154.194 241.666L154.245 241.701L154.284 241.725C154.398 241.791 154.538 241.85 154.706 241.902C154.509 241.902 154.312 241.902 154.113 241.901L150.208 241.898C144.926 241.882 139.869 241.81 133.157 241.666L116.645 241.291C111.704 241.188 108.924 241.156 105.826 241.16L103.321 241.171C96.1976 241.228 90.598 241.545 85.8568 242.213C74.458 243.82 67.6808 247.594 64.6784 254.712C63.146 258.346 63.884 261.487 66.698 263.933C69.1144 266.033 73.0452 267.621 78.3956 268.783L78.694 268.848C87.8472 270.79 100.843 271.493 117.323 271.246L118.336 271.23C126.078 271.097 134.016 270.779 143.572 270.265L153.084 269.726C156.427 269.533 159.87 269.335 161.096 269.27L162.754 269.184C166.275 269.009 168.545 268.944 169.946 268.987L171.517 269.047C194.228 269.878 211.951 268.742 223.353 266.066C228.555 264.844 232.276 263.33 234.357 261.607C236.611 259.74 237 257.494 235.329 255.511C230.116 249.322 221.561 245.826 207.739 243.962L207.025 243.867C197.122 242.582 185.139 242.065 164.624 241.936L164.736 241.928C165.246 241.894 165.648 241.48 165.668 240.969L167.152 199.335C167.194 199.336 167.237 199.335 167.282 199.332C169.221 199.198 170.534 198 172.926 193.492L173.211 192.95L173.536 192.32C174.12 191.242 175.669 189.57 176.997 188.136L176.997 188.135C177.868 187.194 178.645 186.356 178.99 185.857C179.705 185.997 180.744 186.107 182.108 186.187L182.278 186.196L181.196 188.823L181.176 188.879C181.04 189.29 181.26 189.741 181.676 189.884C195.95 194.794 203.71 190.962 205.714 180.646C208.572 165.934 200.836 158.542 183.008 158.73L183.29 149.312C184.386 149.158 185.411 148.716 186.331 147.97C188.934 145.858 190.451 141.48 190.751 134.851C191.768 112.33 185.195 98.1516 170.985 92.546L170.502 92.36L170.456 92.2328C170.206 91.5248 170.038 90.9512 169.953 90.5196L169.935 90.4228C169.846 89.9164 169.846 89.0704 169.945 87.9128C169.958 87.7688 169.936 87.6296 169.886 87.5036C173.386 84.6712 176.802 79.5832 178.47 74.3208L178.512 74.3352C178.53 74.3412 178.548 74.3476 178.566 74.3544L179.334 74.6272C179.838 74.7968 180.26 74.906 180.692 74.9628C183.059 75.2736 184.5 73.7304 184.5 70.1496C184.5 68.796 183.848 67.8596 182.63 67.646C181.834 67.5064 180.833 67.6912 179.591 68.1752C180.184 60.3916 178.36 54.824 174.643 51.3444C173.243 50.0336 171.604 49.0732 169.903 48.4528C171.484 48.0296 173.069 47.314 174.301 46.334C177.127 44.0864 178.019 40.706 176.397 36.3155L181.909 35.0856L181.954 35.0703C182.138 34.9937 182.185 34.5346 182.185 34.1916C182.185 33.8486 181.904 33.4557 181.691 33.516L176.052 35.4583C174.238 31.4312 169.667 29.4454 164.938 30.289ZM156.337 243.104L156.607 243.104C157.906 243.107 159.174 243.112 160.413 243.12C160.317 244.208 160.294 245.532 160.389 246.501H156.622C156.586 245.726 156.489 244.291 156.337 243.104ZM155.232 243.103C155.146 243.789 155.076 244.563 155.014 245.259C154.964 245.805 154.919 246.303 154.874 246.672C154.843 246.696 154.814 246.723 154.786 246.752C152.68 248.99 150.502 250.446 148.251 251.136L147.884 251.246C145.959 251.808 142.354 252.696 142.425 252.675C140.854 253.123 140.093 253.639 139.826 254.717C139.386 256.491 141.181 257.27 145.837 257.3L146.192 257.301C146.956 257.3 147.631 257.222 149.117 256.987L150.273 256.802C151.438 256.621 152.128 256.544 152.76 256.538L153.033 256.54C153.365 256.548 153.707 256.582 154.456 256.678L155.371 256.797C155.901 256.865 156.275 256.906 156.67 256.939C158.307 257.074 159.557 256.961 160.604 256.458C163.315 255.158 163.644 251.924 161.87 247.028C161.868 247.022 161.866 247.017 161.864 247.011C161.873 246.957 161.878 246.901 161.878 246.844V243.132C184.504 243.331 197.11 244.547 207.472 245.944L208.268 246.054C221.172 247.881 229.068 251.182 233.799 256.799C235.709 259.066 232.264 261.919 222.896 264.118C211.578 266.776 193.776 267.896 170.895 267.022L170.2 266.995C168.562 266.93 165.806 267.018 161.24 267.259L157.042 267.495C155.445 267.586 153.606 267.692 151.867 267.792C149.269 267.942 146.894 268.079 145.884 268.135L143.466 268.268C134.33 268.759 126.678 269.071 119.268 269.213L118.302 269.23C101.481 269.52 88.2644 268.834 79.1096 266.891C68.48 264.635 63.4244 260.936 65.7212 255.49C68.3704 249.209 75.2388 244.981 85.814 243.44L86.136 243.394C89.2968 242.948 92.8652 243.018 97.0456 243.1C99.1256 243.14 101.357 243.184 103.765 243.168L105.829 243.16C109.178 243.156 131.505 242.831 131.505 242.831C139.321 243.004 144.885 243.087 150.826 243.099L155.232 243.103ZM168.538 88.4776C167.21 89.3216 165.9 89.8008 164.7 89.8008C163.758 89.8008 162.747 89.456 161.711 88.8324C161.747 89.1908 161.738 89.5224 161.681 89.828C161.558 90.4816 161.172 91.6392 160.532 92.544C160.514 92.5688 160.495 92.5928 160.475 92.616C161.334 93.1024 162.661 93.608 164.495 93.3512C166.514 93.068 167.63 92.3504 168.308 91.7928C168.202 90.7212 168.338 89.45 168.538 88.4776ZM168.528 92.8652C167.69 93.9616 166.277 95.1512 164.495 95.1512C161.808 95.1512 160.044 94.4844 159.47 93.07C144.612 97.8944 138.066 111.315 141.424 134.43L141.524 135.106L141.579 135.337C143.64 143.896 148.502 147.656 153.289 147.07L153.436 147.05C157.722 146.448 161.9 142.322 163.019 137.619L163.184 136.912C164.019 133.282 164.525 130.074 164.525 127.437L164.523 126.342C164.495 120.598 164.249 116.346 163.94 114.471L163.918 114.343L163.884 114.436C163.753 114.789 163.614 115.222 163.467 115.732L163.422 115.887C162.748 118.282 161.955 122.176 161.054 127.584C160.392 131.56 149.76 136.55 149.601 136.079C149.551 135.932 150.422 135.332 151.661 134.479L151.662 134.478L151.667 134.475C152.149 134.143 152.687 133.772 153.248 133.375C153.228 133.338 153.208 133.299 153.187 133.258C151.621 130.116 150.656 127.358 150.299 124.975C149.946 122.62 150.769 113.139 151.292 113.142L151.358 113.144C151.621 113.162 151.563 114.391 151.478 116.212C151.384 118.197 151.257 120.886 151.477 123.479C151.716 126.295 152.964 129.132 153.832 131.102C154.071 131.646 154.282 132.124 154.434 132.518C156.726 130.817 159.022 128.828 159.279 127.289L159.483 126.077C160.293 121.332 161.016 117.83 161.65 115.54L161.69 115.399C162.038 114.165 162.362 113.284 162.682 112.724C163.186 111.843 163.949 111.384 164.75 112.022C165.64 112.73 166.086 115.776 166.249 121.329C166.386 118.842 166.612 116.828 166.919 115.32C167.175 114.06 167.487 113.148 167.877 112.572C168.43 111.753 169.294 111.473 170.081 112.023L170.134 112.062C171.822 113.355 172.961 119.627 173.028 127.784L173.031 128.466L173.047 128.561C174.079 132.46 176.216 134.732 178.156 136.094C182.114 129.607 179.81 117.592 178.833 112.495C178.552 111.026 178.38 110.132 178.5 110.11C179.044 110.012 179.564 110.372 179.662 110.916C180.913 117.832 181.557 122.945 181.592 126.281C181.627 129.656 181.062 133.213 179.9 136.95C179.884 137.004 179.862 137.056 179.838 137.105C180.43 137.409 180.949 137.628 181.341 137.794C181.847 138.008 182.14 138.132 182.102 138.232C181.925 138.696 174.752 138.696 171.242 128.688C171.23 128.654 171.23 128.604 171.231 128.559V128.543C171.231 124.369 170.945 120.646 170.443 117.807C170.214 116.514 169.947 115.446 169.661 114.661L169.623 114.558C169.496 114.222 169.37 113.959 169.264 113.776L169.259 113.768L169.237 113.812C169.048 114.201 168.855 114.831 168.683 115.679L168.654 115.82C168.567 116.268 168.458 116.764 168.339 117.308C167.824 119.651 167.116 122.875 167.1 126.892L167.099 127.492C167.099 134.5 172.025 142.985 177.625 146.31C183.444 149.764 188.428 146.368 188.952 134.77C189.959 112.498 183.809 97.5756 169.493 93.9064C169.026 93.7864 168.718 93.3996 168.528 92.8652ZM166.23 129.638C166.026 132.126 165.506 134.94 164.77 138.036C163.486 143.432 158.737 148.123 153.686 148.833C152.814 148.956 151.963 148.963 151.14 148.855C151.191 149.59 151.249 150.648 151.312 151.984C151.493 151.958 151.682 151.982 151.86 152.062C153.178 152.655 160.472 153.474 166.809 153.6L167.279 153.609C174.817 153.722 180.215 152.884 181.228 151.346L181.29 149.292C180.07 149.108 178.795 148.622 177.506 147.857C171.931 144.548 167.078 136.767 166.23 129.638ZM146.9 70.9312C146.744 68.6004 148.632 68.7532 150.025 69.0188C150.322 70.4956 150.735 71.9864 151.24 73.4556L151.169 73.4536C149.621 73.4108 147.061 73.3396 146.9 70.9312ZM179.48 69.3964C179.452 69.6656 179.421 69.9376 179.387 70.212C179.264 71.2036 179.063 72.2088 178.794 73.2132C180.597 73.4268 183.617 73.5444 183.053 69.5392C182.833 67.9792 180.823 68.8252 179.48 69.3964ZM164.431 47.6172C165.2 47.5716 165.998 47.5988 166.805 47.7004C168.848 47.6752 171.904 46.7432 173.305 45.082C178.8 38.5644 171.181 31.1806 165.264 32.135C160.87 32.8437 156.724 35.9293 156.064 40.866C155.747 43.2372 157.296 47.0136 164.431 47.6172ZM152.679 189.244C153.514 213.758 154.414 240.148 154.82 240.854C154.889 240.978 155.932 240.988 156.759 240.996H156.76H156.764C156.981 240.998 157.183 241 157.348 241.003L157.793 241.01L158.298 241.011C159.523 241.005 161.067 240.947 162.928 240.838L163.704 240.791L166.762 167.912C166.678 166.254 165.149 164.359 164.12 163.086C163.508 162.327 163.074 161.789 163.228 161.651C163.634 161.288 166.813 164.852 167.399 166.113C167.41 166.156 167.422 166.213 167.436 166.283C167.797 165.337 168.305 164.345 168.966 163.314C169.205 162.942 172.23 158.746 170.072 163.072C165.451 172.336 170.685 176.101 179.822 176.134L179.856 176.134H179.86C179.936 176.135 179.992 176.135 180.116 176.12C183.674 175.667 187.535 175.876 190.576 176.273C193.565 176.663 198.732 179.574 192.884 181.217C191.486 181.61 189.24 181.372 186.648 180.809L185.945 180.692L181.827 189.022L182.538 189.176C195.018 193.144 202.256 189.441 204.088 180.619L204.143 180.341C206.756 166.895 201.148 158.574 182.986 159.461L182.963 160.251C182.946 160.803 182.485 161.237 181.933 161.22C181.381 161.204 180.947 160.742 180.964 160.19L180.982 159.591C174.622 160.058 178.787 159.26 181.002 158.904L181.153 153.878C178.534 155.21 173.709 155.707 167.295 155.609L166.769 155.6C160.554 155.476 153.6 154.73 151.406 154.023C151.738 161.632 152.198 175.126 152.679 189.242V189.244ZM184.164 181.616L182.68 185.22C181.651 185.064 180.942 184.882 180.41 184.745C180.234 184.7 180.076 184.66 179.934 184.627C179.74 183.194 179.746 182.156 179.926 181.542C180.083 181.01 180.31 180.709 180.606 180.574C181.244 180.782 181.995 181.009 182.859 181.254L183.508 181.436L184.164 181.616ZM178.582 184.727C178.66 184.676 178.743 184.637 178.828 184.61C178.612 183.457 178.611 181.703 178.791 181.09C178.914 180.673 179.018 180.345 179.159 180.08C178.953 180.01 178.64 179.85 178.255 179.653C176.483 178.746 173.179 177.055 171.724 179.708C169.27 184.185 167.113 198.251 167.74 198.255C168.633 198.261 170.903 195.086 172.397 192.267L172.463 192.141L172.848 191.391C174.02 189.117 175.894 186.49 178.582 184.727ZM185.588 179.807C185.268 179.75 184.952 179.893 184.779 180.158C184.711 180.116 184.636 180.084 184.554 180.064L179.015 178.697L178.893 178.627C174.682 176.247 171.958 176.449 170.058 179.1C169.384 180.04 169.047 181.223 168.884 182.791L168.865 182.989L168.842 183.26C168.82 183.532 168.803 183.812 168.786 184.159L168.718 185.606L168.705 185.825C168.684 186.165 168.663 186.387 168.633 186.596L168.614 186.72L168.552 187.056L168.515 187.23C168.494 187.323 168.468 187.43 168.434 187.563L168.335 187.937L167.734 190.106C167.627 190.6 167.526 191.066 167.431 191.504L168.075 173.445C170.098 175.957 174.398 177.28 180.541 176.898L181.047 176.869C181.284 176.857 181.525 176.844 181.767 176.831L181.774 176.831L181.818 176.828L181.828 176.828C184.502 176.684 187.406 176.528 190.036 177.112C196.594 178.569 193.912 179.908 193.334 180.196L193.3 180.213L193.282 180.222L193.207 180.258C192.283 180.669 190.115 180.586 186.019 179.882L185.588 179.807ZM142.645 253.878L142.864 253.814C142.758 253.846 150.668 252.726 154.902 248.322C155.701 247.491 160.551 248.101 160.551 248.101L160.556 248.113C162.381 251.136 162.644 254.278 160.354 255.205C159.546 255.532 158.18 255.858 156.802 255.744L156.602 255.727L156.319 255.699C156.125 255.678 155.916 255.653 155.671 255.622L154.309 255.447C153.592 255.359 153.275 255.337 152.842 255.337C152.085 255.337 148.448 255.872 148.448 255.872C147.339 256.042 146.774 256.1 146.189 256.101C143.852 256.104 142.379 255.53 141.655 255.235L141.586 255.205C141.521 255.176 141.468 255.147 141.427 255.12L141.382 255.088L141.379 255.102C141.463 254.764 141.746 254.152 142.645 253.878ZM178.033 70.212C178.262 68.3604 178.337 66.63 178.277 65.0212C175.505 66.1216 172.731 65.9196 170.373 64.5312C168.435 63.3904 166.691 61.5776 165.131 59.102L165.074 59.0104L165.022 59.11C163.762 61.5016 162.137 63.4116 160.147 64.8308L159.947 64.9708C157.45 66.6896 154.52 67.4568 151.187 67.2744L151.2 67.334C153.101 75.7008 159.707 88.592 164.809 88.9008C166.76 89.0192 169.592 85.8672 172.218 82.4504C175.053 78.7608 177.513 74.4276 178.033 70.212ZM173.413 52.6584C175.91 54.9952 177.672 58.5652 178.16 63.3376C178.131 63.3468 178.101 63.358 178.072 63.3708C175.622 64.4696 173.22 64.7512 171.184 63.5524C169.168 62.3652 167.336 59.8916 165.7 56.9156C165.38 56.332 164.528 56.3728 164.265 56.9844C164.212 57.1056 164.155 57.2424 164.092 57.3924C163.37 59.1212 161.917 62.596 158.764 64.4308C156.47 65.766 153.083 66.1044 151.411 66.2712H151.409L151.407 66.2716C151.258 66.2864 151.122 66.3 151.002 66.3128C150.94 65.9236 150.893 65.5364 150.861 65.1524C152.771 64.8064 156.786 63.4844 158.4 62.4704C160.448 61.1844 161.075 59.8716 162.117 57.6896C162.308 57.2896 162.513 56.8604 162.744 56.3968C162.942 55.9964 163.414 53.3292 162.296 55.3576C162.228 55.4808 162.156 55.6152 162.079 55.7596L162.079 55.7604L162.078 55.7612L162.078 55.7616C160.916 57.9348 158.554 62.3504 150.814 64.3644C150.664 59.8832 152.475 55.868 155.124 53.2716C157.597 50.8464 161.339 49.2428 164.181 48.9672C167.172 48.6772 170.787 50.2004 173.413 52.6584Z" fill="#00160A"/>
<path fill-rule="evenodd" clip-rule="evenodd" d="M92.448 192.432C91.9692 187.329 89.594 182.277 85.83 178.808C83.0892 176.282 79.1612 174.167 75.496 175.976C69.8572 179.341 68.3432 186.248 68.9116 192.432C69.6164 200.098 73.1972 204.824 80.076 207.648C83.9516 209.238 86.528 211.336 88.632 214.992C90.3152 217.915 91.2964 221.576 93.4112 224.226C96.5728 228.188 100.53 229.949 105.406 229.291C106.373 229.291 109.487 232.19 110.46 233.946C113.001 238.533 115.182 243.376 116.184 248.554C116.476 250.065 116.269 255.718 117.301 256.809C119.187 258.805 118.634 254.962 118.522 253.802C117.585 244.196 114.136 236.013 109.13 227.938C110.668 225.929 110.89 220.816 110.406 219.204C109.13 214.203 93.4124 202.708 92.448 192.432Z" fill="white"/>
<path fill-rule="evenodd" clip-rule="evenodd" d="M74.9192 174.816L74.8912 174.832C69.6532 177.958 67.7372 182.327 68.1132 192.468C68.5084 203.125 72.3736 205.014 79.3128 207.929L79.524 208.017C83.4192 209.615 85.8756 211.699 87.8852 215.191L88.0464 215.476C88.3976 216.108 88.7112 216.755 89.1536 217.742L89.946 219.539C91.0152 221.951 91.6964 223.22 92.6984 224.475C95.9872 228.596 100.1 230.356 105.06 229.687L105.107 229.678L105.153 229.662C105.921 229.36 108.534 232.018 109.71 234.14C112.566 239.294 114.41 243.789 115.328 248.313L115.391 248.629C115.45 248.935 115.489 249.406 115.534 250.301L115.597 251.627C115.612 251.936 115.626 252.205 115.641 252.459L115.65 252.61C115.799 255.076 116.044 256.484 116.61 257.083C117.366 257.883 118.064 258.034 118.447 257.339C118.664 256.944 118.715 256.306 118.668 255.408L118.65 255.108C118.639 254.955 118.625 254.796 118.609 254.625L118.479 253.365C117.562 244.631 114.579 236.706 109.31 228.117L109.208 227.951L109.273 227.847C110.534 225.765 110.994 221.105 110.39 219.088C109.356 215.642 107.313 212.853 103.595 209.176L102.948 208.538C96.6612 202.32 94.5524 199.112 92.8248 192.268L92.23 189.9L92.2152 189.843C90.796 184.372 89.3064 181.116 86.49 178.52C83.1108 175.406 78.3608 173.118 74.9192 174.816ZM85.948 179.108C88.5316 181.489 90.3584 184.498 91.6996 189.509L91.988 190.618L92.3896 192.226C92.8248 196.54 94.1696 201.622 102.386 209.107L102.823 209.538C106.587 213.232 108.619 215.968 109.623 219.318C110.194 221.222 109.672 226.049 108.412 227.694C108.311 227.826 108.302 228.007 108.39 228.148C113.747 236.789 116.765 244.709 117.683 253.442L117.796 254.53L117.827 254.86C117.841 255.018 117.852 255.166 117.861 255.308L117.87 255.45C117.908 256.196 117.865 256.736 117.746 256.954L117.74 256.968L117.754 256.972C117.648 256.949 117.452 256.81 117.191 256.534C116.829 256.151 116.595 254.849 116.459 252.735L116.431 252.26L116.326 250.124C116.284 249.314 116.246 248.86 116.186 248.526L116.176 248.477C115.263 243.752 113.37 239.094 110.41 233.752L110.345 233.636C108.961 231.205 106.273 228.483 104.923 228.896L104.915 228.898L104.953 228.894C100.28 229.524 96.4412 227.882 93.3236 223.976C92.3488 222.754 91.6808 221.492 90.584 219.003L90.0184 217.717C89.422 216.373 89.0532 215.616 88.5788 214.792C86.5164 211.208 83.9772 209.021 80.0472 207.368L79.8276 207.277C73.0252 204.485 69.5952 199.846 68.91 192.395L68.8904 192.173C68.3128 185.292 70.378 179.358 75.1464 176.412L75.2868 176.326L75.2732 176.334C78.3628 174.809 82.786 176.194 85.948 179.108Z" fill="#00160A"/>
<path fill-rule="evenodd" clip-rule="evenodd" d="M114.604 229.413C116.918 229.769 118.934 228.414 119.711 226.156C120.382 224.204 120.447 221.934 121.209 220.089C121.734 218.818 122.568 217.739 123.589 216.826C126.281 214.419 129.092 213.817 129.895 209.823C130.524 206.691 129.743 200.308 125.372 200.945C122.331 201.389 119.874 205.452 118.458 208.015C116.706 211.185 115.07 214.583 114.15 218.066C112.632 223.803 112.428 230.171 112.409 236.047C112.406 236.755 112.259 245.405 113.27 245.263C114.272 245.122 113.638 236.145 113.723 234.285" fill="white"/>
<path fill-rule="evenodd" clip-rule="evenodd" d="M81.6864 181.421C80.916 181.816 81.0672 183.087 81.9888 185.356C82.9124 187.628 84.274 189.34 85.6652 190.118C87.088 190.914 88.3876 190.586 88.7468 189.19C89.0708 187.93 86.8544 184.778 84.5012 182.694C83.2764 181.61 82.3204 181.096 81.6864 181.421ZM83.9708 183.293C85.8596 185.577 88.1876 188.553 87.972 189.391C87.7612 190.21 87.0664 190.386 86.0556 189.82C84.8372 189.138 83.3708 187.204 82.5116 185.088L82.3848 184.77C81.5992 183.254 81.6012 181.887 82.0516 181.732C82.4804 181.586 83.4092 182.614 83.9708 183.293ZM121.322 206.266C121.008 205.407 121.952 204.35 123.693 203.588C125.563 202.77 126.78 202.711 126.774 203.729C126.77 204.417 125.842 205.378 124.426 206.242C122.991 207.119 121.651 207.166 121.322 206.266ZM125.962 203.783C125.93 203.778 125.89 203.776 125.841 203.776L125.789 203.778C125.736 203.78 125.673 203.778 125.596 203.776C125.116 203.763 124.13 203.735 122.284 204.65C121.889 204.846 121.636 205.889 121.673 205.991C121.764 206.238 122.943 206.611 124.009 205.96C124.453 205.688 124.843 205.21 125.16 204.82C125.294 204.656 125.415 204.508 125.521 204.398C125.76 204.15 125.906 203.935 125.955 203.805L125.962 203.783ZM122.943 211.561L122.75 211.874C121.904 213.254 121.393 214.232 121.187 214.849C120.913 215.674 121.207 216.258 121.971 216.008C122.667 215.78 124.01 214.652 125.68 213.005C127.03 211.672 127.706 209.646 127.188 208.676C126.484 207.357 124.841 208.51 122.943 211.561ZM126.482 208.652C126.802 209.251 126.244 211.324 125.118 212.435L124.74 212.804C124.446 213.088 124.132 213.406 123.82 213.722C122.861 214.692 121.928 215.637 121.703 215.472C121.442 215.28 122.292 213.479 123.223 211.983C124.12 210.541 125.295 209.21 125.89 208.792C126.277 208.521 126.416 208.527 126.482 208.652ZM115.363 223.9C115.136 225.408 115.339 226.534 116.101 226.69C116.884 226.851 117.716 225.808 118.644 223.68C119.529 221.65 119.297 219.726 118.139 219.434C116.944 219.133 115.858 220.799 115.387 223.746L115.363 223.9ZM117.944 220.21C118.461 220.34 118.729 221.697 118.06 223.438C117.534 224.806 116.101 228.056 115.722 225.512C115.664 225.125 115.664 224.619 115.754 224.019L115.803 223.716C116.215 221.292 117.414 220.076 117.944 220.21ZM73.9212 198.742C71.962 196.605 70.802 193.942 71.766 192.777C72.9144 191.389 78.2156 196.191 78.1464 198.59C78.106 199.99 77.4968 200.709 76.4872 200.525C75.7388 200.389 74.8264 199.73 73.9212 198.742ZM72.3792 192.891L72.3516 192.928C71.8264 193.689 72.44 196.379 74.1108 198.201C74.9084 199.071 76.0964 200.041 76.6308 200.138C77.0768 200.219 77.3192 199.933 77.3468 198.967C77.3724 198.08 76.3848 196.224 74.9388 194.914C74.7792 194.769 74.588 194.574 74.3808 194.362H74.3804C73.752 193.72 72.9744 192.926 72.4648 192.92C72.384 192.918 72.3664 192.91 72.3792 192.891ZM72.3792 192.891L72.3824 192.887C72.3812 192.889 72.38 192.89 72.3792 192.891ZM95.5324 222.069C95.9792 224.012 96.8616 225.276 98.0568 225.969C98.8672 226.439 99.6196 226.577 100.482 226.577C102.331 226.577 103.189 225.753 102.867 224.414C102.626 223.41 101.697 222.164 100.46 221.076C99.226 219.992 97.9028 219.257 96.9412 219.197C95.6268 219.115 95.0972 220.177 95.5324 222.069ZM96.8912 219.996C97.6352 220.042 98.8192 220.7 99.932 221.677C101.056 222.666 101.894 223.791 102.09 224.601C102.276 225.377 101.86 226.177 100.482 226.177C99.7476 226.177 99.1224 226.062 98.4584 225.677C97.4616 225.099 96.3108 223.623 95.912 221.89C95.5804 220.448 96.2272 219.954 96.8912 219.996ZM98.8712 213.853C97.2152 212.477 96.4232 211.032 96.9 210.236C97.4432 209.33 98.866 209.919 100.307 211.503C101.209 212.493 102.472 214.207 102.844 215.054C102.996 215.399 103.048 215.656 102.932 215.89C102.756 216.245 102.406 216.255 101.998 216.088C101.476 215.874 100.593 215.261 99.2896 214.198L98.8712 213.853ZM98.052 210.712C97.8764 210.64 97.7368 210.614 97.646 210.625C97.6032 210.63 97.5928 210.636 97.5864 210.647C97.576 210.664 97.558 210.686 97.5356 210.714C97.4236 210.851 97.208 211.116 97.3952 211.457C97.6892 211.993 98.6276 213.01 99.3824 213.638C100.391 214.476 101.448 215.064 102.076 215.414C102.194 215.479 102.297 215.536 102.382 215.585L102.435 215.615L102.376 215.504C101.941 214.71 100.552 212.98 99.8048 212.14L99.7156 212.041C99.0872 211.351 98.508 210.901 98.052 210.712ZM81.3 203.036C80.8232 203.832 81.6152 205.277 83.2712 206.653L83.6896 206.998C84.9932 208.061 85.8756 208.674 86.3976 208.888C86.8064 209.055 87.156 209.045 87.3316 208.69C87.4476 208.456 87.396 208.199 87.2444 207.854C86.8716 207.007 85.6088 205.293 84.7072 204.303C83.266 202.719 81.8432 202.13 81.3 203.036ZM82.046 203.425C82.1368 203.414 82.2764 203.44 82.452 203.512C82.908 203.701 83.4872 204.151 84.1156 204.841L84.2048 204.94C84.9524 205.78 85.9408 207.51 86.3756 208.304L86.4348 208.415L86.3816 208.385C85.8444 208.075 84.9792 207.432 83.7824 206.438C83.0276 205.81 82.0892 204.793 81.7952 204.257C81.608 203.916 81.8236 203.651 81.9356 203.514C81.958 203.486 81.976 203.464 81.9864 203.447C81.9928 203.436 82.0032 203.43 82.046 203.425ZM91.2712 204.253C89.6152 202.877 88.8232 201.432 89.3 200.636C89.8432 199.73 91.266 200.319 92.7072 201.903C93.6088 202.893 94.8716 204.607 95.2444 205.454C95.396 205.799 95.4476 206.056 95.3316 206.29C95.156 206.645 94.8064 206.655 94.3976 206.488C93.8756 206.274 92.9932 205.661 91.6896 204.598L91.2712 204.253ZM90.452 201.112C90.2764 201.04 90.1368 201.014 90.046 201.025C90.0032 201.03 89.9928 201.036 89.9864 201.047C89.9844 201.05 89.9824 201.054 89.98 201.058C89.9116 201.17 89.7088 201.506 89.926 201.903C90.22 202.44 91.08 203.798 91.3824 204.038C92.2804 204.749 93.4068 205.3 94.1532 205.665C94.4208 205.796 94.6396 205.903 94.7816 205.985L94.8348 206.015L94.7756 205.904C94.3408 205.11 92.9524 203.38 92.2048 202.54L92.1156 202.441C91.4872 201.751 90.908 201.301 90.452 201.112Z" fill="#FFB61D"/>
<path fill-rule="evenodd" clip-rule="evenodd" d="M125.314 200.549C127.522 200.227 129.474 201.505 130.286 203.839C130.924 205.674 130.649 208.1 130.287 209.902C129.823 212.212 128.856 213.447 126.726 214.976L125.445 215.875C125.003 216.19 124.64 216.463 124.294 216.749C124.143 216.873 123.997 216.998 123.855 217.125C122.825 218.046 122.057 219.084 121.578 220.242L121.513 220.404C121.26 221.053 121.1 221.697 120.868 222.898L120.67 223.948C120.469 224.993 120.317 225.623 120.089 226.286C119.214 228.832 117.365 230.181 114.944 229.809C114.725 229.775 114.008 229.83 115.616 229.504C117.223 229.178 118.575 228.231 119.332 226.026C119.546 225.405 119.69 224.803 119.886 223.791L120.085 222.735C120.344 221.388 120.521 220.707 120.839 219.936C121.366 218.661 122.206 217.526 123.322 216.528C123.472 216.394 123.626 216.262 123.785 216.131C124.103 215.87 124.431 215.619 124.814 215.343L125.203 215.067C125.526 214.841 126.017 214.498 126.116 214.428L126.393 214.229C128.277 212.855 129.494 211.775 129.902 209.744C130.237 208.079 129.72 205.797 129.13 204.102C128.432 202.094 127.203 200.682 125.43 200.941C122.819 201.322 116.338 210.81 114.546 216.618C113.071 221.398 112.697 228.735 112.794 235.322L112.81 236.261L112.808 237.555C112.809 238.604 112.819 239.48 112.847 240.391L112.854 240.62C112.898 241.938 112.974 243.021 113.088 243.8C113.126 244.057 113.167 244.277 113.211 244.456L113.234 244.543L113.246 244.489C113.296 244.249 113.336 243.935 113.367 243.553L113.377 243.423L113.395 243.148C113.444 242.296 113.454 241.206 113.433 239.844L113.414 238.893C113.406 238.543 113.397 238.168 113.384 237.731L113.318 235.217C113.31 234.827 113.31 234.622 113.317 234.431L113.346 233.703C113.368 233.112 113.382 232.497 113.397 231.521L113.42 230.106C113.48 226.872 113.598 225.261 113.984 223.281C114.042 222.982 114.105 222.687 114.174 222.396C115.184 218.145 117.356 215.086 119.458 211.337C120.089 210.212 123.402 208.488 123.432 208.707C123.463 208.926 120.596 210.219 119.726 211.667C117.874 214.746 115.939 218.426 114.952 222.581C114.886 222.861 114.825 223.145 114.769 223.433L114.696 223.823C114.379 225.58 114.275 227.154 114.219 230.129L114.178 232.608C114.167 233.112 114.155 233.513 114.139 233.922L114.115 234.516C114.11 234.735 114.112 235.005 114.126 235.584L114.211 238.723C114.218 239.031 114.224 239.316 114.229 239.601L114.242 240.519C114.28 244.077 114.114 245.549 113.326 245.659C112.708 245.746 112.476 245.145 112.296 243.916C112.184 243.149 112.109 242.122 112.063 240.882L112.055 240.647C112.021 239.641 112.009 238.701 112.008 237.558L112.009 236.057C111.84 229.212 112.624 221.43 114.181 216.383C116.059 210.297 122.286 200.992 125.314 200.549Z" fill="#00160A"/>
<path d="M113.2 260.899C121.816 260.899 128.8 255.706 128.8 249.299C128.8 242.893 121.816 237.699 113.2 237.699C104.584 237.699 97.6 242.893 97.6 249.299C97.6 255.706 104.584 260.899 113.2 260.899Z" fill="white"/>
<path d="M107.002 260.899C112.195 260.899 116.404 255.706 116.404 249.299C116.404 242.893 112.195 237.699 107.002 237.699C101.809 237.699 97.6001 242.893 97.6001 249.299C97.6001 255.706 101.809 260.899 107.002 260.899Z" fill="#E7EAEE"/>
<path fill-rule="evenodd" clip-rule="evenodd" d="M128.8 237.199H97.6C97.324 237.199 97.1 237.423 97.1 237.699C97.1 246.245 97.9064 251.565 100.049 255.259C102.465 259.424 106.628 261.399 113.2 261.399C119.772 261.399 123.935 259.424 126.351 255.259C128.494 251.565 129.3 246.245 129.3 237.699C129.3 237.423 129.076 237.199 128.8 237.199ZM98.9008 238.199H127.899L127.898 238.314C127.86 246.334 127.865 251.346 125.886 254.757C123.666 258.584 119.441 260.799 113.2 260.799C106.959 260.799 103.134 258.184 100.914 254.357L100.84 254.227C98.9408 250.864 98.96 246.365 98.9032 238.629L98.9008 238.199Z" fill="#00160A"/>
</svg>
