<svg width="112" height="114" viewBox="0 0 112 114" fill="none" xmlns="http://www.w3.org/2000/svg">
<path d="M102.001 63.7195L102.4 64.0211L102.001 63.7195ZM0.622233 109.391C0.441381 109.6 0.46394 109.916 0.672619 110.097L4.07325 113.044C4.28193 113.225 4.5977 113.202 4.77856 112.993C4.95941 112.785 4.93685 112.469 4.72817 112.288L1.70539 109.668L4.32508 106.646C4.50594 106.437 4.48338 106.121 4.2747 105.94C4.06602 105.759 3.75024 105.782 3.56939 105.991L0.622233 109.391ZM71.0001 0.718736C70.8329 1.18995 70.8329 1.18997 70.8332 1.19008C70.8337 1.19022 70.8342 1.19041 70.835 1.19071C70.8367 1.1913 70.8393 1.19222 70.8428 1.19348C70.8498 1.196 70.8605 1.19986 70.8749 1.20505C70.9036 1.21544 70.9469 1.23118 71.0041 1.25226C71.1185 1.29443 71.2887 1.35794 71.5099 1.44272C71.9523 1.61228 72.5986 1.86686 73.4112 2.2057C75.0366 2.88347 77.326 3.89795 79.9773 5.24308C85.2837 7.93533 92.0217 11.943 97.7885 17.2137C103.558 22.487 108.318 28.9901 109.744 36.6706C111.166 44.332 109.287 53.2548 101.602 63.418L102.4 64.0211C110.215 53.6849 112.211 44.483 110.727 36.4881C109.247 28.5124 104.319 21.8278 98.4632 16.4756C92.6047 11.121 85.7798 7.06566 80.4297 4.35129C77.7527 2.99311 75.4403 1.96836 73.7961 1.28273C72.9739 0.939881 72.3185 0.681717 71.8678 0.508962C71.6424 0.422581 71.4682 0.357546 71.3499 0.313945C71.2907 0.292144 71.2455 0.275702 71.2149 0.264628C71.1996 0.259092 71.1879 0.254897 71.18 0.252046C71.176 0.250621 71.1729 0.249532 71.1708 0.248778C71.1698 0.248401 71.1689 0.248088 71.1684 0.2479C71.1677 0.247671 71.1673 0.247526 71.0001 0.718736ZM101.602 63.418C86.1981 83.7898 61.0723 95.2499 39.7323 101.614C29.071 104.794 19.3748 106.696 12.3442 107.803C8.82928 108.356 5.98159 108.711 4.01387 108.927C3.03004 109.035 2.26626 109.108 1.74914 109.155C1.49059 109.178 1.2937 109.194 1.16181 109.205C1.09586 109.21 1.04616 109.214 1.01313 109.216C0.996618 109.218 0.984269 109.219 0.976138 109.219C0.972073 109.219 0.969062 109.22 0.967112 109.22C0.966137 109.22 0.965473 109.22 0.964984 109.22C0.964586 109.22 0.964453 109.22 1.00008 109.719C1.03571 110.217 1.03611 110.217 1.03678 110.217C1.03736 110.217 1.03829 110.217 1.03945 110.217C1.04176 110.217 1.04513 110.217 1.04955 110.216C1.05841 110.216 1.07149 110.215 1.08874 110.214C1.12323 110.211 1.17441 110.207 1.24186 110.202C1.37675 110.191 1.57672 110.174 1.83842 110.151C2.36183 110.104 3.13224 110.03 4.12301 109.921C6.10452 109.703 8.96777 109.347 12.4997 108.791C19.5629 107.679 29.3043 105.768 40.0181 102.573C61.4283 96.1873 86.803 84.6479 102.4 64.0211L101.602 63.418Z" fill="#04A772"/>
</svg>
