<svg width="280" height="226" viewBox="0 0 280 226" fill="none" xmlns="http://www.w3.org/2000/svg">
<path d="M4.04616 18L0.351562 4.90909H2.90199L5.26065 14.5291H5.3821L7.90057 4.90909H10.2209L12.7457 14.5355H12.8608L15.2195 4.90909H17.7699L14.0753 18H11.7358L9.11506 8.81463H9.01278L6.38565 18H4.04616ZM21.6259 12.2472V18H19.312V4.90909H21.5748V9.85014H21.6898C21.9199 9.29616 22.2757 8.85937 22.7573 8.53977C23.2431 8.21591 23.861 8.05398 24.611 8.05398C25.2928 8.05398 25.8873 8.19673 26.3944 8.48224C26.9015 8.76776 27.2935 9.18537 27.5705 9.73509C27.8517 10.2848 27.9924 10.956 27.9924 11.7486V18H25.6784V12.1065C25.6784 11.446 25.508 10.9325 25.1671 10.5661C24.8304 10.1953 24.3574 10.0099 23.748 10.0099C23.339 10.0099 22.9725 10.0994 22.6486 10.2784C22.329 10.4531 22.0776 10.7067 21.8944 11.0391C21.7154 11.3714 21.6259 11.7741 21.6259 12.2472ZM33.1763 18.1982C32.5542 18.1982 31.9938 18.0874 31.4952 17.8658C31.0009 17.6399 30.6088 17.3075 30.3191 16.8686C30.0336 16.4297 29.8908 15.8885 29.8908 15.245C29.8908 14.6911 29.9931 14.233 30.1976 13.8707C30.4022 13.5085 30.6813 13.2188 31.035 13.0014C31.3887 12.7841 31.7871 12.62 32.2303 12.5092C32.6777 12.3942 33.1401 12.3111 33.6174 12.2599C34.1926 12.2003 34.6593 12.147 35.0172 12.1001C35.3752 12.049 35.6351 11.9723 35.7971 11.87C35.9632 11.7635 36.0463 11.5994 36.0463 11.3778V11.3395C36.0463 10.858 35.9036 10.4851 35.6181 10.2209C35.3326 9.95668 34.9213 9.82457 34.3844 9.82457C33.8176 9.82457 33.3681 9.94815 33.0357 10.1953C32.7076 10.4425 32.486 10.7344 32.3709 11.071L30.2104 10.7642C30.3809 10.1676 30.6621 9.66903 31.0542 9.26847C31.4462 8.86364 31.9256 8.56108 32.4924 8.3608C33.0591 8.15625 33.6855 8.05398 34.3716 8.05398C34.8446 8.05398 35.3155 8.10938 35.7843 8.22017C36.253 8.33097 36.6813 8.5142 37.0691 8.76989C37.4569 9.02131 37.7679 9.36435 38.0023 9.79901C38.2409 10.2337 38.3603 10.777 38.3603 11.429V18H36.1358V16.6513H36.0591C35.9185 16.924 35.7203 17.1797 35.4647 17.4183C35.2132 17.6527 34.8958 17.8423 34.5123 17.9872C34.133 18.1278 33.6877 18.1982 33.1763 18.1982ZM33.7772 16.4979C34.2417 16.4979 34.6444 16.4062 34.9853 16.223C35.3262 16.0355 35.5882 15.7884 35.7715 15.4815C35.959 15.1747 36.0527 14.8402 36.0527 14.478V13.321C35.9803 13.3807 35.8567 13.4361 35.682 13.4872C35.5115 13.5384 35.3198 13.5831 35.1067 13.6214C34.8936 13.6598 34.6827 13.6939 34.4739 13.7237C34.2651 13.7536 34.084 13.7791 33.9306 13.8004C33.5854 13.8473 33.2765 13.924 33.0037 14.0305C32.731 14.1371 32.5158 14.2862 32.3581 14.478C32.2005 14.6655 32.1216 14.9084 32.1216 15.2067C32.1216 15.6328 32.2772 15.9545 32.5882 16.1719C32.8993 16.3892 33.2956 16.4979 33.7772 16.4979ZM45.5897 8.18182V9.97159H39.9455V8.18182H45.5897ZM41.339 5.82955H43.6529V15.0469C43.6529 15.358 43.6998 15.5966 43.7935 15.7628C43.8915 15.9247 44.0194 16.0355 44.177 16.0952C44.3347 16.1548 44.5094 16.1847 44.7012 16.1847C44.8461 16.1847 44.9782 16.174 45.0975 16.1527C45.2211 16.1314 45.3148 16.1122 45.3787 16.0952L45.7686 17.9041C45.6451 17.9467 45.4682 17.9936 45.2381 18.0447C45.0123 18.0959 44.7353 18.1257 44.4071 18.1342C43.8276 18.1513 43.3056 18.0639 42.8411 17.8722C42.3766 17.6761 42.008 17.3736 41.7353 16.9645C41.4668 16.5554 41.3347 16.044 41.339 15.4304V5.82955ZM58.5415 21.6818V16.4531H58.4457C58.3263 16.6918 58.1538 16.9453 57.9279 17.2138C57.7021 17.478 57.4038 17.7038 57.033 17.8913C56.6623 18.0788 56.1957 18.1726 55.6332 18.1726C54.8619 18.1726 54.1715 17.9744 53.5621 17.5781C52.9528 17.1818 52.4712 16.6065 52.1175 15.8523C51.7638 15.098 51.587 14.1818 51.587 13.1037C51.587 12.0128 51.766 11.0923 52.1239 10.3423C52.4862 9.58807 52.9741 9.01918 53.5877 8.63565C54.2013 8.24787 54.8853 8.05398 55.6396 8.05398C56.2148 8.05398 56.6879 8.15199 57.0586 8.34801C57.4293 8.53977 57.7234 8.77202 57.9407 9.04474C58.158 9.31321 58.3263 9.56676 58.4457 9.8054H58.5863V8.18182H60.8619V21.6818H58.5415ZM56.2788 16.2741C56.7688 16.2741 57.1864 16.142 57.5316 15.8778C57.8768 15.6094 58.1388 15.2365 58.3178 14.7592C58.4968 14.282 58.5863 13.7259 58.5863 13.0909C58.5863 12.456 58.4968 11.9041 58.3178 11.4354C58.1431 10.9666 57.8832 10.6023 57.538 10.3423C57.1971 10.0824 56.7773 9.95241 56.2788 9.95241C55.7631 9.95241 55.3327 10.0866 54.9876 10.3551C54.6424 10.6236 54.3825 10.9943 54.2077 11.4673C54.033 11.9403 53.9457 12.4815 53.9457 13.0909C53.9457 13.7045 54.033 14.2521 54.2077 14.7337C54.3867 15.2109 54.6488 15.5881 54.994 15.8651C55.3434 16.1378 55.7717 16.2741 56.2788 16.2741ZM69.4975 13.8707V8.18182H71.8114V18H69.5678V16.255H69.4656C69.244 16.8047 68.8796 17.2543 68.3725 17.6037C67.8697 17.9531 67.2496 18.1278 66.5124 18.1278C65.869 18.1278 65.3001 17.9851 64.8058 17.6996C64.3157 17.4098 63.9322 16.9901 63.6552 16.4403C63.3782 15.8864 63.2397 15.2173 63.2397 14.4332V8.18182H65.5536V14.0753C65.5536 14.6974 65.7241 15.1918 66.065 15.5582C66.4059 15.9247 66.8533 16.108 67.4073 16.108C67.7482 16.108 68.0785 16.0249 68.3981 15.8587C68.7177 15.6925 68.9798 15.4453 69.1843 15.1172C69.3931 14.7848 69.4975 14.3693 69.4975 13.8707ZM78.5375 18.1918C77.5531 18.1918 76.7029 17.9872 75.987 17.5781C75.2754 17.1648 74.7278 16.581 74.3443 15.8267C73.9608 15.0682 73.769 14.1754 73.769 13.1484C73.769 12.1385 73.9608 11.2521 74.3443 10.4893C74.7321 9.7223 75.2733 9.12571 75.9679 8.69957C76.6625 8.26918 77.4785 8.05398 78.416 8.05398C79.0211 8.05398 79.5922 8.15199 80.1291 8.34801C80.6703 8.53977 81.1476 8.83807 81.5609 9.2429C81.9785 9.64773 82.3066 10.1634 82.5453 10.7898C82.7839 11.4119 82.9032 12.1534 82.9032 13.0142V13.7237H74.8556V12.1641H80.6852C80.6809 11.7209 80.5851 11.3267 80.3976 10.9815C80.2101 10.6321 79.948 10.3572 79.6113 10.157C79.2789 9.95668 78.8912 9.85653 78.448 9.85653C77.975 9.85653 77.5595 9.97159 77.2015 10.2017C76.8436 10.4276 76.5645 10.7259 76.3642 11.0966C76.1681 11.4631 76.068 11.8658 76.0637 12.3047V13.6662C76.0637 14.2372 76.1681 14.7273 76.377 15.1364C76.5858 15.5412 76.8777 15.8523 77.2527 16.0696C77.6277 16.2827 78.0666 16.3892 78.5694 16.3892C78.9061 16.3892 79.2108 16.3423 79.4835 16.2486C79.7562 16.1506 79.9927 16.0078 80.193 15.8203C80.3933 15.6328 80.5446 15.4006 80.6468 15.1236L82.8074 15.3665C82.671 15.9375 82.411 16.4361 82.0275 16.8622C81.6483 17.2841 81.1625 17.6122 80.5701 17.8466C79.9778 18.0767 79.3002 18.1918 78.5375 18.1918ZM92.6207 10.777L90.5114 11.0071C90.4517 10.794 90.3473 10.5938 90.1982 10.4062C90.0533 10.2188 89.8572 10.0675 89.6101 9.95241C89.3629 9.83736 89.0604 9.77983 88.7024 9.77983C88.2209 9.77983 87.8161 9.88423 87.4879 10.093C87.1641 10.3018 87.0043 10.5724 87.0085 10.9048C87.0043 11.1903 87.1087 11.4226 87.3217 11.6016C87.5391 11.7805 87.897 11.9276 88.3956 12.0426L90.0703 12.4006C90.9993 12.6009 91.6896 12.9183 92.1413 13.353C92.5973 13.7876 92.8274 14.3565 92.8317 15.0597C92.8274 15.6776 92.6463 16.223 92.2884 16.696C91.9347 17.1648 91.4425 17.5312 90.8118 17.7955C90.1811 18.0597 89.4567 18.1918 88.6385 18.1918C87.4368 18.1918 86.4695 17.9403 85.7365 17.4375C85.0036 16.9304 84.5668 16.2251 84.4261 15.3217L86.6825 15.1044C86.7848 15.5476 87.0021 15.8821 87.3345 16.108C87.6669 16.3338 88.0994 16.4467 88.6321 16.4467C89.1818 16.4467 89.6229 16.3338 89.9553 16.108C90.2919 15.8821 90.4602 15.603 90.4602 15.2706C90.4602 14.9893 90.3516 14.7571 90.1342 14.5739C89.9212 14.3906 89.5888 14.25 89.1371 14.152L87.4624 13.8004C86.5206 13.6044 85.8239 13.2741 85.3722 12.8097C84.9205 12.3409 84.6967 11.7486 84.701 11.0327C84.6967 10.4276 84.8608 9.90341 85.1932 9.46023C85.5298 9.01278 85.9964 8.66761 86.593 8.42472C87.1939 8.17756 87.8864 8.05398 88.6705 8.05398C89.821 8.05398 90.7266 8.29901 91.3871 8.78906C92.0518 9.27912 92.4631 9.94176 92.6207 10.777ZM99.6424 8.18182V9.97159H93.9982V8.18182H99.6424ZM95.3917 5.82955H97.7056V15.0469C97.7056 15.358 97.7525 15.5966 97.8462 15.7628C97.9442 15.9247 98.0721 16.0355 98.2298 16.0952C98.3874 16.1548 98.5621 16.1847 98.7539 16.1847C98.8988 16.1847 99.0309 16.174 99.1502 16.1527C99.2738 16.1314 99.3675 16.1122 99.4315 16.0952L99.8214 17.9041C99.6978 17.9467 99.521 17.9936 99.2908 18.0447C99.065 18.0959 98.788 18.1257 98.4599 18.1342C97.8803 18.1513 97.3583 18.0639 96.8938 17.8722C96.4293 17.6761 96.0607 17.3736 95.788 16.9645C95.5195 16.5554 95.3874 16.044 95.3917 15.4304V5.82955ZM101.578 18V8.18182H103.892V18H101.578ZM102.741 6.78835C102.374 6.78835 102.059 6.6669 101.795 6.42401C101.531 6.17685 101.399 5.88068 101.399 5.53551C101.399 5.18608 101.531 4.88991 101.795 4.64702C102.059 4.39986 102.374 4.27628 102.741 4.27628C103.112 4.27628 103.427 4.39986 103.687 4.64702C103.951 4.88991 104.083 5.18608 104.083 5.53551C104.083 5.88068 103.951 6.17685 103.687 6.42401C103.427 6.6669 103.112 6.78835 102.741 6.78835ZM110.554 18.1918C109.595 18.1918 108.764 17.9808 108.061 17.5589C107.358 17.1371 106.812 16.5469 106.424 15.7884C106.041 15.0298 105.849 14.1435 105.849 13.1293C105.849 12.1151 106.041 11.2266 106.424 10.4638C106.812 9.70099 107.358 9.10866 108.061 8.68679C108.764 8.26491 109.595 8.05398 110.554 8.05398C111.512 8.05398 112.343 8.26491 113.047 8.68679C113.75 9.10866 114.293 9.70099 114.676 10.4638C115.064 11.2266 115.258 12.1151 115.258 13.1293C115.258 14.1435 115.064 15.0298 114.676 15.7884C114.293 16.5469 113.75 17.1371 113.047 17.5589C112.343 17.9808 111.512 18.1918 110.554 18.1918ZM110.566 16.3381C111.086 16.3381 111.521 16.1953 111.87 15.9098C112.22 15.62 112.48 15.2322 112.65 14.7464C112.825 14.2607 112.912 13.7195 112.912 13.1229C112.912 12.522 112.825 11.9787 112.65 11.4929C112.48 11.0028 112.22 10.6129 111.87 10.3232C111.521 10.0334 111.086 9.88849 110.566 9.88849C110.034 9.88849 109.591 10.0334 109.237 10.3232C108.887 10.6129 108.625 11.0028 108.451 11.4929C108.28 11.9787 108.195 12.522 108.195 13.1229C108.195 13.7195 108.28 14.2607 108.451 14.7464C108.625 15.2322 108.887 15.62 109.237 15.9098C109.591 16.1953 110.034 16.3381 110.566 16.3381ZM119.536 12.2472V18H117.222V8.18182H119.434V9.85014H119.549C119.775 9.30043 120.135 8.86364 120.629 8.53977C121.128 8.21591 121.743 8.05398 122.476 8.05398C123.154 8.05398 123.744 8.19886 124.247 8.48864C124.754 8.77841 125.146 9.19815 125.423 9.74787C125.704 10.2976 125.843 10.9645 125.839 11.7486V18H123.525V12.1065C123.525 11.4503 123.354 10.9368 123.013 10.5661C122.677 10.1953 122.21 10.0099 121.613 10.0099C121.209 10.0099 120.849 10.0994 120.533 10.2784C120.222 10.4531 119.977 10.7067 119.798 11.0391C119.623 11.3714 119.536 11.7741 119.536 12.2472ZM135.951 10.777L133.841 11.0071C133.782 10.794 133.677 10.5938 133.528 10.4062C133.383 10.2188 133.187 10.0675 132.94 9.95241C132.693 9.83736 132.39 9.77983 132.032 9.77983C131.551 9.77983 131.146 9.88423 130.818 10.093C130.494 10.3018 130.334 10.5724 130.339 10.9048C130.334 11.1903 130.439 11.4226 130.652 11.6016C130.869 11.7805 131.227 11.9276 131.726 12.0426L133.4 12.4006C134.329 12.6009 135.02 12.9183 135.471 13.353C135.927 13.7876 136.157 14.3565 136.162 15.0597C136.157 15.6776 135.976 16.223 135.618 16.696C135.265 17.1648 134.773 17.5312 134.142 17.7955C133.511 18.0597 132.787 18.1918 131.969 18.1918C130.767 18.1918 129.8 17.9403 129.067 17.4375C128.334 16.9304 127.897 16.2251 127.756 15.3217L130.013 15.1044C130.115 15.5476 130.332 15.8821 130.665 16.108C130.997 16.3338 131.43 16.4467 131.962 16.4467C132.512 16.4467 132.953 16.3338 133.285 16.108C133.622 15.8821 133.79 15.603 133.79 15.2706C133.79 14.9893 133.682 14.7571 133.464 14.5739C133.251 14.3906 132.919 14.25 132.467 14.152L130.792 13.8004C129.851 13.6044 129.154 13.2741 128.702 12.8097C128.251 12.3409 128.027 11.7486 128.031 11.0327C128.027 10.4276 128.191 9.90341 128.523 9.46023C128.86 9.01278 129.327 8.66761 129.923 8.42472C130.524 8.17756 131.216 8.05398 132.001 8.05398C133.151 8.05398 134.057 8.29901 134.717 8.78906C135.382 9.27912 135.793 9.94176 135.951 10.777ZM145.36 18.1982C144.738 18.1982 144.177 18.0874 143.679 17.8658C143.184 17.6399 142.792 17.3075 142.503 16.8686C142.217 16.4297 142.074 15.8885 142.074 15.245C142.074 14.6911 142.177 14.233 142.381 13.8707C142.586 13.5085 142.865 13.2188 143.219 13.0014C143.572 12.7841 143.971 12.62 144.414 12.5092C144.861 12.3942 145.324 12.3111 145.801 12.2599C146.376 12.2003 146.843 12.147 147.201 12.1001C147.559 12.049 147.819 11.9723 147.981 11.87C148.147 11.7635 148.23 11.5994 148.23 11.3778V11.3395C148.23 10.858 148.087 10.4851 147.802 10.2209C147.516 9.95668 147.105 9.82457 146.568 9.82457C146.001 9.82457 145.552 9.94815 145.219 10.1953C144.891 10.4425 144.67 10.7344 144.555 11.071L142.394 10.7642C142.564 10.1676 142.846 9.66903 143.238 9.26847C143.63 8.86364 144.109 8.56108 144.676 8.3608C145.243 8.15625 145.869 8.05398 146.555 8.05398C147.028 8.05398 147.499 8.10938 147.968 8.22017C148.437 8.33097 148.865 8.5142 149.253 8.76989C149.64 9.02131 149.952 9.36435 150.186 9.79901C150.425 10.2337 150.544 10.777 150.544 11.429V18H148.319V16.6513H148.243C148.102 16.924 147.904 17.1797 147.648 17.4183C147.397 17.6527 147.079 17.8423 146.696 17.9872C146.317 18.1278 145.871 18.1982 145.36 18.1982ZM145.961 16.4979C146.425 16.4979 146.828 16.4062 147.169 16.223C147.51 16.0355 147.772 15.7884 147.955 15.4815C148.143 15.1747 148.236 14.8402 148.236 14.478V13.321C148.164 13.3807 148.04 13.4361 147.866 13.4872C147.695 13.5384 147.503 13.5831 147.29 13.6214C147.077 13.6598 146.866 13.6939 146.657 13.7237C146.449 13.7536 146.268 13.7791 146.114 13.8004C145.769 13.8473 145.46 13.924 145.187 14.0305C144.915 14.1371 144.699 14.2862 144.542 14.478C144.384 14.6655 144.305 14.9084 144.305 15.2067C144.305 15.6328 144.461 15.9545 144.772 16.1719C145.083 16.3892 145.479 16.4979 145.961 16.4979ZM152.871 18V8.18182H155.114V9.81818H155.216C155.395 9.25142 155.702 8.81463 156.137 8.50781C156.576 8.19673 157.077 8.04119 157.639 8.04119C157.767 8.04119 157.91 8.04758 158.067 8.06037C158.229 8.06889 158.363 8.08381 158.47 8.10511V10.2337C158.372 10.1996 158.216 10.1697 158.003 10.1442C157.795 10.1143 157.592 10.0994 157.396 10.0994C156.974 10.0994 156.595 10.1911 156.258 10.3743C155.926 10.5533 155.664 10.8026 155.472 11.1222C155.28 11.4418 155.184 11.8104 155.184 12.228V18H152.871ZM163.95 18.1918C162.965 18.1918 162.115 17.9872 161.399 17.5781C160.688 17.1648 160.14 16.581 159.756 15.8267C159.373 15.0682 159.181 14.1754 159.181 13.1484C159.181 12.1385 159.373 11.2521 159.756 10.4893C160.144 9.7223 160.685 9.12571 161.38 8.69957C162.075 8.26918 162.891 8.05398 163.828 8.05398C164.433 8.05398 165.004 8.15199 165.541 8.34801C166.082 8.53977 166.56 8.83807 166.973 9.2429C167.391 9.64773 167.719 10.1634 167.957 10.7898C168.196 11.4119 168.315 12.1534 168.315 13.0142V13.7237H160.268V12.1641H166.097C166.093 11.7209 165.997 11.3267 165.81 10.9815C165.622 10.6321 165.36 10.3572 165.023 10.157C164.691 9.95668 164.303 9.85653 163.86 9.85653C163.387 9.85653 162.972 9.97159 162.614 10.2017C162.256 10.4276 161.977 10.7259 161.776 11.0966C161.58 11.4631 161.48 11.8658 161.476 12.3047V13.6662C161.476 14.2372 161.58 14.7273 161.789 15.1364C161.998 15.5412 162.29 15.8523 162.665 16.0696C163.04 16.2827 163.479 16.3892 163.982 16.3892C164.318 16.3892 164.623 16.3423 164.896 16.2486C165.168 16.1506 165.405 16.0078 165.605 15.8203C165.805 15.6328 165.957 15.4006 166.059 15.1236L168.219 15.3665C168.083 15.9375 167.823 16.4361 167.44 16.8622C167.06 17.2841 166.575 17.6122 165.982 17.8466C165.39 18.0767 164.712 18.1918 163.95 18.1918ZM176.176 21.6818C175.861 21.6818 175.569 21.6563 175.3 21.6051C175.036 21.5582 174.825 21.5028 174.667 21.4389L175.204 19.6364C175.541 19.7344 175.841 19.7813 176.106 19.777C176.37 19.7727 176.602 19.6896 176.802 19.5277C177.007 19.37 177.18 19.1058 177.32 18.7351L177.518 18.2045L173.958 8.18182H176.412L178.675 15.5966H178.778L181.047 8.18182H183.508L179.577 19.1889C179.393 19.7088 179.15 20.1541 178.848 20.5249C178.545 20.8999 178.175 21.1854 177.736 21.3814C177.301 21.5817 176.781 21.6818 176.176 21.6818ZM189.058 18.1918C188.099 18.1918 187.268 17.9808 186.565 17.5589C185.862 17.1371 185.316 16.5469 184.928 15.7884C184.545 15.0298 184.353 14.1435 184.353 13.1293C184.353 12.1151 184.545 11.2266 184.928 10.4638C185.316 9.70099 185.862 9.10866 186.565 8.68679C187.268 8.26491 188.099 8.05398 189.058 8.05398C190.016 8.05398 190.847 8.26491 191.55 8.68679C192.254 9.10866 192.797 9.70099 193.18 10.4638C193.568 11.2266 193.762 12.1151 193.762 13.1293C193.762 14.1435 193.568 15.0298 193.18 15.7884C192.797 16.5469 192.254 17.1371 191.55 17.5589C190.847 17.9808 190.016 18.1918 189.058 18.1918ZM189.07 16.3381C189.59 16.3381 190.025 16.1953 190.374 15.9098C190.724 15.62 190.984 15.2322 191.154 14.7464C191.329 14.2607 191.416 13.7195 191.416 13.1229C191.416 12.522 191.329 11.9787 191.154 11.4929C190.984 11.0028 190.724 10.6129 190.374 10.3232C190.025 10.0334 189.59 9.88849 189.07 9.88849C188.538 9.88849 188.094 10.0334 187.741 10.3232C187.391 10.6129 187.129 11.0028 186.955 11.4929C186.784 11.9787 186.699 12.522 186.699 13.1229C186.699 13.7195 186.784 14.2607 186.955 14.7464C187.129 15.2322 187.391 15.62 187.741 15.9098C188.094 16.1953 188.538 16.3381 189.07 16.3381ZM201.984 13.8707V8.18182H204.298V18H202.054V16.255H201.952C201.73 16.8047 201.366 17.2543 200.859 17.6037C200.356 17.9531 199.736 18.1278 198.999 18.1278C198.355 18.1278 197.786 17.9851 197.292 17.6996C196.802 17.4098 196.419 16.9901 196.142 16.4403C195.865 15.8864 195.726 15.2173 195.726 14.4332V8.18182H198.04V14.0753C198.04 14.6974 198.21 15.1918 198.551 15.5582C198.892 15.9247 199.34 16.108 199.894 16.108C200.235 16.108 200.565 16.0249 200.884 15.8587C201.204 15.6925 201.466 15.4453 201.671 15.1172C201.879 14.7848 201.984 14.3693 201.984 13.8707ZM213.456 12.2472V18H211.142V4.90909H213.405V9.85014H213.52C213.75 9.29616 214.106 8.85937 214.587 8.53977C215.073 8.21591 215.691 8.05398 216.441 8.05398C217.123 8.05398 217.717 8.19673 218.224 8.48224C218.732 8.76776 219.124 9.18537 219.401 9.73509C219.682 10.2848 219.822 10.956 219.822 11.7486V18H217.509V12.1065C217.509 11.446 217.338 10.9325 216.997 10.5661C216.661 10.1953 216.188 10.0099 215.578 10.0099C215.169 10.0099 214.803 10.0994 214.479 10.2784C214.159 10.4531 213.908 10.7067 213.724 11.0391C213.545 11.3714 213.456 11.7741 213.456 12.2472ZM226.464 18.1918C225.505 18.1918 224.674 17.9808 223.971 17.5589C223.268 17.1371 222.722 16.5469 222.335 15.7884C221.951 15.0298 221.759 14.1435 221.759 13.1293C221.759 12.1151 221.951 11.2266 222.335 10.4638C222.722 9.70099 223.268 9.10866 223.971 8.68679C224.674 8.26491 225.505 8.05398 226.464 8.05398C227.423 8.05398 228.254 8.26491 228.957 8.68679C229.66 9.10866 230.203 9.70099 230.587 10.4638C230.974 11.2266 231.168 12.1151 231.168 13.1293C231.168 14.1435 230.974 15.0298 230.587 15.7884C230.203 16.5469 229.66 17.1371 228.957 17.5589C228.254 17.9808 227.423 18.1918 226.464 18.1918ZM226.477 16.3381C226.996 16.3381 227.431 16.1953 227.781 15.9098C228.13 15.62 228.39 15.2322 228.56 14.7464C228.735 14.2607 228.822 13.7195 228.822 13.1229C228.822 12.522 228.735 11.9787 228.56 11.4929C228.39 11.0028 228.13 10.6129 227.781 10.3232C227.431 10.0334 226.996 9.88849 226.477 9.88849C225.944 9.88849 225.501 10.0334 225.147 10.3232C224.798 10.6129 224.536 11.0028 224.361 11.4929C224.19 11.9787 224.105 12.522 224.105 13.1229C224.105 13.7195 224.19 14.2607 224.361 14.7464C224.536 15.2322 224.798 15.62 225.147 15.9098C225.501 16.1953 225.944 16.3381 226.477 16.3381ZM233.132 21.6818V8.18182H235.408V9.8054H235.542C235.661 9.56676 235.83 9.31321 236.047 9.04474C236.264 8.77202 236.558 8.53977 236.929 8.34801C237.3 8.15199 237.773 8.05398 238.348 8.05398C239.107 8.05398 239.791 8.24787 240.4 8.63565C241.014 9.01918 241.499 9.58807 241.857 10.3423C242.22 11.0923 242.401 12.0128 242.401 13.1037C242.401 14.1818 242.224 15.098 241.87 15.8523C241.517 16.6065 241.035 17.1818 240.426 17.5781C239.816 17.9744 239.126 18.1726 238.355 18.1726C237.792 18.1726 237.325 18.0788 236.955 17.8913C236.584 17.7038 236.286 17.478 236.06 17.2138C235.838 16.9453 235.666 16.6918 235.542 16.4531H235.446V21.6818H233.132ZM235.401 13.0909C235.401 13.7259 235.491 14.282 235.67 14.7592C235.853 15.2365 236.115 15.6094 236.456 15.8778C236.801 16.142 237.219 16.2741 237.709 16.2741C238.22 16.2741 238.649 16.1378 238.994 15.8651C239.339 15.5881 239.599 15.2109 239.774 14.7337C239.953 14.2521 240.042 13.7045 240.042 13.0909C240.042 12.4815 239.955 11.9403 239.78 11.4673C239.605 10.9943 239.345 10.6236 239 10.3551C238.655 10.0866 238.225 9.95241 237.709 9.95241C237.215 9.95241 236.795 10.0824 236.45 10.3423C236.105 10.6023 235.843 10.9666 235.664 11.4354C235.489 11.9041 235.401 12.456 235.401 13.0909ZM244.382 18V8.18182H246.696V18H244.382ZM245.546 6.78835C245.179 6.78835 244.864 6.6669 244.6 6.42401C244.335 6.17685 244.203 5.88068 244.203 5.53551C244.203 5.18608 244.335 4.88991 244.6 4.64702C244.864 4.39986 245.179 4.27628 245.546 4.27628C245.916 4.27628 246.232 4.39986 246.492 4.64702C246.756 4.88991 246.888 5.18608 246.888 5.53551C246.888 5.88068 246.756 6.17685 246.492 6.42401C246.232 6.6669 245.916 6.78835 245.546 6.78835ZM251.39 12.2472V18H249.076V8.18182H251.287V9.85014H251.402C251.628 9.30043 251.988 8.86364 252.483 8.53977C252.981 8.21591 253.597 8.05398 254.33 8.05398C255.007 8.05398 255.598 8.19886 256.1 8.48864C256.608 8.77841 257 9.19815 257.277 9.74787C257.558 10.2976 257.696 10.9645 257.692 11.7486V18H255.378V12.1065C255.378 11.4503 255.208 10.9368 254.867 10.5661C254.53 10.1953 254.064 10.0099 253.467 10.0099C253.062 10.0099 252.702 10.0994 252.387 10.2784C252.076 10.4531 251.831 10.7067 251.652 11.0391C251.477 11.3714 251.39 11.7741 251.39 12.2472ZM264.314 21.8864C263.483 21.8864 262.77 21.7734 262.173 21.5476C261.576 21.326 261.097 21.0277 260.735 20.6527C260.373 20.2777 260.121 19.8622 259.98 19.4062L262.064 18.9013C262.158 19.093 262.294 19.2827 262.473 19.4702C262.652 19.6619 262.893 19.8196 263.196 19.9432C263.502 20.071 263.888 20.1349 264.353 20.1349C265.009 20.1349 265.552 19.9751 265.983 19.6555C266.413 19.3402 266.628 18.8203 266.628 18.0959V16.2358H266.513C266.394 16.4744 266.219 16.7195 265.989 16.9709C265.763 17.2223 265.463 17.4332 265.088 17.6037C264.717 17.7741 264.25 17.8594 263.688 17.8594C262.934 17.8594 262.25 17.6825 261.636 17.3288C261.027 16.9709 260.541 16.4382 260.179 15.7308C259.821 15.0192 259.642 14.1286 259.642 13.0589C259.642 11.9808 259.821 11.071 260.179 10.3295C260.541 9.58381 261.029 9.01918 261.642 8.63565C262.256 8.24787 262.94 8.05398 263.694 8.05398C264.27 8.05398 264.743 8.15199 265.113 8.34801C265.488 8.53977 265.787 8.77202 266.008 9.04474C266.23 9.31321 266.398 9.56676 266.513 9.8054H266.641V8.18182H268.923V18.1598C268.923 18.9993 268.723 19.6939 268.322 20.2436C267.922 20.7933 267.374 21.2045 266.679 21.4773C265.985 21.75 265.196 21.8864 264.314 21.8864ZM264.333 16.044C264.824 16.044 265.241 15.9247 265.586 15.6861C265.931 15.4474 266.194 15.1044 266.373 14.657C266.551 14.2095 266.641 13.6726 266.641 13.0462C266.641 12.4283 266.551 11.8871 266.373 11.4226C266.198 10.9581 265.938 10.598 265.593 10.3423C265.252 10.0824 264.832 9.95241 264.333 9.95241C263.818 9.95241 263.387 10.0866 263.042 10.3551C262.697 10.6236 262.437 10.9922 262.262 11.4609C262.088 11.9254 262 12.4538 262 13.0462C262 13.647 262.088 14.1733 262.262 14.625C262.441 15.0724 262.703 15.4219 263.049 15.6733C263.398 15.9205 263.826 16.044 264.333 16.044ZM6.09162 30.1818V31.9716H0.447443V30.1818H6.09162ZM1.84091 27.8295H4.15483V37.0469C4.15483 37.358 4.2017 37.5966 4.29545 37.7628C4.39347 37.9247 4.52131 38.0355 4.67898 38.0952C4.83665 38.1548 5.01136 38.1847 5.20312 38.1847C5.34801 38.1847 5.48011 38.174 5.59943 38.1527C5.72301 38.1314 5.81676 38.1122 5.88068 38.0952L6.2706 39.9041C6.14702 39.9467 5.97017 39.9936 5.74006 40.0447C5.5142 40.0959 5.23722 40.1257 4.90909 40.1342C4.32955 40.1513 3.80753 40.0639 3.34304 39.8722C2.87855 39.6761 2.50994 39.3736 2.23722 38.9645C1.96875 38.5554 1.83665 38.044 1.84091 37.4304V27.8295ZM12.204 40.1918C11.2452 40.1918 10.4142 39.9808 9.71112 39.5589C9.00799 39.1371 8.46254 38.5469 8.07475 37.7884C7.69123 37.0298 7.49947 36.1435 7.49947 35.1293C7.49947 34.1151 7.69123 33.2266 8.07475 32.4638C8.46254 31.701 9.00799 31.1087 9.71112 30.6868C10.4142 30.2649 11.2452 30.054 12.204 30.054C13.1628 30.054 13.9938 30.2649 14.6969 30.6868C15.4 31.1087 15.9434 31.701 16.3269 32.4638C16.7147 33.2266 16.9086 34.1151 16.9086 35.1293C16.9086 36.1435 16.7147 37.0298 16.3269 37.7884C15.9434 38.5469 15.4 39.1371 14.6969 39.5589C13.9938 39.9808 13.1628 40.1918 12.204 40.1918ZM12.2168 38.3381C12.7367 38.3381 13.1713 38.1953 13.5208 37.9098C13.8702 37.62 14.1301 37.2322 14.3006 36.7464C14.4753 36.2607 14.5627 35.7195 14.5627 35.1229C14.5627 34.522 14.4753 33.9787 14.3006 33.4929C14.1301 33.0028 13.8702 32.6129 13.5208 32.3232C13.1713 32.0334 12.7367 31.8885 12.2168 31.8885C11.6841 31.8885 11.2409 32.0334 10.8873 32.3232C10.5378 32.6129 10.2757 33.0028 10.101 33.4929C9.93058 33.9787 9.84535 34.522 9.84535 35.1229C9.84535 35.7195 9.93058 36.2607 10.101 36.7464C10.2757 37.2322 10.5378 37.62 10.8873 37.9098C11.2409 38.1953 11.6841 38.3381 12.2168 38.3381ZM26.1626 40.1982C25.5405 40.1982 24.9801 40.0874 24.4815 39.8658C23.9872 39.6399 23.5952 39.3075 23.3054 38.8686C23.0199 38.4297 22.8771 37.8885 22.8771 37.245C22.8771 36.6911 22.9794 36.233 23.1839 35.8707C23.3885 35.5085 23.6676 35.2188 24.0213 35.0014C24.375 34.7841 24.7734 34.62 25.2166 34.5092C25.6641 34.3942 26.1264 34.3111 26.6037 34.2599C27.179 34.2003 27.6456 34.147 28.0036 34.1001C28.3615 34.049 28.6214 33.9723 28.7834 33.87C28.9496 33.7635 29.0327 33.5994 29.0327 33.3778V33.3395C29.0327 32.858 28.8899 32.4851 28.6044 32.2209C28.3189 31.9567 27.9077 31.8246 27.3707 31.8246C26.804 31.8246 26.3544 31.9482 26.022 32.1953C25.6939 32.4425 25.4723 32.7344 25.3572 33.071L23.1967 32.7642C23.3672 32.1676 23.6484 31.669 24.0405 31.2685C24.4325 30.8636 24.9119 30.5611 25.4787 30.3608C26.0455 30.1562 26.6719 30.054 27.358 30.054C27.831 30.054 28.3018 30.1094 28.7706 30.2202C29.2393 30.331 29.6676 30.5142 30.0554 30.7699C30.4432 31.0213 30.7543 31.3643 30.9886 31.799C31.2273 32.2337 31.3466 32.777 31.3466 33.429V40H29.1222V38.6513H29.0455C28.9048 38.924 28.7067 39.1797 28.451 39.4183C28.1996 39.6527 27.8821 39.8423 27.4986 39.9872C27.1193 40.1278 26.674 40.1982 26.1626 40.1982ZM26.7635 38.4979C27.228 38.4979 27.6307 38.4062 27.9716 38.223C28.3125 38.0355 28.5746 37.7884 28.7578 37.4815C28.9453 37.1747 29.0391 36.8402 29.0391 36.478V35.321C28.9666 35.3807 28.843 35.4361 28.6683 35.4872C28.4979 35.5384 28.3061 35.5831 28.093 35.6214C27.88 35.6598 27.669 35.6939 27.4602 35.7237C27.2514 35.7536 27.0703 35.7791 26.9169 35.8004C26.5717 35.8473 26.2628 35.924 25.9901 36.0305C25.7173 36.1371 25.5021 36.2862 25.3445 36.478C25.1868 36.6655 25.108 36.9084 25.108 37.2067C25.108 37.6328 25.2635 37.9545 25.5746 38.1719C25.8857 38.3892 26.282 38.4979 26.7635 38.4979ZM41.4332 32.777L39.3239 33.0071C39.2642 32.794 39.1598 32.5938 39.0107 32.4062C38.8658 32.2188 38.6697 32.0675 38.4226 31.9524C38.1754 31.8374 37.8729 31.7798 37.5149 31.7798C37.0334 31.7798 36.6286 31.8842 36.3004 32.093C35.9766 32.3018 35.8168 32.5724 35.821 32.9048C35.8168 33.1903 35.9212 33.4226 36.1342 33.6016C36.3516 33.7805 36.7095 33.9276 37.2081 34.0426L38.8828 34.4006C39.8118 34.6009 40.5021 34.9183 40.9538 35.353C41.4098 35.7876 41.6399 36.3565 41.6442 37.0597C41.6399 37.6776 41.4588 38.223 41.1009 38.696C40.7472 39.1648 40.255 39.5312 39.6243 39.7955C38.9936 40.0597 38.2692 40.1918 37.451 40.1918C36.2493 40.1918 35.282 39.9403 34.549 39.4375C33.8161 38.9304 33.3793 38.2251 33.2386 37.3217L35.495 37.1044C35.5973 37.5476 35.8146 37.8821 36.147 38.108C36.4794 38.3338 36.9119 38.4467 37.4446 38.4467C37.9943 38.4467 38.4354 38.3338 38.7678 38.108C39.1044 37.8821 39.2727 37.603 39.2727 37.2706C39.2727 36.9893 39.1641 36.7571 38.9467 36.5739C38.7337 36.3906 38.4013 36.25 37.9496 36.152L36.2749 35.8004C35.3331 35.6044 34.6364 35.2741 34.1847 34.8097C33.733 34.3409 33.5092 33.7486 33.5135 33.0327C33.5092 32.4276 33.6733 31.9034 34.0057 31.4602C34.3423 31.0128 34.8089 30.6676 35.4055 30.4247C36.0064 30.1776 36.6989 30.054 37.483 30.054C38.6335 30.054 39.5391 30.299 40.1996 30.7891C40.8643 31.2791 41.2756 31.9418 41.4332 32.777ZM45.6616 36.919L45.6552 34.1257H46.0259L49.5543 30.1818H52.2582L47.918 35.0142H47.4386L45.6616 36.919ZM43.5522 40V26.9091H45.8661V40H43.5522ZM49.7141 40L46.5181 35.532L48.0778 33.902L52.4819 40H49.7141ZM63.1678 30.1818V31.9716H57.5236V30.1818H63.1678ZM58.9171 27.8295H61.231V37.0469C61.231 37.358 61.2779 37.5966 61.3716 37.7628C61.4696 37.9247 61.5975 38.0355 61.7551 38.0952C61.9128 38.1548 62.0875 38.1847 62.2793 38.1847C62.4242 38.1847 62.5563 38.174 62.6756 38.1527C62.7992 38.1314 62.8929 38.1122 62.9569 38.0952L63.3468 39.9041C63.2232 39.9467 63.0463 39.9936 62.8162 40.0447C62.5904 40.0959 62.3134 40.1257 61.9853 40.1342C61.4057 40.1513 60.8837 40.0639 60.4192 39.8722C59.9547 39.6761 59.5861 39.3736 59.3134 38.9645C59.0449 38.5554 58.9128 38.044 58.9171 37.4304V27.8295ZM67.6278 34.2472V40H65.3139V26.9091H67.5767V31.8501H67.6918C67.9219 31.2962 68.2777 30.8594 68.7592 30.5398C69.245 30.2159 69.8629 30.054 70.6129 30.054C71.2947 30.054 71.8892 30.1967 72.3963 30.4822C72.9034 30.7678 73.2955 31.1854 73.5724 31.7351C73.8537 32.2848 73.9943 32.956 73.9943 33.7486V40H71.6804V34.1065C71.6804 33.446 71.5099 32.9325 71.169 32.5661C70.8324 32.1953 70.3594 32.0099 69.75 32.0099C69.3409 32.0099 68.9744 32.0994 68.6506 32.2784C68.331 32.4531 68.0795 32.7067 67.8963 33.0391C67.7173 33.3714 67.6278 33.7741 67.6278 34.2472ZM80.6996 40.1918C79.7152 40.1918 78.8651 39.9872 78.1491 39.5781C77.4375 39.1648 76.8899 38.581 76.5064 37.8267C76.1229 37.0682 75.9311 36.1754 75.9311 35.1484C75.9311 34.1385 76.1229 33.2521 76.5064 32.4893C76.8942 31.7223 77.4354 31.1257 78.13 30.6996C78.8246 30.2692 79.6406 30.054 80.5781 30.054C81.1832 30.054 81.7543 30.152 82.2912 30.348C82.8324 30.5398 83.3097 30.8381 83.723 31.2429C84.1406 31.6477 84.4688 32.1634 84.7074 32.7898C84.946 33.4119 85.0653 34.1534 85.0653 35.0142V35.7237H77.0178V34.1641H82.8473C82.843 33.7209 82.7472 33.3267 82.5597 32.9815C82.3722 32.6321 82.1101 32.3572 81.7734 32.157C81.4411 31.9567 81.0533 31.8565 80.6101 31.8565C80.1371 31.8565 79.7216 31.9716 79.3636 32.2017C79.0057 32.4276 78.7266 32.7259 78.5263 33.0966C78.3303 33.4631 78.2301 33.8658 78.2259 34.3047V35.6662C78.2259 36.2372 78.3303 36.7273 78.5391 37.1364C78.7479 37.5412 79.0398 37.8523 79.4148 38.0696C79.7898 38.2827 80.2287 38.3892 80.7315 38.3892C81.0682 38.3892 81.3729 38.3423 81.6456 38.2486C81.9183 38.1506 82.1548 38.0078 82.3551 37.8203C82.5554 37.6328 82.7067 37.4006 82.8089 37.1236L84.9695 37.3665C84.8331 37.9375 84.5732 38.4361 84.1896 38.8622C83.8104 39.2841 83.3246 39.6122 82.7322 39.8466C82.1399 40.0767 81.4624 40.1918 80.6996 40.1918ZM95.7704 40.1918C94.7903 40.1918 93.9487 39.9766 93.2456 39.5462C92.5467 39.1158 92.0076 38.5213 91.6284 37.7628C91.2534 37 91.0659 36.1222 91.0659 35.1293C91.0659 34.1321 91.2576 33.2521 91.6412 32.4893C92.0247 31.7223 92.5659 31.1257 93.2647 30.6996C93.9679 30.2692 94.7988 30.054 95.7576 30.054C96.5545 30.054 97.2598 30.201 97.8734 30.495C98.4913 30.7848 98.9835 31.196 99.35 31.7287C99.7164 32.2571 99.9252 32.875 99.9764 33.5824H97.7647C97.6752 33.1094 97.4622 32.7152 97.1255 32.3999C96.7931 32.0803 96.3478 31.9205 95.7896 31.9205C95.3166 31.9205 94.9011 32.0483 94.5431 32.304C94.1852 32.5554 93.9061 32.9176 93.7058 33.3906C93.5098 33.8636 93.4118 34.4304 93.4118 35.0909C93.4118 35.7599 93.5098 36.3352 93.7058 36.8168C93.9018 37.294 94.1767 37.6626 94.5304 37.9226C94.8883 38.1783 95.3081 38.3061 95.7896 38.3061C96.1305 38.3061 96.4352 38.2422 96.7037 38.1143C96.9764 37.9822 97.2044 37.7926 97.3876 37.5455C97.5708 37.2983 97.6966 36.9979 97.7647 36.6442H99.9764C99.921 37.3388 99.7164 37.9545 99.3627 38.4915C99.0091 39.0241 98.5275 39.4418 97.9181 39.7443C97.3088 40.0426 96.5929 40.1918 95.7704 40.1918ZM104.19 26.9091V40H101.876V26.9091H104.19ZM106.57 40V30.1818H108.884V40H106.57ZM107.733 28.7884C107.367 28.7884 107.051 28.6669 106.787 28.424C106.523 28.1768 106.391 27.8807 106.391 27.5355C106.391 27.1861 106.523 26.8899 106.787 26.647C107.051 26.3999 107.367 26.2763 107.733 26.2763C108.104 26.2763 108.419 26.3999 108.679 26.647C108.943 26.8899 109.075 27.1861 109.075 27.5355C109.075 27.8807 108.943 28.1768 108.679 28.424C108.419 28.6669 108.104 28.7884 107.733 28.7884ZM115.61 40.1918C114.625 40.1918 113.775 39.9872 113.059 39.5781C112.348 39.1648 111.8 38.581 111.417 37.8267C111.033 37.0682 110.841 36.1754 110.841 35.1484C110.841 34.1385 111.033 33.2521 111.417 32.4893C111.804 31.7223 112.346 31.1257 113.04 30.6996C113.735 30.2692 114.551 30.054 115.488 30.054C116.093 30.054 116.664 30.152 117.201 30.348C117.743 30.5398 118.22 30.8381 118.633 31.2429C119.051 31.6477 119.379 32.1634 119.618 32.7898C119.856 33.4119 119.975 34.1534 119.975 35.0142V35.7237H111.928V34.1641H117.757C117.753 33.7209 117.657 33.3267 117.47 32.9815C117.282 32.6321 117.02 32.3572 116.684 32.157C116.351 31.9567 115.963 31.8565 115.52 31.8565C115.047 31.8565 114.632 31.9716 114.274 32.2017C113.916 32.4276 113.637 32.7259 113.436 33.0966C113.24 33.4631 113.14 33.8658 113.136 34.3047V35.6662C113.136 36.2372 113.24 36.7273 113.449 37.1364C113.658 37.5412 113.95 37.8523 114.325 38.0696C114.7 38.2827 115.139 38.3892 115.642 38.3892C115.978 38.3892 116.283 38.3423 116.556 38.2486C116.828 38.1506 117.065 38.0078 117.265 37.8203C117.466 37.6328 117.617 37.4006 117.719 37.1236L119.88 37.3665C119.743 37.9375 119.483 38.4361 119.1 38.8622C118.721 39.2841 118.235 39.6122 117.642 39.8466C117.05 40.0767 116.373 40.1918 115.61 40.1918ZM124.247 34.2472V40H121.933V30.1818H124.145V31.8501H124.26C124.486 31.3004 124.846 30.8636 125.34 30.5398C125.839 30.2159 126.454 30.054 127.187 30.054C127.865 30.054 128.455 30.1989 128.958 30.4886C129.465 30.7784 129.857 31.1982 130.134 31.7479C130.415 32.2976 130.554 32.9645 130.55 33.7486V40H128.236V34.1065C128.236 33.4503 128.065 32.9368 127.724 32.5661C127.388 32.1953 126.921 32.0099 126.324 32.0099C125.92 32.0099 125.559 32.0994 125.244 32.2784C124.933 32.4531 124.688 32.7067 124.509 33.0391C124.334 33.3714 124.247 33.7741 124.247 34.2472ZM137.805 30.1818V31.9716H132.16V30.1818H137.805ZM133.554 27.8295H135.868V37.0469C135.868 37.358 135.915 37.5966 136.008 37.7628C136.106 37.9247 136.234 38.0355 136.392 38.0952C136.55 38.1548 136.724 38.1847 136.916 38.1847C137.061 38.1847 137.193 38.174 137.312 38.1527C137.436 38.1314 137.53 38.1122 137.594 38.0952L137.983 39.9041C137.86 39.9467 137.683 39.9936 137.453 40.0447C137.227 40.0959 136.95 40.1257 136.622 40.1342C136.042 40.1513 135.52 40.0639 135.056 39.8722C134.591 39.6761 134.223 39.3736 133.95 38.9645C133.682 38.5554 133.55 38.044 133.554 37.4304V27.8295ZM144.205 40V30.1818H146.518V40H144.205ZM145.368 28.7884C145.001 28.7884 144.686 28.6669 144.422 28.424C144.158 28.1768 144.026 27.8807 144.026 27.5355C144.026 27.1861 144.158 26.8899 144.422 26.647C144.686 26.3999 145.001 26.2763 145.368 26.2763C145.739 26.2763 146.054 26.3999 146.314 26.647C146.578 26.8899 146.71 27.1861 146.71 27.5355C146.71 27.8807 146.578 28.1768 146.314 28.424C146.054 28.6669 145.739 28.7884 145.368 28.7884ZM151.212 34.2472V40H148.898V30.1818H151.11V31.8501H151.225C151.45 31.3004 151.811 30.8636 152.305 30.5398C152.803 30.2159 153.419 30.054 154.152 30.054C154.83 30.054 155.42 30.1989 155.923 30.4886C156.43 30.7784 156.822 31.1982 157.099 31.7479C157.38 32.2976 157.519 32.9645 157.514 33.7486V40H155.2V34.1065C155.2 33.4503 155.03 32.9368 154.689 32.5661C154.352 32.1953 153.886 32.0099 153.289 32.0099C152.884 32.0099 152.524 32.0994 152.209 32.2784C151.898 32.4531 151.653 32.7067 151.474 33.0391C151.299 33.3714 151.212 33.7741 151.212 34.2472ZM165.77 43.6818C165.454 43.6818 165.162 43.6563 164.894 43.6051C164.63 43.5582 164.419 43.5028 164.261 43.4389L164.798 41.6364C165.135 41.7344 165.435 41.7813 165.699 41.777C165.964 41.7727 166.196 41.6896 166.396 41.5277C166.601 41.37 166.773 41.1058 166.914 40.7351L167.112 40.2045L163.552 30.1818H166.006L168.269 37.5966H168.371L170.64 30.1818H173.101L169.17 41.1889C168.987 41.7088 168.744 42.1541 168.442 42.5249C168.139 42.8999 167.768 43.1854 167.329 43.3814C166.895 43.5817 166.375 43.6818 165.77 43.6818ZM178.651 40.1918C177.692 40.1918 176.862 39.9808 176.158 39.5589C175.455 39.1371 174.91 38.5469 174.522 37.7884C174.138 37.0298 173.947 36.1435 173.947 35.1293C173.947 34.1151 174.138 33.2266 174.522 32.4638C174.91 31.701 175.455 31.1087 176.158 30.6868C176.862 30.2649 177.692 30.054 178.651 30.054C179.61 30.054 180.441 30.2649 181.144 30.6868C181.847 31.1087 182.391 31.701 182.774 32.4638C183.162 33.2266 183.356 34.1151 183.356 35.1293C183.356 36.1435 183.162 37.0298 182.774 37.7884C182.391 38.5469 181.847 39.1371 181.144 39.5589C180.441 39.9808 179.61 40.1918 178.651 40.1918ZM178.664 38.3381C179.184 38.3381 179.619 38.1953 179.968 37.9098C180.317 37.62 180.577 37.2322 180.748 36.7464C180.923 36.2607 181.01 35.7195 181.01 35.1229C181.01 34.522 180.923 33.9787 180.748 33.4929C180.577 33.0028 180.317 32.6129 179.968 32.3232C179.619 32.0334 179.184 31.8885 178.664 31.8885C178.131 31.8885 177.688 32.0334 177.335 32.3232C176.985 32.6129 176.723 33.0028 176.548 33.4929C176.378 33.9787 176.293 34.522 176.293 35.1229C176.293 35.7195 176.378 36.2607 176.548 36.7464C176.723 37.2322 176.985 37.62 177.335 37.9098C177.688 38.1953 178.131 38.3381 178.664 38.3381ZM191.578 35.8707V30.1818H193.892V40H191.648V38.255H191.546C191.324 38.8047 190.96 39.2543 190.453 39.6037C189.95 39.9531 189.33 40.1278 188.593 40.1278C187.949 40.1278 187.38 39.9851 186.886 39.6996C186.396 39.4098 186.012 38.9901 185.735 38.4403C185.458 37.8864 185.32 37.2173 185.32 36.4332V30.1818H187.634V36.0753C187.634 36.6974 187.804 37.1918 188.145 37.5582C188.486 37.9247 188.933 38.108 189.487 38.108C189.828 38.108 190.159 38.0249 190.478 37.8587C190.798 37.6925 191.06 37.4453 191.264 37.1172C191.473 36.7848 191.578 36.3693 191.578 35.8707ZM196.271 40V30.1818H198.515V31.8182H198.617C198.796 31.2514 199.103 30.8146 199.537 30.5078C199.976 30.1967 200.477 30.0412 201.039 30.0412C201.167 30.0412 201.31 30.0476 201.468 30.0604C201.63 30.0689 201.764 30.0838 201.87 30.1051V32.2337C201.772 32.1996 201.617 32.1697 201.404 32.1442C201.195 32.1143 200.993 32.0994 200.797 32.0994C200.375 32.0994 199.995 32.1911 199.659 32.3743C199.326 32.5533 199.064 32.8026 198.873 33.1222C198.681 33.4418 198.585 33.8104 198.585 34.228V40H196.271ZM5.47159 62.1918C4.49148 62.1918 3.64986 61.9766 2.94673 61.5462C2.24787 61.1158 1.70881 60.5213 1.32955 59.7628C0.954545 59 0.767045 58.1222 0.767045 57.1293C0.767045 56.1321 0.958807 55.2521 1.34233 54.4893C1.72585 53.7223 2.26705 53.1257 2.96591 52.6996C3.66903 52.2692 4.5 52.054 5.45881 52.054C6.25568 52.054 6.96094 52.201 7.57457 52.495C8.19247 52.7848 8.68466 53.196 9.05114 53.7287C9.41761 54.2571 9.62642 54.875 9.67756 55.5824H7.46591C7.37642 55.1094 7.16335 54.7152 6.8267 54.3999C6.49432 54.0803 6.04901 53.9205 5.49077 53.9205C5.01776 53.9205 4.60227 54.0483 4.24432 54.304C3.88636 54.5554 3.60724 54.9176 3.40696 55.3906C3.21094 55.8636 3.11293 56.4304 3.11293 57.0909C3.11293 57.7599 3.21094 58.3352 3.40696 58.8168C3.60298 59.294 3.87784 59.6626 4.23153 59.9226C4.58949 60.1783 5.00923 60.3061 5.49077 60.3061C5.83168 60.3061 6.13636 60.2422 6.40483 60.1143C6.67756 59.9822 6.90554 59.7926 7.08878 59.5455C7.27202 59.2983 7.39773 58.9979 7.46591 58.6442H9.67756C9.62216 59.3388 9.41761 59.9545 9.06392 60.4915C8.71023 61.0241 8.22869 61.4418 7.61932 61.7443C7.00994 62.0426 6.29403 62.1918 5.47159 62.1918ZM15.8603 62.1918C14.9015 62.1918 14.0705 61.9808 13.3674 61.5589C12.6642 61.1371 12.1188 60.5469 11.731 59.7884C11.3475 59.0298 11.1557 58.1435 11.1557 57.1293C11.1557 56.1151 11.3475 55.2266 11.731 54.4638C12.1188 53.701 12.6642 53.1087 13.3674 52.6868C14.0705 52.2649 14.9015 52.054 15.8603 52.054C16.8191 52.054 17.65 52.2649 18.3532 52.6868C19.0563 53.1087 19.5996 53.701 19.9831 54.4638C20.3709 55.2266 20.5648 56.1151 20.5648 57.1293C20.5648 58.1435 20.3709 59.0298 19.9831 59.7884C19.5996 60.5469 19.0563 61.1371 18.3532 61.5589C17.65 61.9808 16.8191 62.1918 15.8603 62.1918ZM15.873 60.3381C16.3929 60.3381 16.8276 60.1953 17.177 59.9098C17.5265 59.62 17.7864 59.2322 17.9569 58.7464C18.1316 58.2607 18.2189 57.7195 18.2189 57.1229C18.2189 56.522 18.1316 55.9787 17.9569 55.4929C17.7864 55.0028 17.5265 54.6129 17.177 54.3232C16.8276 54.0334 16.3929 53.8885 15.873 53.8885C15.3404 53.8885 14.8972 54.0334 14.5435 54.3232C14.1941 54.6129 13.932 55.0028 13.7573 55.4929C13.5868 55.9787 13.5016 56.522 13.5016 57.1229C13.5016 57.7195 13.5868 58.2607 13.7573 58.7464C13.932 59.2322 14.1941 59.62 14.5435 59.9098C14.8972 60.1953 15.3404 60.3381 15.873 60.3381ZM24.8427 56.2472V62H22.5288V52.1818H24.7404V53.8501H24.8555C25.0813 53.3004 25.4414 52.8636 25.9357 52.5398C26.4343 52.2159 27.0501 52.054 27.783 52.054C28.4606 52.054 29.0508 52.1989 29.5536 52.4886C30.0607 52.7784 30.4528 53.1982 30.7298 53.7479C31.011 54.2976 31.1495 54.9645 31.1452 55.7486V62H28.8313V56.1065C28.8313 55.4503 28.6609 54.9368 28.32 54.5661C27.9833 54.1953 27.5167 54.0099 26.9201 54.0099C26.5153 54.0099 26.1552 54.0994 25.8398 54.2784C25.5288 54.4531 25.2837 54.7067 25.1048 55.0391C24.93 55.3714 24.8427 55.7741 24.8427 56.2472ZM41.9158 52.1818L38.4194 62H35.8626L32.3661 52.1818H34.8335L37.0898 59.4751H37.1921L39.4549 52.1818H41.9158ZM47.5297 62.1918C46.5453 62.1918 45.6951 61.9872 44.9792 61.5781C44.2676 61.1648 43.72 60.581 43.3365 59.8267C42.9529 59.0682 42.7612 58.1754 42.7612 57.1484C42.7612 56.1385 42.9529 55.2521 43.3365 54.4893C43.7243 53.7223 44.2654 53.1257 44.96 52.6996C45.6547 52.2692 46.4707 52.054 47.4082 52.054C48.0133 52.054 48.5843 52.152 49.1213 52.348C49.6625 52.5398 50.1397 52.8381 50.5531 53.2429C50.9707 53.6477 51.2988 54.1634 51.5375 54.7898C51.7761 55.4119 51.8954 56.1534 51.8954 57.0142V57.7237H43.8478V56.1641H49.6774C49.6731 55.7209 49.5772 55.3267 49.3897 54.9815C49.2022 54.6321 48.9402 54.3572 48.6035 54.157C48.2711 53.9567 47.8833 53.8565 47.4402 53.8565C46.9672 53.8565 46.5517 53.9716 46.1937 54.2017C45.8358 54.4276 45.5566 54.7259 45.3564 55.0966C45.1603 55.4631 45.0602 55.8658 45.0559 56.3047V57.6662C45.0559 58.2372 45.1603 58.7273 45.3691 59.1364C45.5779 59.5412 45.8699 59.8523 46.2449 60.0696C46.6199 60.2827 47.0588 60.3892 47.5616 60.3892C47.8983 60.3892 48.2029 60.3423 48.4757 60.2486C48.7484 60.1506 48.9849 60.0078 49.1852 59.8203C49.3855 59.6328 49.5368 59.4006 49.639 59.1236L51.7995 59.3665C51.6632 59.9375 51.4032 60.4361 51.0197 60.8622C50.6404 61.2841 50.1547 61.6122 49.5623 61.8466C48.97 62.0767 48.2924 62.1918 47.5297 62.1918ZM53.853 62V52.1818H56.0966V53.8182H56.1989C56.3778 53.2514 56.6847 52.8146 57.1193 52.5078C57.5582 52.1967 58.0589 52.0412 58.6214 52.0412C58.7493 52.0412 58.892 52.0476 59.0497 52.0604C59.2116 52.0689 59.3459 52.0838 59.4524 52.1051V54.2337C59.3544 54.1996 59.1989 54.1697 58.9858 54.1442C58.777 54.1143 58.5746 54.0994 58.3786 54.0994C57.9567 54.0994 57.5774 54.1911 57.2408 54.3743C56.9084 54.5533 56.6463 54.8026 56.4545 55.1222C56.2628 55.4418 56.1669 55.8104 56.1669 56.228V62H53.853ZM68.7496 54.777L66.6403 55.0071C66.5806 54.794 66.4762 54.5938 66.3271 54.4062C66.1822 54.2188 65.9862 54.0675 65.739 53.9524C65.4918 53.8374 65.1893 53.7798 64.8313 53.7798C64.3498 53.7798 63.945 53.8842 63.6168 54.093C63.293 54.3018 63.1332 54.5724 63.1374 54.9048C63.1332 55.1903 63.2376 55.4226 63.4506 55.6016C63.668 55.7805 64.0259 55.9276 64.5245 56.0426L66.1992 56.4006C67.1282 56.6009 67.8185 56.9183 68.2702 57.353C68.7262 57.7876 68.9563 58.3565 68.9606 59.0597C68.9563 59.6776 68.7752 60.223 68.4173 60.696C68.0636 61.1648 67.5714 61.5312 66.9407 61.7955C66.31 62.0597 65.5856 62.1918 64.7674 62.1918C63.5657 62.1918 62.5984 61.9403 61.8654 61.4375C61.1325 60.9304 60.6957 60.2251 60.555 59.3217L62.8114 59.1044C62.9137 59.5476 63.131 59.8821 63.4634 60.108C63.7958 60.3338 64.2283 60.4467 64.761 60.4467C65.3107 60.4467 65.7518 60.3338 66.0842 60.108C66.4208 59.8821 66.5891 59.603 66.5891 59.2706C66.5891 58.9893 66.4805 58.7571 66.2631 58.5739C66.0501 58.3906 65.7177 58.25 65.266 58.152L63.5913 57.8004C62.6495 57.6044 61.9528 57.2741 61.5011 56.8097C61.0494 56.3409 60.8256 55.7486 60.8299 55.0327C60.8256 54.4276 60.9897 53.9034 61.3221 53.4602C61.6587 53.0128 62.1254 52.6676 62.7219 52.4247C63.3228 52.1776 64.0153 52.054 64.7994 52.054C65.9499 52.054 66.8555 52.299 67.516 52.7891C68.1808 53.2791 68.592 53.9418 68.7496 54.777ZM73.6939 62.1982C73.0717 62.1982 72.5114 62.0874 72.0128 61.8658C71.5185 61.6399 71.1264 61.3075 70.8366 60.8686C70.5511 60.4297 70.4084 59.8885 70.4084 59.245C70.4084 58.6911 70.5107 58.233 70.7152 57.8707C70.9197 57.5085 71.1989 57.2188 71.5526 57.0014C71.9063 56.7841 72.3047 56.62 72.7479 56.5092C73.1953 56.3942 73.6577 56.3111 74.1349 56.2599C74.7102 56.2003 75.1768 56.147 75.5348 56.1001C75.8928 56.049 76.1527 55.9723 76.3146 55.87C76.4808 55.7635 76.5639 55.5994 76.5639 55.3778V55.3395C76.5639 54.858 76.4212 54.4851 76.1357 54.2209C75.8501 53.9567 75.4389 53.8246 74.902 53.8246C74.3352 53.8246 73.8857 53.9482 73.5533 54.1953C73.2251 54.4425 73.0036 54.7344 72.8885 55.071L70.728 54.7642C70.8984 54.1676 71.1797 53.669 71.5717 53.2685C71.9638 52.8636 72.4432 52.5611 73.0099 52.3608C73.5767 52.1562 74.2031 52.054 74.8892 52.054C75.3622 52.054 75.8331 52.1094 76.3018 52.2202C76.7706 52.331 77.1989 52.5142 77.5866 52.7699C77.9744 53.0213 78.2855 53.3643 78.5199 53.799C78.7585 54.2337 78.8778 54.777 78.8778 55.429V62H76.6534V60.6513H76.5767C76.4361 60.924 76.2379 61.1797 75.9822 61.4183C75.7308 61.6527 75.4134 61.8423 75.0298 61.9872C74.6506 62.1278 74.2053 62.1982 73.6939 62.1982ZM74.2947 60.4979C74.7592 60.4979 75.1619 60.4062 75.5028 60.223C75.8438 60.0355 76.1058 59.7884 76.2891 59.4815C76.4766 59.1747 76.5703 58.8402 76.5703 58.478V57.321C76.4979 57.3807 76.3743 57.4361 76.1996 57.4872C76.0291 57.5384 75.8374 57.5831 75.6243 57.6214C75.4112 57.6598 75.2003 57.6939 74.9915 57.7237C74.7827 57.7536 74.6016 57.7791 74.4482 57.8004C74.103 57.8473 73.794 57.924 73.5213 58.0305C73.2486 58.1371 73.0334 58.2862 72.8757 58.478C72.718 58.6655 72.6392 58.9084 72.6392 59.2067C72.6392 59.6328 72.7947 59.9545 73.1058 60.1719C73.4169 60.3892 73.8132 60.4979 74.2947 60.4979ZM86.1072 52.1818V53.9716H80.4631V52.1818H86.1072ZM81.8565 49.8295H84.1705V59.0469C84.1705 59.358 84.2173 59.5966 84.3111 59.7628C84.4091 59.9247 84.5369 60.0355 84.6946 60.0952C84.8523 60.1548 85.027 60.1847 85.2188 60.1847C85.3636 60.1847 85.4957 60.174 85.6151 60.1527C85.7386 60.1314 85.8324 60.1122 85.8963 60.0952L86.2862 61.9041C86.1626 61.9467 85.9858 61.9936 85.7557 62.0447C85.5298 62.0959 85.2528 62.1257 84.9247 62.1342C84.3452 62.1513 83.8232 62.0639 83.3587 61.8722C82.8942 61.6761 82.5256 61.3736 82.2528 60.9645C81.9844 60.5554 81.8523 60.044 81.8565 59.4304V49.8295ZM88.0424 62V52.1818H90.3564V62H88.0424ZM89.2058 50.7884C88.8393 50.7884 88.524 50.6669 88.2598 50.424C87.9956 50.1768 87.8635 49.8807 87.8635 49.5355C87.8635 49.1861 87.9956 48.8899 88.2598 48.647C88.524 48.3999 88.8393 48.2763 89.2058 48.2763C89.5765 48.2763 89.8919 48.3999 90.1518 48.647C90.416 48.8899 90.5481 49.1861 90.5481 49.5355C90.5481 49.8807 90.416 50.1768 90.1518 50.424C89.8919 50.6669 89.5765 50.7884 89.2058 50.7884ZM97.0185 62.1918C96.0597 62.1918 95.2287 61.9808 94.5256 61.5589C93.8224 61.1371 93.277 60.5469 92.8892 59.7884C92.5057 59.0298 92.3139 58.1435 92.3139 57.1293C92.3139 56.1151 92.5057 55.2266 92.8892 54.4638C93.277 53.701 93.8224 53.1087 94.5256 52.6868C95.2287 52.2649 96.0597 52.054 97.0185 52.054C97.9773 52.054 98.8082 52.2649 99.5114 52.6868C100.214 53.1087 100.758 53.701 101.141 54.4638C101.529 55.2266 101.723 56.1151 101.723 57.1293C101.723 58.1435 101.529 59.0298 101.141 59.7884C100.758 60.5469 100.214 61.1371 99.5114 61.5589C98.8082 61.9808 97.9773 62.1918 97.0185 62.1918ZM97.0312 60.3381C97.5511 60.3381 97.9858 60.1953 98.3352 59.9098C98.6847 59.62 98.9446 59.2322 99.1151 58.7464C99.2898 58.2607 99.3771 57.7195 99.3771 57.1229C99.3771 56.522 99.2898 55.9787 99.1151 55.4929C98.9446 55.0028 98.6847 54.6129 98.3352 54.3232C97.9858 54.0334 97.5511 53.8885 97.0312 53.8885C96.4986 53.8885 96.0554 54.0334 95.7017 54.3232C95.3523 54.6129 95.0902 55.0028 94.9155 55.4929C94.745 55.9787 94.6598 56.522 94.6598 57.1229C94.6598 57.7195 94.745 58.2607 94.9155 58.7464C95.0902 59.2322 95.3523 59.62 95.7017 59.9098C96.0554 60.1953 96.4986 60.3381 97.0312 60.3381ZM106.001 56.2472V62H103.687V52.1818H105.899V53.8501H106.014C106.24 53.3004 106.6 52.8636 107.094 52.5398C107.593 52.2159 108.208 52.054 108.941 52.054C109.619 52.054 110.209 52.1989 110.712 52.4886C111.219 52.7784 111.611 53.1982 111.888 53.7479C112.169 54.2976 112.308 54.9645 112.303 55.7486V62H109.99V56.1065C109.99 55.4503 109.819 54.9368 109.478 54.5661C109.142 54.1953 108.675 54.0099 108.078 54.0099C107.673 54.0099 107.313 54.0994 106.998 54.2784C106.687 54.4531 106.442 54.7067 106.263 55.0391C106.088 55.3714 106.001 55.7741 106.001 56.2472ZM116.867 58.152V57.9858C116.872 57.2145 116.944 56.6009 117.085 56.1449C117.23 55.6889 117.434 55.3224 117.698 55.0455C117.963 54.7642 118.284 54.5064 118.664 54.272C118.923 54.1101 119.156 53.9332 119.36 53.7415C119.569 53.5455 119.733 53.3281 119.852 53.0895C119.972 52.8466 120.031 52.576 120.031 52.2777C120.031 51.9411 119.953 51.6491 119.795 51.402C119.637 51.1548 119.424 50.9631 119.156 50.8267C118.892 50.6903 118.595 50.6222 118.267 50.6222C117.965 50.6222 117.677 50.6882 117.404 50.8203C117.136 50.9482 116.912 51.1442 116.733 51.4084C116.558 51.6683 116.46 51.9986 116.439 52.3991H114.164C114.185 51.5895 114.381 50.9119 114.752 50.3665C115.127 49.821 115.621 49.4119 116.235 49.1392C116.852 48.8665 117.534 48.7301 118.28 48.7301C119.094 48.7301 119.81 48.8729 120.428 49.1584C121.05 49.4439 121.534 49.8509 121.879 50.3793C122.228 50.9034 122.403 51.5256 122.403 52.2457C122.403 52.7315 122.324 53.1662 122.166 53.5497C122.013 53.9332 121.794 54.2741 121.508 54.5724C121.222 54.8707 120.884 55.1371 120.492 55.3714C120.146 55.5845 119.863 55.8061 119.642 56.0362C119.424 56.2663 119.262 56.5369 119.156 56.848C119.053 57.1548 119 57.5341 118.996 57.9858V58.152H116.867ZM117.98 62.1406C117.596 62.1406 117.266 62.0043 116.989 61.7315C116.712 61.4588 116.573 61.1264 116.573 60.7344C116.573 60.3509 116.712 60.0227 116.989 59.75C117.266 59.4773 117.596 59.3409 117.98 59.3409C118.359 59.3409 118.687 59.4773 118.964 59.75C119.245 60.0227 119.386 60.3509 119.386 60.7344C119.386 60.9943 119.32 61.2308 119.188 61.4439C119.06 61.657 118.889 61.8274 118.676 61.9553C118.468 62.0788 118.235 62.1406 117.98 62.1406Z" fill="#323A46"/>
<path d="M4.04616 152L0.351562 138.909H2.90199L5.26065 148.529H5.3821L7.90057 138.909H10.2209L12.7457 148.536H12.8608L15.2195 138.909H17.7699L14.0753 152H11.7358L9.11506 142.815H9.01278L6.38565 152H4.04616ZM21.6259 146.247V152H19.312V138.909H21.5748V143.85H21.6898C21.9199 143.296 22.2757 142.859 22.7573 142.54C23.2431 142.216 23.861 142.054 24.611 142.054C25.2928 142.054 25.8873 142.197 26.3944 142.482C26.9015 142.768 27.2935 143.185 27.5705 143.735C27.8517 144.285 27.9924 144.956 27.9924 145.749V152H25.6784V146.107C25.6784 145.446 25.508 144.933 25.1671 144.566C24.8304 144.195 24.3574 144.01 23.748 144.01C23.339 144.01 22.9725 144.099 22.6486 144.278C22.329 144.453 22.0776 144.707 21.8944 145.039C21.7154 145.371 21.6259 145.774 21.6259 146.247ZM33.1763 152.198C32.5542 152.198 31.9938 152.087 31.4952 151.866C31.0009 151.64 30.6088 151.308 30.3191 150.869C30.0336 150.43 29.8908 149.888 29.8908 149.245C29.8908 148.691 29.9931 148.233 30.1976 147.871C30.4022 147.509 30.6813 147.219 31.035 147.001C31.3887 146.784 31.7871 146.62 32.2303 146.509C32.6777 146.394 33.1401 146.311 33.6174 146.26C34.1926 146.2 34.6593 146.147 35.0172 146.1C35.3752 146.049 35.6351 145.972 35.7971 145.87C35.9632 145.763 36.0463 145.599 36.0463 145.378V145.339C36.0463 144.858 35.9036 144.485 35.6181 144.221C35.3326 143.957 34.9213 143.825 34.3844 143.825C33.8176 143.825 33.3681 143.948 33.0357 144.195C32.7076 144.442 32.486 144.734 32.3709 145.071L30.2104 144.764C30.3809 144.168 30.6621 143.669 31.0542 143.268C31.4462 142.864 31.9256 142.561 32.4924 142.361C33.0591 142.156 33.6855 142.054 34.3716 142.054C34.8446 142.054 35.3155 142.109 35.7843 142.22C36.253 142.331 36.6813 142.514 37.0691 142.77C37.4569 143.021 37.7679 143.364 38.0023 143.799C38.2409 144.234 38.3603 144.777 38.3603 145.429V152H36.1358V150.651H36.0591C35.9185 150.924 35.7203 151.18 35.4647 151.418C35.2132 151.653 34.8958 151.842 34.5123 151.987C34.133 152.128 33.6877 152.198 33.1763 152.198ZM33.7772 150.498C34.2417 150.498 34.6444 150.406 34.9853 150.223C35.3262 150.036 35.5882 149.788 35.7715 149.482C35.959 149.175 36.0527 148.84 36.0527 148.478V147.321C35.9803 147.381 35.8567 147.436 35.682 147.487C35.5115 147.538 35.3198 147.583 35.1067 147.621C34.8936 147.66 34.6827 147.694 34.4739 147.724C34.2651 147.754 34.084 147.779 33.9306 147.8C33.5854 147.847 33.2765 147.924 33.0037 148.031C32.731 148.137 32.5158 148.286 32.3581 148.478C32.2005 148.665 32.1216 148.908 32.1216 149.207C32.1216 149.633 32.2772 149.955 32.5882 150.172C32.8993 150.389 33.2956 150.498 33.7772 150.498ZM45.5897 142.182V143.972H39.9455V142.182H45.5897ZM41.339 139.83H43.6529V149.047C43.6529 149.358 43.6998 149.597 43.7935 149.763C43.8915 149.925 44.0194 150.036 44.177 150.095C44.3347 150.155 44.5094 150.185 44.7012 150.185C44.8461 150.185 44.9782 150.174 45.0975 150.153C45.2211 150.131 45.3148 150.112 45.3787 150.095L45.7686 151.904C45.6451 151.947 45.4682 151.994 45.2381 152.045C45.0123 152.096 44.7353 152.126 44.4071 152.134C43.8276 152.151 43.3056 152.064 42.8411 151.872C42.3766 151.676 42.008 151.374 41.7353 150.964C41.4668 150.555 41.3347 150.044 41.339 149.43V139.83ZM58.5415 155.682V150.453H58.4457C58.3263 150.692 58.1538 150.945 57.9279 151.214C57.7021 151.478 57.4038 151.704 57.033 151.891C56.6623 152.079 56.1957 152.173 55.6332 152.173C54.8619 152.173 54.1715 151.974 53.5621 151.578C52.9528 151.182 52.4712 150.607 52.1175 149.852C51.7638 149.098 51.587 148.182 51.587 147.104C51.587 146.013 51.766 145.092 52.1239 144.342C52.4862 143.588 52.9741 143.019 53.5877 142.636C54.2013 142.248 54.8853 142.054 55.6396 142.054C56.2148 142.054 56.6879 142.152 57.0586 142.348C57.4293 142.54 57.7234 142.772 57.9407 143.045C58.158 143.313 58.3263 143.567 58.4457 143.805H58.5863V142.182H60.8619V155.682H58.5415ZM56.2788 150.274C56.7688 150.274 57.1864 150.142 57.5316 149.878C57.8768 149.609 58.1388 149.237 58.3178 148.759C58.4968 148.282 58.5863 147.726 58.5863 147.091C58.5863 146.456 58.4968 145.904 58.3178 145.435C58.1431 144.967 57.8832 144.602 57.538 144.342C57.1971 144.082 56.7773 143.952 56.2788 143.952C55.7631 143.952 55.3327 144.087 54.9876 144.355C54.6424 144.624 54.3825 144.994 54.2077 145.467C54.033 145.94 53.9457 146.482 53.9457 147.091C53.9457 147.705 54.033 148.252 54.2077 148.734C54.3867 149.211 54.6488 149.588 54.994 149.865C55.3434 150.138 55.7717 150.274 56.2788 150.274ZM69.4975 147.871V142.182H71.8114V152H69.5678V150.255H69.4656C69.244 150.805 68.8796 151.254 68.3725 151.604C67.8697 151.953 67.2496 152.128 66.5124 152.128C65.869 152.128 65.3001 151.985 64.8058 151.7C64.3157 151.41 63.9322 150.99 63.6552 150.44C63.3782 149.886 63.2397 149.217 63.2397 148.433V142.182H65.5536V148.075C65.5536 148.697 65.7241 149.192 66.065 149.558C66.4059 149.925 66.8533 150.108 67.4073 150.108C67.7482 150.108 68.0785 150.025 68.3981 149.859C68.7177 149.692 68.9798 149.445 69.1843 149.117C69.3931 148.785 69.4975 148.369 69.4975 147.871ZM78.5375 152.192C77.5531 152.192 76.7029 151.987 75.987 151.578C75.2754 151.165 74.7278 150.581 74.3443 149.827C73.9608 149.068 73.769 148.175 73.769 147.148C73.769 146.138 73.9608 145.252 74.3443 144.489C74.7321 143.722 75.2733 143.126 75.9679 142.7C76.6625 142.269 77.4785 142.054 78.416 142.054C79.0211 142.054 79.5922 142.152 80.1291 142.348C80.6703 142.54 81.1476 142.838 81.5609 143.243C81.9785 143.648 82.3066 144.163 82.5453 144.79C82.7839 145.412 82.9032 146.153 82.9032 147.014V147.724H74.8556V146.164H80.6852C80.6809 145.721 80.5851 145.327 80.3976 144.982C80.2101 144.632 79.948 144.357 79.6113 144.157C79.2789 143.957 78.8912 143.857 78.448 143.857C77.975 143.857 77.5595 143.972 77.2015 144.202C76.8436 144.428 76.5645 144.726 76.3642 145.097C76.1681 145.463 76.068 145.866 76.0637 146.305V147.666C76.0637 148.237 76.1681 148.727 76.377 149.136C76.5858 149.541 76.8777 149.852 77.2527 150.07C77.6277 150.283 78.0666 150.389 78.5694 150.389C78.9061 150.389 79.2108 150.342 79.4835 150.249C79.7562 150.151 79.9927 150.008 80.193 149.82C80.3933 149.633 80.5446 149.401 80.6468 149.124L82.8074 149.366C82.671 149.937 82.411 150.436 82.0275 150.862C81.6483 151.284 81.1625 151.612 80.5701 151.847C79.9778 152.077 79.3002 152.192 78.5375 152.192ZM92.6207 144.777L90.5114 145.007C90.4517 144.794 90.3473 144.594 90.1982 144.406C90.0533 144.219 89.8572 144.067 89.6101 143.952C89.3629 143.837 89.0604 143.78 88.7024 143.78C88.2209 143.78 87.8161 143.884 87.4879 144.093C87.1641 144.302 87.0043 144.572 87.0085 144.905C87.0043 145.19 87.1087 145.423 87.3217 145.602C87.5391 145.781 87.897 145.928 88.3956 146.043L90.0703 146.401C90.9993 146.601 91.6896 146.918 92.1413 147.353C92.5973 147.788 92.8274 148.357 92.8317 149.06C92.8274 149.678 92.6463 150.223 92.2884 150.696C91.9347 151.165 91.4425 151.531 90.8118 151.795C90.1811 152.06 89.4567 152.192 88.6385 152.192C87.4368 152.192 86.4695 151.94 85.7365 151.438C85.0036 150.93 84.5668 150.225 84.4261 149.322L86.6825 149.104C86.7848 149.548 87.0021 149.882 87.3345 150.108C87.6669 150.334 88.0994 150.447 88.6321 150.447C89.1818 150.447 89.6229 150.334 89.9553 150.108C90.2919 149.882 90.4602 149.603 90.4602 149.271C90.4602 148.989 90.3516 148.757 90.1342 148.574C89.9212 148.391 89.5888 148.25 89.1371 148.152L87.4624 147.8C86.5206 147.604 85.8239 147.274 85.3722 146.81C84.9205 146.341 84.6967 145.749 84.701 145.033C84.6967 144.428 84.8608 143.903 85.1932 143.46C85.5298 143.013 85.9964 142.668 86.593 142.425C87.1939 142.178 87.8864 142.054 88.6705 142.054C89.821 142.054 90.7266 142.299 91.3871 142.789C92.0518 143.279 92.4631 143.942 92.6207 144.777ZM99.6424 142.182V143.972H93.9982V142.182H99.6424ZM95.3917 139.83H97.7056V149.047C97.7056 149.358 97.7525 149.597 97.8462 149.763C97.9442 149.925 98.0721 150.036 98.2298 150.095C98.3874 150.155 98.5621 150.185 98.7539 150.185C98.8988 150.185 99.0309 150.174 99.1502 150.153C99.2738 150.131 99.3675 150.112 99.4315 150.095L99.8214 151.904C99.6978 151.947 99.521 151.994 99.2908 152.045C99.065 152.096 98.788 152.126 98.4599 152.134C97.8803 152.151 97.3583 152.064 96.8938 151.872C96.4293 151.676 96.0607 151.374 95.788 150.964C95.5195 150.555 95.3874 150.044 95.3917 149.43V139.83ZM101.578 152V142.182H103.892V152H101.578ZM102.741 140.788C102.374 140.788 102.059 140.667 101.795 140.424C101.531 140.177 101.399 139.881 101.399 139.536C101.399 139.186 101.531 138.89 101.795 138.647C102.059 138.4 102.374 138.276 102.741 138.276C103.112 138.276 103.427 138.4 103.687 138.647C103.951 138.89 104.083 139.186 104.083 139.536C104.083 139.881 103.951 140.177 103.687 140.424C103.427 140.667 103.112 140.788 102.741 140.788ZM110.554 152.192C109.595 152.192 108.764 151.981 108.061 151.559C107.358 151.137 106.812 150.547 106.424 149.788C106.041 149.03 105.849 148.143 105.849 147.129C105.849 146.115 106.041 145.227 106.424 144.464C106.812 143.701 107.358 143.109 108.061 142.687C108.764 142.265 109.595 142.054 110.554 142.054C111.512 142.054 112.343 142.265 113.047 142.687C113.75 143.109 114.293 143.701 114.676 144.464C115.064 145.227 115.258 146.115 115.258 147.129C115.258 148.143 115.064 149.03 114.676 149.788C114.293 150.547 113.75 151.137 113.047 151.559C112.343 151.981 111.512 152.192 110.554 152.192ZM110.566 150.338C111.086 150.338 111.521 150.195 111.87 149.91C112.22 149.62 112.48 149.232 112.65 148.746C112.825 148.261 112.912 147.719 112.912 147.123C112.912 146.522 112.825 145.979 112.65 145.493C112.48 145.003 112.22 144.613 111.87 144.323C111.521 144.033 111.086 143.888 110.566 143.888C110.034 143.888 109.591 144.033 109.237 144.323C108.887 144.613 108.625 145.003 108.451 145.493C108.28 145.979 108.195 146.522 108.195 147.123C108.195 147.719 108.28 148.261 108.451 148.746C108.625 149.232 108.887 149.62 109.237 149.91C109.591 150.195 110.034 150.338 110.566 150.338ZM119.536 146.247V152H117.222V142.182H119.434V143.85H119.549C119.775 143.3 120.135 142.864 120.629 142.54C121.128 142.216 121.743 142.054 122.476 142.054C123.154 142.054 123.744 142.199 124.247 142.489C124.754 142.778 125.146 143.198 125.423 143.748C125.704 144.298 125.843 144.964 125.839 145.749V152H123.525V146.107C123.525 145.45 123.354 144.937 123.013 144.566C122.677 144.195 122.21 144.01 121.613 144.01C121.209 144.01 120.849 144.099 120.533 144.278C120.222 144.453 119.977 144.707 119.798 145.039C119.623 145.371 119.536 145.774 119.536 146.247ZM135.951 144.777L133.841 145.007C133.782 144.794 133.677 144.594 133.528 144.406C133.383 144.219 133.187 144.067 132.94 143.952C132.693 143.837 132.39 143.78 132.032 143.78C131.551 143.78 131.146 143.884 130.818 144.093C130.494 144.302 130.334 144.572 130.339 144.905C130.334 145.19 130.439 145.423 130.652 145.602C130.869 145.781 131.227 145.928 131.726 146.043L133.4 146.401C134.329 146.601 135.02 146.918 135.471 147.353C135.927 147.788 136.157 148.357 136.162 149.06C136.157 149.678 135.976 150.223 135.618 150.696C135.265 151.165 134.773 151.531 134.142 151.795C133.511 152.06 132.787 152.192 131.969 152.192C130.767 152.192 129.8 151.94 129.067 151.438C128.334 150.93 127.897 150.225 127.756 149.322L130.013 149.104C130.115 149.548 130.332 149.882 130.665 150.108C130.997 150.334 131.43 150.447 131.962 150.447C132.512 150.447 132.953 150.334 133.285 150.108C133.622 149.882 133.79 149.603 133.79 149.271C133.79 148.989 133.682 148.757 133.464 148.574C133.251 148.391 132.919 148.25 132.467 148.152L130.792 147.8C129.851 147.604 129.154 147.274 128.702 146.81C128.251 146.341 128.027 145.749 128.031 145.033C128.027 144.428 128.191 143.903 128.523 143.46C128.86 143.013 129.327 142.668 129.923 142.425C130.524 142.178 131.216 142.054 132.001 142.054C133.151 142.054 134.057 142.299 134.717 142.789C135.382 143.279 135.793 143.942 135.951 144.777ZM146.178 152.173C145.407 152.173 144.716 151.974 144.107 151.578C143.498 151.182 143.016 150.607 142.662 149.852C142.309 149.098 142.132 148.182 142.132 147.104C142.132 146.013 142.311 145.092 142.669 144.342C143.031 143.588 143.519 143.019 144.133 142.636C144.746 142.248 145.43 142.054 146.184 142.054C146.76 142.054 147.233 142.152 147.604 142.348C147.974 142.54 148.268 142.772 148.486 143.045C148.703 143.313 148.871 143.567 148.991 143.805H149.086V138.909H151.407V152H149.131V150.453H148.991C148.871 150.692 148.699 150.945 148.473 151.214C148.247 151.478 147.949 151.704 147.578 151.891C147.207 152.079 146.741 152.173 146.178 152.173ZM146.824 150.274C147.314 150.274 147.731 150.142 148.077 149.878C148.422 149.609 148.684 149.237 148.863 148.759C149.042 148.282 149.131 147.726 149.131 147.091C149.131 146.456 149.042 145.904 148.863 145.435C148.688 144.967 148.428 144.602 148.083 144.342C147.742 144.082 147.322 143.952 146.824 143.952C146.308 143.952 145.878 144.087 145.532 144.355C145.187 144.624 144.927 144.994 144.753 145.467C144.578 145.94 144.491 146.482 144.491 147.091C144.491 147.705 144.578 148.252 144.753 148.734C144.932 149.211 145.194 149.588 145.539 149.865C145.888 150.138 146.317 150.274 146.824 150.274ZM158.155 152.192C157.196 152.192 156.365 151.981 155.662 151.559C154.959 151.137 154.414 150.547 154.026 149.788C153.642 149.03 153.451 148.143 153.451 147.129C153.451 146.115 153.642 145.227 154.026 144.464C154.414 143.701 154.959 143.109 155.662 142.687C156.365 142.265 157.196 142.054 158.155 142.054C159.114 142.054 159.945 142.265 160.648 142.687C161.351 143.109 161.895 143.701 162.278 144.464C162.666 145.227 162.86 146.115 162.86 147.129C162.86 148.143 162.666 149.03 162.278 149.788C161.895 150.547 161.351 151.137 160.648 151.559C159.945 151.981 159.114 152.192 158.155 152.192ZM158.168 150.338C158.688 150.338 159.123 150.195 159.472 149.91C159.821 149.62 160.081 149.232 160.252 148.746C160.426 148.261 160.514 147.719 160.514 147.123C160.514 146.522 160.426 145.979 160.252 145.493C160.081 145.003 159.821 144.613 159.472 144.323C159.123 144.033 158.688 143.888 158.168 143.888C157.635 143.888 157.192 144.033 156.838 144.323C156.489 144.613 156.227 145.003 156.052 145.493C155.882 145.979 155.797 146.522 155.797 147.123C155.797 147.719 155.882 148.261 156.052 148.746C156.227 149.232 156.489 149.62 156.838 149.91C157.192 150.195 157.635 150.338 158.168 150.338ZM170.727 155.682C170.411 155.682 170.119 155.656 169.851 155.605C169.587 155.558 169.376 155.503 169.218 155.439L169.755 153.636C170.092 153.734 170.392 153.781 170.656 153.777C170.921 153.773 171.153 153.69 171.353 153.528C171.558 153.37 171.73 153.106 171.871 152.735L172.069 152.205L168.509 142.182H170.963L173.226 149.597H173.328L175.597 142.182H178.058L174.127 153.189C173.944 153.709 173.701 154.154 173.399 154.525C173.096 154.9 172.725 155.185 172.286 155.381C171.852 155.582 171.332 155.682 170.727 155.682ZM183.608 152.192C182.65 152.192 181.819 151.981 181.115 151.559C180.412 151.137 179.867 150.547 179.479 149.788C179.096 149.03 178.904 148.143 178.904 147.129C178.904 146.115 179.096 145.227 179.479 144.464C179.867 143.701 180.412 143.109 181.115 142.687C181.819 142.265 182.65 142.054 183.608 142.054C184.567 142.054 185.398 142.265 186.101 142.687C186.804 143.109 187.348 143.701 187.731 144.464C188.119 145.227 188.313 146.115 188.313 147.129C188.313 148.143 188.119 149.03 187.731 149.788C187.348 150.547 186.804 151.137 186.101 151.559C185.398 151.981 184.567 152.192 183.608 152.192ZM183.621 150.338C184.141 150.338 184.576 150.195 184.925 149.91C185.275 149.62 185.534 149.232 185.705 148.746C185.88 148.261 185.967 147.719 185.967 147.123C185.967 146.522 185.88 145.979 185.705 145.493C185.534 145.003 185.275 144.613 184.925 144.323C184.576 144.033 184.141 143.888 183.621 143.888C183.088 143.888 182.645 144.033 182.292 144.323C181.942 144.613 181.68 145.003 181.505 145.493C181.335 145.979 181.25 146.522 181.25 147.123C181.25 147.719 181.335 148.261 181.505 148.746C181.68 149.232 181.942 149.62 182.292 149.91C182.645 150.195 183.088 150.338 183.621 150.338ZM196.535 147.871V142.182H198.849V152H196.605V150.255H196.503C196.281 150.805 195.917 151.254 195.41 151.604C194.907 151.953 194.287 152.128 193.55 152.128C192.906 152.128 192.337 151.985 191.843 151.7C191.353 151.41 190.969 150.99 190.692 150.44C190.415 149.886 190.277 149.217 190.277 148.433V142.182H192.591V148.075C192.591 148.697 192.761 149.192 193.102 149.558C193.443 149.925 193.89 150.108 194.444 150.108C194.785 150.108 195.116 150.025 195.435 149.859C195.755 149.692 196.017 149.445 196.221 149.117C196.43 148.785 196.535 148.369 196.535 147.871ZM210.039 152.192C209.055 152.192 208.205 151.987 207.489 151.578C206.777 151.165 206.23 150.581 205.846 149.827C205.463 149.068 205.271 148.175 205.271 147.148C205.271 146.138 205.463 145.252 205.846 144.489C206.234 143.722 206.775 143.126 207.47 142.7C208.164 142.269 208.98 142.054 209.918 142.054C210.523 142.054 211.094 142.152 211.631 142.348C212.172 142.54 212.65 142.838 213.063 143.243C213.48 143.648 213.809 144.163 214.047 144.79C214.286 145.412 214.405 146.153 214.405 147.014V147.724H206.358V146.164H212.187C212.183 145.721 212.087 145.327 211.9 144.982C211.712 144.632 211.45 144.357 211.113 144.157C210.781 143.957 210.393 143.857 209.95 143.857C209.477 143.857 209.061 143.972 208.703 144.202C208.346 144.428 208.066 144.726 207.866 145.097C207.67 145.463 207.57 145.866 207.566 146.305V147.666C207.566 148.237 207.67 148.727 207.879 149.136C208.088 149.541 208.38 149.852 208.755 150.07C209.13 150.283 209.569 150.389 210.071 150.389C210.408 150.389 210.713 150.342 210.985 150.249C211.258 150.151 211.495 150.008 211.695 149.82C211.895 149.633 212.047 149.401 212.149 149.124L214.309 149.366C214.173 149.937 213.913 150.436 213.529 150.862C213.15 151.284 212.664 151.612 212.072 151.847C211.48 152.077 210.802 152.192 210.039 152.192ZM218.044 142.182L220.025 145.806L222.039 142.182H224.487L221.528 147.091L224.538 152H222.103L220.025 148.465L217.967 152H215.513L218.504 147.091L215.589 142.182H218.044ZM226.277 155.682V142.182H228.552V143.805H228.687C228.806 143.567 228.974 143.313 229.192 143.045C229.409 142.772 229.703 142.54 230.074 142.348C230.444 142.152 230.917 142.054 231.493 142.054C232.251 142.054 232.935 142.248 233.545 142.636C234.158 143.019 234.644 143.588 235.002 144.342C235.364 145.092 235.545 146.013 235.545 147.104C235.545 148.182 235.368 149.098 235.015 149.852C234.661 150.607 234.18 151.182 233.57 151.578C232.961 151.974 232.27 152.173 231.499 152.173C230.937 152.173 230.47 152.079 230.099 151.891C229.729 151.704 229.43 151.478 229.204 151.214C228.983 150.945 228.81 150.692 228.687 150.453H228.591V155.682H226.277ZM228.546 147.091C228.546 147.726 228.635 148.282 228.814 148.759C228.998 149.237 229.26 149.609 229.601 149.878C229.946 150.142 230.363 150.274 230.854 150.274C231.365 150.274 231.793 150.138 232.138 149.865C232.483 149.588 232.743 149.211 232.918 148.734C233.097 148.252 233.187 147.705 233.187 147.091C233.187 146.482 233.099 145.94 232.925 145.467C232.75 144.994 232.49 144.624 232.145 144.355C231.8 144.087 231.369 143.952 230.854 143.952C230.359 143.952 229.939 144.082 229.594 144.342C229.249 144.602 228.987 144.967 228.808 145.435C228.633 145.904 228.546 146.456 228.546 147.091ZM241.873 152.192C240.889 152.192 240.039 151.987 239.323 151.578C238.611 151.165 238.064 150.581 237.68 149.827C237.297 149.068 237.105 148.175 237.105 147.148C237.105 146.138 237.297 145.252 237.68 144.489C238.068 143.722 238.609 143.126 239.304 142.7C239.998 142.269 240.814 142.054 241.752 142.054C242.357 142.054 242.928 142.152 243.465 142.348C244.006 142.54 244.483 142.838 244.897 143.243C245.314 143.648 245.643 144.163 245.881 144.79C246.12 145.412 246.239 146.153 246.239 147.014V147.724H238.192V146.164H244.021C244.017 145.721 243.921 145.327 243.733 144.982C243.546 144.632 243.284 144.357 242.947 144.157C242.615 143.957 242.227 143.857 241.784 143.857C241.311 143.857 240.895 143.972 240.537 144.202C240.18 144.428 239.9 144.726 239.7 145.097C239.504 145.463 239.404 145.866 239.4 146.305V147.666C239.4 148.237 239.504 148.727 239.713 149.136C239.922 149.541 240.214 149.852 240.589 150.07C240.964 150.283 241.403 150.389 241.905 150.389C242.242 150.389 242.547 150.342 242.819 150.249C243.092 150.151 243.329 150.008 243.529 149.82C243.729 149.633 243.881 149.401 243.983 149.124L246.143 149.366C246.007 149.937 245.747 150.436 245.363 150.862C244.984 151.284 244.498 151.612 243.906 151.847C243.314 152.077 242.636 152.192 241.873 152.192ZM252.479 152.192C251.499 152.192 250.658 151.977 249.955 151.546C249.256 151.116 248.717 150.521 248.337 149.763C247.962 149 247.775 148.122 247.775 147.129C247.775 146.132 247.967 145.252 248.35 144.489C248.734 143.722 249.275 143.126 249.974 142.7C250.677 142.269 251.508 142.054 252.467 142.054C253.263 142.054 253.969 142.201 254.582 142.495C255.2 142.785 255.692 143.196 256.059 143.729C256.425 144.257 256.634 144.875 256.685 145.582H254.474C254.384 145.109 254.171 144.715 253.835 144.4C253.502 144.08 253.057 143.92 252.499 143.92C252.026 143.92 251.61 144.048 251.252 144.304C250.894 144.555 250.615 144.918 250.415 145.391C250.219 145.864 250.121 146.43 250.121 147.091C250.121 147.76 250.219 148.335 250.415 148.817C250.611 149.294 250.886 149.663 251.239 149.923C251.597 150.178 252.017 150.306 252.499 150.306C252.839 150.306 253.144 150.242 253.413 150.114C253.685 149.982 253.913 149.793 254.097 149.545C254.28 149.298 254.406 148.998 254.474 148.644H256.685C256.63 149.339 256.425 149.955 256.072 150.491C255.718 151.024 255.237 151.442 254.627 151.744C254.018 152.043 253.302 152.192 252.479 152.192ZM263.488 142.182V143.972H257.844V142.182H263.488ZM259.237 139.83H261.551V149.047C261.551 149.358 261.598 149.597 261.692 149.763C261.79 149.925 261.918 150.036 262.075 150.095C262.233 150.155 262.408 150.185 262.6 150.185C262.744 150.185 262.877 150.174 262.996 150.153C263.119 150.131 263.213 150.112 263.277 150.095L263.667 151.904C263.544 151.947 263.367 151.994 263.137 152.045C262.911 152.096 262.634 152.126 262.306 152.134C261.726 152.151 261.204 152.064 260.74 151.872C260.275 151.676 259.906 151.374 259.634 150.964C259.365 150.555 259.233 150.044 259.237 149.43V139.83ZM6.09162 164.182V165.972H0.447443V164.182H6.09162ZM1.84091 161.83H4.15483V171.047C4.15483 171.358 4.2017 171.597 4.29545 171.763C4.39347 171.925 4.52131 172.036 4.67898 172.095C4.83665 172.155 5.01136 172.185 5.20312 172.185C5.34801 172.185 5.48011 172.174 5.59943 172.153C5.72301 172.131 5.81676 172.112 5.88068 172.095L6.2706 173.904C6.14702 173.947 5.97017 173.994 5.74006 174.045C5.5142 174.096 5.23722 174.126 4.90909 174.134C4.32955 174.151 3.80753 174.064 3.34304 173.872C2.87855 173.676 2.50994 173.374 2.23722 172.964C1.96875 172.555 1.83665 172.044 1.84091 171.43V161.83ZM10.5517 168.247V174H8.23775V160.909H10.5005V165.85H10.6156C10.8457 165.296 11.2015 164.859 11.6831 164.54C12.1689 164.216 12.7868 164.054 13.5368 164.054C14.2186 164.054 14.813 164.197 15.3201 164.482C15.8272 164.768 16.2193 165.185 16.4963 165.735C16.7775 166.285 16.9181 166.956 16.9181 167.749V174H14.6042V168.107C14.6042 167.446 14.4338 166.933 14.0929 166.566C13.7562 166.195 13.2832 166.01 12.6738 166.01C12.2647 166.01 11.8983 166.099 11.5744 166.278C11.2548 166.453 11.0034 166.707 10.8201 167.039C10.6412 167.371 10.5517 167.774 10.5517 168.247ZM23.6234 174.192C22.639 174.192 21.7889 173.987 21.073 173.578C20.3613 173.165 19.8137 172.581 19.4302 171.827C19.0467 171.068 18.8549 170.175 18.8549 169.148C18.8549 168.138 19.0467 167.252 19.4302 166.489C19.818 165.722 20.3592 165.126 21.0538 164.7C21.7484 164.269 22.5645 164.054 23.502 164.054C24.1071 164.054 24.6781 164.152 25.215 164.348C25.7562 164.54 26.2335 164.838 26.6468 165.243C27.0645 165.648 27.3926 166.163 27.6312 166.79C27.8699 167.412 27.9892 168.153 27.9892 169.014V169.724H19.9416V168.164H25.7711C25.7669 167.721 25.671 167.327 25.4835 166.982C25.296 166.632 25.0339 166.357 24.6973 166.157C24.3649 165.957 23.9771 165.857 23.5339 165.857C23.0609 165.857 22.6454 165.972 22.2875 166.202C21.9295 166.428 21.6504 166.726 21.4501 167.097C21.2541 167.463 21.1539 167.866 21.1497 168.305V169.666C21.1497 170.237 21.2541 170.727 21.4629 171.136C21.6717 171.541 21.9636 171.852 22.3386 172.07C22.7136 172.283 23.1525 172.389 23.6554 172.389C23.992 172.389 24.2967 172.342 24.5694 172.249C24.8422 172.151 25.0787 172.008 25.2789 171.82C25.4792 171.633 25.6305 171.401 25.7328 171.124L27.8933 171.366C27.7569 171.937 27.497 172.436 27.1135 172.862C26.7342 173.284 26.2484 173.612 25.6561 173.847C25.0637 174.077 24.3862 174.192 23.6234 174.192ZM31.1037 177.682C30.7884 177.682 30.4964 177.656 30.228 177.605C29.9638 177.558 29.7528 177.503 29.5952 177.439L30.1321 175.636C30.4688 175.734 30.7692 175.781 31.0334 175.777C31.2976 175.773 31.5298 175.69 31.7301 175.528C31.9347 175.37 32.1072 175.106 32.2479 174.735L32.446 174.205L28.8857 164.182H31.3402L33.603 171.597H33.7053L35.9744 164.182H38.4354L34.5043 175.189C34.321 175.709 34.0781 176.154 33.7756 176.525C33.473 176.9 33.1023 177.185 32.6634 177.381C32.2287 177.582 31.7088 177.682 31.1037 177.682ZM46.5277 174L43.7536 164.182H46.1122L47.8381 171.085H47.9276L49.6918 164.182H52.0249L53.7891 171.047H53.8849L55.5852 164.182H57.9503L55.1697 174H52.7599L50.919 167.365H50.7848L48.9439 174H46.5277ZM59.5659 174V164.182H61.8798V174H59.5659ZM60.7292 162.788C60.3627 162.788 60.0474 162.667 59.7832 162.424C59.519 162.177 59.3869 161.881 59.3869 161.536C59.3869 161.186 59.519 160.89 59.7832 160.647C60.0474 160.4 60.3627 160.276 60.7292 160.276C61.1 160.276 61.4153 160.4 61.6752 160.647C61.9395 160.89 62.0716 161.186 62.0716 161.536C62.0716 161.881 61.9395 162.177 61.6752 162.424C61.4153 162.667 61.1 162.788 60.7292 162.788ZM66.5732 160.909V174H64.2592V160.909H66.5732ZM71.2665 160.909V174H68.9526V160.909H71.2665ZM80.4247 168.247V174H78.1108V160.909H80.3736V165.85H80.4886C80.7188 165.296 81.0746 164.859 81.5561 164.54C82.0419 164.216 82.6598 164.054 83.4098 164.054C84.0916 164.054 84.6861 164.197 85.1932 164.482C85.7003 164.768 86.0923 165.185 86.3693 165.735C86.6506 166.285 86.7912 166.956 86.7912 167.749V174H84.4773V168.107C84.4773 167.446 84.3068 166.933 83.9659 166.566C83.6293 166.195 83.1562 166.01 82.5469 166.01C82.1378 166.01 81.7713 166.099 81.4474 166.278C81.1278 166.453 80.8764 166.707 80.6932 167.039C80.5142 167.371 80.4247 167.774 80.4247 168.247ZM91.9751 174.198C91.353 174.198 90.7926 174.087 90.294 173.866C89.7997 173.64 89.4077 173.308 89.1179 172.869C88.8324 172.43 88.6896 171.888 88.6896 171.245C88.6896 170.691 88.7919 170.233 88.9964 169.871C89.201 169.509 89.4801 169.219 89.8338 169.001C90.1875 168.784 90.5859 168.62 91.0291 168.509C91.4766 168.394 91.9389 168.311 92.4162 168.26C92.9915 168.2 93.4581 168.147 93.8161 168.1C94.174 168.049 94.4339 167.972 94.5959 167.87C94.7621 167.763 94.8452 167.599 94.8452 167.378V167.339C94.8452 166.858 94.7024 166.485 94.4169 166.221C94.1314 165.957 93.7202 165.825 93.1832 165.825C92.6165 165.825 92.1669 165.948 91.8345 166.195C91.5064 166.442 91.2848 166.734 91.1697 167.071L89.0092 166.764C89.1797 166.168 89.4609 165.669 89.853 165.268C90.245 164.864 90.7244 164.561 91.2912 164.361C91.858 164.156 92.4844 164.054 93.1705 164.054C93.6435 164.054 94.1143 164.109 94.5831 164.22C95.0518 164.331 95.4801 164.514 95.8679 164.77C96.2557 165.021 96.5668 165.364 96.8011 165.799C97.0398 166.234 97.1591 166.777 97.1591 167.429V174H94.9347V172.651H94.858C94.7173 172.924 94.5192 173.18 94.2635 173.418C94.0121 173.653 93.6946 173.842 93.3111 173.987C92.9318 174.128 92.4865 174.198 91.9751 174.198ZM92.576 172.498C93.0405 172.498 93.4432 172.406 93.7841 172.223C94.125 172.036 94.3871 171.788 94.5703 171.482C94.7578 171.175 94.8516 170.84 94.8516 170.478V169.321C94.7791 169.381 94.6555 169.436 94.4808 169.487C94.3104 169.538 94.1186 169.583 93.9055 169.621C93.6925 169.66 93.4815 169.694 93.2727 169.724C93.0639 169.754 92.8828 169.779 92.7294 169.8C92.3842 169.847 92.0753 169.924 91.8026 170.031C91.5298 170.137 91.3146 170.286 91.157 170.478C90.9993 170.665 90.9205 170.908 90.9205 171.207C90.9205 171.633 91.076 171.955 91.3871 172.172C91.6982 172.389 92.0945 172.498 92.576 172.498ZM107.904 164.182L104.408 174H101.851L98.3544 164.182H100.822L103.078 171.475H103.18L105.443 164.182H107.904ZM113.518 174.192C112.534 174.192 111.683 173.987 110.968 173.578C110.256 173.165 109.708 172.581 109.325 171.827C108.941 171.068 108.749 170.175 108.749 169.148C108.749 168.138 108.941 167.252 109.325 166.489C109.713 165.722 110.254 165.126 110.948 164.7C111.643 164.269 112.459 164.054 113.396 164.054C114.002 164.054 114.573 164.152 115.11 164.348C115.651 164.54 116.128 164.838 116.541 165.243C116.959 165.648 117.287 166.163 117.526 166.79C117.764 167.412 117.884 168.153 117.884 169.014V169.724H109.836V168.164H115.666C115.661 167.721 115.566 167.327 115.378 166.982C115.191 166.632 114.928 166.357 114.592 166.157C114.259 165.957 113.872 165.857 113.428 165.857C112.955 165.857 112.54 165.972 112.182 166.202C111.824 166.428 111.545 166.726 111.345 167.097C111.149 167.463 111.048 167.866 111.044 168.305V169.666C111.044 170.237 111.149 170.727 111.357 171.136C111.566 171.541 111.858 171.852 112.233 172.07C112.608 172.283 113.047 172.389 113.55 172.389C113.887 172.389 114.191 172.342 114.464 172.249C114.737 172.151 114.973 172.008 115.173 171.82C115.374 171.633 115.525 171.401 115.627 171.124L117.788 171.366C117.651 171.937 117.392 172.436 117.008 172.862C116.629 173.284 116.143 173.612 115.551 173.847C114.958 174.077 114.281 174.192 113.518 174.192ZM129.279 164.182V165.972H123.475V164.182H129.279ZM124.926 174V163.255C124.926 162.594 125.063 162.045 125.335 161.606C125.612 161.167 125.983 160.839 126.447 160.621C126.912 160.404 127.428 160.295 127.994 160.295C128.395 160.295 128.751 160.327 129.062 160.391C129.373 160.455 129.603 160.513 129.752 160.564L129.292 162.354C129.194 162.324 129.07 162.294 128.921 162.264C128.772 162.23 128.606 162.213 128.423 162.213C127.992 162.213 127.688 162.317 127.509 162.526C127.334 162.731 127.246 163.025 127.246 163.408V174H124.926ZM135.005 174.192C134.046 174.192 133.215 173.981 132.512 173.559C131.809 173.137 131.263 172.547 130.876 171.788C130.492 171.03 130.3 170.143 130.3 169.129C130.3 168.115 130.492 167.227 130.876 166.464C131.263 165.701 131.809 165.109 132.512 164.687C133.215 164.265 134.046 164.054 135.005 164.054C135.964 164.054 136.795 164.265 137.498 164.687C138.201 165.109 138.744 165.701 139.128 166.464C139.515 167.227 139.709 168.115 139.709 169.129C139.709 170.143 139.515 171.03 139.128 171.788C138.744 172.547 138.201 173.137 137.498 173.559C136.795 173.981 135.964 174.192 135.005 174.192ZM135.018 172.338C135.537 172.338 135.972 172.195 136.322 171.91C136.671 171.62 136.931 171.232 137.101 170.746C137.276 170.261 137.363 169.719 137.363 169.123C137.363 168.522 137.276 167.979 137.101 167.493C136.931 167.003 136.671 166.613 136.322 166.323C135.972 166.033 135.537 165.888 135.018 165.888C134.485 165.888 134.042 166.033 133.688 166.323C133.339 166.613 133.077 167.003 132.902 167.493C132.731 167.979 132.646 168.522 132.646 169.123C132.646 169.719 132.731 170.261 132.902 170.746C133.077 171.232 133.339 171.62 133.688 171.91C134.042 172.195 134.485 172.338 135.018 172.338ZM141.673 174V164.182H143.917V165.818H144.019C144.198 165.251 144.505 164.815 144.94 164.508C145.379 164.197 145.879 164.041 146.442 164.041C146.57 164.041 146.712 164.048 146.87 164.06C147.032 164.069 147.166 164.084 147.273 164.105V166.234C147.175 166.2 147.019 166.17 146.806 166.144C146.597 166.114 146.395 166.099 146.199 166.099C145.777 166.099 145.398 166.191 145.061 166.374C144.729 166.553 144.467 166.803 144.275 167.122C144.083 167.442 143.987 167.81 143.987 168.228V174H141.673ZM154.713 177.682C154.398 177.682 154.106 177.656 153.837 177.605C153.573 177.558 153.362 177.503 153.205 177.439L153.741 175.636C154.078 175.734 154.379 175.781 154.643 175.777C154.907 175.773 155.139 175.69 155.339 175.528C155.544 175.37 155.717 175.106 155.857 174.735L156.055 174.205L152.495 164.182H154.95L157.212 171.597H157.315L159.584 164.182H162.045L158.114 175.189C157.93 175.709 157.688 176.154 157.385 176.525C157.082 176.9 156.712 177.185 156.273 177.381C155.838 177.582 155.318 177.682 154.713 177.682ZM167.595 174.192C166.636 174.192 165.805 173.981 165.102 173.559C164.399 173.137 163.853 172.547 163.465 171.788C163.082 171.03 162.89 170.143 162.89 169.129C162.89 168.115 163.082 167.227 163.465 166.464C163.853 165.701 164.399 165.109 165.102 164.687C165.805 164.265 166.636 164.054 167.595 164.054C168.553 164.054 169.384 164.265 170.088 164.687C170.791 165.109 171.334 165.701 171.718 166.464C172.105 167.227 172.299 168.115 172.299 169.129C172.299 170.143 172.105 171.03 171.718 171.788C171.334 172.547 170.791 173.137 170.088 173.559C169.384 173.981 168.553 174.192 167.595 174.192ZM167.607 172.338C168.127 172.338 168.562 172.195 168.911 171.91C169.261 171.62 169.521 171.232 169.691 170.746C169.866 170.261 169.953 169.719 169.953 169.123C169.953 168.522 169.866 167.979 169.691 167.493C169.521 167.003 169.261 166.613 168.911 166.323C168.562 166.033 168.127 165.888 167.607 165.888C167.075 165.888 166.632 166.033 166.278 166.323C165.928 166.613 165.666 167.003 165.492 167.493C165.321 167.979 165.236 168.522 165.236 169.123C165.236 169.719 165.321 170.261 165.492 170.746C165.666 171.232 165.928 171.62 166.278 171.91C166.632 172.195 167.075 172.338 167.607 172.338ZM180.521 169.871V164.182H182.835V174H180.591V172.255H180.489C180.267 172.805 179.903 173.254 179.396 173.604C178.893 173.953 178.273 174.128 177.536 174.128C176.892 174.128 176.324 173.985 175.829 173.7C175.339 173.41 174.956 172.99 174.679 172.44C174.402 171.886 174.263 171.217 174.263 170.433V164.182H176.577V170.075C176.577 170.697 176.748 171.192 177.088 171.558C177.429 171.925 177.877 172.108 178.431 172.108C178.772 172.108 179.102 172.025 179.422 171.859C179.741 171.692 180.003 171.445 180.208 171.117C180.417 170.785 180.521 170.369 180.521 169.871ZM187.426 170.152V169.986C187.43 169.214 187.503 168.601 187.643 168.145C187.788 167.689 187.993 167.322 188.257 167.045C188.521 166.764 188.843 166.506 189.222 166.272C189.482 166.11 189.714 165.933 189.919 165.741C190.128 165.545 190.292 165.328 190.411 165.089C190.53 164.847 190.59 164.576 190.59 164.278C190.59 163.941 190.511 163.649 190.354 163.402C190.196 163.155 189.983 162.963 189.714 162.827C189.45 162.69 189.154 162.622 188.826 162.622C188.523 162.622 188.236 162.688 187.963 162.82C187.694 162.948 187.471 163.144 187.292 163.408C187.117 163.668 187.019 163.999 186.998 164.399H184.722C184.743 163.589 184.939 162.912 185.31 162.366C185.685 161.821 186.18 161.412 186.793 161.139C187.411 160.866 188.093 160.73 188.839 160.73C189.653 160.73 190.368 160.873 190.986 161.158C191.608 161.444 192.092 161.851 192.437 162.379C192.787 162.903 192.961 163.526 192.961 164.246C192.961 164.732 192.883 165.166 192.725 165.55C192.572 165.933 192.352 166.274 192.067 166.572C191.781 166.871 191.442 167.137 191.05 167.371C190.705 167.585 190.422 167.806 190.2 168.036C189.983 168.266 189.821 168.537 189.714 168.848C189.612 169.155 189.559 169.534 189.555 169.986V170.152H187.426ZM188.538 174.141C188.155 174.141 187.824 174.004 187.547 173.732C187.27 173.459 187.132 173.126 187.132 172.734C187.132 172.351 187.27 172.023 187.547 171.75C187.824 171.477 188.155 171.341 188.538 171.341C188.917 171.341 189.246 171.477 189.523 171.75C189.804 172.023 189.944 172.351 189.944 172.734C189.944 172.994 189.878 173.231 189.746 173.444C189.618 173.657 189.448 173.827 189.235 173.955C189.026 174.079 188.794 174.141 188.538 174.141Z" fill="#323A46"/>
<rect x="0.5" y="82.5" width="279" height="31" rx="3.5" fill="white"/>
<rect x="0.5" y="82.5" width="279" height="31" rx="3.5" stroke="#D0D5DD"/>
<rect x="0.5" y="194.5" width="279" height="31" rx="3.5" fill="white"/>
<rect x="0.5" y="194.5" width="279" height="31" rx="3.5" stroke="#D0D5DD"/>
</svg>
