<svg width="14" height="12" viewBox="0 0 14 12" fill="none" xmlns="http://www.w3.org/2000/svg">
<path d="M5.00016 0C3.15921 0 1.66683 1.49238 1.66683 3.33333C1.66683 5.17428 3.15921 6.66667 5.00016 6.66667C6.84111 6.66667 8.3335 5.17428 8.3335 3.33333C8.3335 1.49238 6.84111 0 5.00016 0ZM3.00016 3.33333C3.00016 2.22876 3.89559 1.33333 5.00016 1.33333C6.10473 1.33333 7.00016 2.22876 7.00016 3.33333C7.00016 4.4379 6.10473 5.33333 5.00016 5.33333C3.89559 5.33333 3.00016 4.4379 3.00016 3.33333Z" fill="#7C7EF3"/>
<path d="M10.2724 3.47885C10.0849 3.38323 9.87736 3.33337 9.66683 3.33337V2.00004C10.0879 2.00004 10.503 2.09971 10.8781 2.29097C10.9194 2.31203 10.9601 2.33414 11.0002 2.35727C11.3238 2.54409 11.605 2.79713 11.825 3.10037C12.0723 3.44115 12.2355 3.83565 12.301 4.25158C12.3665 4.66751 12.3327 5.09305 12.2021 5.49337C12.0716 5.89369 11.8481 6.25741 11.55 6.55475C11.2518 6.8521 10.8875 7.07462 10.4869 7.20411C10.1304 7.31933 9.75405 7.35797 9.38253 7.31814C9.33654 7.3132 9.29063 7.30707 9.24484 7.29973C8.82937 7.23315 8.43555 7.06919 8.09558 6.82126L8.09488 6.82076L8.88086 5.74371C9.05092 5.86781 9.24797 5.94985 9.45584 5.98316C9.66372 6.01648 9.87652 6.00009 10.0768 5.93535C10.2772 5.87061 10.4593 5.75935 10.6084 5.61068C10.7574 5.46201 10.8692 5.28016 10.9344 5.08001C10.9997 4.87985 11.0166 4.66709 10.9839 4.45913C10.9511 4.25117 10.8696 4.05393 10.7459 3.88354C10.6222 3.71316 10.46 3.57448 10.2724 3.47885Z" fill="#7C7EF3"/>
<path d="M12.3322 12C12.3322 11.65 12.2633 11.3034 12.1293 10.98C11.9954 10.6566 11.7991 10.3628 11.5516 10.1153C11.304 9.86777 11.0102 9.67144 10.6868 9.53749C10.3635 9.40354 10.0169 9.3346 9.66683 9.3346V8C10.1215 8 10.5724 8.07753 11.0002 8.22876C11.0665 8.25223 11.1324 8.27748 11.1976 8.30448C11.6829 8.5055 12.1238 8.80014 12.4953 9.17157C12.8667 9.54301 13.1613 9.98396 13.3623 10.4693C13.3894 10.5345 13.4146 10.6003 13.4381 10.6667C13.5893 11.0944 13.6668 11.5453 13.6668 12H12.3322Z" fill="#7C7EF3"/>
<path d="M9.66683 12H8.3335C8.3335 10.1591 6.84111 8.66667 5.00016 8.66667C3.15921 8.66667 1.66683 10.1591 1.66683 12H0.333496C0.333496 9.42267 2.42283 7.33333 5.00016 7.33333C7.57749 7.33333 9.66683 9.42267 9.66683 12Z" fill="#7C7EF3"/>
</svg>
