<svg width="648" height="648" viewBox="0 0 648 648" fill="none" xmlns="http://www.w3.org/2000/svg">
<path d="M209.213 291.174C168.233 449.702 149.9 589.896 239.409 589.896C334.31 589.896 324.604 449.702 324.604 287.938C324.604 126.175 328.918 0 280.389 0C227.546 0 249.114 136.959 209.213 291.174Z" fill="#FFC95C"/>
<path d="M210.291 488.526C313.82 488.526 317.055 437.84 317.055 277.155C317.055 152.059 320.29 46.3733 296.565 6.47168C332.153 33.4322 326.761 148.823 326.761 289.018C326.761 449.703 364.505 590.976 260.977 590.976C238.33 589.898 194.115 488.526 210.291 488.526Z" fill="#EBA352"/>
<path d="M366.664 0C317.057 0 321.37 128.332 321.37 289.017C321.37 449.702 312.743 590.975 406.566 590.975C496.075 590.975 477.741 449.702 436.761 292.252C397.938 136.96 419.507 0 366.664 0Z" fill="#FFC95C"/>
<path d="M386.075 589.896C282.546 589.896 320.291 448.623 320.291 287.938C320.291 147.744 315.977 32.3526 350.487 5.39209C326.762 45.2937 329.997 150.979 329.997 276.076C329.997 436.761 332.154 487.446 436.761 487.446C452.937 488.525 408.722 589.896 386.075 589.896Z" fill="#EBA352"/>
<path d="M119.706 492.838L201.666 636.268L294.41 587.739L183.333 409.8C183.333 409.8 155.294 478.819 119.706 492.838Z" fill="#FFC95C"/>
<path d="M203.82 390.389C193.035 407.644 188.722 486.368 138.036 506.858L197.349 627.642C197.349 627.642 263.133 611.465 289.015 595.289C361.269 551.074 279.309 498.231 321.368 400.095C345.093 345.095 301.956 215.685 250.192 215.685C198.427 215.685 222.153 290.096 217.839 309.507C211.369 332.154 213.525 361.271 203.82 390.389Z" fill="#FFDD67"/>
<path d="M285.783 586.663C358.037 542.447 268.528 489.605 310.586 392.547C328.92 349.41 305.194 257.744 269.606 222.156C311.665 249.117 344.017 350.488 322.449 400.096C279.312 497.154 370.978 548.918 296.567 594.212C291.175 597.447 250.195 615.78 202.744 636.27L195.195 622.251C246.96 607.153 281.469 588.82 285.783 586.663Z" fill="#EBA352"/>
<path d="M463.723 409.8L352.646 587.739L445.39 636.268L527.35 493.917C491.762 478.819 463.723 409.8 463.723 409.8Z" fill="#FFC95C"/>
<path d="M430.291 308.427C424.899 289.016 449.703 214.604 397.939 214.604C345.096 215.683 301.959 345.093 325.685 400.093C367.743 498.229 285.783 551.072 358.037 595.287C383.919 611.464 449.703 627.64 449.703 627.64L509.016 506.857C458.33 485.288 454.017 407.642 443.232 390.387C433.527 361.27 435.683 332.152 430.291 308.427Z" fill="#FFDD67"/>
<path d="M451.86 622.251L445.39 636.27C397.939 615.78 356.959 597.447 351.567 594.212C277.156 547.839 368.822 497.154 325.685 400.096C304.117 350.488 336.469 248.038 378.528 222.156C341.861 257.744 318.136 348.332 337.548 392.547C379.606 490.683 290.097 542.447 362.351 586.663C365.587 588.82 400.096 607.153 451.86 622.251Z" fill="#EBA352"/>
<path d="M0 574.798V647.052H239.41C266.37 595.288 114.313 478.818 114.313 478.818L0 574.798ZM532.74 478.818C532.74 478.818 380.683 595.288 407.643 647.052H647.053V574.798L532.74 478.818Z" fill="#47B892"/>
</svg>
