<svg width="96" height="75" viewBox="0 0 96 75" fill="none" xmlns="http://www.w3.org/2000/svg">
<path fill-rule="evenodd" clip-rule="evenodd" d="M74.7071 20.1812H75.0446C77.6997 20.1816 80.3286 20.7059 82.7807 21.7241C85.2328 22.7422 87.4599 24.2341 89.3344 26.1144C93.1257 29.9145 95.2549 35.0632 95.2549 40.4312C95.2549 45.7991 93.1257 50.9479 89.3344 54.7479C87.4599 56.6282 85.2328 58.1202 82.7807 59.1383C80.3286 60.1564 77.6997 60.6807 75.0446 60.6812H61.5784V53.9312H75.0446C78.5206 53.7757 81.8027 52.2854 84.2074 49.7707C86.6122 47.256 87.9542 43.9106 87.9542 40.4312C87.9542 36.9517 86.6122 33.6064 84.2074 31.0916C81.8027 28.5769 78.5206 27.0867 75.0446 26.9312H68.8751L68.0449 21.1464C67.5383 17.5222 65.8628 14.1623 63.2727 11.5771C60.6826 8.9919 57.3196 7.32266 53.6944 6.82293C50.0671 6.32743 46.3774 7.03569 43.1913 8.83904C40.0053 10.6424 37.4989 13.4412 36.0566 16.8062L33.8089 21.9497L28.3481 20.6739C27.0999 20.3643 25.8203 20.199 24.5344 20.1812C20.0659 20.1812 15.7796 21.9564 12.6274 25.1222C10.2782 27.4843 8.67973 30.4883 8.03302 33.7563C7.38632 37.0244 7.7202 40.4107 8.99271 43.4896C10.2652 46.5684 12.4195 49.2023 15.1848 51.0602C17.9501 52.918 21.203 53.9169 24.5344 53.9312H41.3689V60.6812H24.5344C21.191 60.7113 17.8796 60.0285 14.8209 58.6783C11.7621 57.3282 9.02616 55.3417 6.79538 52.8512C3.42245 49.095 1.34066 44.3576 0.854806 39.3327C0.368955 34.3078 1.50457 29.2593 4.09538 24.9264C5.81134 22.0558 8.11772 19.5826 10.8617 17.6707C13.6057 15.7587 16.7246 14.4517 20.0119 13.8362C23.2924 13.2287 26.6741 13.3164 29.9209 14.1129C31.9667 9.42853 35.4823 5.53773 39.936 3.02896C44.3897 0.5202 49.5391 -0.470067 54.6056 0.207934C59.6742 0.893809 64.3803 3.21576 68.0085 6.82087C71.6368 10.426 73.9888 15.1171 74.7071 20.1812ZM63.4819 46.1889L54.6124 37.3262V74.0192H47.9029V37.5692L39.2764 46.1957L34.5041 41.4167L48.9896 26.9312H53.7686L68.2541 41.4167L63.4819 46.1889V46.1889Z" fill="#7678E6"/>
</svg>
