<svg width="14" height="13" viewBox="0 0 14 13" fill="none" xmlns="http://www.w3.org/2000/svg">
<path d="M5.21868 5.72454L5.24992 5.77867L5.21867 5.72454L1.3188 7.97613L1.31879 7.97613C1.25815 8.01116 1.18998 8.03111 1.12002 8.03431C1.05006 8.03751 0.980359 8.02387 0.916768 7.99454C0.853177 7.9652 0.797559 7.92102 0.754591 7.86572C0.711622 7.81042 0.682559 7.74561 0.669845 7.67674L0.669843 7.67673C0.391123 6.16842 0.659313 4.61014 1.42624 3.28179C2.19317 1.95344 3.40859 0.942046 4.85419 0.429274C4.92016 0.405974 4.99075 0.398833 5.06005 0.408451C5.12937 0.418072 5.19537 0.444182 5.25252 0.484591C5.30966 0.524999 5.35627 0.578526 5.38845 0.640678C5.42062 0.70283 5.43742 0.771794 5.43742 0.841775V5.34568C5.43742 5.42247 5.41721 5.49791 5.37881 5.56442C5.34041 5.63092 5.28518 5.68614 5.21868 5.72454ZM4.53117 5.11111L4.56242 5.09307V5.05699V1.59971H4.49992L4.47144 1.54408C3.55892 2.01138 2.79292 2.72124 2.25767 3.59563C1.72241 4.47002 1.43863 5.47507 1.43751 6.50028V6.50036C1.43753 6.59636 1.43998 6.69223 1.44486 6.78795L1.45006 6.88997L1.53853 6.8389L4.53117 5.11111Z" fill="#A0ABBB" stroke="#A0ABBB" stroke-width="0.125"/>
<path d="M12.6418 3.27493C12.6376 3.2666 12.6338 3.25818 12.6291 3.25C12.6227 3.23895 12.6156 3.22861 12.6085 3.21826C12.0355 2.23927 11.2164 1.42718 10.2325 0.862622C9.24866 0.298066 8.13422 0.000683423 6.99987 0C6.86726 1.32606e-06 6.74009 0.0526801 6.64632 0.146448C6.55255 0.240216 6.49987 0.367392 6.49987 0.5V6.21133L1.5537 9.06699C1.43887 9.13329 1.35507 9.2425 1.32075 9.37059C1.28643 9.49868 1.30439 9.63516 1.37069 9.75C1.3728 9.75363 1.37543 9.75674 1.37762 9.76031C1.38314 9.77154 1.38863 9.78274 1.39507 9.7937C2.11804 11.0235 3.22549 11.9814 4.54667 12.5196C5.86786 13.0578 7.3294 13.1465 8.70595 12.7719C10.0825 12.3974 11.2976 11.5804 12.164 10.447C13.0303 9.31354 13.4997 7.9266 13.4999 6.5C13.5013 5.36838 13.2054 4.25625 12.6418 3.27493V3.27493Z" fill="#A0ABBB"/>
</svg>
