<svg width="15" height="16" viewBox="0 0 15 16" fill="none" xmlns="http://www.w3.org/2000/svg">
<path d="M12.4167 7.33301H3.08333C2.34695 7.33301 1.75 7.92996 1.75 8.66634V13.333C1.75 14.0694 2.34695 14.6663 3.08333 14.6663H12.4167C13.153 14.6663 13.75 14.0694 13.75 13.333V8.66634C13.75 7.92996 13.153 7.33301 12.4167 7.33301Z" stroke="#A0ABBB" stroke-width="2" stroke-linecap="round" stroke-linejoin="round"/>
<path d="M4.4165 7.33301V4.66634C4.4165 3.78229 4.76769 2.93444 5.39281 2.30932C6.01794 1.6842 6.86578 1.33301 7.74984 1.33301C8.63389 1.33301 9.48174 1.6842 10.1069 2.30932C10.732 2.93444 11.0832 3.78229 11.0832 4.66634V7.33301" stroke="#A0ABBB" stroke-width="2" stroke-linecap="round" stroke-linejoin="round"/>
</svg>
