<svg width="402" height="100" viewBox="0 0 402 100" fill="none" xmlns="http://www.w3.org/2000/svg">
<path d="M140.515 81.9479C140.13 81.9509 139.748 81.8773 139.392 81.7314C139.036 81.5854 138.713 81.37 138.441 81.0977C138.169 80.8255 137.953 80.5017 137.808 80.1454C137.662 79.7891 137.588 79.4073 137.591 79.0223V31.7224C137.574 31.3336 137.638 30.9456 137.779 30.5829C137.92 30.2202 138.135 29.8908 138.409 29.6157C138.684 29.3405 139.014 29.1256 139.376 28.9846C139.738 28.8436 140.126 28.7796 140.515 28.7967H171.998C172.774 28.7575 173.534 29.028 174.11 29.5488C174.383 29.819 174.597 30.143 174.738 30.5004C174.879 30.8578 174.945 31.2407 174.93 31.6246C174.937 31.9875 174.867 32.3477 174.726 32.682C174.585 33.0164 174.375 33.3172 174.11 33.5651C173.534 34.0859 172.774 34.3564 171.998 34.3172H143.438V52.3677H164.182C164.57 52.353 164.956 52.4175 165.318 52.5571C165.68 52.6968 166.009 52.9087 166.286 53.1799C166.551 53.4358 166.761 53.7434 166.902 54.0837C167.043 54.424 167.112 54.7897 167.106 55.158C167.116 55.5358 167.049 55.9117 166.908 56.2624C166.767 56.6131 166.556 56.9309 166.286 57.1962C166.011 57.4699 165.681 57.6839 165.319 57.8249C164.957 57.966 164.57 58.031 164.182 58.016H143.438V78.9771C143.446 79.3595 143.378 79.7397 143.239 80.0959C143.1 80.4521 142.892 80.7773 142.627 81.0529C142.357 81.3423 142.03 81.5716 141.666 81.7258C141.302 81.88 140.91 81.9557 140.515 81.9479V81.9479Z" fill="#231F20"/>
<path d="M187.233 81.9479C186.848 81.9509 186.467 81.8773 186.111 81.7313C185.754 81.5853 185.431 81.37 185.159 81.0977C184.887 80.8254 184.672 80.5017 184.526 80.1454C184.38 79.7891 184.306 79.4073 184.309 79.0222V31.7224C184.296 31.3314 184.364 30.942 184.511 30.5793C184.657 30.2166 184.878 29.8886 185.159 29.6165C185.432 29.3486 185.757 29.1381 186.113 28.9974C186.469 28.8566 186.85 28.7884 187.233 28.7967C187.627 28.7831 188.019 28.8486 188.387 28.9895C188.755 29.1303 189.091 29.3435 189.375 29.6165C189.657 29.8877 189.878 30.2156 190.025 30.5785C190.171 30.9414 190.239 31.3313 190.224 31.7224V79.0222C190.232 79.408 190.161 79.7912 190.015 80.1482C189.869 80.5053 189.651 80.8285 189.375 81.098C189.095 81.3782 188.76 81.5981 188.392 81.7443C188.023 81.8904 187.629 81.9597 187.233 81.9479V81.9479Z" fill="#231F20"/>
<path d="M206.752 81.9476C206.367 81.9506 205.986 81.877 205.63 81.731C205.274 81.585 204.95 81.3696 204.678 81.0974C204.406 80.8251 204.191 80.5014 204.045 80.1451C203.899 79.7887 203.825 79.4069 203.828 79.0219V31.722C203.815 31.3311 203.884 30.9417 204.03 30.579C204.176 30.2163 204.397 29.8883 204.678 29.6161C204.951 29.3479 205.276 29.1372 205.632 28.9964C205.988 28.8557 206.369 28.7876 206.752 28.7963H219.333C222.433 28.7368 225.497 29.4639 228.24 30.9098C230.762 32.2538 232.868 34.2647 234.327 36.7235C235.838 39.3375 236.602 42.3163 236.537 45.3351C236.602 48.193 235.861 51.0114 234.399 53.4671C232.937 55.9227 230.812 57.9163 228.27 59.219C225.513 60.6192 222.454 61.3192 219.363 61.2572H209.721V79.0219C209.727 79.402 209.657 79.7795 209.515 80.1321C209.373 80.4847 209.162 80.8054 208.894 81.0751C208.616 81.3594 208.282 81.5835 207.913 81.7336C207.545 81.8836 207.15 81.9565 206.752 81.9476V81.9476ZM209.758 55.6766H219.348C221.397 55.7141 223.426 55.2602 225.263 54.3529C226.929 53.5156 228.339 52.2452 229.344 50.6751C230.354 49.0794 230.877 47.2236 230.848 45.3351C230.892 43.3264 230.371 41.3457 229.344 39.6191C228.355 37.9939 226.945 36.6661 225.263 35.7759C223.441 34.8192 221.406 34.338 219.348 34.377H209.721L209.758 55.6766ZM235.124 81.9476C234.598 81.9644 234.077 81.8342 233.621 81.5715C233.19 81.2915 232.838 80.9057 232.599 80.4509L219.822 60.0313L225.602 58.4669L237.439 77.3898C237.78 77.8336 237.996 78.3614 238.062 78.9175C238.128 79.4735 238.043 80.0371 237.815 80.5487C237.552 81.0232 237.155 81.4094 236.674 81.6584C236.192 81.9073 235.648 82.008 235.109 81.9476H235.124Z" fill="#231F20"/>
<path d="M262.722 82.6252C259.949 82.6469 257.191 82.2098 254.56 81.3316C252.152 80.5433 249.913 79.3084 247.961 77.6914C246.171 76.2141 244.751 74.3393 243.812 72.216C243.614 71.873 243.51 71.484 243.51 71.0879C243.51 70.6918 243.614 70.3027 243.812 69.9597C244.023 69.6103 244.304 69.3087 244.638 69.0743C244.972 68.8399 245.351 68.6778 245.751 68.5984C246.453 68.414 247.198 68.5141 247.826 68.8767C248.484 69.2517 249.009 69.822 249.329 70.5088C250.043 71.8251 251.029 72.9738 252.223 73.8782C253.607 74.9436 255.173 75.7489 256.845 76.2548C258.751 76.8412 260.736 77.1279 262.73 77.1047C264.867 77.1391 266.99 76.7586 268.983 75.9841C270.734 75.3161 272.264 74.1727 273.402 72.6823C274.519 71.1423 275.093 69.2744 275.033 67.3725C275.035 66.0764 274.769 64.7939 274.252 63.6056C273.734 62.4174 272.977 61.3492 272.027 60.4682C270.022 58.4977 266.848 57.2617 262.504 56.7603C257.118 56.1737 252.891 54.5291 249.825 51.8265C248.367 50.6099 247.199 49.0836 246.405 47.3585C245.61 45.6334 245.21 43.7529 245.233 41.8536C245.174 39.2275 245.988 36.6562 247.548 34.5431C249.18 32.4055 251.366 30.7564 253.868 29.7748C256.768 28.6258 259.867 28.0609 262.985 28.1126C265.361 28.0736 267.724 28.4766 269.952 29.301C271.914 30.0362 273.732 31.1077 275.326 32.4673C276.801 33.737 278.069 35.2291 279.084 36.8897C279.337 37.2195 279.52 37.5984 279.619 38.0023C279.719 38.4062 279.734 38.8263 279.663 39.2363C279.589 39.5986 279.439 39.9411 279.223 40.2407C279.006 40.5404 278.728 40.7902 278.408 40.9736C278.07 41.1701 277.694 41.2925 277.305 41.3327C276.917 41.3729 276.524 41.33 276.153 41.2068C275.771 41.0952 275.414 40.9088 275.105 40.6583C274.795 40.4078 274.538 40.0983 274.349 39.7477C273.614 38.6066 272.735 37.5651 271.734 36.649C270.662 35.6918 269.413 34.9534 268.058 34.4754C266.405 33.913 264.671 33.6259 262.925 33.6256C259.383 33.6256 256.514 34.3401 254.319 35.7691C253.249 36.4522 252.38 37.4077 251.8 38.5376C251.221 39.6675 250.951 40.9313 251.02 42.1995C251.023 43.651 251.423 45.0738 252.177 46.3136C253.153 47.7786 254.535 48.9263 256.153 49.6153C258.633 50.6857 261.261 51.373 263.947 51.6535C269.519 52.3856 273.723 54.0878 276.559 56.7603C279.395 59.4328 280.813 62.9426 280.813 67.2898C280.858 69.5722 280.369 71.8336 279.385 73.8932C278.455 75.7657 277.117 77.4055 275.469 78.6917C273.744 80.0226 271.783 81.0152 269.689 81.6174C267.428 82.2892 265.081 82.6287 262.722 82.6252V82.6252Z" fill="#231F20"/>
<path d="M286.044 34.1747C285.682 34.1911 285.32 34.1328 284.981 34.0034C284.642 33.874 284.334 33.6763 284.075 33.4226C283.825 33.1746 283.629 32.8774 283.5 32.55C283.37 32.2225 283.31 31.8717 283.323 31.5198C283.302 31.1568 283.359 30.7936 283.488 30.4539C283.617 30.1141 283.817 29.8056 284.074 29.5486C284.331 29.2915 284.639 29.0916 284.979 28.9622C285.318 28.8327 285.681 28.7764 286.044 28.7972H323.247C323.61 28.7764 323.973 28.8327 324.312 28.9622C324.652 29.0916 324.96 29.2915 325.217 29.5486C325.474 29.8056 325.673 30.1141 325.803 30.4539C325.932 30.7936 325.988 31.1568 325.968 31.5198C325.979 31.8715 325.918 32.2217 325.789 32.5489C325.659 32.8762 325.465 33.1735 325.216 33.4226C324.957 33.6763 324.648 33.874 324.31 34.0034C323.971 34.1328 323.609 34.1911 323.247 34.1747H286.044ZM304.608 81.9484C304.223 81.9514 303.842 81.8778 303.485 81.7318C303.129 81.5858 302.806 81.3705 302.534 81.0982C302.262 80.8259 302.046 80.5022 301.901 80.1459C301.755 79.7895 301.681 79.4078 301.684 79.0227V28.7972H307.599V79.0227C307.604 79.4047 307.531 79.7836 307.385 80.1366C307.239 80.4895 307.023 80.8091 306.75 81.076C306.471 81.3602 306.138 81.5843 305.769 81.7344C305.401 81.8844 305.006 81.9573 304.608 81.9484V81.9484Z" fill="#231F20"/>
<path d="M346.027 28.7293C348.906 28.6776 351.746 29.3941 354.257 30.8051C356.624 32.157 358.583 34.1208 359.931 36.491C361.289 39.0369 362 41.8783 362 44.7641C362 47.65 361.289 50.4914 359.931 53.0373C358.591 55.421 356.63 57.3964 354.257 58.7533C351.727 60.116 348.9 60.8292 346.027 60.8292C343.154 60.8292 340.327 60.116 337.797 58.7533C335.42 57.399 333.456 55.4231 332.115 53.0373C330.757 50.4914 330.047 47.65 330.047 44.7641C330.047 41.8783 330.757 39.0369 332.115 36.491C333.464 34.1187 335.427 32.1544 337.797 30.8051C340.307 29.3931 343.148 28.6765 346.027 28.7293V28.7293ZM346.095 34.0391C344.202 34.0003 342.333 34.4704 340.683 35.4004C339.123 36.3058 337.842 37.6222 336.978 39.2061C336.055 40.9193 335.587 42.8407 335.618 44.7867C335.582 46.7237 336.051 48.6366 336.978 50.3372C337.854 51.9139 339.133 53.2297 340.683 54.1504C342.327 55.0972 344.198 55.5782 346.095 55.5418C347.929 55.5787 349.739 55.1134 351.328 54.1962C352.918 53.279 354.227 51.9446 355.114 50.3372C356.044 48.638 356.513 46.7241 356.474 44.7867C356.509 42.8402 356.041 40.9177 355.114 39.2061C354.25 37.6222 352.968 36.3058 351.408 35.4004C349.79 34.4798 347.956 34.0097 346.095 34.0391V34.0391ZM359.969 53.0899L343.502 80.2484C343.246 80.7333 342.865 81.1405 342.398 81.4276C341.931 81.7147 341.396 81.8711 340.849 81.8805C340.131 81.9008 339.43 81.6574 338.879 81.1961C338.329 80.7471 337.962 80.1118 337.849 79.4104C337.735 78.7091 337.883 77.9904 338.263 77.3904L349.011 59.8288L359.969 53.0899Z" fill="#009CE0"/>
<path d="M385.876 81.947C382.685 82.0087 379.588 80.8647 377.203 78.743C374.773 76.6121 372.936 73.561 371.694 69.5899C370.355 64.9479 369.724 60.1303 369.822 55.2999C369.729 50.492 370.36 45.6975 371.694 41.0776C372.941 37.0664 374.778 34.0028 377.203 31.8869C379.636 29.8117 382.728 28.6719 385.925 28.6719C389.122 28.6719 392.214 29.8117 394.647 31.8869C397.052 34.0379 398.876 37.1115 400.119 41.1077C401.449 45.705 402.08 50.4768 401.99 55.2623C402.088 60.0804 401.457 64.8856 400.119 69.5147C398.876 73.4858 397.052 76.5494 394.647 78.7054C392.244 80.866 389.106 82.0256 385.876 81.947V81.947ZM385.876 76.0279C386.982 76.055 388.079 75.8261 389.081 75.359C390.084 74.892 390.965 74.1994 391.656 73.3354C393.329 71.1645 394.481 68.6374 395.023 65.9497C395.809 62.4453 396.185 58.8612 396.143 55.2698C396.184 51.7108 395.808 48.1592 395.023 44.6877C394.464 41.996 393.294 39.469 391.603 37.3021C390.919 36.4381 390.045 35.7432 389.049 35.2711C388.054 34.799 386.963 34.5623 385.861 34.5794C384.777 34.5624 383.703 34.7966 382.724 35.2637C381.744 35.7307 380.886 36.4181 380.217 37.272C378.54 39.443 377.377 41.9653 376.812 44.6501C376.007 48.1314 375.621 51.6967 375.662 55.2698C375.619 58.8911 376.01 62.5044 376.827 66.0325C377.387 68.7121 378.551 71.2281 380.232 73.388C380.909 74.2293 381.77 74.9044 382.749 75.3619C383.727 75.8195 384.797 76.0472 385.876 76.0279V76.0279Z" fill="#009CE0"/>
<path d="M79.9825 37.3242H53.6245V17.9199H87.378L79.9825 37.3242Z" fill="#006182"/>
<path d="M62.7187 58.031H53.6245V42.0488H70.1142L62.7187 58.031Z" fill="#006182"/>
<path d="M37.0897 17.8984C33.7527 23.5894 28.3338 27.1719 20.833 28.646V37.1448C24.1857 36.421 27.435 35.2815 30.5059 33.7528V82.1357H48.4687V17.8984H37.0897Z" fill="#006182"/>
<path d="M91.249 35.8437C94.5543 45.4831 94.3894 55.9753 90.7828 65.5059C87.1763 75.0365 80.3548 83.0062 71.4982 88.0369C62.6415 93.0676 52.3064 94.8429 42.2803 93.0559C32.2541 91.2688 23.1672 86.0317 16.591 78.2502C10.0148 70.4688 6.36273 60.6322 6.26643 50.4416C6.17012 40.251 9.63559 30.3471 16.0635 22.4425C22.4915 14.538 31.4778 9.12985 41.4684 7.15333C51.459 5.17682 61.8258 6.75621 70.7759 11.6184C71.6327 9.92614 72.7075 7.80521 73.6695 5.98511C63.3724 0.431833 51.4547 -1.33018 39.9927 1.00608C28.5308 3.34234 18.2512 9.62876 10.9451 18.7701C3.63899 27.9114 -0.230571 39.3281 0.0106317 51.031C0.251834 62.734 4.58851 73.9813 12.2651 82.8134C19.9416 91.6454 30.4715 97.5024 42.0199 99.3637C53.5684 101.225 65.4034 98.9728 75.4629 92.9994C85.5225 87.026 93.1689 77.71 97.0699 66.6747C100.971 55.6394 100.879 43.5842 96.8107 32.6096L91.249 35.8437Z" fill="#009CE0"/>
</svg>
