<svg width="152" height="152" viewBox="0 0 152 152" fill="none" xmlns="http://www.w3.org/2000/svg">
<circle cx="76" cy="76" r="76" fill="#DF742C"/>
<path d="M66.3125 63.392C66.0398 60.9716 64.9148 59.0966 62.9375 57.767C60.9602 56.4205 58.4716 55.7472 55.4716 55.7472C53.3239 55.7472 51.4659 56.0881 49.8977 56.7699C48.3295 57.4347 47.1108 58.3551 46.2415 59.5312C45.3892 60.6903 44.9631 62.0114 44.9631 63.4943C44.9631 64.7386 45.2528 65.8125 45.8324 66.7159C46.429 67.6193 47.2045 68.3778 48.1591 68.9915C49.1307 69.5881 50.1705 70.0909 51.2784 70.5C52.3864 70.892 53.4517 71.2159 54.4744 71.4716L59.5881 72.8011C61.2585 73.2102 62.9716 73.7642 64.7273 74.4631C66.483 75.1619 68.1108 76.0824 69.6108 77.2244C71.1108 78.3665 72.321 79.7812 73.2415 81.4688C74.179 83.1562 74.6477 85.1761 74.6477 87.5284C74.6477 90.4943 73.8807 93.1278 72.3466 95.429C70.8295 97.7301 68.6222 99.5455 65.7244 100.875C62.8438 102.205 59.358 102.869 55.267 102.869C51.3466 102.869 47.9545 102.247 45.0909 101.003C42.2273 99.7585 39.9858 97.9943 38.3665 95.7102C36.7472 93.4091 35.8523 90.6818 35.6818 87.5284H43.608C43.7614 89.4205 44.375 90.9972 45.4489 92.2585C46.5398 93.5028 47.929 94.4318 49.6165 95.0455C51.321 95.642 53.1875 95.9403 55.2159 95.9403C57.4489 95.9403 59.4347 95.5909 61.1733 94.892C62.929 94.1761 64.3097 93.1875 65.3153 91.9261C66.321 90.6477 66.8239 89.1562 66.8239 87.4517C66.8239 85.9006 66.3807 84.6307 65.4943 83.642C64.625 82.6534 63.4403 81.8352 61.9403 81.1875C60.4574 80.5398 58.7784 79.9688 56.9034 79.4744L50.7159 77.7869C46.5227 76.6449 43.1989 74.9659 40.7443 72.75C38.3068 70.5341 37.0881 67.6023 37.0881 63.9545C37.0881 60.9375 37.9063 58.304 39.5426 56.054C41.179 53.804 43.3949 52.0568 46.1903 50.8125C48.9858 49.5511 52.1392 48.9205 55.6506 48.9205C59.196 48.9205 62.3239 49.5426 65.0341 50.7869C67.7614 52.0312 69.9091 53.7443 71.4773 55.9261C73.0455 58.0909 73.8636 60.5795 73.9318 63.392H66.3125ZM80.4929 102V96.2727L98.2116 77.9148C100.104 75.9205 101.663 74.1733 102.891 72.6733C104.135 71.1562 105.064 69.7159 105.678 68.3523C106.291 66.9886 106.598 65.5398 106.598 64.0057C106.598 62.267 106.189 60.767 105.371 59.5057C104.553 58.2273 103.436 57.2472 102.021 56.5653C100.607 55.8665 99.0128 55.517 97.24 55.517C95.365 55.517 93.7287 55.9006 92.3309 56.6676C90.9332 57.4347 89.8593 58.517 89.1093 59.9148C88.3593 61.3125 87.9843 62.9489 87.9843 64.8239H80.4417C80.4417 61.6364 81.1747 58.8494 82.6406 56.4631C84.1065 54.0767 86.1179 52.2273 88.6747 50.9148C91.2315 49.5852 94.1378 48.9205 97.3934 48.9205C100.683 48.9205 103.581 49.5767 106.087 50.8892C108.609 52.1847 110.578 53.9574 111.993 56.2074C113.408 58.4403 114.115 60.9631 114.115 63.7756C114.115 65.7188 113.749 67.6193 113.016 69.4773C112.3 71.3352 111.047 73.4062 109.257 75.6903C107.467 77.9574 104.979 80.7102 101.791 83.9489L91.3849 94.8409V95.2244H114.959V102H80.4929Z" fill="white"/>
</svg>
