<svg width="152" height="152" viewBox="0 0 152 152" fill="none" xmlns="http://www.w3.org/2000/svg">
<circle cx="76" cy="76" r="76" fill="#B696C5"/>
<path d="M65.3125 63.392C65.0398 60.9716 63.9148 59.0966 61.9375 57.767C59.9602 56.4205 57.4716 55.7472 54.4716 55.7472C52.3239 55.7472 50.4659 56.0881 48.8977 56.7699C47.3295 57.4347 46.1108 58.3551 45.2415 59.5312C44.3892 60.6903 43.9631 62.0114 43.9631 63.4943C43.9631 64.7386 44.2528 65.8125 44.8324 66.7159C45.429 67.6193 46.2045 68.3778 47.1591 68.9915C48.1307 69.5881 49.1705 70.0909 50.2784 70.5C51.3864 70.892 52.4517 71.2159 53.4744 71.4716L58.5881 72.8011C60.2585 73.2102 61.9716 73.7642 63.7273 74.4631C65.483 75.1619 67.1108 76.0824 68.6108 77.2244C70.1108 78.3665 71.321 79.7812 72.2415 81.4688C73.179 83.1562 73.6477 85.1761 73.6477 87.5284C73.6477 90.4943 72.8807 93.1278 71.3466 95.429C69.8295 97.7301 67.6222 99.5455 64.7244 100.875C61.8438 102.205 58.358 102.869 54.267 102.869C50.3466 102.869 46.9545 102.247 44.0909 101.003C41.2273 99.7585 38.9858 97.9943 37.3665 95.7102C35.7472 93.4091 34.8523 90.6818 34.6818 87.5284H42.608C42.7614 89.4205 43.375 90.9972 44.4489 92.2585C45.5398 93.5028 46.929 94.4318 48.6165 95.0455C50.321 95.642 52.1875 95.9403 54.2159 95.9403C56.4489 95.9403 58.4347 95.5909 60.1733 94.892C61.929 94.1761 63.3097 93.1875 64.3153 91.9261C65.321 90.6477 65.8239 89.1562 65.8239 87.4517C65.8239 85.9006 65.3807 84.6307 64.4943 83.642C63.625 82.6534 62.4403 81.8352 60.9403 81.1875C59.4574 80.5398 57.7784 79.9688 55.9034 79.4744L49.7159 77.7869C45.5227 76.6449 42.1989 74.9659 39.7443 72.75C37.3068 70.5341 36.0881 67.6023 36.0881 63.9545C36.0881 60.9375 36.9063 58.304 38.5426 56.054C40.179 53.804 42.3949 52.0568 45.1903 50.8125C47.9858 49.5511 51.1392 48.9205 54.6506 48.9205C58.196 48.9205 61.3239 49.5426 64.0341 50.7869C66.7614 52.0312 68.9091 53.7443 70.4773 55.9261C72.0455 58.0909 72.8636 60.5795 72.9318 63.392H65.3125ZM78.3934 91.7727V85.3807L101.021 49.6364H106.058V59.0455H102.862L86.6775 84.6648V85.0739H117.692V91.7727H78.3934ZM103.22 102V89.8295L103.271 86.9148V49.6364H110.763V102H103.22Z" fill="white"/>
</svg>
