<svg width="153" height="152" viewBox="0 0 153 152" fill="none" xmlns="http://www.w3.org/2000/svg">
<circle cx="76.5" cy="76" r="76" fill="#48BC93"/>
<path d="M35.6705 56.4375V49.6364H76.196V56.4375H59.858V102H51.983V56.4375H35.6705ZM81.5554 102V96.2727L99.2741 77.9148C101.166 75.9205 102.726 74.1733 103.953 72.6733C105.197 71.1562 106.126 69.7159 106.74 68.3523C107.354 66.9886 107.66 65.5398 107.66 64.0057C107.66 62.267 107.251 60.767 106.433 59.5057C105.615 58.2273 104.499 57.2472 103.084 56.5653C101.669 55.8665 100.075 55.517 98.3025 55.517C96.4275 55.517 94.7912 55.9006 93.3934 56.6676C91.9957 57.4347 90.9218 58.517 90.1718 59.9148C89.4218 61.3125 89.0468 62.9489 89.0468 64.8239H81.5042C81.5042 61.6364 82.2372 58.8494 83.7031 56.4631C85.169 54.0767 87.1804 52.2273 89.7372 50.9148C92.294 49.5852 95.2003 48.9205 98.4559 48.9205C101.746 48.9205 104.643 49.5767 107.149 50.8892C109.672 52.1847 111.641 53.9574 113.055 56.2074C114.47 58.4403 115.178 60.9631 115.178 63.7756C115.178 65.7188 114.811 67.6193 114.078 69.4773C113.362 71.3352 112.109 73.4062 110.32 75.6903C108.53 77.9574 106.041 80.7102 102.854 83.9489L92.4474 94.8409V95.2244H116.021V102H81.5554Z" fill="white"/>
</svg>
