<svg width="153" height="152" viewBox="0 0 153 152" fill="none" xmlns="http://www.w3.org/2000/svg">
<path d="M152.5 76C152.5 117.974 118.474 152 76.5 152C34.5264 152 0.5 117.974 0.5 76C0.5 34.0264 34.5264 0 76.5 0C118.474 0 152.5 34.0264 152.5 76Z" fill="#7C7FF3"/>
<path d="M34.6705 56.4375V49.6364H75.196V56.4375H58.858V102H50.983V56.4375H34.6705ZM98.7855 102.716C95.2741 102.716 92.1378 102.111 89.3764 100.901C86.6321 99.6903 84.4588 98.0114 82.8565 95.8636C81.2713 93.6989 80.419 91.1932 80.2997 88.3466H88.3281C88.4304 89.8977 88.9503 91.2443 89.8878 92.3864C90.8423 93.5114 92.0866 94.3807 93.6207 94.9943C95.1548 95.608 96.8593 95.9148 98.7343 95.9148C100.797 95.9148 102.621 95.5568 104.206 94.8409C105.808 94.125 107.061 93.1278 107.964 91.8494C108.868 90.554 109.32 89.0625 109.32 87.375C109.32 85.6193 108.868 84.0767 107.964 82.7472C107.078 81.4006 105.774 80.3437 104.053 79.5767C102.348 78.8097 100.285 78.4261 97.865 78.4261H93.4417V71.983H97.865C99.8082 71.983 101.513 71.6335 102.979 70.9347C104.462 70.2358 105.621 69.2642 106.456 68.0199C107.291 66.7585 107.709 65.2841 107.709 63.5966C107.709 61.9773 107.342 60.571 106.609 59.3778C105.893 58.1676 104.871 57.2216 103.541 56.5398C102.229 55.858 100.678 55.517 98.8878 55.517C97.1832 55.517 95.5895 55.8324 94.1065 56.4631C92.6406 57.0767 91.4474 57.9631 90.527 59.1222C89.6065 60.2642 89.1122 61.6364 89.044 63.2386H81.3991C81.4843 60.4091 82.3196 57.9205 83.9048 55.7727C85.5071 53.625 87.6207 51.946 90.2457 50.7358C92.8707 49.5256 95.7855 48.9205 98.99 48.9205C102.348 48.9205 105.246 49.5767 107.683 50.8892C110.138 52.1847 112.03 53.9148 113.359 56.0795C114.706 58.2443 115.371 60.6136 115.354 63.1875C115.371 66.1193 114.553 68.608 112.899 70.6534C111.263 72.6989 109.081 74.071 106.354 74.7699V75.179C109.831 75.7074 112.524 77.0881 114.433 79.321C116.359 81.554 117.314 84.3239 117.297 87.6307C117.314 90.5114 116.513 93.0938 114.893 95.3778C113.291 97.6619 111.101 99.4602 108.322 100.773C105.544 102.068 102.365 102.716 98.7855 102.716Z" fill="white"/>
</svg>
